<?xml version="1.0" encoding="utf-8" standalone="no"?>
<!DOCTYPE svg PUBLIC "-//W3C//DTD SVG 1.1//EN"
  "http://www.w3.org/Graphics/SVG/1.1/DTD/svg11.dtd">
<!-- Created with matplotlib (http://matplotlib.org/) -->
<svg height="432pt" version="1.1" viewBox="0 0 720 432" width="720pt" xmlns="http://www.w3.org/2000/svg" xmlns:xlink="http://www.w3.org/1999/xlink">
 <defs>
  <style type="text/css">
*{stroke-linecap:butt;stroke-linejoin:round;}
  </style>
 </defs>
 <g id="figure_1">
  <g id="patch_1">
   <path d="
M0 432
L720 432
L720 0
L0 0
z
" style="fill:#ffffff;"/>
  </g>
  <g id="axes_1">
   <g id="patch_2">
    <path d="
M90 378
L648 378
L648 43.2
L90 43.2
z
" style="fill:#ffffff;"/>
   </g>
   <g id="PathCollection_1">
    <defs>
     <path d="
M0 0.707107
C0.187527 0.707107 0.367398 0.632602 0.5 0.5
C0.632602 0.367398 0.707107 0.187527 0.707107 0
C0.707107 -0.187527 0.632602 -0.367398 0.5 -0.5
C0.367398 -0.632602 0.187527 -0.707107 0 -0.707107
C-0.187527 -0.707107 -0.367398 -0.632602 -0.5 -0.5
C-0.632602 -0.367398 -0.707107 -0.187527 -0.707107 0
C-0.707107 0.187527 -0.632602 0.367398 -0.5 0.5
C-0.367398 0.632602 -0.187527 0.707107 0 0.707107
z
" id="m8cf02c91c3"/>
    </defs>
    <g clip-path="url(#p468b818efe)">
     <use x="90.0" xlink:href="#m8cf02c91c3" y="210.599999994"/>
     <use x="91.0919765166" xlink:href="#m8cf02c91c3" y="210.599999994"/>
     <use x="92.1839530333" xlink:href="#m8cf02c91c3" y="210.599999994"/>
     <use x="93.2759295499" xlink:href="#m8cf02c91c3" y="210.599999994"/>
     <use x="94.3679060665" xlink:href="#m8cf02c91c3" y="210.599999994"/>
     <use x="95.4598825832" xlink:href="#m8cf02c91c3" y="210.599999994"/>
     <use x="96.5518590998" xlink:href="#m8cf02c91c3" y="210.599999994"/>
     <use x="97.6438356164" xlink:href="#m8cf02c91c3" y="210.599999994"/>
     <use x="98.7358121331" xlink:href="#m8cf02c91c3" y="210.599999994"/>
     <use x="99.8277886497" xlink:href="#m8cf02c91c3" y="210.599999994"/>
     <use x="100.919765166" xlink:href="#m8cf02c91c3" y="210.599999994"/>
     <use x="102.011741683" xlink:href="#m8cf02c91c3" y="210.599999994"/>
     <use x="103.1037182" xlink:href="#m8cf02c91c3" y="210.599999994"/>
     <use x="104.195694716" xlink:href="#m8cf02c91c3" y="210.599999994"/>
     <use x="105.287671233" xlink:href="#m8cf02c91c3" y="210.599999994"/>
     <use x="106.37964775" xlink:href="#m8cf02c91c3" y="210.599999994"/>
     <use x="107.471624266" xlink:href="#m8cf02c91c3" y="210.599999994"/>
     <use x="108.563600783" xlink:href="#m8cf02c91c3" y="210.599999994"/>
     <use x="109.655577299" xlink:href="#m8cf02c91c3" y="210.599999994"/>
     <use x="110.747553816" xlink:href="#m8cf02c91c3" y="210.599999994"/>
     <use x="111.839530333" xlink:href="#m8cf02c91c3" y="210.599999994"/>
     <use x="112.931506849" xlink:href="#m8cf02c91c3" y="210.599999994"/>
     <use x="114.023483366" xlink:href="#m8cf02c91c3" y="210.599999994"/>
     <use x="115.115459883" xlink:href="#m8cf02c91c3" y="210.599999994"/>
     <use x="116.207436399" xlink:href="#m8cf02c91c3" y="210.599999994"/>
     <use x="117.299412916" xlink:href="#m8cf02c91c3" y="210.599999994"/>
     <use x="118.391389432" xlink:href="#m8cf02c91c3" y="210.599999994"/>
     <use x="119.483365949" xlink:href="#m8cf02c91c3" y="210.599999994"/>
     <use x="120.575342466" xlink:href="#m8cf02c91c3" y="210.599999994"/>
     <use x="121.667318982" xlink:href="#m8cf02c91c3" y="210.599999994"/>
     <use x="122.759295499" xlink:href="#m8cf02c91c3" y="210.599999994"/>
     <use x="123.851272016" xlink:href="#m8cf02c91c3" y="210.599999994"/>
     <use x="124.943248532" xlink:href="#m8cf02c91c3" y="210.599999994"/>
     <use x="126.035225049" xlink:href="#m8cf02c91c3" y="210.599999994"/>
     <use x="127.127201566" xlink:href="#m8cf02c91c3" y="210.599999994"/>
     <use x="128.219178082" xlink:href="#m8cf02c91c3" y="210.599999994"/>
     <use x="129.311154599" xlink:href="#m8cf02c91c3" y="210.599999994"/>
     <use x="130.403131115" xlink:href="#m8cf02c91c3" y="210.599999994"/>
     <use x="131.495107632" xlink:href="#m8cf02c91c3" y="210.599999994"/>
     <use x="132.587084149" xlink:href="#m8cf02c91c3" y="210.599999994"/>
     <use x="133.679060665" xlink:href="#m8cf02c91c3" y="210.599999994"/>
     <use x="134.771037182" xlink:href="#m8cf02c91c3" y="210.599999994"/>
     <use x="135.863013699" xlink:href="#m8cf02c91c3" y="210.599999994"/>
     <use x="136.954990215" xlink:href="#m8cf02c91c3" y="210.599999994"/>
     <use x="138.046966732" xlink:href="#m8cf02c91c3" y="210.599999994"/>
     <use x="139.138943249" xlink:href="#m8cf02c91c3" y="210.599999994"/>
     <use x="140.230919765" xlink:href="#m8cf02c91c3" y="210.599999994"/>
     <use x="141.322896282" xlink:href="#m8cf02c91c3" y="210.599999994"/>
     <use x="142.414872798" xlink:href="#m8cf02c91c3" y="210.599999994"/>
     <use x="143.506849315" xlink:href="#m8cf02c91c3" y="210.599999994"/>
     <use x="144.598825832" xlink:href="#m8cf02c91c3" y="210.599999994"/>
     <use x="145.690802348" xlink:href="#m8cf02c91c3" y="210.599999994"/>
     <use x="146.782778865" xlink:href="#m8cf02c91c3" y="210.599999994"/>
     <use x="147.874755382" xlink:href="#m8cf02c91c3" y="210.599999994"/>
     <use x="148.966731898" xlink:href="#m8cf02c91c3" y="210.599999994"/>
     <use x="150.058708415" xlink:href="#m8cf02c91c3" y="210.599999994"/>
     <use x="151.150684932" xlink:href="#m8cf02c91c3" y="210.599999994"/>
     <use x="152.242661448" xlink:href="#m8cf02c91c3" y="210.599999994"/>
     <use x="153.334637965" xlink:href="#m8cf02c91c3" y="210.599999994"/>
     <use x="154.426614481" xlink:href="#m8cf02c91c3" y="210.599999994"/>
     <use x="155.518590998" xlink:href="#m8cf02c91c3" y="210.599999994"/>
     <use x="156.610567515" xlink:href="#m8cf02c91c3" y="210.599999994"/>
     <use x="157.702544031" xlink:href="#m8cf02c91c3" y="210.599999994"/>
     <use x="158.794520548" xlink:href="#m8cf02c91c3" y="210.599999994"/>
     <use x="159.886497065" xlink:href="#m8cf02c91c3" y="210.599999994"/>
     <use x="160.978473581" xlink:href="#m8cf02c91c3" y="210.599999994"/>
     <use x="162.070450098" xlink:href="#m8cf02c91c3" y="210.599999994"/>
     <use x="163.162426614" xlink:href="#m8cf02c91c3" y="210.599999994"/>
     <use x="164.254403131" xlink:href="#m8cf02c91c3" y="210.599999994"/>
     <use x="165.346379648" xlink:href="#m8cf02c91c3" y="210.599999994"/>
     <use x="166.438356164" xlink:href="#m8cf02c91c3" y="210.599999994"/>
     <use x="167.530332681" xlink:href="#m8cf02c91c3" y="210.599999994"/>
     <use x="168.622309198" xlink:href="#m8cf02c91c3" y="210.599999994"/>
     <use x="169.714285714" xlink:href="#m8cf02c91c3" y="210.599999994"/>
     <use x="170.806262231" xlink:href="#m8cf02c91c3" y="210.599999994"/>
     <use x="171.898238748" xlink:href="#m8cf02c91c3" y="210.599999994"/>
     <use x="172.990215264" xlink:href="#m8cf02c91c3" y="210.599999994"/>
     <use x="174.082191781" xlink:href="#m8cf02c91c3" y="210.599999994"/>
     <use x="175.174168297" xlink:href="#m8cf02c91c3" y="210.599999994"/>
     <use x="176.266144814" xlink:href="#m8cf02c91c3" y="210.599999994"/>
     <use x="177.358121331" xlink:href="#m8cf02c91c3" y="210.599999994"/>
     <use x="178.450097847" xlink:href="#m8cf02c91c3" y="210.599999994"/>
     <use x="179.542074364" xlink:href="#m8cf02c91c3" y="210.599999994"/>
     <use x="180.634050881" xlink:href="#m8cf02c91c3" y="210.599999994"/>
     <use x="181.726027397" xlink:href="#m8cf02c91c3" y="210.599999994"/>
     <use x="182.818003914" xlink:href="#m8cf02c91c3" y="210.599999994"/>
     <use x="183.909980431" xlink:href="#m8cf02c91c3" y="210.599999994"/>
     <use x="185.001956947" xlink:href="#m8cf02c91c3" y="210.599999994"/>
     <use x="186.093933464" xlink:href="#m8cf02c91c3" y="210.599999994"/>
     <use x="187.18590998" xlink:href="#m8cf02c91c3" y="210.599999994"/>
     <use x="188.277886497" xlink:href="#m8cf02c91c3" y="210.599999994"/>
     <use x="189.369863014" xlink:href="#m8cf02c91c3" y="210.599999994"/>
     <use x="190.46183953" xlink:href="#m8cf02c91c3" y="210.599999994"/>
     <use x="191.553816047" xlink:href="#m8cf02c91c3" y="210.599999994"/>
     <use x="192.645792564" xlink:href="#m8cf02c91c3" y="210.599999994"/>
     <use x="193.73776908" xlink:href="#m8cf02c91c3" y="210.599999994"/>
     <use x="194.829745597" xlink:href="#m8cf02c91c3" y="210.599999994"/>
     <use x="195.921722114" xlink:href="#m8cf02c91c3" y="210.599999994"/>
     <use x="197.01369863" xlink:href="#m8cf02c91c3" y="210.599999994"/>
     <use x="198.105675147" xlink:href="#m8cf02c91c3" y="210.599999994"/>
     <use x="199.197651663" xlink:href="#m8cf02c91c3" y="210.599999994"/>
     <use x="200.28962818" xlink:href="#m8cf02c91c3" y="210.599999994"/>
     <use x="201.381604697" xlink:href="#m8cf02c91c3" y="210.599999994"/>
     <use x="202.473581213" xlink:href="#m8cf02c91c3" y="210.599999994"/>
     <use x="203.56555773" xlink:href="#m8cf02c91c3" y="210.599999994"/>
     <use x="204.657534247" xlink:href="#m8cf02c91c3" y="210.599999994"/>
     <use x="205.749510763" xlink:href="#m8cf02c91c3" y="210.599999994"/>
     <use x="206.84148728" xlink:href="#m8cf02c91c3" y="210.599999994"/>
     <use x="207.933463796" xlink:href="#m8cf02c91c3" y="210.599999994"/>
     <use x="209.025440313" xlink:href="#m8cf02c91c3" y="210.599999994"/>
     <use x="210.11741683" xlink:href="#m8cf02c91c3" y="210.599999994"/>
     <use x="211.209393346" xlink:href="#m8cf02c91c3" y="210.599999994"/>
     <use x="212.301369863" xlink:href="#m8cf02c91c3" y="210.599999994"/>
     <use x="213.39334638" xlink:href="#m8cf02c91c3" y="210.599999994"/>
     <use x="214.485322896" xlink:href="#m8cf02c91c3" y="210.599999994"/>
     <use x="215.577299413" xlink:href="#m8cf02c91c3" y="210.599999994"/>
     <use x="216.66927593" xlink:href="#m8cf02c91c3" y="210.599999994"/>
     <use x="217.761252446" xlink:href="#m8cf02c91c3" y="210.599999994"/>
     <use x="218.853228963" xlink:href="#m8cf02c91c3" y="210.599999994"/>
     <use x="219.945205479" xlink:href="#m8cf02c91c3" y="210.599999994"/>
     <use x="221.037181996" xlink:href="#m8cf02c91c3" y="210.599999994"/>
     <use x="222.129158513" xlink:href="#m8cf02c91c3" y="210.599999994"/>
     <use x="223.221135029" xlink:href="#m8cf02c91c3" y="210.599999994"/>
     <use x="224.313111546" xlink:href="#m8cf02c91c3" y="210.599999994"/>
     <use x="225.405088063" xlink:href="#m8cf02c91c3" y="210.599999994"/>
     <use x="226.497064579" xlink:href="#m8cf02c91c3" y="210.599999994"/>
     <use x="227.589041096" xlink:href="#m8cf02c91c3" y="210.599999994"/>
     <use x="228.681017613" xlink:href="#m8cf02c91c3" y="210.599999994"/>
     <use x="229.772994129" xlink:href="#m8cf02c91c3" y="210.599999994"/>
     <use x="230.864970646" xlink:href="#m8cf02c91c3" y="210.599999994"/>
     <use x="231.956947162" xlink:href="#m8cf02c91c3" y="210.599999994"/>
     <use x="233.048923679" xlink:href="#m8cf02c91c3" y="210.599999994"/>
     <use x="234.140900196" xlink:href="#m8cf02c91c3" y="210.599999994"/>
     <use x="235.232876712" xlink:href="#m8cf02c91c3" y="210.599999994"/>
     <use x="236.324853229" xlink:href="#m8cf02c91c3" y="210.599999994"/>
     <use x="237.416829746" xlink:href="#m8cf02c91c3" y="210.599999994"/>
     <use x="238.508806262" xlink:href="#m8cf02c91c3" y="210.599999994"/>
     <use x="239.600782779" xlink:href="#m8cf02c91c3" y="210.599999994"/>
     <use x="240.692759295" xlink:href="#m8cf02c91c3" y="210.599999994"/>
     <use x="241.784735812" xlink:href="#m8cf02c91c3" y="210.599999994"/>
     <use x="242.876712329" xlink:href="#m8cf02c91c3" y="210.599999994"/>
     <use x="243.968688845" xlink:href="#m8cf02c91c3" y="210.599999994"/>
     <use x="245.060665362" xlink:href="#m8cf02c91c3" y="210.599999994"/>
     <use x="246.152641879" xlink:href="#m8cf02c91c3" y="210.599999994"/>
     <use x="247.244618395" xlink:href="#m8cf02c91c3" y="210.599999994"/>
     <use x="248.336594912" xlink:href="#m8cf02c91c3" y="210.599999994"/>
     <use x="249.428571429" xlink:href="#m8cf02c91c3" y="210.599999994"/>
     <use x="250.520547945" xlink:href="#m8cf02c91c3" y="210.599999994"/>
     <use x="251.612524462" xlink:href="#m8cf02c91c3" y="210.599999994"/>
     <use x="252.704500978" xlink:href="#m8cf02c91c3" y="210.599999994"/>
     <use x="253.796477495" xlink:href="#m8cf02c91c3" y="210.599999994"/>
     <use x="254.888454012" xlink:href="#m8cf02c91c3" y="210.599999994"/>
     <use x="255.980430528" xlink:href="#m8cf02c91c3" y="210.599999994"/>
     <use x="257.072407045" xlink:href="#m8cf02c91c3" y="210.599999994"/>
     <use x="258.164383562" xlink:href="#m8cf02c91c3" y="210.599999994"/>
     <use x="259.256360078" xlink:href="#m8cf02c91c3" y="210.599999994"/>
     <use x="260.348336595" xlink:href="#m8cf02c91c3" y="210.599999994"/>
     <use x="261.440313112" xlink:href="#m8cf02c91c3" y="210.599999994"/>
     <use x="262.532289628" xlink:href="#m8cf02c91c3" y="210.599999994"/>
     <use x="263.624266145" xlink:href="#m8cf02c91c3" y="210.599999994"/>
     <use x="264.716242661" xlink:href="#m8cf02c91c3" y="210.599999994"/>
     <use x="265.808219178" xlink:href="#m8cf02c91c3" y="210.599999994"/>
     <use x="266.900195695" xlink:href="#m8cf02c91c3" y="210.599999994"/>
     <use x="267.992172211" xlink:href="#m8cf02c91c3" y="210.599999994"/>
     <use x="269.084148728" xlink:href="#m8cf02c91c3" y="210.599999994"/>
     <use x="270.176125245" xlink:href="#m8cf02c91c3" y="210.599999994"/>
     <use x="271.268101761" xlink:href="#m8cf02c91c3" y="210.599999994"/>
     <use x="272.360078278" xlink:href="#m8cf02c91c3" y="210.599999994"/>
     <use x="273.452054795" xlink:href="#m8cf02c91c3" y="210.599999994"/>
     <use x="274.544031311" xlink:href="#m8cf02c91c3" y="210.599999994"/>
     <use x="275.636007828" xlink:href="#m8cf02c91c3" y="210.599999994"/>
     <use x="276.727984344" xlink:href="#m8cf02c91c3" y="210.599999994"/>
     <use x="277.819960861" xlink:href="#m8cf02c91c3" y="210.599999994"/>
     <use x="278.911937378" xlink:href="#m8cf02c91c3" y="210.599999994"/>
     <use x="280.003913894" xlink:href="#m8cf02c91c3" y="210.599999994"/>
     <use x="281.095890411" xlink:href="#m8cf02c91c3" y="210.599999994"/>
     <use x="282.187866928" xlink:href="#m8cf02c91c3" y="210.599999994"/>
     <use x="283.279843444" xlink:href="#m8cf02c91c3" y="210.599999994"/>
     <use x="284.371819961" xlink:href="#m8cf02c91c3" y="210.599999994"/>
     <use x="285.463796477" xlink:href="#m8cf02c91c3" y="210.599999994"/>
     <use x="286.555772994" xlink:href="#m8cf02c91c3" y="210.599999994"/>
     <use x="287.647749511" xlink:href="#m8cf02c91c3" y="210.599999994"/>
     <use x="288.739726027" xlink:href="#m8cf02c91c3" y="210.599999994"/>
     <use x="289.831702544" xlink:href="#m8cf02c91c3" y="210.599999994"/>
     <use x="290.923679061" xlink:href="#m8cf02c91c3" y="210.599999994"/>
     <use x="292.015655577" xlink:href="#m8cf02c91c3" y="210.599999994"/>
     <use x="293.107632094" xlink:href="#m8cf02c91c3" y="210.599999994"/>
     <use x="294.199608611" xlink:href="#m8cf02c91c3" y="210.599999994"/>
     <use x="295.291585127" xlink:href="#m8cf02c91c3" y="210.599999994"/>
     <use x="296.383561644" xlink:href="#m8cf02c91c3" y="210.599999994"/>
     <use x="297.47553816" xlink:href="#m8cf02c91c3" y="210.599999994"/>
     <use x="298.567514677" xlink:href="#m8cf02c91c3" y="210.599999994"/>
     <use x="299.659491194" xlink:href="#m8cf02c91c3" y="210.599999994"/>
     <use x="300.75146771" xlink:href="#m8cf02c91c3" y="210.599999994"/>
     <use x="301.843444227" xlink:href="#m8cf02c91c3" y="210.599999994"/>
     <use x="302.935420744" xlink:href="#m8cf02c91c3" y="210.599999994"/>
     <use x="304.02739726" xlink:href="#m8cf02c91c3" y="210.599999994"/>
     <use x="305.119373777" xlink:href="#m8cf02c91c3" y="210.599999994"/>
     <use x="306.211350294" xlink:href="#m8cf02c91c3" y="210.599999994"/>
     <use x="307.30332681" xlink:href="#m8cf02c91c3" y="210.599999994"/>
     <use x="308.395303327" xlink:href="#m8cf02c91c3" y="210.599999994"/>
     <use x="309.487279843" xlink:href="#m8cf02c91c3" y="210.599999994"/>
     <use x="310.57925636" xlink:href="#m8cf02c91c3" y="210.599999994"/>
     <use x="311.671232877" xlink:href="#m8cf02c91c3" y="210.599999994"/>
     <use x="312.763209393" xlink:href="#m8cf02c91c3" y="210.599999994"/>
     <use x="313.85518591" xlink:href="#m8cf02c91c3" y="210.599999994"/>
     <use x="314.947162427" xlink:href="#m8cf02c91c3" y="210.599999994"/>
     <use x="316.039138943" xlink:href="#m8cf02c91c3" y="210.599999994"/>
     <use x="317.13111546" xlink:href="#m8cf02c91c3" y="210.599999994"/>
     <use x="318.223091977" xlink:href="#m8cf02c91c3" y="210.599999994"/>
     <use x="319.315068493" xlink:href="#m8cf02c91c3" y="210.599999994"/>
     <use x="320.40704501" xlink:href="#m8cf02c91c3" y="210.599999994"/>
     <use x="321.499021526" xlink:href="#m8cf02c91c3" y="210.599999994"/>
     <use x="322.590998043" xlink:href="#m8cf02c91c3" y="210.599999994"/>
     <use x="323.68297456" xlink:href="#m8cf02c91c3" y="210.599999994"/>
     <use x="324.774951076" xlink:href="#m8cf02c91c3" y="210.599999994"/>
     <use x="325.866927593" xlink:href="#m8cf02c91c3" y="210.599999994"/>
     <use x="326.95890411" xlink:href="#m8cf02c91c3" y="210.599999994"/>
     <use x="328.050880626" xlink:href="#m8cf02c91c3" y="210.599999994"/>
     <use x="329.142857143" xlink:href="#m8cf02c91c3" y="210.599999994"/>
     <use x="330.234833659" xlink:href="#m8cf02c91c3" y="210.599999994"/>
     <use x="331.326810176" xlink:href="#m8cf02c91c3" y="210.599999994"/>
     <use x="332.418786693" xlink:href="#m8cf02c91c3" y="210.599999994"/>
     <use x="333.510763209" xlink:href="#m8cf02c91c3" y="210.599999994"/>
     <use x="334.602739726" xlink:href="#m8cf02c91c3" y="210.599999994"/>
     <use x="335.694716243" xlink:href="#m8cf02c91c3" y="210.599999994"/>
     <use x="336.786692759" xlink:href="#m8cf02c91c3" y="210.599999994"/>
     <use x="337.878669276" xlink:href="#m8cf02c91c3" y="210.599999994"/>
     <use x="338.970645793" xlink:href="#m8cf02c91c3" y="210.599999994"/>
     <use x="340.062622309" xlink:href="#m8cf02c91c3" y="210.599999994"/>
     <use x="341.154598826" xlink:href="#m8cf02c91c3" y="210.599999994"/>
     <use x="342.246575342" xlink:href="#m8cf02c91c3" y="210.599999994"/>
     <use x="343.338551859" xlink:href="#m8cf02c91c3" y="210.599999994"/>
     <use x="344.430528376" xlink:href="#m8cf02c91c3" y="210.599999994"/>
     <use x="345.522504892" xlink:href="#m8cf02c91c3" y="210.599999994"/>
     <use x="346.614481409" xlink:href="#m8cf02c91c3" y="210.599999994"/>
     <use x="347.706457926" xlink:href="#m8cf02c91c3" y="210.599999994"/>
     <use x="348.798434442" xlink:href="#m8cf02c91c3" y="210.599999994"/>
     <use x="349.890410959" xlink:href="#m8cf02c91c3" y="210.599999994"/>
     <use x="350.982387476" xlink:href="#m8cf02c91c3" y="210.599999994"/>
     <use x="352.074363992" xlink:href="#m8cf02c91c3" y="210.599999994"/>
     <use x="353.166340509" xlink:href="#m8cf02c91c3" y="210.599999994"/>
     <use x="354.258317025" xlink:href="#m8cf02c91c3" y="210.599999994"/>
     <use x="355.350293542" xlink:href="#m8cf02c91c3" y="210.599999994"/>
     <use x="356.442270059" xlink:href="#m8cf02c91c3" y="210.599999994"/>
     <use x="357.534246575" xlink:href="#m8cf02c91c3" y="210.599999994"/>
     <use x="358.626223092" xlink:href="#m8cf02c91c3" y="210.599999994"/>
     <use x="359.718199609" xlink:href="#m8cf02c91c3" y="210.599999994"/>
     <use x="360.810176125" xlink:href="#m8cf02c91c3" y="210.599999994"/>
     <use x="361.902152642" xlink:href="#m8cf02c91c3" y="210.599999994"/>
     <use x="362.994129159" xlink:href="#m8cf02c91c3" y="210.599999994"/>
     <use x="364.086105675" xlink:href="#m8cf02c91c3" y="210.599999994"/>
     <use x="365.178082192" xlink:href="#m8cf02c91c3" y="210.599999994"/>
     <use x="366.270058708" xlink:href="#m8cf02c91c3" y="210.599999994"/>
     <use x="367.362035225" xlink:href="#m8cf02c91c3" y="210.599999994"/>
     <use x="368.454011742" xlink:href="#m8cf02c91c3" y="210.599999994"/>
     <use x="369.545988258" xlink:href="#m8cf02c91c3" y="210.599999994"/>
     <use x="370.637964775" xlink:href="#m8cf02c91c3" y="210.599999994"/>
     <use x="371.729941292" xlink:href="#m8cf02c91c3" y="210.599999994"/>
     <use x="372.821917808" xlink:href="#m8cf02c91c3" y="210.599999994"/>
     <use x="373.913894325" xlink:href="#m8cf02c91c3" y="210.599999994"/>
     <use x="375.005870841" xlink:href="#m8cf02c91c3" y="210.599999994"/>
     <use x="376.097847358" xlink:href="#m8cf02c91c3" y="210.599999994"/>
     <use x="377.189823875" xlink:href="#m8cf02c91c3" y="210.599999994"/>
     <use x="378.281800391" xlink:href="#m8cf02c91c3" y="210.599999994"/>
     <use x="379.373776908" xlink:href="#m8cf02c91c3" y="210.599999994"/>
     <use x="380.465753425" xlink:href="#m8cf02c91c3" y="210.599999994"/>
     <use x="381.557729941" xlink:href="#m8cf02c91c3" y="210.599999994"/>
     <use x="382.649706458" xlink:href="#m8cf02c91c3" y="210.599999994"/>
     <use x="383.741682975" xlink:href="#m8cf02c91c3" y="210.599999994"/>
     <use x="384.833659491" xlink:href="#m8cf02c91c3" y="210.599999994"/>
     <use x="385.925636008" xlink:href="#m8cf02c91c3" y="210.599999994"/>
     <use x="387.017612524" xlink:href="#m8cf02c91c3" y="210.599999994"/>
     <use x="388.109589041" xlink:href="#m8cf02c91c3" y="210.599999994"/>
     <use x="389.201565558" xlink:href="#m8cf02c91c3" y="210.599999994"/>
     <use x="390.293542074" xlink:href="#m8cf02c91c3" y="210.599999994"/>
     <use x="391.385518591" xlink:href="#m8cf02c91c3" y="210.599999994"/>
     <use x="392.477495108" xlink:href="#m8cf02c91c3" y="210.599999994"/>
     <use x="393.569471624" xlink:href="#m8cf02c91c3" y="210.599999994"/>
     <use x="394.661448141" xlink:href="#m8cf02c91c3" y="210.599999994"/>
     <use x="395.753424658" xlink:href="#m8cf02c91c3" y="210.599999994"/>
     <use x="396.845401174" xlink:href="#m8cf02c91c3" y="210.599999994"/>
     <use x="397.937377691" xlink:href="#m8cf02c91c3" y="210.599999994"/>
     <use x="399.029354207" xlink:href="#m8cf02c91c3" y="210.599999994"/>
     <use x="400.121330724" xlink:href="#m8cf02c91c3" y="210.599999994"/>
     <use x="401.213307241" xlink:href="#m8cf02c91c3" y="210.599999994"/>
     <use x="402.305283757" xlink:href="#m8cf02c91c3" y="210.599999994"/>
     <use x="403.397260274" xlink:href="#m8cf02c91c3" y="210.599999994"/>
     <use x="404.489236791" xlink:href="#m8cf02c91c3" y="210.599999994"/>
     <use x="405.581213307" xlink:href="#m8cf02c91c3" y="210.599999994"/>
     <use x="406.673189824" xlink:href="#m8cf02c91c3" y="210.599999994"/>
     <use x="407.765166341" xlink:href="#m8cf02c91c3" y="210.599999994"/>
     <use x="408.857142857" xlink:href="#m8cf02c91c3" y="210.599999994"/>
     <use x="409.949119374" xlink:href="#m8cf02c91c3" y="210.599999994"/>
     <use x="411.04109589" xlink:href="#m8cf02c91c3" y="210.599999994"/>
     <use x="412.133072407" xlink:href="#m8cf02c91c3" y="210.599999994"/>
     <use x="413.225048924" xlink:href="#m8cf02c91c3" y="210.599999994"/>
     <use x="414.31702544" xlink:href="#m8cf02c91c3" y="210.599999994"/>
     <use x="415.409001957" xlink:href="#m8cf02c91c3" y="210.599999994"/>
     <use x="416.500978474" xlink:href="#m8cf02c91c3" y="210.599999994"/>
     <use x="417.59295499" xlink:href="#m8cf02c91c3" y="210.599999994"/>
     <use x="418.684931507" xlink:href="#m8cf02c91c3" y="210.599999994"/>
     <use x="419.776908023" xlink:href="#m8cf02c91c3" y="210.599999994"/>
     <use x="420.86888454" xlink:href="#m8cf02c91c3" y="210.599999994"/>
     <use x="421.960861057" xlink:href="#m8cf02c91c3" y="210.599999994"/>
     <use x="423.052837573" xlink:href="#m8cf02c91c3" y="210.599999994"/>
     <use x="424.14481409" xlink:href="#m8cf02c91c3" y="210.599999994"/>
     <use x="425.236790607" xlink:href="#m8cf02c91c3" y="210.599999994"/>
     <use x="426.328767123" xlink:href="#m8cf02c91c3" y="210.599999994"/>
     <use x="427.42074364" xlink:href="#m8cf02c91c3" y="210.599999994"/>
     <use x="428.512720157" xlink:href="#m8cf02c91c3" y="210.599999994"/>
     <use x="429.604696673" xlink:href="#m8cf02c91c3" y="210.599999994"/>
     <use x="430.69667319" xlink:href="#m8cf02c91c3" y="210.599999994"/>
     <use x="431.788649706" xlink:href="#m8cf02c91c3" y="210.599999994"/>
     <use x="432.880626223" xlink:href="#m8cf02c91c3" y="210.599999994"/>
     <use x="433.97260274" xlink:href="#m8cf02c91c3" y="210.599999994"/>
     <use x="435.064579256" xlink:href="#m8cf02c91c3" y="210.599999994"/>
     <use x="436.156555773" xlink:href="#m8cf02c91c3" y="210.599999994"/>
     <use x="437.24853229" xlink:href="#m8cf02c91c3" y="210.599999994"/>
     <use x="438.340508806" xlink:href="#m8cf02c91c3" y="210.599999994"/>
     <use x="439.432485323" xlink:href="#m8cf02c91c3" y="210.599999994"/>
     <use x="440.52446184" xlink:href="#m8cf02c91c3" y="210.599999994"/>
     <use x="441.616438356" xlink:href="#m8cf02c91c3" y="210.599999994"/>
     <use x="442.708414873" xlink:href="#m8cf02c91c3" y="210.599999994"/>
     <use x="443.800391389" xlink:href="#m8cf02c91c3" y="210.599999994"/>
     <use x="444.892367906" xlink:href="#m8cf02c91c3" y="210.599999994"/>
     <use x="445.984344423" xlink:href="#m8cf02c91c3" y="210.599999994"/>
     <use x="447.076320939" xlink:href="#m8cf02c91c3" y="210.599999994"/>
     <use x="448.168297456" xlink:href="#m8cf02c91c3" y="210.599999994"/>
     <use x="449.260273973" xlink:href="#m8cf02c91c3" y="210.599999994"/>
     <use x="450.352250489" xlink:href="#m8cf02c91c3" y="210.599999994"/>
     <use x="451.444227006" xlink:href="#m8cf02c91c3" y="210.599999994"/>
     <use x="452.536203523" xlink:href="#m8cf02c91c3" y="210.599999994"/>
     <use x="453.628180039" xlink:href="#m8cf02c91c3" y="210.599999994"/>
     <use x="454.720156556" xlink:href="#m8cf02c91c3" y="210.599999994"/>
     <use x="455.812133072" xlink:href="#m8cf02c91c3" y="210.599999994"/>
     <use x="456.904109589" xlink:href="#m8cf02c91c3" y="210.599999994"/>
     <use x="457.996086106" xlink:href="#m8cf02c91c3" y="210.599999994"/>
     <use x="459.088062622" xlink:href="#m8cf02c91c3" y="210.599999994"/>
     <use x="460.180039139" xlink:href="#m8cf02c91c3" y="210.599999994"/>
     <use x="461.272015656" xlink:href="#m8cf02c91c3" y="210.599999994"/>
     <use x="462.363992172" xlink:href="#m8cf02c91c3" y="210.599999994"/>
     <use x="463.455968689" xlink:href="#m8cf02c91c3" y="210.599999994"/>
     <use x="464.547945205" xlink:href="#m8cf02c91c3" y="210.599999994"/>
     <use x="465.639921722" xlink:href="#m8cf02c91c3" y="210.599999994"/>
     <use x="466.731898239" xlink:href="#m8cf02c91c3" y="210.599999994"/>
     <use x="467.823874755" xlink:href="#m8cf02c91c3" y="210.599999994"/>
     <use x="468.915851272" xlink:href="#m8cf02c91c3" y="210.599999994"/>
     <use x="470.007827789" xlink:href="#m8cf02c91c3" y="210.599999994"/>
     <use x="471.099804305" xlink:href="#m8cf02c91c3" y="210.599999994"/>
     <use x="472.191780822" xlink:href="#m8cf02c91c3" y="210.599999994"/>
     <use x="473.283757339" xlink:href="#m8cf02c91c3" y="210.599999994"/>
     <use x="474.375733855" xlink:href="#m8cf02c91c3" y="210.599999994"/>
     <use x="475.467710372" xlink:href="#m8cf02c91c3" y="210.599999994"/>
     <use x="476.559686888" xlink:href="#m8cf02c91c3" y="210.599999994"/>
     <use x="477.651663405" xlink:href="#m8cf02c91c3" y="210.599999994"/>
     <use x="478.743639922" xlink:href="#m8cf02c91c3" y="210.599999994"/>
     <use x="479.835616438" xlink:href="#m8cf02c91c3" y="210.599999994"/>
     <use x="480.927592955" xlink:href="#m8cf02c91c3" y="210.599999994"/>
     <use x="482.019569472" xlink:href="#m8cf02c91c3" y="210.599999994"/>
     <use x="483.111545988" xlink:href="#m8cf02c91c3" y="210.599999994"/>
     <use x="484.203522505" xlink:href="#m8cf02c91c3" y="210.599999994"/>
     <use x="485.295499022" xlink:href="#m8cf02c91c3" y="210.599999994"/>
     <use x="486.387475538" xlink:href="#m8cf02c91c3" y="210.599999994"/>
     <use x="487.479452055" xlink:href="#m8cf02c91c3" y="210.599999994"/>
     <use x="488.571428571" xlink:href="#m8cf02c91c3" y="210.599999994"/>
     <use x="489.663405088" xlink:href="#m8cf02c91c3" y="210.599999994"/>
     <use x="490.755381605" xlink:href="#m8cf02c91c3" y="210.599999994"/>
     <use x="491.847358121" xlink:href="#m8cf02c91c3" y="210.599999994"/>
     <use x="492.939334638" xlink:href="#m8cf02c91c3" y="210.599999994"/>
     <use x="494.031311155" xlink:href="#m8cf02c91c3" y="210.599999994"/>
     <use x="495.123287671" xlink:href="#m8cf02c91c3" y="210.599999994"/>
     <use x="496.215264188" xlink:href="#m8cf02c91c3" y="210.599999994"/>
     <use x="497.307240705" xlink:href="#m8cf02c91c3" y="210.599999994"/>
     <use x="498.399217221" xlink:href="#m8cf02c91c3" y="210.599999994"/>
     <use x="499.491193738" xlink:href="#m8cf02c91c3" y="210.599999994"/>
     <use x="500.583170254" xlink:href="#m8cf02c91c3" y="210.599999994"/>
     <use x="501.675146771" xlink:href="#m8cf02c91c3" y="210.599999994"/>
     <use x="502.767123288" xlink:href="#m8cf02c91c3" y="210.599999994"/>
     <use x="503.859099804" xlink:href="#m8cf02c91c3" y="210.599999994"/>
     <use x="504.951076321" xlink:href="#m8cf02c91c3" y="210.599999994"/>
     <use x="506.043052838" xlink:href="#m8cf02c91c3" y="210.599999994"/>
     <use x="507.135029354" xlink:href="#m8cf02c91c3" y="210.599999994"/>
     <use x="508.227005871" xlink:href="#m8cf02c91c3" y="210.599999994"/>
     <use x="509.318982387" xlink:href="#m8cf02c91c3" y="210.599999994"/>
     <use x="510.410958904" xlink:href="#m8cf02c91c3" y="210.599999994"/>
     <use x="511.502935421" xlink:href="#m8cf02c91c3" y="210.599999994"/>
     <use x="512.594911937" xlink:href="#m8cf02c91c3" y="210.599999994"/>
     <use x="513.686888454" xlink:href="#m8cf02c91c3" y="210.599999994"/>
     <use x="514.778864971" xlink:href="#m8cf02c91c3" y="210.599999994"/>
     <use x="515.870841487" xlink:href="#m8cf02c91c3" y="210.599999994"/>
     <use x="516.962818004" xlink:href="#m8cf02c91c3" y="210.599999994"/>
     <use x="518.054794521" xlink:href="#m8cf02c91c3" y="210.599999994"/>
     <use x="519.146771037" xlink:href="#m8cf02c91c3" y="210.599999994"/>
     <use x="520.238747554" xlink:href="#m8cf02c91c3" y="210.599999994"/>
     <use x="521.33072407" xlink:href="#m8cf02c91c3" y="210.599999994"/>
     <use x="522.422700587" xlink:href="#m8cf02c91c3" y="210.599999994"/>
     <use x="523.514677104" xlink:href="#m8cf02c91c3" y="210.599999994"/>
     <use x="524.60665362" xlink:href="#m8cf02c91c3" y="210.599999994"/>
     <use x="525.698630137" xlink:href="#m8cf02c91c3" y="210.599999994"/>
     <use x="526.790606654" xlink:href="#m8cf02c91c3" y="210.599999994"/>
     <use x="527.88258317" xlink:href="#m8cf02c91c3" y="210.599999994"/>
     <use x="528.974559687" xlink:href="#m8cf02c91c3" y="210.599999994"/>
     <use x="530.066536204" xlink:href="#m8cf02c91c3" y="210.599999994"/>
     <use x="531.15851272" xlink:href="#m8cf02c91c3" y="210.599999994"/>
     <use x="532.250489237" xlink:href="#m8cf02c91c3" y="210.599999994"/>
     <use x="533.342465753" xlink:href="#m8cf02c91c3" y="210.599999994"/>
     <use x="534.43444227" xlink:href="#m8cf02c91c3" y="210.599999994"/>
     <use x="535.526418787" xlink:href="#m8cf02c91c3" y="210.599999994"/>
     <use x="536.618395303" xlink:href="#m8cf02c91c3" y="210.599999994"/>
     <use x="537.71037182" xlink:href="#m8cf02c91c3" y="210.599999994"/>
     <use x="538.802348337" xlink:href="#m8cf02c91c3" y="210.599999994"/>
     <use x="539.894324853" xlink:href="#m8cf02c91c3" y="210.599999994"/>
     <use x="540.98630137" xlink:href="#m8cf02c91c3" y="210.599999994"/>
     <use x="542.078277886" xlink:href="#m8cf02c91c3" y="210.599999994"/>
     <use x="543.170254403" xlink:href="#m8cf02c91c3" y="210.599999994"/>
     <use x="544.26223092" xlink:href="#m8cf02c91c3" y="210.599999994"/>
     <use x="545.354207436" xlink:href="#m8cf02c91c3" y="210.599999994"/>
     <use x="546.446183953" xlink:href="#m8cf02c91c3" y="210.599999994"/>
     <use x="547.53816047" xlink:href="#m8cf02c91c3" y="210.599999994"/>
     <use x="548.630136986" xlink:href="#m8cf02c91c3" y="210.599999994"/>
     <use x="549.722113503" xlink:href="#m8cf02c91c3" y="210.599999994"/>
     <use x="550.81409002" xlink:href="#m8cf02c91c3" y="210.599999994"/>
     <use x="551.906066536" xlink:href="#m8cf02c91c3" y="210.599999994"/>
     <use x="552.998043053" xlink:href="#m8cf02c91c3" y="210.599999994"/>
     <use x="554.090019569" xlink:href="#m8cf02c91c3" y="210.599999994"/>
     <use x="555.181996086" xlink:href="#m8cf02c91c3" y="210.599999994"/>
     <use x="556.273972603" xlink:href="#m8cf02c91c3" y="210.599999994"/>
     <use x="557.365949119" xlink:href="#m8cf02c91c3" y="210.599999994"/>
     <use x="558.457925636" xlink:href="#m8cf02c91c3" y="210.599999994"/>
     <use x="559.549902153" xlink:href="#m8cf02c91c3" y="210.599999994"/>
     <use x="560.641878669" xlink:href="#m8cf02c91c3" y="210.599999994"/>
     <use x="561.733855186" xlink:href="#m8cf02c91c3" y="210.599999994"/>
     <use x="562.825831703" xlink:href="#m8cf02c91c3" y="210.599999994"/>
     <use x="563.917808219" xlink:href="#m8cf02c91c3" y="210.599999994"/>
     <use x="565.009784736" xlink:href="#m8cf02c91c3" y="210.599999994"/>
     <use x="566.101761252" xlink:href="#m8cf02c91c3" y="210.599999994"/>
     <use x="567.193737769" xlink:href="#m8cf02c91c3" y="210.599999994"/>
     <use x="568.285714286" xlink:href="#m8cf02c91c3" y="210.599999994"/>
     <use x="569.377690802" xlink:href="#m8cf02c91c3" y="210.599999994"/>
     <use x="570.469667319" xlink:href="#m8cf02c91c3" y="210.599999994"/>
     <use x="571.561643836" xlink:href="#m8cf02c91c3" y="210.599999994"/>
     <use x="572.653620352" xlink:href="#m8cf02c91c3" y="210.599999994"/>
     <use x="573.745596869" xlink:href="#m8cf02c91c3" y="210.599999994"/>
     <use x="574.837573386" xlink:href="#m8cf02c91c3" y="210.599999994"/>
     <use x="575.929549902" xlink:href="#m8cf02c91c3" y="210.599999994"/>
     <use x="577.021526419" xlink:href="#m8cf02c91c3" y="210.599999994"/>
     <use x="578.113502935" xlink:href="#m8cf02c91c3" y="210.599999994"/>
     <use x="579.205479452" xlink:href="#m8cf02c91c3" y="210.599999994"/>
     <use x="580.297455969" xlink:href="#m8cf02c91c3" y="210.599999994"/>
     <use x="581.389432485" xlink:href="#m8cf02c91c3" y="210.599999994"/>
     <use x="582.481409002" xlink:href="#m8cf02c91c3" y="210.599999994"/>
     <use x="583.573385519" xlink:href="#m8cf02c91c3" y="210.599999994"/>
     <use x="584.665362035" xlink:href="#m8cf02c91c3" y="210.599999994"/>
     <use x="585.757338552" xlink:href="#m8cf02c91c3" y="210.599999994"/>
     <use x="586.849315068" xlink:href="#m8cf02c91c3" y="210.599999994"/>
     <use x="587.941291585" xlink:href="#m8cf02c91c3" y="210.599999994"/>
     <use x="589.033268102" xlink:href="#m8cf02c91c3" y="210.599999994"/>
     <use x="590.125244618" xlink:href="#m8cf02c91c3" y="210.599999994"/>
     <use x="591.217221135" xlink:href="#m8cf02c91c3" y="210.599999994"/>
     <use x="592.309197652" xlink:href="#m8cf02c91c3" y="210.599999994"/>
     <use x="593.401174168" xlink:href="#m8cf02c91c3" y="210.599999994"/>
     <use x="594.493150685" xlink:href="#m8cf02c91c3" y="210.599999994"/>
     <use x="595.585127202" xlink:href="#m8cf02c91c3" y="210.599999994"/>
     <use x="596.677103718" xlink:href="#m8cf02c91c3" y="210.599999994"/>
     <use x="597.769080235" xlink:href="#m8cf02c91c3" y="210.599999994"/>
     <use x="598.861056751" xlink:href="#m8cf02c91c3" y="210.599999994"/>
     <use x="599.953033268" xlink:href="#m8cf02c91c3" y="210.599999994"/>
     <use x="601.045009785" xlink:href="#m8cf02c91c3" y="210.599999994"/>
     <use x="602.136986301" xlink:href="#m8cf02c91c3" y="210.599999994"/>
     <use x="603.228962818" xlink:href="#m8cf02c91c3" y="210.599999994"/>
     <use x="604.320939335" xlink:href="#m8cf02c91c3" y="210.599999994"/>
     <use x="605.412915851" xlink:href="#m8cf02c91c3" y="210.599999994"/>
     <use x="606.504892368" xlink:href="#m8cf02c91c3" y="210.599999994"/>
     <use x="607.596868885" xlink:href="#m8cf02c91c3" y="210.599999994"/>
     <use x="608.688845401" xlink:href="#m8cf02c91c3" y="210.599999994"/>
     <use x="609.780821918" xlink:href="#m8cf02c91c3" y="210.599999994"/>
     <use x="610.872798434" xlink:href="#m8cf02c91c3" y="210.599999994"/>
     <use x="611.964774951" xlink:href="#m8cf02c91c3" y="210.599999994"/>
     <use x="613.056751468" xlink:href="#m8cf02c91c3" y="210.599999994"/>
     <use x="614.148727984" xlink:href="#m8cf02c91c3" y="210.599999994"/>
     <use x="615.240704501" xlink:href="#m8cf02c91c3" y="210.599999994"/>
     <use x="616.332681018" xlink:href="#m8cf02c91c3" y="210.599999994"/>
     <use x="617.424657534" xlink:href="#m8cf02c91c3" y="210.599999994"/>
     <use x="618.516634051" xlink:href="#m8cf02c91c3" y="210.599999994"/>
     <use x="619.608610568" xlink:href="#m8cf02c91c3" y="210.599999994"/>
     <use x="620.700587084" xlink:href="#m8cf02c91c3" y="210.599999994"/>
     <use x="621.792563601" xlink:href="#m8cf02c91c3" y="210.599999994"/>
     <use x="622.884540117" xlink:href="#m8cf02c91c3" y="210.599999994"/>
     <use x="623.976516634" xlink:href="#m8cf02c91c3" y="210.599999994"/>
     <use x="625.068493151" xlink:href="#m8cf02c91c3" y="210.599999994"/>
     <use x="626.160469667" xlink:href="#m8cf02c91c3" y="210.599999994"/>
     <use x="627.252446184" xlink:href="#m8cf02c91c3" y="210.599999994"/>
     <use x="628.344422701" xlink:href="#m8cf02c91c3" y="210.599999994"/>
     <use x="629.436399217" xlink:href="#m8cf02c91c3" y="210.599999994"/>
     <use x="630.528375734" xlink:href="#m8cf02c91c3" y="210.599999994"/>
     <use x="631.62035225" xlink:href="#m8cf02c91c3" y="210.599999994"/>
     <use x="632.712328767" xlink:href="#m8cf02c91c3" y="210.599999994"/>
     <use x="633.804305284" xlink:href="#m8cf02c91c3" y="210.599999994"/>
     <use x="634.8962818" xlink:href="#m8cf02c91c3" y="210.599999994"/>
     <use x="635.988258317" xlink:href="#m8cf02c91c3" y="210.599999994"/>
     <use x="637.080234834" xlink:href="#m8cf02c91c3" y="210.599999994"/>
     <use x="638.17221135" xlink:href="#m8cf02c91c3" y="210.599999994"/>
     <use x="639.264187867" xlink:href="#m8cf02c91c3" y="210.599999994"/>
     <use x="640.356164384" xlink:href="#m8cf02c91c3" y="210.599999994"/>
     <use x="641.4481409" xlink:href="#m8cf02c91c3" y="210.599999994"/>
     <use x="642.540117417" xlink:href="#m8cf02c91c3" y="210.599999994"/>
     <use x="643.632093933" xlink:href="#m8cf02c91c3" y="210.599999994"/>
     <use x="644.72407045" xlink:href="#m8cf02c91c3" y="210.599999994"/>
     <use x="645.816046967" xlink:href="#m8cf02c91c3" y="210.599999994"/>
     <use x="646.908023483" xlink:href="#m8cf02c91c3" y="210.599999994"/>
    </g>
   </g>
   <g id="patch_3">
    <path d="
M90 378
L90 43.2" style="fill:none;stroke:#000000;stroke-linecap:square;stroke-linejoin:miter;"/>
   </g>
   <g id="patch_4">
    <path d="
M648 378
L648 43.2" style="fill:none;stroke:#000000;stroke-linecap:square;stroke-linejoin:miter;"/>
   </g>
   <g id="patch_5">
    <path d="
M90 378
L648 378" style="fill:none;stroke:#000000;stroke-linecap:square;stroke-linejoin:miter;"/>
   </g>
   <g id="patch_6">
    <path d="
M90 43.2
L648 43.2" style="fill:none;stroke:#000000;stroke-linecap:square;stroke-linejoin:miter;"/>
   </g>
   <g id="matplotlib.axis_1">
    <g id="xtick_1">
     <g id="line2d_1">
      <defs>
       <path d="
M0 0
L0 -4" id="mc7db9fdffb" style="stroke:#000000;stroke-width:0.5;"/>
      </defs>
      <g>
       <use style="stroke:#000000;stroke-width:0.5;" x="90.0" xlink:href="#mc7db9fdffb" y="378.0"/>
      </g>
     </g>
     <g id="line2d_2">
      <defs>
       <path d="
M0 0
L0 4" id="m5a7d422ac3" style="stroke:#000000;stroke-width:0.5;"/>
      </defs>
      <g>
       <use style="stroke:#000000;stroke-width:0.5;" x="90.0" xlink:href="#m5a7d422ac3" y="43.2"/>
      </g>
     </g>
     <g id="text_1">
      <!-- 0 -->
      <defs>
       <path d="
M31.7812 66.4062
Q24.1719 66.4062 20.3281 58.9062
Q16.5 51.4219 16.5 36.375
Q16.5 21.3906 20.3281 13.8906
Q24.1719 6.39062 31.7812 6.39062
Q39.4531 6.39062 43.2812 13.8906
Q47.125 21.3906 47.125 36.375
Q47.125 51.4219 43.2812 58.9062
Q39.4531 66.4062 31.7812 66.4062
M31.7812 74.2188
Q44.0469 74.2188 50.5156 64.5156
Q56.9844 54.8281 56.9844 36.375
Q56.9844 17.9688 50.5156 8.26562
Q44.0469 -1.42188 31.7812 -1.42188
Q19.5312 -1.42188 13.0625 8.26562
Q6.59375 17.9688 6.59375 36.375
Q6.59375 54.8281 13.0625 64.5156
Q19.5312 74.2188 31.7812 74.2188" id="BitstreamVeraSans-Roman-30"/>
      </defs>
      <g transform="translate(86.9765625 391.118125)scale(0.12 -0.12)">
       <use xlink:href="#BitstreamVeraSans-Roman-30"/>
      </g>
     </g>
    </g>
    <g id="xtick_2">
     <g id="line2d_3">
      <g>
       <use style="stroke:#000000;stroke-width:0.5;" x="199.197651663" xlink:href="#mc7db9fdffb" y="378.0"/>
      </g>
     </g>
     <g id="line2d_4">
      <g>
       <use style="stroke:#000000;stroke-width:0.5;" x="199.197651663" xlink:href="#m5a7d422ac3" y="43.2"/>
      </g>
     </g>
     <g id="text_2">
      <!-- 100 -->
      <defs>
       <path d="
M12.4062 8.29688
L28.5156 8.29688
L28.5156 63.9219
L10.9844 60.4062
L10.9844 69.3906
L28.4219 72.9062
L38.2812 72.9062
L38.2812 8.29688
L54.3906 8.29688
L54.3906 0
L12.4062 0
z
" id="BitstreamVeraSans-Roman-31"/>
      </defs>
      <g transform="translate(188.802651663 391.118125)scale(0.12 -0.12)">
       <use xlink:href="#BitstreamVeraSans-Roman-31"/>
       <use x="63.623046875" xlink:href="#BitstreamVeraSans-Roman-30"/>
       <use x="127.24609375" xlink:href="#BitstreamVeraSans-Roman-30"/>
      </g>
     </g>
    </g>
    <g id="xtick_3">
     <g id="line2d_5">
      <g>
       <use style="stroke:#000000;stroke-width:0.5;" x="308.395303327" xlink:href="#mc7db9fdffb" y="378.0"/>
      </g>
     </g>
     <g id="line2d_6">
      <g>
       <use style="stroke:#000000;stroke-width:0.5;" x="308.395303327" xlink:href="#m5a7d422ac3" y="43.2"/>
      </g>
     </g>
     <g id="text_3">
      <!-- 200 -->
      <defs>
       <path d="
M19.1875 8.29688
L53.6094 8.29688
L53.6094 0
L7.32812 0
L7.32812 8.29688
Q12.9375 14.1094 22.625 23.8906
Q32.3281 33.6875 34.8125 36.5312
Q39.5469 41.8438 41.4219 45.5312
Q43.3125 49.2188 43.3125 52.7812
Q43.3125 58.5938 39.2344 62.25
Q35.1562 65.9219 28.6094 65.9219
Q23.9688 65.9219 18.8125 64.3125
Q13.6719 62.7031 7.8125 59.4219
L7.8125 69.3906
Q13.7656 71.7812 18.9375 73
Q24.125 74.2188 28.4219 74.2188
Q39.75 74.2188 46.4844 68.5469
Q53.2188 62.8906 53.2188 53.4219
Q53.2188 48.9219 51.5312 44.8906
Q49.8594 40.875 45.4062 35.4062
Q44.1875 33.9844 37.6406 27.2188
Q31.1094 20.4531 19.1875 8.29688" id="BitstreamVeraSans-Roman-32"/>
      </defs>
      <g transform="translate(297.780928327 391.118125)scale(0.12 -0.12)">
       <use xlink:href="#BitstreamVeraSans-Roman-32"/>
       <use x="63.623046875" xlink:href="#BitstreamVeraSans-Roman-30"/>
       <use x="127.24609375" xlink:href="#BitstreamVeraSans-Roman-30"/>
      </g>
     </g>
    </g>
    <g id="xtick_4">
     <g id="line2d_7">
      <g>
       <use style="stroke:#000000;stroke-width:0.5;" x="417.59295499" xlink:href="#mc7db9fdffb" y="378.0"/>
      </g>
     </g>
     <g id="line2d_8">
      <g>
       <use style="stroke:#000000;stroke-width:0.5;" x="417.59295499" xlink:href="#m5a7d422ac3" y="43.2"/>
      </g>
     </g>
     <g id="text_4">
      <!-- 300 -->
      <defs>
       <path d="
M40.5781 39.3125
Q47.6562 37.7969 51.625 33
Q55.6094 28.2188 55.6094 21.1875
Q55.6094 10.4062 48.1875 4.48438
Q40.7656 -1.42188 27.0938 -1.42188
Q22.5156 -1.42188 17.6562 -0.515625
Q12.7969 0.390625 7.625 2.20312
L7.625 11.7188
Q11.7188 9.32812 16.5938 8.10938
Q21.4844 6.89062 26.8125 6.89062
Q36.0781 6.89062 40.9375 10.5469
Q45.7969 14.2031 45.7969 21.1875
Q45.7969 27.6406 41.2812 31.2656
Q36.7656 34.9062 28.7188 34.9062
L20.2188 34.9062
L20.2188 43.0156
L29.1094 43.0156
Q36.375 43.0156 40.2344 45.9219
Q44.0938 48.8281 44.0938 54.2969
Q44.0938 59.9062 40.1094 62.9062
Q36.1406 65.9219 28.7188 65.9219
Q24.6562 65.9219 20.0156 65.0312
Q15.375 64.1562 9.8125 62.3125
L9.8125 71.0938
Q15.4375 72.6562 20.3438 73.4375
Q25.25 74.2188 29.5938 74.2188
Q40.8281 74.2188 47.3594 69.1094
Q53.9062 64.0156 53.9062 55.3281
Q53.9062 49.2656 50.4375 45.0938
Q46.9688 40.9219 40.5781 39.3125" id="BitstreamVeraSans-Roman-33"/>
      </defs>
      <g transform="translate(406.99639249 391.118125)scale(0.12 -0.12)">
       <use xlink:href="#BitstreamVeraSans-Roman-33"/>
       <use x="63.623046875" xlink:href="#BitstreamVeraSans-Roman-30"/>
       <use x="127.24609375" xlink:href="#BitstreamVeraSans-Roman-30"/>
      </g>
     </g>
    </g>
    <g id="xtick_5">
     <g id="line2d_9">
      <g>
       <use style="stroke:#000000;stroke-width:0.5;" x="526.790606654" xlink:href="#mc7db9fdffb" y="378.0"/>
      </g>
     </g>
     <g id="line2d_10">
      <g>
       <use style="stroke:#000000;stroke-width:0.5;" x="526.790606654" xlink:href="#m5a7d422ac3" y="43.2"/>
      </g>
     </g>
     <g id="text_5">
      <!-- 400 -->
      <defs>
       <path d="
M37.7969 64.3125
L12.8906 25.3906
L37.7969 25.3906
z

M35.2031 72.9062
L47.6094 72.9062
L47.6094 25.3906
L58.0156 25.3906
L58.0156 17.1875
L47.6094 17.1875
L47.6094 0
L37.7969 0
L37.7969 17.1875
L4.89062 17.1875
L4.89062 26.7031
z
" id="BitstreamVeraSans-Roman-34"/>
      </defs>
      <g transform="translate(516.029981654 391.118125)scale(0.12 -0.12)">
       <use xlink:href="#BitstreamVeraSans-Roman-34"/>
       <use x="63.623046875" xlink:href="#BitstreamVeraSans-Roman-30"/>
       <use x="127.24609375" xlink:href="#BitstreamVeraSans-Roman-30"/>
      </g>
     </g>
    </g>
    <g id="xtick_6">
     <g id="line2d_11">
      <g>
       <use style="stroke:#000000;stroke-width:0.5;" x="635.988258317" xlink:href="#mc7db9fdffb" y="378.0"/>
      </g>
     </g>
     <g id="line2d_12">
      <g>
       <use style="stroke:#000000;stroke-width:0.5;" x="635.988258317" xlink:href="#m5a7d422ac3" y="43.2"/>
      </g>
     </g>
     <g id="text_6">
      <!-- 500 -->
      <defs>
       <path d="
M10.7969 72.9062
L49.5156 72.9062
L49.5156 64.5938
L19.8281 64.5938
L19.8281 46.7344
Q21.9688 47.4688 24.1094 47.8281
Q26.2656 48.1875 28.4219 48.1875
Q40.625 48.1875 47.75 41.5
Q54.8906 34.8125 54.8906 23.3906
Q54.8906 11.625 47.5625 5.09375
Q40.2344 -1.42188 26.9062 -1.42188
Q22.3125 -1.42188 17.5469 -0.640625
Q12.7969 0.140625 7.71875 1.70312
L7.71875 11.625
Q12.1094 9.23438 16.7969 8.0625
Q21.4844 6.89062 26.7031 6.89062
Q35.1562 6.89062 40.0781 11.3281
Q45.0156 15.7656 45.0156 23.3906
Q45.0156 31 40.0781 35.4375
Q35.1562 39.8906 26.7031 39.8906
Q22.75 39.8906 18.8125 39.0156
Q14.8906 38.1406 10.7969 36.2812
z
" id="BitstreamVeraSans-Roman-35"/>
      </defs>
      <g transform="translate(625.397320817 391.118125)scale(0.12 -0.12)">
       <use xlink:href="#BitstreamVeraSans-Roman-35"/>
       <use x="63.623046875" xlink:href="#BitstreamVeraSans-Roman-30"/>
       <use x="127.24609375" xlink:href="#BitstreamVeraSans-Roman-30"/>
      </g>
     </g>
    </g>
    <g id="text_7">
     <!-- Samples -->
     <defs>
      <path d="
M56.2031 29.5938
L56.2031 25.2031
L14.8906 25.2031
Q15.4844 15.9219 20.4844 11.0625
Q25.4844 6.20312 34.4219 6.20312
Q39.5938 6.20312 44.4531 7.46875
Q49.3125 8.73438 54.1094 11.2812
L54.1094 2.78125
Q49.2656 0.734375 44.1875 -0.34375
Q39.1094 -1.42188 33.8906 -1.42188
Q20.7969 -1.42188 13.1562 6.1875
Q5.51562 13.8125 5.51562 26.8125
Q5.51562 40.2344 12.7656 48.1094
Q20.0156 56 32.3281 56
Q43.3594 56 49.7812 48.8906
Q56.2031 41.7969 56.2031 29.5938
M47.2188 32.2344
Q47.125 39.5938 43.0938 43.9844
Q39.0625 48.3906 32.4219 48.3906
Q24.9062 48.3906 20.3906 44.1406
Q15.875 39.8906 15.1875 32.1719
z
" id="BitstreamVeraSans-Roman-65"/>
      <path d="
M9.42188 75.9844
L18.4062 75.9844
L18.4062 0
L9.42188 0
z
" id="BitstreamVeraSans-Roman-6c"/>
      <path d="
M18.1094 8.20312
L18.1094 -20.7969
L9.07812 -20.7969
L9.07812 54.6875
L18.1094 54.6875
L18.1094 46.3906
Q20.9531 51.2656 25.2656 53.625
Q29.5938 56 35.5938 56
Q45.5625 56 51.7812 48.0938
Q58.0156 40.1875 58.0156 27.2969
Q58.0156 14.4062 51.7812 6.48438
Q45.5625 -1.42188 35.5938 -1.42188
Q29.5938 -1.42188 25.2656 0.953125
Q20.9531 3.32812 18.1094 8.20312
M48.6875 27.2969
Q48.6875 37.2031 44.6094 42.8438
Q40.5312 48.4844 33.4062 48.4844
Q26.2656 48.4844 22.1875 42.8438
Q18.1094 37.2031 18.1094 27.2969
Q18.1094 17.3906 22.1875 11.75
Q26.2656 6.10938 33.4062 6.10938
Q40.5312 6.10938 44.6094 11.75
Q48.6875 17.3906 48.6875 27.2969" id="BitstreamVeraSans-Roman-70"/>
      <path d="
M44.2812 53.0781
L44.2812 44.5781
Q40.4844 46.5312 36.375 47.5
Q32.2812 48.4844 27.875 48.4844
Q21.1875 48.4844 17.8438 46.4375
Q14.5 44.3906 14.5 40.2812
Q14.5 37.1562 16.8906 35.375
Q19.2812 33.5938 26.5156 31.9844
L29.5938 31.2969
Q39.1562 29.25 43.1875 25.5156
Q47.2188 21.7812 47.2188 15.0938
Q47.2188 7.46875 41.1875 3.01562
Q35.1562 -1.42188 24.6094 -1.42188
Q20.2188 -1.42188 15.4531 -0.5625
Q10.6875 0.296875 5.42188 2
L5.42188 11.2812
Q10.4062 8.6875 15.2344 7.39062
Q20.0625 6.10938 24.8125 6.10938
Q31.1562 6.10938 34.5625 8.28125
Q37.9844 10.4531 37.9844 14.4062
Q37.9844 18.0625 35.5156 20.0156
Q33.0625 21.9688 24.7031 23.7812
L21.5781 24.5156
Q13.2344 26.2656 9.51562 29.9062
Q5.8125 33.5469 5.8125 39.8906
Q5.8125 47.6094 11.2812 51.7969
Q16.75 56 26.8125 56
Q31.7812 56 36.1719 55.2656
Q40.5781 54.5469 44.2812 53.0781" id="BitstreamVeraSans-Roman-73"/>
      <path d="
M52 44.1875
Q55.375 50.25 60.0625 53.125
Q64.75 56 71.0938 56
Q79.6406 56 84.2812 50.0156
Q88.9219 44.0469 88.9219 33.0156
L88.9219 0
L79.8906 0
L79.8906 32.7188
Q79.8906 40.5781 77.0938 44.375
Q74.3125 48.1875 68.6094 48.1875
Q61.625 48.1875 57.5625 43.5469
Q53.5156 38.9219 53.5156 30.9062
L53.5156 0
L44.4844 0
L44.4844 32.7188
Q44.4844 40.625 41.7031 44.4062
Q38.9219 48.1875 33.1094 48.1875
Q26.2188 48.1875 22.1562 43.5312
Q18.1094 38.875 18.1094 30.9062
L18.1094 0
L9.07812 0
L9.07812 54.6875
L18.1094 54.6875
L18.1094 46.1875
Q21.1875 51.2188 25.4844 53.6094
Q29.7812 56 35.6875 56
Q41.6562 56 45.8281 52.9688
Q50 49.9531 52 44.1875" id="BitstreamVeraSans-Roman-6d"/>
      <path d="
M34.2812 27.4844
Q23.3906 27.4844 19.1875 25
Q14.9844 22.5156 14.9844 16.5
Q14.9844 11.7188 18.1406 8.90625
Q21.2969 6.10938 26.7031 6.10938
Q34.1875 6.10938 38.7031 11.4062
Q43.2188 16.7031 43.2188 25.4844
L43.2188 27.4844
z

M52.2031 31.2031
L52.2031 0
L43.2188 0
L43.2188 8.29688
Q40.1406 3.32812 35.5469 0.953125
Q30.9531 -1.42188 24.3125 -1.42188
Q15.9219 -1.42188 10.9531 3.29688
Q6 8.01562 6 15.9219
Q6 25.1406 12.1719 29.8281
Q18.3594 34.5156 30.6094 34.5156
L43.2188 34.5156
L43.2188 35.4062
Q43.2188 41.6094 39.1406 45
Q35.0625 48.3906 27.6875 48.3906
Q23 48.3906 18.5469 47.2656
Q14.1094 46.1406 10.0156 43.8906
L10.0156 52.2031
Q14.9375 54.1094 19.5781 55.0469
Q24.2188 56 28.6094 56
Q40.4844 56 46.3438 49.8438
Q52.2031 43.7031 52.2031 31.2031" id="BitstreamVeraSans-Roman-61"/>
      <path d="
M53.5156 70.5156
L53.5156 60.8906
Q47.9062 63.5781 42.9219 64.8906
Q37.9375 66.2188 33.2969 66.2188
Q25.25 66.2188 20.875 63.0938
Q16.5 59.9688 16.5 54.2031
Q16.5 49.3594 19.4062 46.8906
Q22.3125 44.4375 30.4219 42.9219
L36.375 41.7031
Q47.4062 39.5938 52.6562 34.2969
Q57.9062 29 57.9062 20.125
Q57.9062 9.51562 50.7969 4.04688
Q43.7031 -1.42188 29.9844 -1.42188
Q24.8125 -1.42188 18.9688 -0.25
Q13.1406 0.921875 6.89062 3.21875
L6.89062 13.375
Q12.8906 10.0156 18.6562 8.29688
Q24.4219 6.59375 29.9844 6.59375
Q38.4219 6.59375 43.0156 9.90625
Q47.6094 13.2344 47.6094 19.3906
Q47.6094 24.75 44.3125 27.7812
Q41.0156 30.8125 33.5 32.3281
L27.4844 33.5
Q16.4531 35.6875 11.5156 40.375
Q6.59375 45.0625 6.59375 53.4219
Q6.59375 63.0938 13.4062 68.6562
Q20.2188 74.2188 32.1719 74.2188
Q37.3125 74.2188 42.625 73.2812
Q47.9531 72.3594 53.5156 70.5156" id="BitstreamVeraSans-Roman-53"/>
     </defs>
     <g transform="translate(344.064375 407.731875)scale(0.12 -0.12)">
      <use xlink:href="#BitstreamVeraSans-Roman-53"/>
      <use x="63.4765625" xlink:href="#BitstreamVeraSans-Roman-61"/>
      <use x="124.755859375" xlink:href="#BitstreamVeraSans-Roman-6d"/>
      <use x="222.16796875" xlink:href="#BitstreamVeraSans-Roman-70"/>
      <use x="285.64453125" xlink:href="#BitstreamVeraSans-Roman-6c"/>
      <use x="313.427734375" xlink:href="#BitstreamVeraSans-Roman-65"/>
      <use x="374.951171875" xlink:href="#BitstreamVeraSans-Roman-73"/>
     </g>
    </g>
   </g>
   <g id="matplotlib.axis_2">
    <g id="ytick_1">
     <g id="line2d_13">
      <defs>
       <path d="
M0 0
L4 0" id="md7965d1ba0" style="stroke:#000000;stroke-width:0.5;"/>
      </defs>
      <g>
       <use style="stroke:#000000;stroke-width:0.5;" x="90.0" xlink:href="#md7965d1ba0" y="377.999999993"/>
      </g>
     </g>
     <g id="line2d_14">
      <defs>
       <path d="
M0 0
L-4 0" id="md9a1c1a7cd" style="stroke:#000000;stroke-width:0.5;"/>
      </defs>
      <g>
       <use style="stroke:#000000;stroke-width:0.5;" x="648.0" xlink:href="#md9a1c1a7cd" y="377.999999993"/>
      </g>
     </g>
     <g id="text_8">
      <!-- 999.997 -->
      <defs>
       <path d="
M10.6875 12.4062
L21 12.4062
L21 0
L10.6875 0
z
" id="BitstreamVeraSans-Roman-2e"/>
       <path d="
M8.20312 72.9062
L55.0781 72.9062
L55.0781 68.7031
L28.6094 0
L18.3125 0
L43.2188 64.5938
L8.20312 64.5938
z
" id="BitstreamVeraSans-Roman-37"/>
       <path d="
M10.9844 1.51562
L10.9844 10.5
Q14.7031 8.73438 18.5 7.8125
Q22.3125 6.89062 25.9844 6.89062
Q35.75 6.89062 40.8906 13.4531
Q46.0469 20.0156 46.7812 33.4062
Q43.9531 29.2031 39.5938 26.9531
Q35.25 24.7031 29.9844 24.7031
Q19.0469 24.7031 12.6719 31.3125
Q6.29688 37.9375 6.29688 49.4219
Q6.29688 60.6406 12.9375 67.4219
Q19.5781 74.2188 30.6094 74.2188
Q43.2656 74.2188 49.9219 64.5156
Q56.5938 54.8281 56.5938 36.375
Q56.5938 19.1406 48.4062 8.85938
Q40.2344 -1.42188 26.4219 -1.42188
Q22.7031 -1.42188 18.8906 -0.6875
Q15.0938 0.046875 10.9844 1.51562
M30.6094 32.4219
Q37.25 32.4219 41.125 36.9531
Q45.0156 41.5 45.0156 49.4219
Q45.0156 57.2812 41.125 61.8438
Q37.25 66.4062 30.6094 66.4062
Q23.9688 66.4062 20.0938 61.8438
Q16.2188 57.2812 16.2188 49.4219
Q16.2188 41.5 20.0938 36.9531
Q23.9688 32.4219 30.6094 32.4219" id="BitstreamVeraSans-Roman-39"/>
      </defs>
      <g transform="translate(38.1575 381.311249993)scale(0.12 -0.12)">
       <use xlink:href="#BitstreamVeraSans-Roman-39"/>
       <use x="63.623046875" xlink:href="#BitstreamVeraSans-Roman-39"/>
       <use x="127.24609375" xlink:href="#BitstreamVeraSans-Roman-39"/>
       <use x="190.869140625" xlink:href="#BitstreamVeraSans-Roman-2e"/>
       <use x="222.65625" xlink:href="#BitstreamVeraSans-Roman-39"/>
       <use x="286.279296875" xlink:href="#BitstreamVeraSans-Roman-39"/>
       <use x="349.90234375" xlink:href="#BitstreamVeraSans-Roman-37"/>
      </g>
     </g>
    </g>
    <g id="ytick_2">
     <g id="line2d_15">
      <g>
       <use style="stroke:#000000;stroke-width:0.5;" x="90.0" xlink:href="#md7965d1ba0" y="322.199999988"/>
      </g>
     </g>
     <g id="line2d_16">
      <g>
       <use style="stroke:#000000;stroke-width:0.5;" x="648.0" xlink:href="#md9a1c1a7cd" y="322.199999988"/>
      </g>
     </g>
     <g id="text_9">
      <!-- 999.998 -->
      <defs>
       <path d="
M31.7812 34.625
Q24.75 34.625 20.7188 30.8594
Q16.7031 27.0938 16.7031 20.5156
Q16.7031 13.9219 20.7188 10.1562
Q24.75 6.39062 31.7812 6.39062
Q38.8125 6.39062 42.8594 10.1719
Q46.9219 13.9688 46.9219 20.5156
Q46.9219 27.0938 42.8906 30.8594
Q38.875 34.625 31.7812 34.625
M21.9219 38.8125
Q15.5781 40.375 12.0312 44.7188
Q8.5 49.0781 8.5 55.3281
Q8.5 64.0625 14.7188 69.1406
Q20.9531 74.2188 31.7812 74.2188
Q42.6719 74.2188 48.875 69.1406
Q55.0781 64.0625 55.0781 55.3281
Q55.0781 49.0781 51.5312 44.7188
Q48 40.375 41.7031 38.8125
Q48.8281 37.1562 52.7969 32.3125
Q56.7812 27.4844 56.7812 20.5156
Q56.7812 9.90625 50.3125 4.23438
Q43.8438 -1.42188 31.7812 -1.42188
Q19.7344 -1.42188 13.25 4.23438
Q6.78125 9.90625 6.78125 20.5156
Q6.78125 27.4844 10.7812 32.3125
Q14.7969 37.1562 21.9219 38.8125
M18.3125 54.3906
Q18.3125 48.7344 21.8438 45.5625
Q25.3906 42.3906 31.7812 42.3906
Q38.1406 42.3906 41.7188 45.5625
Q45.3125 48.7344 45.3125 54.3906
Q45.3125 60.0625 41.7188 63.2344
Q38.1406 66.4062 31.7812 66.4062
Q25.3906 66.4062 21.8438 63.2344
Q18.3125 60.0625 18.3125 54.3906" id="BitstreamVeraSans-Roman-38"/>
      </defs>
      <g transform="translate(37.953125 325.511249988)scale(0.12 -0.12)">
       <use xlink:href="#BitstreamVeraSans-Roman-39"/>
       <use x="63.623046875" xlink:href="#BitstreamVeraSans-Roman-39"/>
       <use x="127.24609375" xlink:href="#BitstreamVeraSans-Roman-39"/>
       <use x="190.869140625" xlink:href="#BitstreamVeraSans-Roman-2e"/>
       <use x="222.65625" xlink:href="#BitstreamVeraSans-Roman-39"/>
       <use x="286.279296875" xlink:href="#BitstreamVeraSans-Roman-39"/>
       <use x="349.90234375" xlink:href="#BitstreamVeraSans-Roman-38"/>
      </g>
     </g>
    </g>
    <g id="ytick_3">
     <g id="line2d_17">
      <g>
       <use style="stroke:#000000;stroke-width:0.5;" x="90.0" xlink:href="#md7965d1ba0" y="266.399999991"/>
      </g>
     </g>
     <g id="line2d_18">
      <g>
       <use style="stroke:#000000;stroke-width:0.5;" x="648.0" xlink:href="#md9a1c1a7cd" y="266.399999991"/>
      </g>
     </g>
     <g id="text_10">
      <!-- 999.999 -->
      <g transform="translate(37.975625 269.711249991)scale(0.12 -0.12)">
       <use xlink:href="#BitstreamVeraSans-Roman-39"/>
       <use x="63.623046875" xlink:href="#BitstreamVeraSans-Roman-39"/>
       <use x="127.24609375" xlink:href="#BitstreamVeraSans-Roman-39"/>
       <use x="190.869140625" xlink:href="#BitstreamVeraSans-Roman-2e"/>
       <use x="222.65625" xlink:href="#BitstreamVeraSans-Roman-39"/>
       <use x="286.279296875" xlink:href="#BitstreamVeraSans-Roman-39"/>
       <use x="349.90234375" xlink:href="#BitstreamVeraSans-Roman-39"/>
      </g>
     </g>
    </g>
    <g id="ytick_4">
     <g id="line2d_19">
      <g>
       <use style="stroke:#000000;stroke-width:0.5;" x="90.0" xlink:href="#md7965d1ba0" y="210.599999994"/>
      </g>
     </g>
     <g id="line2d_20">
      <g>
       <use style="stroke:#000000;stroke-width:0.5;" x="648.0" xlink:href="#md9a1c1a7cd" y="210.599999994"/>
      </g>
     </g>
     <g id="text_11">
      <!-- 1000.000 -->
      <g transform="translate(30.85625 213.911249994)scale(0.12 -0.12)">
       <use xlink:href="#BitstreamVeraSans-Roman-31"/>
       <use x="63.623046875" xlink:href="#BitstreamVeraSans-Roman-30"/>
       <use x="127.24609375" xlink:href="#BitstreamVeraSans-Roman-30"/>
       <use x="190.869140625" xlink:href="#BitstreamVeraSans-Roman-30"/>
       <use x="254.4921875" xlink:href="#BitstreamVeraSans-Roman-2e"/>
       <use x="286.279296875" xlink:href="#BitstreamVeraSans-Roman-30"/>
       <use x="349.90234375" xlink:href="#BitstreamVeraSans-Roman-30"/>
       <use x="413.525390625" xlink:href="#BitstreamVeraSans-Roman-30"/>
      </g>
     </g>
    </g>
    <g id="ytick_5">
     <g id="line2d_21">
      <g>
       <use style="stroke:#000000;stroke-width:0.5;" x="90.0" xlink:href="#md7965d1ba0" y="154.799999997"/>
      </g>
     </g>
     <g id="line2d_22">
      <g>
       <use style="stroke:#000000;stroke-width:0.5;" x="648.0" xlink:href="#md9a1c1a7cd" y="154.799999997"/>
      </g>
     </g>
     <g id="text_12">
      <!-- 1000.001 -->
      <g transform="translate(31.1675 158.111249997)scale(0.12 -0.12)">
       <use xlink:href="#BitstreamVeraSans-Roman-31"/>
       <use x="63.623046875" xlink:href="#BitstreamVeraSans-Roman-30"/>
       <use x="127.24609375" xlink:href="#BitstreamVeraSans-Roman-30"/>
       <use x="190.869140625" xlink:href="#BitstreamVeraSans-Roman-30"/>
       <use x="254.4921875" xlink:href="#BitstreamVeraSans-Roman-2e"/>
       <use x="286.279296875" xlink:href="#BitstreamVeraSans-Roman-30"/>
       <use x="349.90234375" xlink:href="#BitstreamVeraSans-Roman-30"/>
       <use x="413.525390625" xlink:href="#BitstreamVeraSans-Roman-31"/>
      </g>
     </g>
    </g>
    <g id="ytick_6">
     <g id="line2d_23">
      <g>
       <use style="stroke:#000000;stroke-width:0.5;" x="90.0" xlink:href="#md7965d1ba0" y="99.0"/>
      </g>
     </g>
     <g id="line2d_24">
      <g>
       <use style="stroke:#000000;stroke-width:0.5;" x="648.0" xlink:href="#md9a1c1a7cd" y="99.0"/>
      </g>
     </g>
     <g id="text_13">
      <!-- 1000.002 -->
      <g transform="translate(31.26125 102.31125)scale(0.12 -0.12)">
       <use xlink:href="#BitstreamVeraSans-Roman-31"/>
       <use x="63.623046875" xlink:href="#BitstreamVeraSans-Roman-30"/>
       <use x="127.24609375" xlink:href="#BitstreamVeraSans-Roman-30"/>
       <use x="190.869140625" xlink:href="#BitstreamVeraSans-Roman-30"/>
       <use x="254.4921875" xlink:href="#BitstreamVeraSans-Roman-2e"/>
       <use x="286.279296875" xlink:href="#BitstreamVeraSans-Roman-30"/>
       <use x="349.90234375" xlink:href="#BitstreamVeraSans-Roman-30"/>
       <use x="413.525390625" xlink:href="#BitstreamVeraSans-Roman-32"/>
      </g>
     </g>
    </g>
    <g id="ytick_7">
     <g id="line2d_25">
      <g>
       <use style="stroke:#000000;stroke-width:0.5;" x="90.0" xlink:href="#md7965d1ba0" y="43.1999999955"/>
      </g>
     </g>
     <g id="line2d_26">
      <g>
       <use style="stroke:#000000;stroke-width:0.5;" x="648.0" xlink:href="#md9a1c1a7cd" y="43.1999999955"/>
      </g>
     </g>
     <g id="text_14">
      <!-- 1000.003 -->
      <g transform="translate(31.02125 46.5112499955)scale(0.12 -0.12)">
       <use xlink:href="#BitstreamVeraSans-Roman-31"/>
       <use x="63.623046875" xlink:href="#BitstreamVeraSans-Roman-30"/>
       <use x="127.24609375" xlink:href="#BitstreamVeraSans-Roman-30"/>
       <use x="190.869140625" xlink:href="#BitstreamVeraSans-Roman-30"/>
       <use x="254.4921875" xlink:href="#BitstreamVeraSans-Roman-2e"/>
       <use x="286.279296875" xlink:href="#BitstreamVeraSans-Roman-30"/>
       <use x="349.90234375" xlink:href="#BitstreamVeraSans-Roman-30"/>
       <use x="413.525390625" xlink:href="#BitstreamVeraSans-Roman-33"/>
      </g>
     </g>
    </g>
    <g id="text_15">
     <!-- Time difference /ms -->
     <defs>
      <path d="
M54.8906 33.0156
L54.8906 0
L45.9062 0
L45.9062 32.7188
Q45.9062 40.4844 42.875 44.3281
Q39.8438 48.1875 33.7969 48.1875
Q26.5156 48.1875 22.3125 43.5469
Q18.1094 38.9219 18.1094 30.9062
L18.1094 0
L9.07812 0
L9.07812 54.6875
L18.1094 54.6875
L18.1094 46.1875
Q21.3438 51.125 25.7031 53.5625
Q30.0781 56 35.7969 56
Q45.2188 56 50.0469 50.1719
Q54.8906 44.3438 54.8906 33.0156" id="BitstreamVeraSans-Roman-6e"/>
      <path d="
M48.7812 52.5938
L48.7812 44.1875
Q44.9688 46.2969 41.1406 47.3438
Q37.3125 48.3906 33.4062 48.3906
Q24.6562 48.3906 19.8125 42.8438
Q14.9844 37.3125 14.9844 27.2969
Q14.9844 17.2812 19.8125 11.7344
Q24.6562 6.20312 33.4062 6.20312
Q37.3125 6.20312 41.1406 7.25
Q44.9688 8.29688 48.7812 10.4062
L48.7812 2.09375
Q45.0156 0.34375 40.9844 -0.53125
Q36.9688 -1.42188 32.4219 -1.42188
Q20.0625 -1.42188 12.7812 6.34375
Q5.51562 14.1094 5.51562 27.2969
Q5.51562 40.6719 12.8594 48.3281
Q20.2188 56 33.0156 56
Q37.1562 56 41.1094 55.1406
Q45.0625 54.2969 48.7812 52.5938" id="BitstreamVeraSans-Roman-63"/>
      <path d="
M41.1094 46.2969
Q39.5938 47.1719 37.8125 47.5781
Q36.0312 48 33.8906 48
Q26.2656 48 22.1875 43.0469
Q18.1094 38.0938 18.1094 28.8125
L18.1094 0
L9.07812 0
L9.07812 54.6875
L18.1094 54.6875
L18.1094 46.1875
Q20.9531 51.1719 25.4844 53.5781
Q30.0312 56 36.5312 56
Q37.4531 56 38.5781 55.875
Q39.7031 55.7656 41.0625 55.5156
z
" id="BitstreamVeraSans-Roman-72"/>
      <path d="
M-0.296875 72.9062
L61.375 72.9062
L61.375 64.5938
L35.5 64.5938
L35.5 0
L25.5938 0
L25.5938 64.5938
L-0.296875 64.5938
z
" id="BitstreamVeraSans-Roman-54"/>
      <path d="
M45.4062 46.3906
L45.4062 75.9844
L54.3906 75.9844
L54.3906 0
L45.4062 0
L45.4062 8.20312
Q42.5781 3.32812 38.25 0.953125
Q33.9375 -1.42188 27.875 -1.42188
Q17.9688 -1.42188 11.7344 6.48438
Q5.51562 14.4062 5.51562 27.2969
Q5.51562 40.1875 11.7344 48.0938
Q17.9688 56 27.875 56
Q33.9375 56 38.25 53.625
Q42.5781 51.2656 45.4062 46.3906
M14.7969 27.2969
Q14.7969 17.3906 18.875 11.75
Q22.9531 6.10938 30.0781 6.10938
Q37.2031 6.10938 41.2969 11.75
Q45.4062 17.3906 45.4062 27.2969
Q45.4062 37.2031 41.2969 42.8438
Q37.2031 48.4844 30.0781 48.4844
Q22.9531 48.4844 18.875 42.8438
Q14.7969 37.2031 14.7969 27.2969" id="BitstreamVeraSans-Roman-64"/>
      <path d="
M25.3906 72.9062
L33.6875 72.9062
L8.29688 -9.28125
L0 -9.28125
z
" id="BitstreamVeraSans-Roman-2f"/>
      <path d="
M37.1094 75.9844
L37.1094 68.5
L28.5156 68.5
Q23.6875 68.5 21.7969 66.5469
Q19.9219 64.5938 19.9219 59.5156
L19.9219 54.6875
L34.7188 54.6875
L34.7188 47.7031
L19.9219 47.7031
L19.9219 0
L10.8906 0
L10.8906 47.7031
L2.29688 47.7031
L2.29688 54.6875
L10.8906 54.6875
L10.8906 58.5
Q10.8906 67.625 15.1406 71.7969
Q19.3906 75.9844 28.6094 75.9844
z
" id="BitstreamVeraSans-Roman-66"/>
      <path id="BitstreamVeraSans-Roman-20"/>
      <path d="
M9.42188 54.6875
L18.4062 54.6875
L18.4062 0
L9.42188 0
z

M9.42188 75.9844
L18.4062 75.9844
L18.4062 64.5938
L9.42188 64.5938
z
" id="BitstreamVeraSans-Roman-69"/>
     </defs>
     <g transform="translate(23.360625 270.0196875)rotate(-90.0)scale(0.12 -0.12)">
      <use xlink:href="#BitstreamVeraSans-Roman-54"/>
      <use x="57.958984375" xlink:href="#BitstreamVeraSans-Roman-69"/>
      <use x="85.7421875" xlink:href="#BitstreamVeraSans-Roman-6d"/>
      <use x="183.154296875" xlink:href="#BitstreamVeraSans-Roman-65"/>
      <use x="244.677734375" xlink:href="#BitstreamVeraSans-Roman-20"/>
      <use x="276.46484375" xlink:href="#BitstreamVeraSans-Roman-64"/>
      <use x="339.94140625" xlink:href="#BitstreamVeraSans-Roman-69"/>
      <use x="367.724609375" xlink:href="#BitstreamVeraSans-Roman-66"/>
      <use x="402.9296875" xlink:href="#BitstreamVeraSans-Roman-66"/>
      <use x="438.134765625" xlink:href="#BitstreamVeraSans-Roman-65"/>
      <use x="499.658203125" xlink:href="#BitstreamVeraSans-Roman-72"/>
      <use x="538.521484375" xlink:href="#BitstreamVeraSans-Roman-65"/>
      <use x="600.044921875" xlink:href="#BitstreamVeraSans-Roman-6e"/>
      <use x="663.423828125" xlink:href="#BitstreamVeraSans-Roman-63"/>
      <use x="718.404296875" xlink:href="#BitstreamVeraSans-Roman-65"/>
      <use x="779.927734375" xlink:href="#BitstreamVeraSans-Roman-20"/>
      <use x="811.71484375" xlink:href="#BitstreamVeraSans-Roman-2f"/>
      <use x="845.40625" xlink:href="#BitstreamVeraSans-Roman-6d"/>
      <use x="942.818359375" xlink:href="#BitstreamVeraSans-Roman-73"/>
     </g>
    </g>
   </g>
   <g id="text_16">
    <!-- Consecutive PPS time difference -->
    <defs>
     <path d="
M30.6094 48.3906
Q23.3906 48.3906 19.1875 42.75
Q14.9844 37.1094 14.9844 27.2969
Q14.9844 17.4844 19.1562 11.8438
Q23.3438 6.20312 30.6094 6.20312
Q37.7969 6.20312 41.9844 11.8594
Q46.1875 17.5312 46.1875 27.2969
Q46.1875 37.0156 41.9844 42.7031
Q37.7969 48.3906 30.6094 48.3906
M30.6094 56
Q42.3281 56 49.0156 48.375
Q55.7188 40.7656 55.7188 27.2969
Q55.7188 13.875 49.0156 6.21875
Q42.3281 -1.42188 30.6094 -1.42188
Q18.8438 -1.42188 12.1719 6.21875
Q5.51562 13.875 5.51562 27.2969
Q5.51562 40.7656 12.1719 48.375
Q18.8438 56 30.6094 56" id="BitstreamVeraSans-Roman-6f"/>
     <path d="
M18.3125 70.2188
L18.3125 54.6875
L36.8125 54.6875
L36.8125 47.7031
L18.3125 47.7031
L18.3125 18.0156
Q18.3125 11.3281 20.1406 9.42188
Q21.9688 7.51562 27.5938 7.51562
L36.8125 7.51562
L36.8125 0
L27.5938 0
Q17.1875 0 13.2344 3.875
Q9.28125 7.76562 9.28125 18.0156
L9.28125 47.7031
L2.6875 47.7031
L2.6875 54.6875
L9.28125 54.6875
L9.28125 70.2188
z
" id="BitstreamVeraSans-Roman-74"/>
     <path d="
M19.6719 64.7969
L19.6719 37.4062
L32.0781 37.4062
Q38.9688 37.4062 42.7188 40.9688
Q46.4844 44.5312 46.4844 51.125
Q46.4844 57.6719 42.7188 61.2344
Q38.9688 64.7969 32.0781 64.7969
z

M9.8125 72.9062
L32.0781 72.9062
Q44.3438 72.9062 50.6094 67.3594
Q56.8906 61.8125 56.8906 51.125
Q56.8906 40.3281 50.6094 34.8125
Q44.3438 29.2969 32.0781 29.2969
L19.6719 29.2969
L19.6719 0
L9.8125 0
z
" id="BitstreamVeraSans-Roman-50"/>
     <path d="
M8.5 21.5781
L8.5 54.6875
L17.4844 54.6875
L17.4844 21.9219
Q17.4844 14.1562 20.5 10.2656
Q23.5312 6.39062 29.5938 6.39062
Q36.8594 6.39062 41.0781 11.0312
Q45.3125 15.6719 45.3125 23.6875
L45.3125 54.6875
L54.2969 54.6875
L54.2969 0
L45.3125 0
L45.3125 8.40625
Q42.0469 3.42188 37.7188 1
Q33.4062 -1.42188 27.6875 -1.42188
Q18.2656 -1.42188 13.375 4.4375
Q8.5 10.2969 8.5 21.5781" id="BitstreamVeraSans-Roman-75"/>
     <path d="
M2.98438 54.6875
L12.5 54.6875
L29.5938 8.79688
L46.6875 54.6875
L56.2031 54.6875
L35.6875 0
L23.4844 0
z
" id="BitstreamVeraSans-Roman-76"/>
     <path d="
M64.4062 67.2812
L64.4062 56.8906
Q59.4219 61.5312 53.7812 63.8125
Q48.1406 66.1094 41.7969 66.1094
Q29.2969 66.1094 22.6562 58.4688
Q16.0156 50.8281 16.0156 36.375
Q16.0156 21.9688 22.6562 14.3281
Q29.2969 6.6875 41.7969 6.6875
Q48.1406 6.6875 53.7812 8.98438
Q59.4219 11.2812 64.4062 15.9219
L64.4062 5.60938
Q59.2344 2.09375 53.4375 0.328125
Q47.6562 -1.42188 41.2188 -1.42188
Q24.6562 -1.42188 15.125 8.70312
Q5.60938 18.8438 5.60938 36.375
Q5.60938 53.9531 15.125 64.0781
Q24.6562 74.2188 41.2188 74.2188
Q47.75 74.2188 53.5312 72.4844
Q59.3281 70.75 64.4062 67.2812" id="BitstreamVeraSans-Roman-43"/>
    </defs>
    <g transform="translate(252.534375 38.2)scale(0.144 -0.144)">
     <use xlink:href="#BitstreamVeraSans-Roman-43"/>
     <use x="69.82421875" xlink:href="#BitstreamVeraSans-Roman-6f"/>
     <use x="131.005859375" xlink:href="#BitstreamVeraSans-Roman-6e"/>
     <use x="194.384765625" xlink:href="#BitstreamVeraSans-Roman-73"/>
     <use x="246.484375" xlink:href="#BitstreamVeraSans-Roman-65"/>
     <use x="308.0078125" xlink:href="#BitstreamVeraSans-Roman-63"/>
     <use x="362.98828125" xlink:href="#BitstreamVeraSans-Roman-75"/>
     <use x="426.3671875" xlink:href="#BitstreamVeraSans-Roman-74"/>
     <use x="465.576171875" xlink:href="#BitstreamVeraSans-Roman-69"/>
     <use x="493.359375" xlink:href="#BitstreamVeraSans-Roman-76"/>
     <use x="552.5390625" xlink:href="#BitstreamVeraSans-Roman-65"/>
     <use x="614.0625" xlink:href="#BitstreamVeraSans-Roman-20"/>
     <use x="645.849609375" xlink:href="#BitstreamVeraSans-Roman-50"/>
     <use x="706.15234375" xlink:href="#BitstreamVeraSans-Roman-50"/>
     <use x="766.455078125" xlink:href="#BitstreamVeraSans-Roman-53"/>
     <use x="829.931640625" xlink:href="#BitstreamVeraSans-Roman-20"/>
     <use x="861.71875" xlink:href="#BitstreamVeraSans-Roman-74"/>
     <use x="900.927734375" xlink:href="#BitstreamVeraSans-Roman-69"/>
     <use x="928.7109375" xlink:href="#BitstreamVeraSans-Roman-6d"/>
     <use x="1026.123046875" xlink:href="#BitstreamVeraSans-Roman-65"/>
     <use x="1087.646484375" xlink:href="#BitstreamVeraSans-Roman-20"/>
     <use x="1119.43359375" xlink:href="#BitstreamVeraSans-Roman-64"/>
     <use x="1182.91015625" xlink:href="#BitstreamVeraSans-Roman-69"/>
     <use x="1210.693359375" xlink:href="#BitstreamVeraSans-Roman-66"/>
     <use x="1245.8984375" xlink:href="#BitstreamVeraSans-Roman-66"/>
     <use x="1281.103515625" xlink:href="#BitstreamVeraSans-Roman-65"/>
     <use x="1342.626953125" xlink:href="#BitstreamVeraSans-Roman-72"/>
     <use x="1381.490234375" xlink:href="#BitstreamVeraSans-Roman-65"/>
     <use x="1443.013671875" xlink:href="#BitstreamVeraSans-Roman-6e"/>
     <use x="1506.392578125" xlink:href="#BitstreamVeraSans-Roman-63"/>
     <use x="1561.373046875" xlink:href="#BitstreamVeraSans-Roman-65"/>
    </g>
   </g>
  </g>
 </g>
 <defs>
  <clipPath id="p468b818efe">
   <rect height="334.8" width="558.0" x="90.0" y="43.2"/>
  </clipPath>
 </defs>
</svg>
