<?xml version="1.0" encoding="utf-8" standalone="no"?>
<!DOCTYPE svg PUBLIC "-//W3C//DTD SVG 1.1//EN"
  "http://www.w3.org/Graphics/SVG/1.1/DTD/svg11.dtd">
<!-- Created with matplotlib (http://matplotlib.org/) -->
<svg height="432pt" version="1.1" viewBox="0 0 720 432" width="720pt" xmlns="http://www.w3.org/2000/svg" xmlns:xlink="http://www.w3.org/1999/xlink">
 <defs>
  <style type="text/css">
*{stroke-linecap:butt;stroke-linejoin:round;}
  </style>
 </defs>
 <g id="figure_1">
  <g id="patch_1">
   <path d="
M0 432
L720 432
L720 0
L0 0
z
" style="fill:#ffffff;"/>
  </g>
  <g id="axes_1">
   <g id="patch_2">
    <path d="
M90 378
L536.4 378
L536.4 43.2
L90 43.2
z
" style="fill:#ffffff;"/>
   </g>
   <g id="line2d_1">
    <path clip-path="url(#p31a3573520)" d="
M90.2234 378
L117.481 378
L117.928 373.815
L118.822 373.815
L119.268 369.63
L119.715 373.815
L120.162 357.075
L120.609 365.445
L121.503 365.445
L121.95 352.89
L122.396 373.815
L123.29 357.075
L123.737 373.815
L124.184 369.63
L124.631 373.815
L125.077 361.26
L125.524 352.89
L126.418 369.63
L126.865 357.075
L127.312 357.075
L127.759 373.815
L128.205 365.445
L128.652 369.63
L129.099 365.445
L129.546 369.63
L131.333 369.63
L131.78 378
L132.227 369.63
L132.674 378
L133.121 373.815
L133.568 378
L134.908 378
L135.355 373.815
L135.802 378
L232.768 378
L233.214 373.815
L233.661 378
L234.108 369.63
L234.555 378
L235.002 369.63
L235.449 357.075
L235.895 365.445
L236.342 357.075
L236.789 357.075
L237.236 373.815
L237.683 365.445
L238.13 369.63
L238.577 352.89
L239.023 352.89
L239.47 373.815
L239.917 336.15
L240.364 369.63
L240.811 348.705
L241.258 369.63
L241.705 336.15
L242.151 340.335
L242.598 348.705
L243.045 323.595
L243.492 336.15
L243.939 352.89
L244.386 319.41
L244.832 315.225
L245.279 302.67
L245.726 298.485
L246.173 298.485
L246.62 319.41
L247.067 285.93
L247.514 302.67
L247.96 281.745
L248.407 298.485
L248.854 311.04
L249.301 244.08
L249.748 331.965
L250.195 290.115
L250.641 306.855
L251.088 277.56
L251.535 285.93
L251.982 302.67
L252.429 269.19
L252.876 273.375
L253.323 273.375
L253.769 285.93
L254.216 302.67
L254.663 277.56
L255.11 294.3
L255.557 277.56
L256.004 294.3
L256.45 277.56
L256.897 231.525
L257.791 168.75
L258.238 193.86
L258.685 181.305
L259.132 214.785
L259.578 189.675
L260.472 198.045
L260.919 185.49
L261.366 135.27
L261.813 189.675
L262.259 210.6
L262.706 210.6
L263.153 198.045
L263.6 223.155
L264.047 122.715
L264.494 147.825
L265.387 131.085
L265.834 152.01
L266.281 160.38
L266.728 64.125
L267.175 135.27
L267.622 156.195
L268.068 135.27
L268.515 105.975
L268.962 131.085
L269.409 143.64
L269.856 164.565
L270.303 114.345
L270.75 185.49
L271.196 93.42
L271.643 105.975
L272.09 114.345
L272.537 152.01
L272.984 210.6
L273.431 193.86
L273.877 189.675
L274.324 206.415
L274.771 273.375
L275.218 277.56
L275.665 239.895
L276.112 323.595
L276.559 239.895
L277.005 285.93
L277.452 315.225
L277.899 281.745
L278.346 260.82
L278.793 285.93
L279.24 252.45
L279.686 294.3
L280.133 223.155
L280.58 231.525
L281.027 198.045
L281.474 202.23
L281.921 181.305
L282.368 168.75
L282.814 210.6
L283.261 185.49
L283.708 244.08
L284.155 168.75
L284.602 231.525
L285.049 239.895
L285.942 285.93
L286.389 273.375
L287.283 227.34
L287.73 256.635
L288.177 252.45
L288.623 269.19
L289.07 223.155
L289.517 235.71
L289.964 193.86
L290.411 185.49
L290.858 265.005
L291.305 235.71
L291.751 252.45
L292.198 223.155
L292.645 265.005
L293.092 269.19
L293.539 302.67
L293.986 273.375
L294.879 315.225
L295.326 319.41
L295.773 319.41
L296.22 290.115
L296.667 319.41
L297.114 306.855
L297.56 336.15
L298.007 311.04
L298.454 311.04
L298.901 319.41
L299.348 323.595
L299.795 315.225
L300.241 344.52
L300.688 319.41
L301.135 336.15
L301.582 327.78
L302.029 352.89
L302.476 331.965
L302.923 352.89
L303.369 344.52
L304.263 352.89
L304.71 344.52
L305.157 352.89
L305.604 357.075
L306.497 357.075
L307.391 365.445
L307.838 344.52
L308.285 365.445
L308.732 357.075
L309.178 361.26
L310.072 378
L310.519 365.445
L310.966 373.815
L311.413 361.26
L311.859 373.815
L312.306 369.63
L313.2 378
L313.647 365.445
L314.094 373.815
L314.541 369.63
L314.987 378
L315.881 369.63
L316.328 361.26
L316.775 357.075
L317.222 336.15
L317.668 344.52
L318.115 369.63
L318.562 348.705
L319.009 344.52
L319.456 357.075
L319.903 357.075
L320.35 369.63
L320.796 352.89
L321.243 365.445
L321.69 361.26
L322.137 365.445
L322.584 348.705
L323.031 357.075
L323.477 357.075
L323.924 361.26
L324.371 357.075
L324.818 357.075
L325.265 340.335
L325.712 369.63
L326.159 344.52
L326.605 352.89
L327.052 348.705
L327.499 378
L327.946 361.26
L328.393 369.63
L329.733 357.075
L330.18 369.63
L331.074 378
L331.521 365.445
L331.968 361.26
L332.414 373.815
L332.861 365.445
L333.308 373.815
L333.755 369.63
L334.202 369.63
L334.649 373.815
L335.095 373.815
L335.542 378
L335.989 378
L337.33 365.445
L337.777 378
L339.564 378
L340.011 373.815
L340.458 378
L340.905 378
L341.351 369.63
L341.798 378
L342.245 378
L342.692 369.63
L343.586 378
L347.16 378
L347.607 373.815
L348.054 378
L348.948 378
L349.395 369.63
L349.841 378
L351.182 378
L351.629 373.815
L352.076 378
L352.523 373.815
L352.969 378
L353.416 378
L353.863 373.815
L354.31 373.815
L354.757 378
L355.204 373.815
L355.65 378
L356.097 378
L356.544 373.815
L356.991 378
L357.885 378
L358.332 365.445
L358.778 378
L359.672 378
L360.119 373.815
L360.566 378
L361.013 373.815
L361.459 378
L536.177 378
L536.177 378" style="fill:none;stroke:#00ff00;stroke-linecap:square;"/>
   </g>
   <g id="line2d_2">
    <path clip-path="url(#p31a3573520)" d="
M90.2234 378
L116.587 378
L117.034 373.815
L117.481 378
L119.268 378
L119.715 373.815
L120.162 373.815
L120.609 378
L121.503 378
L122.396 369.63
L122.843 378
L123.29 373.815
L123.737 378
L124.184 378
L124.631 373.815
L125.077 378
L127.312 378
L127.759 373.815
L128.205 378
L130.886 378
L131.333 373.815
L131.78 378
L132.227 373.815
L132.674 378
L226.512 378
L226.959 373.815
L227.405 378
L227.852 369.63
L228.299 369.63
L228.746 378
L229.193 369.63
L230.086 378
L230.533 365.445
L230.98 361.26
L231.427 378
L231.874 365.445
L232.321 365.445
L232.768 352.89
L233.214 357.075
L233.661 348.705
L234.108 365.445
L234.555 357.075
L235.002 361.26
L235.449 327.78
L236.342 344.52
L236.789 327.78
L237.236 306.855
L237.683 311.04
L238.13 298.485
L238.577 315.225
L239.023 298.485
L239.47 306.855
L239.917 336.15
L240.364 298.485
L240.811 277.56
L241.258 281.745
L241.705 294.3
L242.151 265.005
L242.598 294.3
L243.045 302.67
L243.492 285.93
L243.939 331.965
L244.386 265.005
L244.832 256.635
L245.279 231.525
L245.726 248.265
L246.173 256.635
L246.62 273.375
L247.067 235.71
L248.407 298.485
L248.854 306.855
L249.301 277.56
L249.748 302.67
L250.195 290.115
L250.641 311.04
L251.088 290.115
L251.535 311.04
L251.982 302.67
L252.429 290.115
L252.876 294.3
L253.323 315.225
L253.769 323.595
L254.216 315.225
L254.663 323.595
L255.11 306.855
L255.557 331.965
L256.004 319.41
L256.45 290.115
L256.897 294.3
L257.344 265.005
L257.791 311.04
L258.238 277.56
L258.685 306.855
L259.132 298.485
L259.578 327.78
L260.025 223.155
L260.472 248.265
L261.366 248.265
L261.813 256.635
L262.259 235.71
L262.706 231.525
L263.153 260.82
L263.6 248.265
L264.047 177.12
L264.494 265.005
L264.941 235.71
L265.387 214.785
L265.834 218.97
L266.281 210.6
L266.728 260.82
L267.175 260.82
L267.622 281.745
L268.068 239.895
L268.515 239.895
L268.962 260.82
L269.409 260.82
L269.856 248.265
L270.303 214.785
L270.75 277.56
L271.196 256.635
L271.643 302.67
L272.09 273.375
L272.537 277.56
L273.431 302.67
L273.877 323.595
L274.324 331.965
L274.771 319.41
L275.218 327.78
L275.665 315.225
L276.112 340.335
L276.559 344.52
L277.005 344.52
L277.452 357.075
L277.899 344.52
L278.346 302.67
L278.793 306.855
L279.24 327.78
L279.686 298.485
L280.133 294.3
L280.58 327.78
L281.027 315.225
L281.474 265.005
L281.921 298.485
L282.368 361.26
L282.814 319.41
L283.708 352.89
L284.155 319.41
L284.602 319.41
L285.495 336.15
L285.942 319.41
L286.389 352.89
L286.836 315.225
L287.283 311.04
L287.73 315.225
L288.177 365.445
L288.623 336.15
L289.07 352.89
L289.517 331.965
L289.964 331.965
L290.411 327.78
L290.858 348.705
L291.305 327.78
L291.751 327.78
L292.198 340.335
L292.645 311.04
L293.092 361.26
L293.539 331.965
L293.986 352.89
L294.432 357.075
L294.879 365.445
L295.326 357.075
L295.773 369.63
L296.22 365.445
L296.667 373.815
L297.114 365.445
L298.007 365.445
L298.901 373.815
L299.348 373.815
L299.795 361.26
L300.241 373.815
L300.688 365.445
L301.135 373.815
L301.582 357.075
L302.029 378
L302.476 365.445
L302.923 373.815
L303.369 361.26
L303.816 365.445
L304.263 378
L304.71 369.63
L305.157 378
L305.604 378
L306.05 373.815
L306.944 373.815
L307.391 378
L308.285 378
L308.732 373.815
L309.178 378
L311.413 378
L311.859 373.815
L312.306 378
L312.753 378
L313.2 369.63
L313.647 373.815
L314.541 373.815
L314.987 365.445
L315.434 373.815
L315.881 369.63
L316.328 373.815
L316.775 365.445
L317.222 378
L317.668 365.445
L318.115 369.63
L318.562 378
L319.009 373.815
L319.456 378
L320.35 378
L320.796 369.63
L321.243 378
L321.69 373.815
L322.137 373.815
L322.584 369.63
L323.031 361.26
L323.477 378
L323.924 378
L324.371 369.63
L324.818 378
L325.265 373.815
L325.712 373.815
L326.159 378
L327.499 378
L327.946 373.815
L328.393 373.815
L328.84 378
L329.286 373.815
L329.733 378
L340.905 378
L341.351 373.815
L341.798 378
L346.714 378
L347.16 373.815
L347.607 378
L536.177 378
L536.177 378" style="fill:none;stroke:#ffea00;stroke-linecap:square;"/>
   </g>
   <g id="line2d_3">
    <path clip-path="url(#p31a3573520)" d="
M90.2234 378
L116.587 378
L117.034 369.63
L117.928 369.63
L118.375 378
L119.268 378
L119.715 365.445
L120.162 365.445
L120.609 369.63
L121.056 378
L121.503 365.445
L122.396 357.075
L123.737 369.63
L124.184 369.63
L124.631 361.26
L125.077 365.445
L125.524 378
L125.971 369.63
L126.418 369.63
L126.865 361.26
L127.312 369.63
L127.759 373.815
L128.205 369.63
L128.652 373.815
L129.099 361.26
L129.546 378
L129.993 378
L130.886 369.63
L131.78 378
L133.568 378
L134.014 373.815
L134.461 378
L134.908 369.63
L135.355 378
L135.802 373.815
L136.249 378
L235.002 378
L235.449 373.815
L235.895 378
L236.342 378
L236.789 373.815
L237.236 378
L238.13 369.63
L238.577 369.63
L239.023 378
L239.47 361.26
L239.917 352.89
L240.364 373.815
L240.811 365.445
L241.258 373.815
L242.151 365.445
L242.598 365.445
L243.045 369.63
L243.492 361.26
L243.939 369.63
L244.386 369.63
L245.279 331.965
L245.726 369.63
L246.173 365.445
L246.62 340.335
L247.067 352.89
L247.514 373.815
L247.96 315.225
L248.407 348.705
L248.854 331.965
L249.301 344.52
L249.748 336.15
L250.195 336.15
L250.641 344.52
L251.088 311.04
L251.535 352.89
L251.982 327.78
L252.429 323.595
L252.876 340.335
L253.323 306.855
L254.216 331.965
L254.663 327.78
L255.11 302.67
L255.557 323.595
L256.004 311.04
L256.45 331.965
L257.344 323.595
L257.791 302.67
L258.238 294.3
L258.685 323.595
L259.578 340.335
L260.025 340.335
L260.472 323.595
L260.919 327.78
L261.366 302.67
L261.813 323.595
L262.706 306.855
L263.153 252.45
L263.6 248.265
L264.047 298.485
L264.494 269.19
L264.941 302.67
L265.387 285.93
L265.834 298.485
L266.728 235.71
L267.175 260.82
L267.622 294.3
L268.068 256.635
L268.515 248.265
L268.962 298.485
L269.409 269.19
L269.856 260.82
L270.303 260.82
L270.75 273.375
L271.196 273.375
L271.643 281.745
L272.09 223.155
L272.537 252.45
L272.984 218.97
L273.431 273.375
L273.877 244.08
L274.324 256.635
L274.771 277.56
L275.218 260.82
L275.665 269.19
L276.112 244.08
L276.559 298.485
L277.005 285.93
L277.452 306.855
L277.899 281.745
L278.346 269.19
L278.793 306.855
L279.24 269.19
L279.686 306.855
L280.133 319.41
L280.58 323.595
L281.027 285.93
L281.474 315.225
L281.921 306.855
L282.368 311.04
L282.814 294.3
L283.261 298.485
L283.708 327.78
L284.155 294.3
L284.602 302.67
L285.049 298.485
L285.495 323.595
L285.942 323.595
L286.389 336.15
L287.283 281.745
L287.73 306.855
L288.177 302.67
L288.623 319.41
L289.07 281.745
L289.517 311.04
L289.964 290.115
L290.411 281.745
L290.858 302.67
L291.305 311.04
L291.751 302.67
L292.198 298.485
L292.645 311.04
L293.092 311.04
L293.539 315.225
L293.986 281.745
L294.432 315.225
L294.879 323.595
L295.326 340.335
L295.773 344.52
L296.22 361.26
L296.667 311.04
L297.114 331.965
L298.007 348.705
L298.454 344.52
L298.901 357.075
L299.348 352.89
L299.795 361.26
L300.241 357.075
L300.688 369.63
L301.135 357.075
L302.029 357.075
L302.476 344.52
L302.923 369.63
L303.369 369.63
L303.816 357.075
L304.263 373.815
L304.71 361.26
L305.157 352.89
L305.604 365.445
L306.05 369.63
L306.497 378
L306.944 365.445
L307.391 365.445
L307.838 378
L308.285 369.63
L308.732 365.445
L309.178 369.63
L309.625 369.63
L310.519 378
L311.859 378
L312.306 373.815
L312.753 378
L313.647 378
L314.094 373.815
L314.541 378
L314.987 373.815
L315.434 378
L318.562 378
L319.009 373.815
L319.456 378
L319.903 378
L320.796 369.63
L321.69 378
L322.137 378
L322.584 373.815
L323.031 378
L323.477 373.815
L323.924 373.815
L324.371 369.63
L324.818 378
L325.265 378
L325.712 373.815
L326.159 378
L326.605 378
L327.499 369.63
L327.946 369.63
L328.84 378
L329.286 378
L329.733 373.815
L330.18 373.815
L330.627 378
L332.414 378
L332.861 373.815
L333.308 378
L337.33 378
L337.777 373.815
L338.223 378
L342.692 378
L343.139 373.815
L343.586 378
L355.204 378
L355.65 373.815
L356.097 378
L536.177 378
L536.177 378" style="fill:none;stroke:#00ecff;stroke-linecap:square;"/>
   </g>
   <g id="line2d_4">
    <path clip-path="url(#p31a3573520)" d="
M90.2234 378
L224.277 378
L224.724 373.815
L225.171 378
L227.852 378
L228.299 373.815
L228.746 373.815
L229.193 378
L229.64 378
L230.086 369.63
L230.533 378
L232.768 378
L233.214 373.815
L233.661 373.815
L234.108 378
L234.555 373.815
L235.002 365.445
L235.449 369.63
L235.895 369.63
L236.342 373.815
L236.789 369.63
L237.236 369.63
L237.683 357.075
L238.13 373.815
L238.577 365.445
L239.023 365.445
L239.47 348.705
L239.917 378
L240.364 369.63
L240.811 378
L241.258 373.815
L241.705 373.815
L242.151 365.445
L242.598 361.26
L243.045 365.445
L243.492 352.89
L243.939 361.26
L244.386 361.26
L244.832 357.075
L245.279 378
L245.726 357.075
L246.173 348.705
L246.62 361.26
L247.067 365.445
L247.514 361.26
L247.96 378
L248.407 369.63
L248.854 373.815
L249.301 369.63
L249.748 373.815
L250.195 369.63
L250.641 378
L251.088 348.705
L251.535 373.815
L251.982 378
L252.429 369.63
L252.876 365.445
L253.323 365.445
L253.769 369.63
L254.216 365.445
L254.663 378
L255.11 348.705
L255.557 369.63
L256.004 352.89
L256.45 357.075
L256.897 365.445
L257.344 357.075
L257.791 331.965
L258.238 352.89
L258.685 365.445
L259.132 357.075
L259.578 369.63
L260.025 373.815
L260.472 369.63
L260.919 373.815
L261.366 357.075
L261.813 344.52
L262.259 336.15
L262.706 340.335
L263.153 340.335
L263.6 369.63
L264.047 365.445
L264.494 365.445
L264.941 361.26
L265.387 336.15
L265.834 336.15
L266.728 361.26
L267.175 357.075
L267.622 365.445
L268.068 348.705
L268.515 369.63
L268.962 378
L269.409 352.89
L269.856 357.075
L270.303 369.63
L270.75 361.26
L271.643 352.89
L272.09 369.63
L272.537 365.445
L272.984 373.815
L273.431 365.445
L273.877 373.815
L274.324 369.63
L275.218 369.63
L275.665 365.445
L277.005 378
L277.452 369.63
L278.346 369.63
L278.793 378
L280.133 365.445
L281.027 373.815
L281.474 369.63
L281.921 373.815
L283.708 373.815
L284.155 365.445
L285.049 373.815
L285.495 369.63
L285.942 373.815
L286.389 373.815
L286.836 369.63
L287.283 378
L287.73 373.815
L288.177 365.445
L288.623 378
L289.07 373.815
L289.517 378
L289.964 373.815
L290.411 378
L290.858 373.815
L291.751 373.815
L292.198 378
L292.645 378
L293.092 373.815
L294.432 373.815
L294.879 378
L295.326 373.815
L295.773 373.815
L296.22 369.63
L296.667 378
L299.795 378
L300.241 373.815
L300.688 373.815
L301.135 378
L310.072 378
L310.519 373.815
L310.966 378
L314.987 378
L315.434 373.815
L315.881 378
L536.177 378
L536.177 378" style="fill:none;stroke:#ff0029;stroke-linecap:square;"/>
   </g>
   <g id="line2d_5">
    <path clip-path="url(#p31a3573520)" d="
M90.2234 378
L118.375 378
L118.822 373.815
L119.268 378
L120.609 378
L121.056 373.815
L121.503 373.815
L121.95 378
L122.396 373.815
L122.843 378
L124.631 378
L125.077 373.815
L125.524 378
L126.418 378
L126.865 373.815
L127.312 378
L127.759 373.815
L128.205 378
L129.099 378
L129.546 365.445
L129.993 378
L133.121 378
L133.568 373.815
L134.014 378
L238.577 378
L239.023 373.815
L239.47 378
L240.364 378
L240.811 373.815
L241.258 378
L241.705 369.63
L242.151 378
L242.598 373.815
L243.045 373.815
L243.492 369.63
L243.939 369.63
L244.832 378
L245.279 373.815
L245.726 378
L246.173 373.815
L246.62 373.815
L247.067 378
L247.514 369.63
L247.96 369.63
L248.407 357.075
L249.301 373.815
L249.748 365.445
L250.195 352.89
L250.641 369.63
L251.088 369.63
L251.535 336.15
L251.982 361.26
L252.429 361.26
L252.876 357.075
L253.323 365.445
L253.769 348.705
L254.216 344.52
L254.663 361.26
L255.11 357.075
L255.557 357.075
L256.004 361.26
L256.45 331.965
L256.897 344.52
L257.344 340.335
L257.791 340.335
L258.685 331.965
L259.132 357.075
L259.578 348.705
L260.025 361.26
L260.472 357.075
L260.919 357.075
L261.366 365.445
L261.813 369.63
L262.259 348.705
L262.706 340.335
L263.153 361.26
L263.6 352.89
L264.047 361.26
L264.494 340.335
L264.941 348.705
L265.387 340.335
L265.834 344.52
L266.281 352.89
L266.728 331.965
L267.175 348.705
L267.622 348.705
L268.068 357.075
L269.409 344.52
L269.856 331.965
L270.303 357.075
L270.75 357.075
L271.196 323.595
L271.643 348.705
L272.09 365.445
L272.537 344.52
L272.984 348.705
L273.431 344.52
L273.877 331.965
L274.324 315.225
L274.771 319.41
L275.218 315.225
L275.665 298.485
L276.112 285.93
L277.005 348.705
L277.899 340.335
L278.346 323.595
L278.793 336.15
L279.24 319.41
L279.686 352.89
L280.133 306.855
L280.58 327.78
L281.027 331.965
L281.474 331.965
L281.921 336.15
L282.368 323.595
L282.814 336.15
L283.261 331.965
L283.708 361.26
L284.155 352.89
L284.602 340.335
L285.049 348.705
L285.495 352.89
L285.942 361.26
L286.389 348.705
L286.836 365.445
L287.283 348.705
L287.73 344.52
L288.177 361.26
L288.623 365.445
L289.07 361.26
L289.517 348.705
L289.964 340.335
L290.411 340.335
L290.858 319.41
L291.305 336.15
L291.751 336.15
L292.198 340.335
L292.645 323.595
L293.092 365.445
L293.539 336.15
L293.986 348.705
L294.432 331.965
L294.879 357.075
L295.326 336.15
L295.773 348.705
L296.22 323.595
L296.667 365.445
L297.114 361.26
L297.56 352.89
L298.454 361.26
L298.901 352.89
L299.348 357.075
L300.241 348.705
L300.688 361.26
L301.135 365.445
L301.582 365.445
L302.029 378
L302.476 369.63
L302.923 352.89
L303.369 361.26
L303.816 378
L304.263 365.445
L305.157 365.445
L305.604 373.815
L306.497 373.815
L306.944 369.63
L307.391 378
L309.625 378
L310.072 373.815
L310.519 378
L536.177 378
L536.177 378" style="fill:none;stroke:#2a00ff;stroke-linecap:square;"/>
   </g>
   <g id="line2d_6">
    <path clip-path="url(#p31a3573520)" d="
M90.2234 378
L131.78 378
L132.227 373.815
L132.674 378
L137.589 378
L138.036 373.815
L138.483 378
L247.96 378
L248.407 373.815
L248.854 378
L252.876 378
L253.323 373.815
L253.769 378
L256.004 378
L256.45 373.815
L256.897 378
L257.791 378
L258.685 369.63
L259.132 373.815
L259.578 369.63
L260.025 369.63
L260.919 378
L261.366 378
L261.813 369.63
L262.259 378
L262.706 369.63
L263.153 369.63
L263.6 373.815
L264.047 373.815
L264.494 365.445
L264.941 373.815
L265.387 373.815
L265.834 378
L266.728 361.26
L267.175 373.815
L267.622 365.445
L268.068 373.815
L268.515 378
L268.962 365.445
L269.409 378
L269.856 369.63
L270.303 373.815
L270.75 365.445
L271.196 361.26
L271.643 373.815
L272.09 361.26
L272.537 352.89
L272.984 373.815
L273.431 352.89
L273.877 373.815
L274.324 361.26
L274.771 378
L275.218 373.815
L275.665 357.075
L276.112 361.26
L276.559 378
L277.005 369.63
L277.452 357.075
L277.899 369.63
L278.346 373.815
L278.793 361.26
L279.24 378
L279.686 365.445
L280.133 378
L280.58 361.26
L281.027 369.63
L281.474 357.075
L282.368 373.815
L282.814 357.075
L283.261 361.26
L283.708 373.815
L284.155 361.26
L284.602 373.815
L285.049 365.445
L286.389 378
L286.836 369.63
L287.73 369.63
L288.177 365.445
L288.623 378
L289.964 365.445
L290.411 369.63
L290.858 378
L291.305 369.63
L291.751 373.815
L292.198 365.445
L292.645 365.445
L293.092 373.815
L293.539 361.26
L293.986 361.26
L294.432 365.445
L294.879 365.445
L295.326 369.63
L295.773 369.63
L296.22 378
L296.667 373.815
L297.114 365.445
L297.56 373.815
L298.454 348.705
L298.901 369.63
L299.795 369.63
L300.241 378
L300.688 365.445
L301.135 365.445
L301.582 373.815
L302.029 378
L302.476 369.63
L303.369 378
L303.816 365.445
L304.263 369.63
L304.71 369.63
L305.157 373.815
L305.604 369.63
L306.497 369.63
L307.391 378
L307.838 369.63
L308.285 378
L308.732 378
L309.178 373.815
L309.625 378
L310.072 373.815
L310.519 378
L310.966 378
L311.413 369.63
L311.859 378
L312.306 378
L312.753 373.815
L313.2 378
L313.647 373.815
L314.094 378
L536.177 378
L536.177 378" style="fill:none;stroke:#ff00bf;stroke-linecap:square;"/>
   </g>
   <g id="patch_3">
    <path d="
M90 378
L90 43.2" style="fill:none;stroke:#000000;stroke-linecap:square;stroke-linejoin:miter;"/>
   </g>
   <g id="patch_4">
    <path d="
M536.4 378
L536.4 43.2" style="fill:none;stroke:#000000;stroke-linecap:square;stroke-linejoin:miter;"/>
   </g>
   <g id="patch_5">
    <path d="
M90 43.2
L536.4 43.2" style="fill:none;stroke:#000000;stroke-linecap:square;stroke-linejoin:miter;"/>
   </g>
   <g id="patch_6">
    <path d="
M90 378
L536.4 378" style="fill:none;stroke:#000000;stroke-linecap:square;stroke-linejoin:miter;"/>
   </g>
   <g id="matplotlib.axis_1">
    <g id="xtick_1">
     <g id="line2d_7">
      <defs>
       <path d="
M0 0
L0 -4" id="mc7db9fdffb" style="stroke:#000000;stroke-width:0.5;"/>
      </defs>
      <g>
       <use style="stroke:#000000;stroke-width:0.5;" x="90.0" xlink:href="#mc7db9fdffb" y="378.0"/>
      </g>
     </g>
     <g id="line2d_8">
      <defs>
       <path d="
M0 0
L0 4" id="m5a7d422ac3" style="stroke:#000000;stroke-width:0.5;"/>
      </defs>
      <g>
       <use style="stroke:#000000;stroke-width:0.5;" x="90.0" xlink:href="#m5a7d422ac3" y="43.2"/>
      </g>
     </g>
     <g id="text_1">
      <!-- 0 -->
      <defs>
       <path d="
M31.7812 66.4062
Q24.1719 66.4062 20.3281 58.9062
Q16.5 51.4219 16.5 36.375
Q16.5 21.3906 20.3281 13.8906
Q24.1719 6.39062 31.7812 6.39062
Q39.4531 6.39062 43.2812 13.8906
Q47.125 21.3906 47.125 36.375
Q47.125 51.4219 43.2812 58.9062
Q39.4531 66.4062 31.7812 66.4062
M31.7812 74.2188
Q44.0469 74.2188 50.5156 64.5156
Q56.9844 54.8281 56.9844 36.375
Q56.9844 17.9688 50.5156 8.26562
Q44.0469 -1.42188 31.7812 -1.42188
Q19.5312 -1.42188 13.0625 8.26562
Q6.59375 17.9688 6.59375 36.375
Q6.59375 54.8281 13.0625 64.5156
Q19.5312 74.2188 31.7812 74.2188" id="BitstreamVeraSans-Roman-30"/>
      </defs>
      <g transform="translate(85.96875 394.1575)scale(0.16 -0.16)">
       <use xlink:href="#BitstreamVeraSans-Roman-30"/>
      </g>
     </g>
    </g>
    <g id="xtick_2">
     <g id="line2d_9">
      <g>
       <use style="stroke:#000000;stroke-width:0.5;" x="179.28" xlink:href="#mc7db9fdffb" y="378.0"/>
      </g>
     </g>
     <g id="line2d_10">
      <g>
       <use style="stroke:#000000;stroke-width:0.5;" x="179.28" xlink:href="#m5a7d422ac3" y="43.2"/>
      </g>
     </g>
     <g id="text_2">
      <!-- 200 -->
      <defs>
       <path d="
M19.1875 8.29688
L53.6094 8.29688
L53.6094 0
L7.32812 0
L7.32812 8.29688
Q12.9375 14.1094 22.625 23.8906
Q32.3281 33.6875 34.8125 36.5312
Q39.5469 41.8438 41.4219 45.5312
Q43.3125 49.2188 43.3125 52.7812
Q43.3125 58.5938 39.2344 62.25
Q35.1562 65.9219 28.6094 65.9219
Q23.9688 65.9219 18.8125 64.3125
Q13.6719 62.7031 7.8125 59.4219
L7.8125 69.3906
Q13.7656 71.7812 18.9375 73
Q24.125 74.2188 28.4219 74.2188
Q39.75 74.2188 46.4844 68.5469
Q53.2188 62.8906 53.2188 53.4219
Q53.2188 48.9219 51.5312 44.8906
Q49.8594 40.875 45.4062 35.4062
Q44.1875 33.9844 37.6406 27.2188
Q31.1094 20.4531 19.1875 8.29688" id="BitstreamVeraSans-Roman-32"/>
      </defs>
      <g transform="translate(165.1275 394.1575)scale(0.16 -0.16)">
       <use xlink:href="#BitstreamVeraSans-Roman-32"/>
       <use x="63.623046875" xlink:href="#BitstreamVeraSans-Roman-30"/>
       <use x="127.24609375" xlink:href="#BitstreamVeraSans-Roman-30"/>
      </g>
     </g>
    </g>
    <g id="xtick_3">
     <g id="line2d_11">
      <g>
       <use style="stroke:#000000;stroke-width:0.5;" x="268.56" xlink:href="#mc7db9fdffb" y="378.0"/>
      </g>
     </g>
     <g id="line2d_12">
      <g>
       <use style="stroke:#000000;stroke-width:0.5;" x="268.56" xlink:href="#m5a7d422ac3" y="43.2"/>
      </g>
     </g>
     <g id="text_3">
      <!-- 400 -->
      <defs>
       <path d="
M37.7969 64.3125
L12.8906 25.3906
L37.7969 25.3906
z

M35.2031 72.9062
L47.6094 72.9062
L47.6094 25.3906
L58.0156 25.3906
L58.0156 17.1875
L47.6094 17.1875
L47.6094 0
L37.7969 0
L37.7969 17.1875
L4.89062 17.1875
L4.89062 26.7031
z
" id="BitstreamVeraSans-Roman-34"/>
      </defs>
      <g transform="translate(254.2125 394.1575)scale(0.16 -0.16)">
       <use xlink:href="#BitstreamVeraSans-Roman-34"/>
       <use x="63.623046875" xlink:href="#BitstreamVeraSans-Roman-30"/>
       <use x="127.24609375" xlink:href="#BitstreamVeraSans-Roman-30"/>
      </g>
     </g>
    </g>
    <g id="xtick_4">
     <g id="line2d_13">
      <g>
       <use style="stroke:#000000;stroke-width:0.5;" x="357.84" xlink:href="#mc7db9fdffb" y="378.0"/>
      </g>
     </g>
     <g id="line2d_14">
      <g>
       <use style="stroke:#000000;stroke-width:0.5;" x="357.84" xlink:href="#m5a7d422ac3" y="43.2"/>
      </g>
     </g>
     <g id="text_4">
      <!-- 600 -->
      <defs>
       <path d="
M33.0156 40.375
Q26.375 40.375 22.4844 35.8281
Q18.6094 31.2969 18.6094 23.3906
Q18.6094 15.5312 22.4844 10.9531
Q26.375 6.39062 33.0156 6.39062
Q39.6562 6.39062 43.5312 10.9531
Q47.4062 15.5312 47.4062 23.3906
Q47.4062 31.2969 43.5312 35.8281
Q39.6562 40.375 33.0156 40.375
M52.5938 71.2969
L52.5938 62.3125
Q48.875 64.0625 45.0938 64.9844
Q41.3125 65.9219 37.5938 65.9219
Q27.8281 65.9219 22.6719 59.3281
Q17.5312 52.7344 16.7969 39.4062
Q19.6719 43.6562 24.0156 45.9219
Q28.375 48.1875 33.5938 48.1875
Q44.5781 48.1875 50.9531 41.5156
Q57.3281 34.8594 57.3281 23.3906
Q57.3281 12.1562 50.6875 5.35938
Q44.0469 -1.42188 33.0156 -1.42188
Q20.3594 -1.42188 13.6719 8.26562
Q6.98438 17.9688 6.98438 36.375
Q6.98438 53.6562 15.1875 63.9375
Q23.3906 74.2188 37.2031 74.2188
Q40.9219 74.2188 44.7031 73.4844
Q48.4844 72.75 52.5938 71.2969" id="BitstreamVeraSans-Roman-36"/>
      </defs>
      <g transform="translate(343.66 394.1575)scale(0.16 -0.16)">
       <use xlink:href="#BitstreamVeraSans-Roman-36"/>
       <use x="63.623046875" xlink:href="#BitstreamVeraSans-Roman-30"/>
       <use x="127.24609375" xlink:href="#BitstreamVeraSans-Roman-30"/>
      </g>
     </g>
    </g>
    <g id="xtick_5">
     <g id="line2d_15">
      <g>
       <use style="stroke:#000000;stroke-width:0.5;" x="447.12" xlink:href="#mc7db9fdffb" y="378.0"/>
      </g>
     </g>
     <g id="line2d_16">
      <g>
       <use style="stroke:#000000;stroke-width:0.5;" x="447.12" xlink:href="#m5a7d422ac3" y="43.2"/>
      </g>
     </g>
     <g id="text_5">
      <!-- 800 -->
      <defs>
       <path d="
M31.7812 34.625
Q24.75 34.625 20.7188 30.8594
Q16.7031 27.0938 16.7031 20.5156
Q16.7031 13.9219 20.7188 10.1562
Q24.75 6.39062 31.7812 6.39062
Q38.8125 6.39062 42.8594 10.1719
Q46.9219 13.9688 46.9219 20.5156
Q46.9219 27.0938 42.8906 30.8594
Q38.875 34.625 31.7812 34.625
M21.9219 38.8125
Q15.5781 40.375 12.0312 44.7188
Q8.5 49.0781 8.5 55.3281
Q8.5 64.0625 14.7188 69.1406
Q20.9531 74.2188 31.7812 74.2188
Q42.6719 74.2188 48.875 69.1406
Q55.0781 64.0625 55.0781 55.3281
Q55.0781 49.0781 51.5312 44.7188
Q48 40.375 41.7031 38.8125
Q48.8281 37.1562 52.7969 32.3125
Q56.7812 27.4844 56.7812 20.5156
Q56.7812 9.90625 50.3125 4.23438
Q43.8438 -1.42188 31.7812 -1.42188
Q19.7344 -1.42188 13.25 4.23438
Q6.78125 9.90625 6.78125 20.5156
Q6.78125 27.4844 10.7812 32.3125
Q14.7969 37.1562 21.9219 38.8125
M18.3125 54.3906
Q18.3125 48.7344 21.8438 45.5625
Q25.3906 42.3906 31.7812 42.3906
Q38.1406 42.3906 41.7188 45.5625
Q45.3125 48.7344 45.3125 54.3906
Q45.3125 60.0625 41.7188 63.2344
Q38.1406 66.4062 31.7812 66.4062
Q25.3906 66.4062 21.8438 63.2344
Q18.3125 60.0625 18.3125 54.3906" id="BitstreamVeraSans-Roman-38"/>
      </defs>
      <g transform="translate(432.92375 394.1575)scale(0.16 -0.16)">
       <use xlink:href="#BitstreamVeraSans-Roman-38"/>
       <use x="63.623046875" xlink:href="#BitstreamVeraSans-Roman-30"/>
       <use x="127.24609375" xlink:href="#BitstreamVeraSans-Roman-30"/>
      </g>
     </g>
    </g>
    <g id="xtick_6">
     <g id="line2d_17">
      <g>
       <use style="stroke:#000000;stroke-width:0.5;" x="536.4" xlink:href="#mc7db9fdffb" y="378.0"/>
      </g>
     </g>
     <g id="line2d_18">
      <g>
       <use style="stroke:#000000;stroke-width:0.5;" x="536.4" xlink:href="#m5a7d422ac3" y="43.2"/>
      </g>
     </g>
     <g id="text_6">
      <!-- 1000 -->
      <defs>
       <path d="
M12.4062 8.29688
L28.5156 8.29688
L28.5156 63.9219
L10.9844 60.4062
L10.9844 69.3906
L28.4219 72.9062
L38.2812 72.9062
L38.2812 8.29688
L54.3906 8.29688
L54.3906 0
L12.4062 0
z
" id="BitstreamVeraSans-Roman-31"/>
      </defs>
      <g transform="translate(517.45 394.1575)scale(0.16 -0.16)">
       <use xlink:href="#BitstreamVeraSans-Roman-31"/>
       <use x="63.623046875" xlink:href="#BitstreamVeraSans-Roman-30"/>
       <use x="127.24609375" xlink:href="#BitstreamVeraSans-Roman-30"/>
       <use x="190.869140625" xlink:href="#BitstreamVeraSans-Roman-30"/>
      </g>
     </g>
    </g>
    <g id="text_7">
     <!-- Time difference /ms -->
     <defs>
      <path d="
M44.2812 53.0781
L44.2812 44.5781
Q40.4844 46.5312 36.375 47.5
Q32.2812 48.4844 27.875 48.4844
Q21.1875 48.4844 17.8438 46.4375
Q14.5 44.3906 14.5 40.2812
Q14.5 37.1562 16.8906 35.375
Q19.2812 33.5938 26.5156 31.9844
L29.5938 31.2969
Q39.1562 29.25 43.1875 25.5156
Q47.2188 21.7812 47.2188 15.0938
Q47.2188 7.46875 41.1875 3.01562
Q35.1562 -1.42188 24.6094 -1.42188
Q20.2188 -1.42188 15.4531 -0.5625
Q10.6875 0.296875 5.42188 2
L5.42188 11.2812
Q10.4062 8.6875 15.2344 7.39062
Q20.0625 6.10938 24.8125 6.10938
Q31.1562 6.10938 34.5625 8.28125
Q37.9844 10.4531 37.9844 14.4062
Q37.9844 18.0625 35.5156 20.0156
Q33.0625 21.9688 24.7031 23.7812
L21.5781 24.5156
Q13.2344 26.2656 9.51562 29.9062
Q5.8125 33.5469 5.8125 39.8906
Q5.8125 47.6094 11.2812 51.7969
Q16.75 56 26.8125 56
Q31.7812 56 36.1719 55.2656
Q40.5781 54.5469 44.2812 53.0781" id="BitstreamVeraSans-Roman-73"/>
      <path d="
M41.1094 46.2969
Q39.5938 47.1719 37.8125 47.5781
Q36.0312 48 33.8906 48
Q26.2656 48 22.1875 43.0469
Q18.1094 38.0938 18.1094 28.8125
L18.1094 0
L9.07812 0
L9.07812 54.6875
L18.1094 54.6875
L18.1094 46.1875
Q20.9531 51.1719 25.4844 53.5781
Q30.0312 56 36.5312 56
Q37.4531 56 38.5781 55.875
Q39.7031 55.7656 41.0625 55.5156
z
" id="BitstreamVeraSans-Roman-72"/>
      <path d="
M56.2031 29.5938
L56.2031 25.2031
L14.8906 25.2031
Q15.4844 15.9219 20.4844 11.0625
Q25.4844 6.20312 34.4219 6.20312
Q39.5938 6.20312 44.4531 7.46875
Q49.3125 8.73438 54.1094 11.2812
L54.1094 2.78125
Q49.2656 0.734375 44.1875 -0.34375
Q39.1094 -1.42188 33.8906 -1.42188
Q20.7969 -1.42188 13.1562 6.1875
Q5.51562 13.8125 5.51562 26.8125
Q5.51562 40.2344 12.7656 48.1094
Q20.0156 56 32.3281 56
Q43.3594 56 49.7812 48.8906
Q56.2031 41.7969 56.2031 29.5938
M47.2188 32.2344
Q47.125 39.5938 43.0938 43.9844
Q39.0625 48.3906 32.4219 48.3906
Q24.9062 48.3906 20.3906 44.1406
Q15.875 39.8906 15.1875 32.1719
z
" id="BitstreamVeraSans-Roman-65"/>
      <path d="
M37.1094 75.9844
L37.1094 68.5
L28.5156 68.5
Q23.6875 68.5 21.7969 66.5469
Q19.9219 64.5938 19.9219 59.5156
L19.9219 54.6875
L34.7188 54.6875
L34.7188 47.7031
L19.9219 47.7031
L19.9219 0
L10.8906 0
L10.8906 47.7031
L2.29688 47.7031
L2.29688 54.6875
L10.8906 54.6875
L10.8906 58.5
Q10.8906 67.625 15.1406 71.7969
Q19.3906 75.9844 28.6094 75.9844
z
" id="BitstreamVeraSans-Roman-66"/>
      <path d="
M45.4062 46.3906
L45.4062 75.9844
L54.3906 75.9844
L54.3906 0
L45.4062 0
L45.4062 8.20312
Q42.5781 3.32812 38.25 0.953125
Q33.9375 -1.42188 27.875 -1.42188
Q17.9688 -1.42188 11.7344 6.48438
Q5.51562 14.4062 5.51562 27.2969
Q5.51562 40.1875 11.7344 48.0938
Q17.9688 56 27.875 56
Q33.9375 56 38.25 53.625
Q42.5781 51.2656 45.4062 46.3906
M14.7969 27.2969
Q14.7969 17.3906 18.875 11.75
Q22.9531 6.10938 30.0781 6.10938
Q37.2031 6.10938 41.2969 11.75
Q45.4062 17.3906 45.4062 27.2969
Q45.4062 37.2031 41.2969 42.8438
Q37.2031 48.4844 30.0781 48.4844
Q22.9531 48.4844 18.875 42.8438
Q14.7969 37.2031 14.7969 27.2969" id="BitstreamVeraSans-Roman-64"/>
      <path d="
M9.42188 54.6875
L18.4062 54.6875
L18.4062 0
L9.42188 0
z

M9.42188 75.9844
L18.4062 75.9844
L18.4062 64.5938
L9.42188 64.5938
z
" id="BitstreamVeraSans-Roman-69"/>
      <path d="
M48.7812 52.5938
L48.7812 44.1875
Q44.9688 46.2969 41.1406 47.3438
Q37.3125 48.3906 33.4062 48.3906
Q24.6562 48.3906 19.8125 42.8438
Q14.9844 37.3125 14.9844 27.2969
Q14.9844 17.2812 19.8125 11.7344
Q24.6562 6.20312 33.4062 6.20312
Q37.3125 6.20312 41.1406 7.25
Q44.9688 8.29688 48.7812 10.4062
L48.7812 2.09375
Q45.0156 0.34375 40.9844 -0.53125
Q36.9688 -1.42188 32.4219 -1.42188
Q20.0625 -1.42188 12.7812 6.34375
Q5.51562 14.1094 5.51562 27.2969
Q5.51562 40.6719 12.8594 48.3281
Q20.2188 56 33.0156 56
Q37.1562 56 41.1094 55.1406
Q45.0625 54.2969 48.7812 52.5938" id="BitstreamVeraSans-Roman-63"/>
      <path id="BitstreamVeraSans-Roman-20"/>
      <path d="
M52 44.1875
Q55.375 50.25 60.0625 53.125
Q64.75 56 71.0938 56
Q79.6406 56 84.2812 50.0156
Q88.9219 44.0469 88.9219 33.0156
L88.9219 0
L79.8906 0
L79.8906 32.7188
Q79.8906 40.5781 77.0938 44.375
Q74.3125 48.1875 68.6094 48.1875
Q61.625 48.1875 57.5625 43.5469
Q53.5156 38.9219 53.5156 30.9062
L53.5156 0
L44.4844 0
L44.4844 32.7188
Q44.4844 40.625 41.7031 44.4062
Q38.9219 48.1875 33.1094 48.1875
Q26.2188 48.1875 22.1562 43.5312
Q18.1094 38.875 18.1094 30.9062
L18.1094 0
L9.07812 0
L9.07812 54.6875
L18.1094 54.6875
L18.1094 46.1875
Q21.1875 51.2188 25.4844 53.6094
Q29.7812 56 35.6875 56
Q41.6562 56 45.8281 52.9688
Q50 49.9531 52 44.1875" id="BitstreamVeraSans-Roman-6d"/>
      <path d="
M-0.296875 72.9062
L61.375 72.9062
L61.375 64.5938
L35.5 64.5938
L35.5 0
L25.5938 0
L25.5938 64.5938
L-0.296875 64.5938
z
" id="BitstreamVeraSans-Roman-54"/>
      <path d="
M25.3906 72.9062
L33.6875 72.9062
L8.29688 -9.28125
L0 -9.28125
z
" id="BitstreamVeraSans-Roman-2f"/>
      <path d="
M54.8906 33.0156
L54.8906 0
L45.9062 0
L45.9062 32.7188
Q45.9062 40.4844 42.875 44.3281
Q39.8438 48.1875 33.7969 48.1875
Q26.5156 48.1875 22.3125 43.5469
Q18.1094 38.9219 18.1094 30.9062
L18.1094 0
L9.07812 0
L9.07812 54.6875
L18.1094 54.6875
L18.1094 46.1875
Q21.3438 51.125 25.7031 53.5625
Q30.0781 56 35.7969 56
Q45.2188 56 50.0469 50.1719
Q54.8906 44.3438 54.8906 33.0156" id="BitstreamVeraSans-Roman-6e"/>
     </defs>
     <g transform="translate(233.97375 414.6425)scale(0.16 -0.16)">
      <use xlink:href="#BitstreamVeraSans-Roman-54"/>
      <use x="57.958984375" xlink:href="#BitstreamVeraSans-Roman-69"/>
      <use x="85.7421875" xlink:href="#BitstreamVeraSans-Roman-6d"/>
      <use x="183.154296875" xlink:href="#BitstreamVeraSans-Roman-65"/>
      <use x="244.677734375" xlink:href="#BitstreamVeraSans-Roman-20"/>
      <use x="276.46484375" xlink:href="#BitstreamVeraSans-Roman-64"/>
      <use x="339.94140625" xlink:href="#BitstreamVeraSans-Roman-69"/>
      <use x="367.724609375" xlink:href="#BitstreamVeraSans-Roman-66"/>
      <use x="402.9296875" xlink:href="#BitstreamVeraSans-Roman-66"/>
      <use x="438.134765625" xlink:href="#BitstreamVeraSans-Roman-65"/>
      <use x="499.658203125" xlink:href="#BitstreamVeraSans-Roman-72"/>
      <use x="538.521484375" xlink:href="#BitstreamVeraSans-Roman-65"/>
      <use x="600.044921875" xlink:href="#BitstreamVeraSans-Roman-6e"/>
      <use x="663.423828125" xlink:href="#BitstreamVeraSans-Roman-63"/>
      <use x="718.404296875" xlink:href="#BitstreamVeraSans-Roman-65"/>
      <use x="779.927734375" xlink:href="#BitstreamVeraSans-Roman-20"/>
      <use x="811.71484375" xlink:href="#BitstreamVeraSans-Roman-2f"/>
      <use x="845.40625" xlink:href="#BitstreamVeraSans-Roman-6d"/>
      <use x="942.818359375" xlink:href="#BitstreamVeraSans-Roman-73"/>
     </g>
    </g>
   </g>
   <g id="matplotlib.axis_2">
    <g id="ytick_1">
     <g id="line2d_19">
      <defs>
       <path d="
M0 0
L4 0" id="md7965d1ba0" style="stroke:#000000;stroke-width:0.5;"/>
      </defs>
      <g>
       <use style="stroke:#000000;stroke-width:0.5;" x="90.0" xlink:href="#md7965d1ba0" y="378.0"/>
      </g>
     </g>
     <g id="line2d_20">
      <defs>
       <path d="
M0 0
L-4 0" id="md9a1c1a7cd" style="stroke:#000000;stroke-width:0.5;"/>
      </defs>
      <g>
       <use style="stroke:#000000;stroke-width:0.5;" x="536.4" xlink:href="#md9a1c1a7cd" y="378.0"/>
      </g>
     </g>
     <g id="text_8">
      <!-- 0 -->
      <g transform="translate(77.9375 382.415)scale(0.16 -0.16)">
       <use xlink:href="#BitstreamVeraSans-Roman-30"/>
      </g>
     </g>
    </g>
    <g id="ytick_2">
     <g id="line2d_21">
      <g>
       <use style="stroke:#000000;stroke-width:0.5;" x="90.0" xlink:href="#md7965d1ba0" y="336.15"/>
      </g>
     </g>
     <g id="line2d_22">
      <g>
       <use style="stroke:#000000;stroke-width:0.5;" x="536.4" xlink:href="#md9a1c1a7cd" y="336.15"/>
      </g>
     </g>
     <g id="text_9">
      <!-- 10 -->
      <g transform="translate(68.46 340.565)scale(0.16 -0.16)">
       <use xlink:href="#BitstreamVeraSans-Roman-31"/>
       <use x="63.623046875" xlink:href="#BitstreamVeraSans-Roman-30"/>
      </g>
     </g>
    </g>
    <g id="ytick_3">
     <g id="line2d_23">
      <g>
       <use style="stroke:#000000;stroke-width:0.5;" x="90.0" xlink:href="#md7965d1ba0" y="294.3"/>
      </g>
     </g>
     <g id="line2d_24">
      <g>
       <use style="stroke:#000000;stroke-width:0.5;" x="536.4" xlink:href="#md9a1c1a7cd" y="294.3"/>
      </g>
     </g>
     <g id="text_10">
      <!-- 20 -->
      <g transform="translate(67.875 298.715)scale(0.16 -0.16)">
       <use xlink:href="#BitstreamVeraSans-Roman-32"/>
       <use x="63.623046875" xlink:href="#BitstreamVeraSans-Roman-30"/>
      </g>
     </g>
    </g>
    <g id="ytick_4">
     <g id="line2d_25">
      <g>
       <use style="stroke:#000000;stroke-width:0.5;" x="90.0" xlink:href="#md7965d1ba0" y="252.45"/>
      </g>
     </g>
     <g id="line2d_26">
      <g>
       <use style="stroke:#000000;stroke-width:0.5;" x="536.4" xlink:href="#md9a1c1a7cd" y="252.45"/>
      </g>
     </g>
     <g id="text_11">
      <!-- 30 -->
      <defs>
       <path d="
M40.5781 39.3125
Q47.6562 37.7969 51.625 33
Q55.6094 28.2188 55.6094 21.1875
Q55.6094 10.4062 48.1875 4.48438
Q40.7656 -1.42188 27.0938 -1.42188
Q22.5156 -1.42188 17.6562 -0.515625
Q12.7969 0.390625 7.625 2.20312
L7.625 11.7188
Q11.7188 9.32812 16.5938 8.10938
Q21.4844 6.89062 26.8125 6.89062
Q36.0781 6.89062 40.9375 10.5469
Q45.7969 14.2031 45.7969 21.1875
Q45.7969 27.6406 41.2812 31.2656
Q36.7656 34.9062 28.7188 34.9062
L20.2188 34.9062
L20.2188 43.0156
L29.1094 43.0156
Q36.375 43.0156 40.2344 45.9219
Q44.0938 48.8281 44.0938 54.2969
Q44.0938 59.9062 40.1094 62.9062
Q36.1406 65.9219 28.7188 65.9219
Q24.6562 65.9219 20.0156 65.0312
Q15.375 64.1562 9.8125 62.3125
L9.8125 71.0938
Q15.4375 72.6562 20.3438 73.4375
Q25.25 74.2188 29.5938 74.2188
Q40.8281 74.2188 47.3594 69.1094
Q53.9062 64.0156 53.9062 55.3281
Q53.9062 49.2656 50.4375 45.0938
Q46.9688 40.9219 40.5781 39.3125" id="BitstreamVeraSans-Roman-33"/>
      </defs>
      <g transform="translate(67.9225 256.865)scale(0.16 -0.16)">
       <use xlink:href="#BitstreamVeraSans-Roman-33"/>
       <use x="63.623046875" xlink:href="#BitstreamVeraSans-Roman-30"/>
      </g>
     </g>
    </g>
    <g id="ytick_5">
     <g id="line2d_27">
      <g>
       <use style="stroke:#000000;stroke-width:0.5;" x="90.0" xlink:href="#md7965d1ba0" y="210.6"/>
      </g>
     </g>
     <g id="line2d_28">
      <g>
       <use style="stroke:#000000;stroke-width:0.5;" x="536.4" xlink:href="#md9a1c1a7cd" y="210.6"/>
      </g>
     </g>
     <g id="text_12">
      <!-- 40 -->
      <g transform="translate(67.485 215.015)scale(0.16 -0.16)">
       <use xlink:href="#BitstreamVeraSans-Roman-34"/>
       <use x="63.623046875" xlink:href="#BitstreamVeraSans-Roman-30"/>
      </g>
     </g>
    </g>
    <g id="ytick_6">
     <g id="line2d_29">
      <g>
       <use style="stroke:#000000;stroke-width:0.5;" x="90.0" xlink:href="#md7965d1ba0" y="168.75"/>
      </g>
     </g>
     <g id="line2d_30">
      <g>
       <use style="stroke:#000000;stroke-width:0.5;" x="536.4" xlink:href="#md9a1c1a7cd" y="168.75"/>
      </g>
     </g>
     <g id="text_13">
      <!-- 50 -->
      <defs>
       <path d="
M10.7969 72.9062
L49.5156 72.9062
L49.5156 64.5938
L19.8281 64.5938
L19.8281 46.7344
Q21.9688 47.4688 24.1094 47.8281
Q26.2656 48.1875 28.4219 48.1875
Q40.625 48.1875 47.75 41.5
Q54.8906 34.8125 54.8906 23.3906
Q54.8906 11.625 47.5625 5.09375
Q40.2344 -1.42188 26.9062 -1.42188
Q22.3125 -1.42188 17.5469 -0.640625
Q12.7969 0.140625 7.71875 1.70312
L7.71875 11.625
Q12.1094 9.23438 16.7969 8.0625
Q21.4844 6.89062 26.7031 6.89062
Q35.1562 6.89062 40.0781 11.3281
Q45.0156 15.7656 45.0156 23.3906
Q45.0156 31 40.0781 35.4375
Q35.1562 39.8906 26.7031 39.8906
Q22.75 39.8906 18.8125 39.0156
Q14.8906 38.1406 10.7969 36.2812
z
" id="BitstreamVeraSans-Roman-35"/>
      </defs>
      <g transform="translate(67.9375 173.165)scale(0.16 -0.16)">
       <use xlink:href="#BitstreamVeraSans-Roman-35"/>
       <use x="63.623046875" xlink:href="#BitstreamVeraSans-Roman-30"/>
      </g>
     </g>
    </g>
    <g id="ytick_7">
     <g id="line2d_31">
      <g>
       <use style="stroke:#000000;stroke-width:0.5;" x="90.0" xlink:href="#md7965d1ba0" y="126.9"/>
      </g>
     </g>
     <g id="line2d_32">
      <g>
       <use style="stroke:#000000;stroke-width:0.5;" x="536.4" xlink:href="#md9a1c1a7cd" y="126.9"/>
      </g>
     </g>
     <g id="text_14">
      <!-- 60 -->
      <g transform="translate(67.82 131.315)scale(0.16 -0.16)">
       <use xlink:href="#BitstreamVeraSans-Roman-36"/>
       <use x="63.623046875" xlink:href="#BitstreamVeraSans-Roman-30"/>
      </g>
     </g>
    </g>
    <g id="ytick_8">
     <g id="line2d_33">
      <g>
       <use style="stroke:#000000;stroke-width:0.5;" x="90.0" xlink:href="#md7965d1ba0" y="85.05"/>
      </g>
     </g>
     <g id="line2d_34">
      <g>
       <use style="stroke:#000000;stroke-width:0.5;" x="536.4" xlink:href="#md9a1c1a7cd" y="85.05"/>
      </g>
     </g>
     <g id="text_15">
      <!-- 70 -->
      <defs>
       <path d="
M8.20312 72.9062
L55.0781 72.9062
L55.0781 68.7031
L28.6094 0
L18.3125 0
L43.2188 64.5938
L8.20312 64.5938
z
" id="BitstreamVeraSans-Roman-37"/>
      </defs>
      <g transform="translate(68.015 89.465)scale(0.16 -0.16)">
       <use xlink:href="#BitstreamVeraSans-Roman-37"/>
       <use x="63.623046875" xlink:href="#BitstreamVeraSans-Roman-30"/>
      </g>
     </g>
    </g>
    <g id="ytick_9">
     <g id="line2d_35">
      <g>
       <use style="stroke:#000000;stroke-width:0.5;" x="90.0" xlink:href="#md7965d1ba0" y="43.2"/>
      </g>
     </g>
     <g id="line2d_36">
      <g>
       <use style="stroke:#000000;stroke-width:0.5;" x="536.4" xlink:href="#md9a1c1a7cd" y="43.2"/>
      </g>
     </g>
     <g id="text_16">
      <!-- 80 -->
      <g transform="translate(67.7875 47.615)scale(0.16 -0.16)">
       <use xlink:href="#BitstreamVeraSans-Roman-38"/>
       <use x="63.623046875" xlink:href="#BitstreamVeraSans-Roman-30"/>
      </g>
     </g>
    </g>
    <g id="text_17">
     <!-- Frequency -->
     <defs>
      <path d="
M8.5 21.5781
L8.5 54.6875
L17.4844 54.6875
L17.4844 21.9219
Q17.4844 14.1562 20.5 10.2656
Q23.5312 6.39062 29.5938 6.39062
Q36.8594 6.39062 41.0781 11.0312
Q45.3125 15.6719 45.3125 23.6875
L45.3125 54.6875
L54.2969 54.6875
L54.2969 0
L45.3125 0
L45.3125 8.40625
Q42.0469 3.42188 37.7188 1
Q33.4062 -1.42188 27.6875 -1.42188
Q18.2656 -1.42188 13.375 4.4375
Q8.5 10.2969 8.5 21.5781" id="BitstreamVeraSans-Roman-75"/>
      <path d="
M9.8125 72.9062
L51.7031 72.9062
L51.7031 64.5938
L19.6719 64.5938
L19.6719 43.1094
L48.5781 43.1094
L48.5781 34.8125
L19.6719 34.8125
L19.6719 0
L9.8125 0
z
" id="BitstreamVeraSans-Roman-46"/>
      <path d="
M14.7969 27.2969
Q14.7969 17.3906 18.875 11.75
Q22.9531 6.10938 30.0781 6.10938
Q37.2031 6.10938 41.2969 11.75
Q45.4062 17.3906 45.4062 27.2969
Q45.4062 37.2031 41.2969 42.8438
Q37.2031 48.4844 30.0781 48.4844
Q22.9531 48.4844 18.875 42.8438
Q14.7969 37.2031 14.7969 27.2969
M45.4062 8.20312
Q42.5781 3.32812 38.25 0.953125
Q33.9375 -1.42188 27.875 -1.42188
Q17.9688 -1.42188 11.7344 6.48438
Q5.51562 14.4062 5.51562 27.2969
Q5.51562 40.1875 11.7344 48.0938
Q17.9688 56 27.875 56
Q33.9375 56 38.25 53.625
Q42.5781 51.2656 45.4062 46.3906
L45.4062 54.6875
L54.3906 54.6875
L54.3906 -20.7969
L45.4062 -20.7969
z
" id="BitstreamVeraSans-Roman-71"/>
      <path d="
M32.1719 -5.07812
Q28.375 -14.8438 24.75 -17.8125
Q21.1406 -20.7969 15.0938 -20.7969
L7.90625 -20.7969
L7.90625 -13.2812
L13.1875 -13.2812
Q16.8906 -13.2812 18.9375 -11.5156
Q21 -9.76562 23.4844 -3.21875
L25.0938 0.875
L2.98438 54.6875
L12.5 54.6875
L29.5938 11.9219
L46.6875 54.6875
L56.2031 54.6875
z
" id="BitstreamVeraSans-Roman-79"/>
     </defs>
     <g transform="translate(59.1575 250.90375)rotate(-90.0)scale(0.16 -0.16)">
      <use xlink:href="#BitstreamVeraSans-Roman-46"/>
      <use x="50.26953125" xlink:href="#BitstreamVeraSans-Roman-72"/>
      <use x="89.1328125" xlink:href="#BitstreamVeraSans-Roman-65"/>
      <use x="150.65625" xlink:href="#BitstreamVeraSans-Roman-71"/>
      <use x="214.1328125" xlink:href="#BitstreamVeraSans-Roman-75"/>
      <use x="277.51171875" xlink:href="#BitstreamVeraSans-Roman-65"/>
      <use x="339.03515625" xlink:href="#BitstreamVeraSans-Roman-6e"/>
      <use x="402.4140625" xlink:href="#BitstreamVeraSans-Roman-63"/>
      <use x="457.39453125" xlink:href="#BitstreamVeraSans-Roman-79"/>
     </g>
    </g>
   </g>
   <g id="text_18">
    <!-- Dist. of PPS-serial difference by satellite number -->
    <defs>
     <path d="
M53.5156 70.5156
L53.5156 60.8906
Q47.9062 63.5781 42.9219 64.8906
Q37.9375 66.2188 33.2969 66.2188
Q25.25 66.2188 20.875 63.0938
Q16.5 59.9688 16.5 54.2031
Q16.5 49.3594 19.4062 46.8906
Q22.3125 44.4375 30.4219 42.9219
L36.375 41.7031
Q47.4062 39.5938 52.6562 34.2969
Q57.9062 29 57.9062 20.125
Q57.9062 9.51562 50.7969 4.04688
Q43.7031 -1.42188 29.9844 -1.42188
Q24.8125 -1.42188 18.9688 -0.25
Q13.1406 0.921875 6.89062 3.21875
L6.89062 13.375
Q12.8906 10.0156 18.6562 8.29688
Q24.4219 6.59375 29.9844 6.59375
Q38.4219 6.59375 43.0156 9.90625
Q47.6094 13.2344 47.6094 19.3906
Q47.6094 24.75 44.3125 27.7812
Q41.0156 30.8125 33.5 32.3281
L27.4844 33.5
Q16.4531 35.6875 11.5156 40.375
Q6.59375 45.0625 6.59375 53.4219
Q6.59375 63.0938 13.4062 68.6562
Q20.2188 74.2188 32.1719 74.2188
Q37.3125 74.2188 42.625 73.2812
Q47.9531 72.3594 53.5156 70.5156" id="BitstreamVeraSans-Roman-53"/>
     <path d="
M10.6875 12.4062
L21 12.4062
L21 0
L10.6875 0
z
" id="BitstreamVeraSans-Roman-2e"/>
     <path d="
M19.6719 64.7969
L19.6719 37.4062
L32.0781 37.4062
Q38.9688 37.4062 42.7188 40.9688
Q46.4844 44.5312 46.4844 51.125
Q46.4844 57.6719 42.7188 61.2344
Q38.9688 64.7969 32.0781 64.7969
z

M9.8125 72.9062
L32.0781 72.9062
Q44.3438 72.9062 50.6094 67.3594
Q56.8906 61.8125 56.8906 51.125
Q56.8906 40.3281 50.6094 34.8125
Q44.3438 29.2969 32.0781 29.2969
L19.6719 29.2969
L19.6719 0
L9.8125 0
z
" id="BitstreamVeraSans-Roman-50"/>
     <path d="
M30.6094 48.3906
Q23.3906 48.3906 19.1875 42.75
Q14.9844 37.1094 14.9844 27.2969
Q14.9844 17.4844 19.1562 11.8438
Q23.3438 6.20312 30.6094 6.20312
Q37.7969 6.20312 41.9844 11.8594
Q46.1875 17.5312 46.1875 27.2969
Q46.1875 37.0156 41.9844 42.7031
Q37.7969 48.3906 30.6094 48.3906
M30.6094 56
Q42.3281 56 49.0156 48.375
Q55.7188 40.7656 55.7188 27.2969
Q55.7188 13.875 49.0156 6.21875
Q42.3281 -1.42188 30.6094 -1.42188
Q18.8438 -1.42188 12.1719 6.21875
Q5.51562 13.875 5.51562 27.2969
Q5.51562 40.7656 12.1719 48.375
Q18.8438 56 30.6094 56" id="BitstreamVeraSans-Roman-6f"/>
     <path d="
M34.2812 27.4844
Q23.3906 27.4844 19.1875 25
Q14.9844 22.5156 14.9844 16.5
Q14.9844 11.7188 18.1406 8.90625
Q21.2969 6.10938 26.7031 6.10938
Q34.1875 6.10938 38.7031 11.4062
Q43.2188 16.7031 43.2188 25.4844
L43.2188 27.4844
z

M52.2031 31.2031
L52.2031 0
L43.2188 0
L43.2188 8.29688
Q40.1406 3.32812 35.5469 0.953125
Q30.9531 -1.42188 24.3125 -1.42188
Q15.9219 -1.42188 10.9531 3.29688
Q6 8.01562 6 15.9219
Q6 25.1406 12.1719 29.8281
Q18.3594 34.5156 30.6094 34.5156
L43.2188 34.5156
L43.2188 35.4062
Q43.2188 41.6094 39.1406 45
Q35.0625 48.3906 27.6875 48.3906
Q23 48.3906 18.5469 47.2656
Q14.1094 46.1406 10.0156 43.8906
L10.0156 52.2031
Q14.9375 54.1094 19.5781 55.0469
Q24.2188 56 28.6094 56
Q40.4844 56 46.3438 49.8438
Q52.2031 43.7031 52.2031 31.2031" id="BitstreamVeraSans-Roman-61"/>
     <path d="
M9.42188 75.9844
L18.4062 75.9844
L18.4062 0
L9.42188 0
z
" id="BitstreamVeraSans-Roman-6c"/>
     <path d="
M48.6875 27.2969
Q48.6875 37.2031 44.6094 42.8438
Q40.5312 48.4844 33.4062 48.4844
Q26.2656 48.4844 22.1875 42.8438
Q18.1094 37.2031 18.1094 27.2969
Q18.1094 17.3906 22.1875 11.75
Q26.2656 6.10938 33.4062 6.10938
Q40.5312 6.10938 44.6094 11.75
Q48.6875 17.3906 48.6875 27.2969
M18.1094 46.3906
Q20.9531 51.2656 25.2656 53.625
Q29.5938 56 35.5938 56
Q45.5625 56 51.7812 48.0938
Q58.0156 40.1875 58.0156 27.2969
Q58.0156 14.4062 51.7812 6.48438
Q45.5625 -1.42188 35.5938 -1.42188
Q29.5938 -1.42188 25.2656 0.953125
Q20.9531 3.32812 18.1094 8.20312
L18.1094 0
L9.07812 0
L9.07812 75.9844
L18.1094 75.9844
z
" id="BitstreamVeraSans-Roman-62"/>
     <path d="
M18.3125 70.2188
L18.3125 54.6875
L36.8125 54.6875
L36.8125 47.7031
L18.3125 47.7031
L18.3125 18.0156
Q18.3125 11.3281 20.1406 9.42188
Q21.9688 7.51562 27.5938 7.51562
L36.8125 7.51562
L36.8125 0
L27.5938 0
Q17.1875 0 13.2344 3.875
Q9.28125 7.76562 9.28125 18.0156
L9.28125 47.7031
L2.6875 47.7031
L2.6875 54.6875
L9.28125 54.6875
L9.28125 70.2188
z
" id="BitstreamVeraSans-Roman-74"/>
     <path d="
M19.6719 64.7969
L19.6719 8.10938
L31.5938 8.10938
Q46.6875 8.10938 53.6875 14.9375
Q60.6875 21.7812 60.6875 36.5312
Q60.6875 51.1719 53.6875 57.9844
Q46.6875 64.7969 31.5938 64.7969
z

M9.8125 72.9062
L30.0781 72.9062
Q51.2656 72.9062 61.1719 64.0938
Q71.0938 55.2812 71.0938 36.5312
Q71.0938 17.6719 61.125 8.82812
Q51.1719 0 30.0781 0
L9.8125 0
z
" id="BitstreamVeraSans-Roman-44"/>
     <path d="
M4.89062 31.3906
L31.2031 31.3906
L31.2031 23.3906
L4.89062 23.3906
z
" id="BitstreamVeraSans-Roman-2d"/>
    </defs>
    <g transform="translate(80.7555 38.2)scale(0.192 -0.192)">
     <use xlink:href="#BitstreamVeraSans-Roman-44"/>
     <use x="77.001953125" xlink:href="#BitstreamVeraSans-Roman-69"/>
     <use x="104.78515625" xlink:href="#BitstreamVeraSans-Roman-73"/>
     <use x="156.884765625" xlink:href="#BitstreamVeraSans-Roman-74"/>
     <use x="196.09375" xlink:href="#BitstreamVeraSans-Roman-2e"/>
     <use x="227.880859375" xlink:href="#BitstreamVeraSans-Roman-20"/>
     <use x="259.66796875" xlink:href="#BitstreamVeraSans-Roman-6f"/>
     <use x="320.849609375" xlink:href="#BitstreamVeraSans-Roman-66"/>
     <use x="356.0546875" xlink:href="#BitstreamVeraSans-Roman-20"/>
     <use x="387.841796875" xlink:href="#BitstreamVeraSans-Roman-50"/>
     <use x="448.14453125" xlink:href="#BitstreamVeraSans-Roman-50"/>
     <use x="508.447265625" xlink:href="#BitstreamVeraSans-Roman-53"/>
     <use x="571.923828125" xlink:href="#BitstreamVeraSans-Roman-2d"/>
     <use x="608.0078125" xlink:href="#BitstreamVeraSans-Roman-73"/>
     <use x="660.107421875" xlink:href="#BitstreamVeraSans-Roman-65"/>
     <use x="721.630859375" xlink:href="#BitstreamVeraSans-Roman-72"/>
     <use x="762.744140625" xlink:href="#BitstreamVeraSans-Roman-69"/>
     <use x="790.52734375" xlink:href="#BitstreamVeraSans-Roman-61"/>
     <use x="851.806640625" xlink:href="#BitstreamVeraSans-Roman-6c"/>
     <use x="879.58984375" xlink:href="#BitstreamVeraSans-Roman-20"/>
     <use x="911.376953125" xlink:href="#BitstreamVeraSans-Roman-64"/>
     <use x="974.853515625" xlink:href="#BitstreamVeraSans-Roman-69"/>
     <use x="1002.63671875" xlink:href="#BitstreamVeraSans-Roman-66"/>
     <use x="1037.841796875" xlink:href="#BitstreamVeraSans-Roman-66"/>
     <use x="1073.046875" xlink:href="#BitstreamVeraSans-Roman-65"/>
     <use x="1134.5703125" xlink:href="#BitstreamVeraSans-Roman-72"/>
     <use x="1173.43359375" xlink:href="#BitstreamVeraSans-Roman-65"/>
     <use x="1234.95703125" xlink:href="#BitstreamVeraSans-Roman-6e"/>
     <use x="1298.3359375" xlink:href="#BitstreamVeraSans-Roman-63"/>
     <use x="1353.31640625" xlink:href="#BitstreamVeraSans-Roman-65"/>
     <use x="1414.83984375" xlink:href="#BitstreamVeraSans-Roman-20"/>
     <use x="1446.626953125" xlink:href="#BitstreamVeraSans-Roman-62"/>
     <use x="1510.103515625" xlink:href="#BitstreamVeraSans-Roman-79"/>
     <use x="1569.283203125" xlink:href="#BitstreamVeraSans-Roman-20"/>
     <use x="1601.0703125" xlink:href="#BitstreamVeraSans-Roman-73"/>
     <use x="1653.169921875" xlink:href="#BitstreamVeraSans-Roman-61"/>
     <use x="1714.44921875" xlink:href="#BitstreamVeraSans-Roman-74"/>
     <use x="1753.658203125" xlink:href="#BitstreamVeraSans-Roman-65"/>
     <use x="1815.181640625" xlink:href="#BitstreamVeraSans-Roman-6c"/>
     <use x="1842.96484375" xlink:href="#BitstreamVeraSans-Roman-6c"/>
     <use x="1870.748046875" xlink:href="#BitstreamVeraSans-Roman-69"/>
     <use x="1898.53125" xlink:href="#BitstreamVeraSans-Roman-74"/>
     <use x="1937.740234375" xlink:href="#BitstreamVeraSans-Roman-65"/>
     <use x="1999.263671875" xlink:href="#BitstreamVeraSans-Roman-20"/>
     <use x="2031.05078125" xlink:href="#BitstreamVeraSans-Roman-6e"/>
     <use x="2094.4296875" xlink:href="#BitstreamVeraSans-Roman-75"/>
     <use x="2157.80859375" xlink:href="#BitstreamVeraSans-Roman-6d"/>
     <use x="2255.220703125" xlink:href="#BitstreamVeraSans-Roman-62"/>
     <use x="2318.697265625" xlink:href="#BitstreamVeraSans-Roman-65"/>
     <use x="2380.220703125" xlink:href="#BitstreamVeraSans-Roman-72"/>
    </g>
   </g>
  </g>
  <g id="axes_2">
   <g id="patch_7">
    <path clip-path="url(#p7e3d77fc3f)" d="
M564.3 378
L564.3 376.692
L564.3 44.5078
L564.3 43.2
L581.04 43.2
L581.04 44.5078
L581.04 376.692
L581.04 378
z
" style="fill:#ffffff;stroke:#ffffff;stroke-linejoin:miter;stroke-width:0.01;"/>
   </g>
   <g id="QuadMesh_1">
    <path clip-path="url(#p7e3d77fc3f)" d="
M564.3 378
L581.04 378
L581.04 376.692
L564.3 376.692
L564.3 378" style="fill:#ff0029;"/>
    <path clip-path="url(#p7e3d77fc3f)" d="
M564.3 376.692
L581.04 376.692
L581.04 375.384
L564.3 375.384
L564.3 376.692" style="fill:#ff0023;"/>
    <path clip-path="url(#p7e3d77fc3f)" d="
M564.3 375.384
L581.04 375.384
L581.04 374.077
L564.3 374.077
L564.3 375.384" style="fill:#ff001e;"/>
    <path clip-path="url(#p7e3d77fc3f)" d="
M564.3 374.077
L581.04 374.077
L581.04 372.769
L564.3 372.769
L564.3 374.077" style="fill:#ff0019;"/>
    <path clip-path="url(#p7e3d77fc3f)" d="
M564.3 372.769
L581.04 372.769
L581.04 371.461
L564.3 371.461
L564.3 372.769" style="fill:#ff0013;"/>
    <path clip-path="url(#p7e3d77fc3f)" d="
M564.3 371.461
L581.04 371.461
L581.04 370.153
L564.3 370.153
L564.3 371.461" style="fill:#ff000e;"/>
    <path clip-path="url(#p7e3d77fc3f)" d="
M564.3 370.153
L581.04 370.153
L581.04 368.845
L564.3 368.845
L564.3 370.153" style="fill:#ff0009;"/>
    <path clip-path="url(#p7e3d77fc3f)" d="
M564.3 368.845
L581.04 368.845
L581.04 367.538
L564.3 367.538
L564.3 368.845" style="fill:#ff0003;"/>
    <path clip-path="url(#p7e3d77fc3f)" d="
M564.3 367.538
L581.04 367.538
L581.04 366.23
L564.3 366.23
L564.3 367.538" style="fill:#ff0200;"/>
    <path clip-path="url(#p7e3d77fc3f)" d="
M564.3 366.23
L581.04 366.23
L581.04 364.922
L564.3 364.922
L564.3 366.23" style="fill:#ff0700;"/>
    <path clip-path="url(#p7e3d77fc3f)" d="
M564.3 364.922
L581.04 364.922
L581.04 363.614
L564.3 363.614
L564.3 364.922" style="fill:#ff0d00;"/>
    <path clip-path="url(#p7e3d77fc3f)" d="
M564.3 363.614
L581.04 363.614
L581.04 362.306
L564.3 362.306
L564.3 363.614" style="fill:#ff1200;"/>
    <path clip-path="url(#p7e3d77fc3f)" d="
M564.3 362.306
L581.04 362.306
L581.04 360.998
L564.3 360.998
L564.3 362.306" style="fill:#ff1800;"/>
    <path clip-path="url(#p7e3d77fc3f)" d="
M564.3 360.998
L581.04 360.998
L581.04 359.691
L564.3 359.691
L564.3 360.998" style="fill:#ff1d00;"/>
    <path clip-path="url(#p7e3d77fc3f)" d="
M564.3 359.691
L581.04 359.691
L581.04 358.383
L564.3 358.383
L564.3 359.691" style="fill:#ff2200;"/>
    <path clip-path="url(#p7e3d77fc3f)" d="
M564.3 358.383
L581.04 358.383
L581.04 357.075
L564.3 357.075
L564.3 358.383" style="fill:#ff2800;"/>
    <path clip-path="url(#p7e3d77fc3f)" d="
M564.3 357.075
L581.04 357.075
L581.04 355.767
L564.3 355.767
L564.3 357.075" style="fill:#ff2d00;"/>
    <path clip-path="url(#p7e3d77fc3f)" d="
M564.3 355.767
L581.04 355.767
L581.04 354.459
L564.3 354.459
L564.3 355.767" style="fill:#ff3300;"/>
    <path clip-path="url(#p7e3d77fc3f)" d="
M564.3 354.459
L581.04 354.459
L581.04 353.152
L564.3 353.152
L564.3 354.459" style="fill:#ff3800;"/>
    <path clip-path="url(#p7e3d77fc3f)" d="
M564.3 353.152
L581.04 353.152
L581.04 351.844
L564.3 351.844
L564.3 353.152" style="fill:#ff3d00;"/>
    <path clip-path="url(#p7e3d77fc3f)" d="
M564.3 351.844
L581.04 351.844
L581.04 350.536
L564.3 350.536
L564.3 351.844" style="fill:#ff4300;"/>
    <path clip-path="url(#p7e3d77fc3f)" d="
M564.3 350.536
L581.04 350.536
L581.04 349.228
L564.3 349.228
L564.3 350.536" style="fill:#ff4800;"/>
    <path clip-path="url(#p7e3d77fc3f)" d="
M564.3 349.228
L581.04 349.228
L581.04 347.92
L564.3 347.92
L564.3 349.228" style="fill:#ff4e00;"/>
    <path clip-path="url(#p7e3d77fc3f)" d="
M564.3 347.92
L581.04 347.92
L581.04 346.613
L564.3 346.613
L564.3 347.92" style="fill:#ff5300;"/>
    <path clip-path="url(#p7e3d77fc3f)" d="
M564.3 346.613
L581.04 346.613
L581.04 345.305
L564.3 345.305
L564.3 346.613" style="fill:#ff5800;"/>
    <path clip-path="url(#p7e3d77fc3f)" d="
M564.3 345.305
L581.04 345.305
L581.04 343.997
L564.3 343.997
L564.3 345.305" style="fill:#ff5e00;"/>
    <path clip-path="url(#p7e3d77fc3f)" d="
M564.3 343.997
L581.04 343.997
L581.04 342.689
L564.3 342.689
L564.3 343.997" style="fill:#ff6300;"/>
    <path clip-path="url(#p7e3d77fc3f)" d="
M564.3 342.689
L581.04 342.689
L581.04 341.381
L564.3 341.381
L564.3 342.689" style="fill:#ff6900;"/>
    <path clip-path="url(#p7e3d77fc3f)" d="
M564.3 341.381
L581.04 341.381
L581.04 340.073
L564.3 340.073
L564.3 341.381" style="fill:#ff6e00;"/>
    <path clip-path="url(#p7e3d77fc3f)" d="
M564.3 340.073
L581.04 340.073
L581.04 338.766
L564.3 338.766
L564.3 340.073" style="fill:#ff7300;"/>
    <path clip-path="url(#p7e3d77fc3f)" d="
M564.3 338.766
L581.04 338.766
L581.04 337.458
L564.3 337.458
L564.3 338.766" style="fill:#ff7900;"/>
    <path clip-path="url(#p7e3d77fc3f)" d="
M564.3 337.458
L581.04 337.458
L581.04 336.15
L564.3 336.15
L564.3 337.458" style="fill:#ff7e00;"/>
    <path clip-path="url(#p7e3d77fc3f)" d="
M564.3 336.15
L581.04 336.15
L581.04 334.842
L564.3 334.842
L564.3 336.15" style="fill:#ff8400;"/>
    <path clip-path="url(#p7e3d77fc3f)" d="
M564.3 334.842
L581.04 334.842
L581.04 333.534
L564.3 333.534
L564.3 334.842" style="fill:#ff8900;"/>
    <path clip-path="url(#p7e3d77fc3f)" d="
M564.3 333.534
L581.04 333.534
L581.04 332.227
L564.3 332.227
L564.3 333.534" style="fill:#ff8e00;"/>
    <path clip-path="url(#p7e3d77fc3f)" d="
M564.3 332.227
L581.04 332.227
L581.04 330.919
L564.3 330.919
L564.3 332.227" style="fill:#ff9400;"/>
    <path clip-path="url(#p7e3d77fc3f)" d="
M564.3 330.919
L581.04 330.919
L581.04 329.611
L564.3 329.611
L564.3 330.919" style="fill:#ff9900;"/>
    <path clip-path="url(#p7e3d77fc3f)" d="
M564.3 329.611
L581.04 329.611
L581.04 328.303
L564.3 328.303
L564.3 329.611" style="fill:#ff9f00;"/>
    <path clip-path="url(#p7e3d77fc3f)" d="
M564.3 328.303
L581.04 328.303
L581.04 326.995
L564.3 326.995
L564.3 328.303" style="fill:#ffa400;"/>
    <path clip-path="url(#p7e3d77fc3f)" d="
M564.3 326.995
L581.04 326.995
L581.04 325.688
L564.3 325.688
L564.3 326.995" style="fill:#ffa900;"/>
    <path clip-path="url(#p7e3d77fc3f)" d="
M564.3 325.688
L581.04 325.688
L581.04 324.38
L564.3 324.38
L564.3 325.688" style="fill:#ffaf00;"/>
    <path clip-path="url(#p7e3d77fc3f)" d="
M564.3 324.38
L581.04 324.38
L581.04 323.072
L564.3 323.072
L564.3 324.38" style="fill:#ffb400;"/>
    <path clip-path="url(#p7e3d77fc3f)" d="
M564.3 323.072
L581.04 323.072
L581.04 321.764
L564.3 321.764
L564.3 323.072" style="fill:#ffba00;"/>
    <path clip-path="url(#p7e3d77fc3f)" d="
M564.3 321.764
L581.04 321.764
L581.04 320.456
L564.3 320.456
L564.3 321.764" style="fill:#ffbf00;"/>
    <path clip-path="url(#p7e3d77fc3f)" d="
M564.3 320.456
L581.04 320.456
L581.04 319.148
L564.3 319.148
L564.3 320.456" style="fill:#ffc400;"/>
    <path clip-path="url(#p7e3d77fc3f)" d="
M564.3 319.148
L581.04 319.148
L581.04 317.841
L564.3 317.841
L564.3 319.148" style="fill:#ffca00;"/>
    <path clip-path="url(#p7e3d77fc3f)" d="
M564.3 317.841
L581.04 317.841
L581.04 316.533
L564.3 316.533
L564.3 317.841" style="fill:#ffcf00;"/>
    <path clip-path="url(#p7e3d77fc3f)" d="
M564.3 316.533
L581.04 316.533
L581.04 315.225
L564.3 315.225
L564.3 316.533" style="fill:#ffd500;"/>
    <path clip-path="url(#p7e3d77fc3f)" d="
M564.3 315.225
L581.04 315.225
L581.04 313.917
L564.3 313.917
L564.3 315.225" style="fill:#ffda00;"/>
    <path clip-path="url(#p7e3d77fc3f)" d="
M564.3 313.917
L581.04 313.917
L581.04 312.609
L564.3 312.609
L564.3 313.917" style="fill:#ffe000;"/>
    <path clip-path="url(#p7e3d77fc3f)" d="
M564.3 312.609
L581.04 312.609
L581.04 311.302
L564.3 311.302
L564.3 312.609" style="fill:#ffe500;"/>
    <path clip-path="url(#p7e3d77fc3f)" d="
M564.3 311.302
L581.04 311.302
L581.04 309.994
L564.3 309.994
L564.3 311.302" style="fill:#ffea00;"/>
    <path clip-path="url(#p7e3d77fc3f)" d="
M564.3 309.994
L581.04 309.994
L581.04 308.686
L564.3 308.686
L564.3 309.994" style="fill:#fff000;"/>
    <path clip-path="url(#p7e3d77fc3f)" d="
M564.3 308.686
L581.04 308.686
L581.04 307.378
L564.3 307.378
L564.3 308.686" style="fill:#fff500;"/>
    <path clip-path="url(#p7e3d77fc3f)" d="
M564.3 307.378
L581.04 307.378
L581.04 306.07
L564.3 306.07
L564.3 307.378" style="fill:#fffb00;"/>
    <path clip-path="url(#p7e3d77fc3f)" d="
M564.3 306.07
L581.04 306.07
L581.04 304.763
L564.3 304.763
L564.3 306.07" style="fill:#feff00;"/>
    <path clip-path="url(#p7e3d77fc3f)" d="
M564.3 304.763
L581.04 304.763
L581.04 303.455
L564.3 303.455
L564.3 304.763" style="fill:#f9ff00;"/>
    <path clip-path="url(#p7e3d77fc3f)" d="
M564.3 303.455
L581.04 303.455
L581.04 302.147
L564.3 302.147
L564.3 303.455" style="fill:#f3ff00;"/>
    <path clip-path="url(#p7e3d77fc3f)" d="
M564.3 302.147
L581.04 302.147
L581.04 300.839
L564.3 300.839
L564.3 302.147" style="fill:#eeff00;"/>
    <path clip-path="url(#p7e3d77fc3f)" d="
M564.3 300.839
L581.04 300.839
L581.04 299.531
L564.3 299.531
L564.3 300.839" style="fill:#e8ff00;"/>
    <path clip-path="url(#p7e3d77fc3f)" d="
M564.3 299.531
L581.04 299.531
L581.04 298.223
L564.3 298.223
L564.3 299.531" style="fill:#e3ff00;"/>
    <path clip-path="url(#p7e3d77fc3f)" d="
M564.3 298.223
L581.04 298.223
L581.04 296.916
L564.3 296.916
L564.3 298.223" style="fill:#deff00;"/>
    <path clip-path="url(#p7e3d77fc3f)" d="
M564.3 296.916
L581.04 296.916
L581.04 295.608
L564.3 295.608
L564.3 296.916" style="fill:#d8ff00;"/>
    <path clip-path="url(#p7e3d77fc3f)" d="
M564.3 295.608
L581.04 295.608
L581.04 294.3
L564.3 294.3
L564.3 295.608" style="fill:#d3ff00;"/>
    <path clip-path="url(#p7e3d77fc3f)" d="
M564.3 294.3
L581.04 294.3
L581.04 292.992
L564.3 292.992
L564.3 294.3" style="fill:#cdff00;"/>
    <path clip-path="url(#p7e3d77fc3f)" d="
M564.3 292.992
L581.04 292.992
L581.04 291.684
L564.3 291.684
L564.3 292.992" style="fill:#c8ff00;"/>
    <path clip-path="url(#p7e3d77fc3f)" d="
M564.3 291.684
L581.04 291.684
L581.04 290.377
L564.3 290.377
L564.3 291.684" style="fill:#c3ff00;"/>
    <path clip-path="url(#p7e3d77fc3f)" d="
M564.3 290.377
L581.04 290.377
L581.04 289.069
L564.3 289.069
L564.3 290.377" style="fill:#bdff00;"/>
    <path clip-path="url(#p7e3d77fc3f)" d="
M564.3 289.069
L581.04 289.069
L581.04 287.761
L564.3 287.761
L564.3 289.069" style="fill:#b8ff00;"/>
    <path clip-path="url(#p7e3d77fc3f)" d="
M564.3 287.761
L581.04 287.761
L581.04 286.453
L564.3 286.453
L564.3 287.761" style="fill:#b2ff00;"/>
    <path clip-path="url(#p7e3d77fc3f)" d="
M564.3 286.453
L581.04 286.453
L581.04 285.145
L564.3 285.145
L564.3 286.453" style="fill:#adff00;"/>
    <path clip-path="url(#p7e3d77fc3f)" d="
M564.3 285.145
L581.04 285.145
L581.04 283.838
L564.3 283.838
L564.3 285.145" style="fill:#a8ff00;"/>
    <path clip-path="url(#p7e3d77fc3f)" d="
M564.3 283.838
L581.04 283.838
L581.04 282.53
L564.3 282.53
L564.3 283.838" style="fill:#a2ff00;"/>
    <path clip-path="url(#p7e3d77fc3f)" d="
M564.3 282.53
L581.04 282.53
L581.04 281.222
L564.3 281.222
L564.3 282.53" style="fill:#9dff00;"/>
    <path clip-path="url(#p7e3d77fc3f)" d="
M564.3 281.222
L581.04 281.222
L581.04 279.914
L564.3 279.914
L564.3 281.222" style="fill:#97ff00;"/>
    <path clip-path="url(#p7e3d77fc3f)" d="
M564.3 279.914
L581.04 279.914
L581.04 278.606
L564.3 278.606
L564.3 279.914" style="fill:#92ff00;"/>
    <path clip-path="url(#p7e3d77fc3f)" d="
M564.3 278.606
L581.04 278.606
L581.04 277.298
L564.3 277.298
L564.3 278.606" style="fill:#8dff00;"/>
    <path clip-path="url(#p7e3d77fc3f)" d="
M564.3 277.298
L581.04 277.298
L581.04 275.991
L564.3 275.991
L564.3 277.298" style="fill:#87ff00;"/>
    <path clip-path="url(#p7e3d77fc3f)" d="
M564.3 275.991
L581.04 275.991
L581.04 274.683
L564.3 274.683
L564.3 275.991" style="fill:#82ff00;"/>
    <path clip-path="url(#p7e3d77fc3f)" d="
M564.3 274.683
L581.04 274.683
L581.04 273.375
L564.3 273.375
L564.3 274.683" style="fill:#7cff00;"/>
    <path clip-path="url(#p7e3d77fc3f)" d="
M564.3 273.375
L581.04 273.375
L581.04 272.067
L564.3 272.067
L564.3 273.375" style="fill:#77ff00;"/>
    <path clip-path="url(#p7e3d77fc3f)" d="
M564.3 272.067
L581.04 272.067
L581.04 270.759
L564.3 270.759
L564.3 272.067" style="fill:#72ff00;"/>
    <path clip-path="url(#p7e3d77fc3f)" d="
M564.3 270.759
L581.04 270.759
L581.04 269.452
L564.3 269.452
L564.3 270.759" style="fill:#6cff00;"/>
    <path clip-path="url(#p7e3d77fc3f)" d="
M564.3 269.452
L581.04 269.452
L581.04 268.144
L564.3 268.144
L564.3 269.452" style="fill:#67ff00;"/>
    <path clip-path="url(#p7e3d77fc3f)" d="
M564.3 268.144
L581.04 268.144
L581.04 266.836
L564.3 266.836
L564.3 268.144" style="fill:#61ff00;"/>
    <path clip-path="url(#p7e3d77fc3f)" d="
M564.3 266.836
L581.04 266.836
L581.04 265.528
L564.3 265.528
L564.3 266.836" style="fill:#5cff00;"/>
    <path clip-path="url(#p7e3d77fc3f)" d="
M564.3 265.528
L581.04 265.528
L581.04 264.22
L564.3 264.22
L564.3 265.528" style="fill:#56ff00;"/>
    <path clip-path="url(#p7e3d77fc3f)" d="
M564.3 264.22
L581.04 264.22
L581.04 262.913
L564.3 262.913
L564.3 264.22" style="fill:#51ff00;"/>
    <path clip-path="url(#p7e3d77fc3f)" d="
M564.3 262.913
L581.04 262.913
L581.04 261.605
L564.3 261.605
L564.3 262.913" style="fill:#4cff00;"/>
    <path clip-path="url(#p7e3d77fc3f)" d="
M564.3 261.605
L581.04 261.605
L581.04 260.297
L564.3 260.297
L564.3 261.605" style="fill:#46ff00;"/>
    <path clip-path="url(#p7e3d77fc3f)" d="
M564.3 260.297
L581.04 260.297
L581.04 258.989
L564.3 258.989
L564.3 260.297" style="fill:#41ff00;"/>
    <path clip-path="url(#p7e3d77fc3f)" d="
M564.3 258.989
L581.04 258.989
L581.04 257.681
L564.3 257.681
L564.3 258.989" style="fill:#3bff00;"/>
    <path clip-path="url(#p7e3d77fc3f)" d="
M564.3 257.681
L581.04 257.681
L581.04 256.373
L564.3 256.373
L564.3 257.681" style="fill:#36ff00;"/>
    <path clip-path="url(#p7e3d77fc3f)" d="
M564.3 256.373
L581.04 256.373
L581.04 255.066
L564.3 255.066
L564.3 256.373" style="fill:#31ff00;"/>
    <path clip-path="url(#p7e3d77fc3f)" d="
M564.3 255.066
L581.04 255.066
L581.04 253.758
L564.3 253.758
L564.3 255.066" style="fill:#2bff00;"/>
    <path clip-path="url(#p7e3d77fc3f)" d="
M564.3 253.758
L581.04 253.758
L581.04 252.45
L564.3 252.45
L564.3 253.758" style="fill:#26ff00;"/>
    <path clip-path="url(#p7e3d77fc3f)" d="
M564.3 252.45
L581.04 252.45
L581.04 251.142
L564.3 251.142
L564.3 252.45" style="fill:#20ff00;"/>
    <path clip-path="url(#p7e3d77fc3f)" d="
M564.3 251.142
L581.04 251.142
L581.04 249.834
L564.3 249.834
L564.3 251.142" style="fill:#1bff00;"/>
    <path clip-path="url(#p7e3d77fc3f)" d="
M564.3 249.834
L581.04 249.834
L581.04 248.527
L564.3 248.527
L564.3 249.834" style="fill:#16ff00;"/>
    <path clip-path="url(#p7e3d77fc3f)" d="
M564.3 248.527
L581.04 248.527
L581.04 247.219
L564.3 247.219
L564.3 248.527" style="fill:#10ff00;"/>
    <path clip-path="url(#p7e3d77fc3f)" d="
M564.3 247.219
L581.04 247.219
L581.04 245.911
L564.3 245.911
L564.3 247.219" style="fill:#0bff00;"/>
    <path clip-path="url(#p7e3d77fc3f)" d="
M564.3 245.911
L581.04 245.911
L581.04 244.603
L564.3 244.603
L564.3 245.911" style="fill:#05ff00;"/>
    <path clip-path="url(#p7e3d77fc3f)" d="
M564.3 244.603
L581.04 244.603
L581.04 243.295
L564.3 243.295
L564.3 244.603" style="fill:#00ff00;"/>
    <path clip-path="url(#p7e3d77fc3f)" d="
M564.3 243.295
L581.04 243.295
L581.04 241.988
L564.3 241.988
L564.3 243.295" style="fill:#00ff05;"/>
    <path clip-path="url(#p7e3d77fc3f)" d="
M564.3 241.988
L581.04 241.988
L581.04 240.68
L564.3 240.68
L564.3 241.988" style="fill:#00ff0b;"/>
    <path clip-path="url(#p7e3d77fc3f)" d="
M564.3 240.68
L581.04 240.68
L581.04 239.372
L564.3 239.372
L564.3 240.68" style="fill:#00ff10;"/>
    <path clip-path="url(#p7e3d77fc3f)" d="
M564.3 239.372
L581.04 239.372
L581.04 238.064
L564.3 238.064
L564.3 239.372" style="fill:#00ff16;"/>
    <path clip-path="url(#p7e3d77fc3f)" d="
M564.3 238.064
L581.04 238.064
L581.04 236.756
L564.3 236.756
L564.3 238.064" style="fill:#00ff1b;"/>
    <path clip-path="url(#p7e3d77fc3f)" d="
M564.3 236.756
L581.04 236.756
L581.04 235.448
L564.3 235.448
L564.3 236.756" style="fill:#00ff20;"/>
    <path clip-path="url(#p7e3d77fc3f)" d="
M564.3 235.448
L581.04 235.448
L581.04 234.141
L564.3 234.141
L564.3 235.448" style="fill:#00ff26;"/>
    <path clip-path="url(#p7e3d77fc3f)" d="
M564.3 234.141
L581.04 234.141
L581.04 232.833
L564.3 232.833
L564.3 234.141" style="fill:#00ff2b;"/>
    <path clip-path="url(#p7e3d77fc3f)" d="
M564.3 232.833
L581.04 232.833
L581.04 231.525
L564.3 231.525
L564.3 232.833" style="fill:#00ff30;"/>
    <path clip-path="url(#p7e3d77fc3f)" d="
M564.3 231.525
L581.04 231.525
L581.04 230.217
L564.3 230.217
L564.3 231.525" style="fill:#00ff36;"/>
    <path clip-path="url(#p7e3d77fc3f)" d="
M564.3 230.217
L581.04 230.217
L581.04 228.909
L564.3 228.909
L564.3 230.217" style="fill:#00ff3b;"/>
    <path clip-path="url(#p7e3d77fc3f)" d="
M564.3 228.909
L581.04 228.909
L581.04 227.602
L564.3 227.602
L564.3 228.909" style="fill:#00ff41;"/>
    <path clip-path="url(#p7e3d77fc3f)" d="
M564.3 227.602
L581.04 227.602
L581.04 226.294
L564.3 226.294
L564.3 227.602" style="fill:#00ff46;"/>
    <path clip-path="url(#p7e3d77fc3f)" d="
M564.3 226.294
L581.04 226.294
L581.04 224.986
L564.3 224.986
L564.3 226.294" style="fill:#00ff4b;"/>
    <path clip-path="url(#p7e3d77fc3f)" d="
M564.3 224.986
L581.04 224.986
L581.04 223.678
L564.3 223.678
L564.3 224.986" style="fill:#00ff51;"/>
    <path clip-path="url(#p7e3d77fc3f)" d="
M564.3 223.678
L581.04 223.678
L581.04 222.37
L564.3 222.37
L564.3 223.678" style="fill:#00ff56;"/>
    <path clip-path="url(#p7e3d77fc3f)" d="
M564.3 222.37
L581.04 222.37
L581.04 221.063
L564.3 221.063
L564.3 222.37" style="fill:#00ff5b;"/>
    <path clip-path="url(#p7e3d77fc3f)" d="
M564.3 221.063
L581.04 221.063
L581.04 219.755
L564.3 219.755
L564.3 221.063" style="fill:#00ff61;"/>
    <path clip-path="url(#p7e3d77fc3f)" d="
M564.3 219.755
L581.04 219.755
L581.04 218.447
L564.3 218.447
L564.3 219.755" style="fill:#00ff66;"/>
    <path clip-path="url(#p7e3d77fc3f)" d="
M564.3 218.447
L581.04 218.447
L581.04 217.139
L564.3 217.139
L564.3 218.447" style="fill:#00ff6c;"/>
    <path clip-path="url(#p7e3d77fc3f)" d="
M564.3 217.139
L581.04 217.139
L581.04 215.831
L564.3 215.831
L564.3 217.139" style="fill:#00ff71;"/>
    <path clip-path="url(#p7e3d77fc3f)" d="
M564.3 215.831
L581.04 215.831
L581.04 214.523
L564.3 214.523
L564.3 215.831" style="fill:#00ff76;"/>
    <path clip-path="url(#p7e3d77fc3f)" d="
M564.3 214.523
L581.04 214.523
L581.04 213.216
L564.3 213.216
L564.3 214.523" style="fill:#00ff7c;"/>
    <path clip-path="url(#p7e3d77fc3f)" d="
M564.3 213.216
L581.04 213.216
L581.04 211.908
L564.3 211.908
L564.3 213.216" style="fill:#00ff81;"/>
    <path clip-path="url(#p7e3d77fc3f)" d="
M564.3 211.908
L581.04 211.908
L581.04 210.6
L564.3 210.6
L564.3 211.908" style="fill:#00ff86;"/>
    <path clip-path="url(#p7e3d77fc3f)" d="
M564.3 210.6
L581.04 210.6
L581.04 209.292
L564.3 209.292
L564.3 210.6" style="fill:#00ff8c;"/>
    <path clip-path="url(#p7e3d77fc3f)" d="
M564.3 209.292
L581.04 209.292
L581.04 207.984
L564.3 207.984
L564.3 209.292" style="fill:#00ff91;"/>
    <path clip-path="url(#p7e3d77fc3f)" d="
M564.3 207.984
L581.04 207.984
L581.04 206.677
L564.3 206.677
L564.3 207.984" style="fill:#00ff97;"/>
    <path clip-path="url(#p7e3d77fc3f)" d="
M564.3 206.677
L581.04 206.677
L581.04 205.369
L564.3 205.369
L564.3 206.677" style="fill:#00ff9c;"/>
    <path clip-path="url(#p7e3d77fc3f)" d="
M564.3 205.369
L581.04 205.369
L581.04 204.061
L564.3 204.061
L564.3 205.369" style="fill:#00ffa1;"/>
    <path clip-path="url(#p7e3d77fc3f)" d="
M564.3 204.061
L581.04 204.061
L581.04 202.753
L564.3 202.753
L564.3 204.061" style="fill:#00ffa7;"/>
    <path clip-path="url(#p7e3d77fc3f)" d="
M564.3 202.753
L581.04 202.753
L581.04 201.445
L564.3 201.445
L564.3 202.753" style="fill:#00ffac;"/>
    <path clip-path="url(#p7e3d77fc3f)" d="
M564.3 201.445
L581.04 201.445
L581.04 200.138
L564.3 200.138
L564.3 201.445" style="fill:#00ffb1;"/>
    <path clip-path="url(#p7e3d77fc3f)" d="
M564.3 200.138
L581.04 200.138
L581.04 198.83
L564.3 198.83
L564.3 200.138" style="fill:#00ffb7;"/>
    <path clip-path="url(#p7e3d77fc3f)" d="
M564.3 198.83
L581.04 198.83
L581.04 197.522
L564.3 197.522
L564.3 198.83" style="fill:#00ffbc;"/>
    <path clip-path="url(#p7e3d77fc3f)" d="
M564.3 197.522
L581.04 197.522
L581.04 196.214
L564.3 196.214
L564.3 197.522" style="fill:#00ffc2;"/>
    <path clip-path="url(#p7e3d77fc3f)" d="
M564.3 196.214
L581.04 196.214
L581.04 194.906
L564.3 194.906
L564.3 196.214" style="fill:#00ffc7;"/>
    <path clip-path="url(#p7e3d77fc3f)" d="
M564.3 194.906
L581.04 194.906
L581.04 193.598
L564.3 193.598
L564.3 194.906" style="fill:#00ffcc;"/>
    <path clip-path="url(#p7e3d77fc3f)" d="
M564.3 193.598
L581.04 193.598
L581.04 192.291
L564.3 192.291
L564.3 193.598" style="fill:#00ffd2;"/>
    <path clip-path="url(#p7e3d77fc3f)" d="
M564.3 192.291
L581.04 192.291
L581.04 190.983
L564.3 190.983
L564.3 192.291" style="fill:#00ffd7;"/>
    <path clip-path="url(#p7e3d77fc3f)" d="
M564.3 190.983
L581.04 190.983
L581.04 189.675
L564.3 189.675
L564.3 190.983" style="fill:#00ffdc;"/>
    <path clip-path="url(#p7e3d77fc3f)" d="
M564.3 189.675
L581.04 189.675
L581.04 188.367
L564.3 188.367
L564.3 189.675" style="fill:#00ffe2;"/>
    <path clip-path="url(#p7e3d77fc3f)" d="
M564.3 188.367
L581.04 188.367
L581.04 187.059
L564.3 187.059
L564.3 188.367" style="fill:#00ffe7;"/>
    <path clip-path="url(#p7e3d77fc3f)" d="
M564.3 187.059
L581.04 187.059
L581.04 185.752
L564.3 185.752
L564.3 187.059" style="fill:#00ffed;"/>
    <path clip-path="url(#p7e3d77fc3f)" d="
M564.3 185.752
L581.04 185.752
L581.04 184.444
L564.3 184.444
L564.3 185.752" style="fill:#00fff2;"/>
    <path clip-path="url(#p7e3d77fc3f)" d="
M564.3 184.444
L581.04 184.444
L581.04 183.136
L564.3 183.136
L564.3 184.444" style="fill:#00fff7;"/>
    <path clip-path="url(#p7e3d77fc3f)" d="
M564.3 183.136
L581.04 183.136
L581.04 181.828
L564.3 181.828
L564.3 183.136" style="fill:#00fffd;"/>
    <path clip-path="url(#p7e3d77fc3f)" d="
M564.3 181.828
L581.04 181.828
L581.04 180.52
L564.3 180.52
L564.3 181.828" style="fill:#00fcff;"/>
    <path clip-path="url(#p7e3d77fc3f)" d="
M564.3 180.52
L581.04 180.52
L581.04 179.213
L564.3 179.213
L564.3 180.52" style="fill:#00f6ff;"/>
    <path clip-path="url(#p7e3d77fc3f)" d="
M564.3 179.213
L581.04 179.213
L581.04 177.905
L564.3 177.905
L564.3 179.213" style="fill:#00f1ff;"/>
    <path clip-path="url(#p7e3d77fc3f)" d="
M564.3 177.905
L581.04 177.905
L581.04 176.597
L564.3 176.597
L564.3 177.905" style="fill:#00ecff;"/>
    <path clip-path="url(#p7e3d77fc3f)" d="
M564.3 176.597
L581.04 176.597
L581.04 175.289
L564.3 175.289
L564.3 176.597" style="fill:#00e6ff;"/>
    <path clip-path="url(#p7e3d77fc3f)" d="
M564.3 175.289
L581.04 175.289
L581.04 173.981
L564.3 173.981
L564.3 175.289" style="fill:#00e1ff;"/>
    <path clip-path="url(#p7e3d77fc3f)" d="
M564.3 173.981
L581.04 173.981
L581.04 172.673
L564.3 172.673
L564.3 173.981" style="fill:#00dbff;"/>
    <path clip-path="url(#p7e3d77fc3f)" d="
M564.3 172.673
L581.04 172.673
L581.04 171.366
L564.3 171.366
L564.3 172.673" style="fill:#00d6ff;"/>
    <path clip-path="url(#p7e3d77fc3f)" d="
M564.3 171.366
L581.04 171.366
L581.04 170.058
L564.3 170.058
L564.3 171.366" style="fill:#00d0ff;"/>
    <path clip-path="url(#p7e3d77fc3f)" d="
M564.3 170.058
L581.04 170.058
L581.04 168.75
L564.3 168.75
L564.3 170.058" style="fill:#00cbff;"/>
    <path clip-path="url(#p7e3d77fc3f)" d="
M564.3 168.75
L581.04 168.75
L581.04 167.442
L564.3 167.442
L564.3 168.75" style="fill:#00c6ff;"/>
    <path clip-path="url(#p7e3d77fc3f)" d="
M564.3 167.442
L581.04 167.442
L581.04 166.134
L564.3 166.134
L564.3 167.442" style="fill:#00c0ff;"/>
    <path clip-path="url(#p7e3d77fc3f)" d="
M564.3 166.134
L581.04 166.134
L581.04 164.827
L564.3 164.827
L564.3 166.134" style="fill:#00bbff;"/>
    <path clip-path="url(#p7e3d77fc3f)" d="
M564.3 164.827
L581.04 164.827
L581.04 163.519
L564.3 163.519
L564.3 164.827" style="fill:#00b5ff;"/>
    <path clip-path="url(#p7e3d77fc3f)" d="
M564.3 163.519
L581.04 163.519
L581.04 162.211
L564.3 162.211
L564.3 163.519" style="fill:#00b0ff;"/>
    <path clip-path="url(#p7e3d77fc3f)" d="
M564.3 162.211
L581.04 162.211
L581.04 160.903
L564.3 160.903
L564.3 162.211" style="fill:#00aaff;"/>
    <path clip-path="url(#p7e3d77fc3f)" d="
M564.3 160.903
L581.04 160.903
L581.04 159.595
L564.3 159.595
L564.3 160.903" style="fill:#00a5ff;"/>
    <path clip-path="url(#p7e3d77fc3f)" d="
M564.3 159.595
L581.04 159.595
L581.04 158.288
L564.3 158.288
L564.3 159.595" style="fill:#00a0ff;"/>
    <path clip-path="url(#p7e3d77fc3f)" d="
M564.3 158.288
L581.04 158.288
L581.04 156.98
L564.3 156.98
L564.3 158.288" style="fill:#009aff;"/>
    <path clip-path="url(#p7e3d77fc3f)" d="
M564.3 156.98
L581.04 156.98
L581.04 155.672
L564.3 155.672
L564.3 156.98" style="fill:#0095ff;"/>
    <path clip-path="url(#p7e3d77fc3f)" d="
M564.3 155.672
L581.04 155.672
L581.04 154.364
L564.3 154.364
L564.3 155.672" style="fill:#008fff;"/>
    <path clip-path="url(#p7e3d77fc3f)" d="
M564.3 154.364
L581.04 154.364
L581.04 153.056
L564.3 153.056
L564.3 154.364" style="fill:#008aff;"/>
    <path clip-path="url(#p7e3d77fc3f)" d="
M564.3 153.056
L581.04 153.056
L581.04 151.748
L564.3 151.748
L564.3 153.056" style="fill:#0084ff;"/>
    <path clip-path="url(#p7e3d77fc3f)" d="
M564.3 151.748
L581.04 151.748
L581.04 150.441
L564.3 150.441
L564.3 151.748" style="fill:#007fff;"/>
    <path clip-path="url(#p7e3d77fc3f)" d="
M564.3 150.441
L581.04 150.441
L581.04 149.133
L564.3 149.133
L564.3 150.441" style="fill:#0079ff;"/>
    <path clip-path="url(#p7e3d77fc3f)" d="
M564.3 149.133
L581.04 149.133
L581.04 147.825
L564.3 147.825
L564.3 149.133" style="fill:#0074ff;"/>
    <path clip-path="url(#p7e3d77fc3f)" d="
M564.3 147.825
L581.04 147.825
L581.04 146.517
L564.3 146.517
L564.3 147.825" style="fill:#006fff;"/>
    <path clip-path="url(#p7e3d77fc3f)" d="
M564.3 146.517
L581.04 146.517
L581.04 145.209
L564.3 145.209
L564.3 146.517" style="fill:#0069ff;"/>
    <path clip-path="url(#p7e3d77fc3f)" d="
M564.3 145.209
L581.04 145.209
L581.04 143.902
L564.3 143.902
L564.3 145.209" style="fill:#0064ff;"/>
    <path clip-path="url(#p7e3d77fc3f)" d="
M564.3 143.902
L581.04 143.902
L581.04 142.594
L564.3 142.594
L564.3 143.902" style="fill:#005eff;"/>
    <path clip-path="url(#p7e3d77fc3f)" d="
M564.3 142.594
L581.04 142.594
L581.04 141.286
L564.3 141.286
L564.3 142.594" style="fill:#0059ff;"/>
    <path clip-path="url(#p7e3d77fc3f)" d="
M564.3 141.286
L581.04 141.286
L581.04 139.978
L564.3 139.978
L564.3 141.286" style="fill:#0053ff;"/>
    <path clip-path="url(#p7e3d77fc3f)" d="
M564.3 139.978
L581.04 139.978
L581.04 138.67
L564.3 138.67
L564.3 139.978" style="fill:#004eff;"/>
    <path clip-path="url(#p7e3d77fc3f)" d="
M564.3 138.67
L581.04 138.67
L581.04 137.363
L564.3 137.363
L564.3 138.67" style="fill:#0049ff;"/>
    <path clip-path="url(#p7e3d77fc3f)" d="
M564.3 137.363
L581.04 137.363
L581.04 136.055
L564.3 136.055
L564.3 137.363" style="fill:#0043ff;"/>
    <path clip-path="url(#p7e3d77fc3f)" d="
M564.3 136.055
L581.04 136.055
L581.04 134.747
L564.3 134.747
L564.3 136.055" style="fill:#003eff;"/>
    <path clip-path="url(#p7e3d77fc3f)" d="
M564.3 134.747
L581.04 134.747
L581.04 133.439
L564.3 133.439
L564.3 134.747" style="fill:#0038ff;"/>
    <path clip-path="url(#p7e3d77fc3f)" d="
M564.3 133.439
L581.04 133.439
L581.04 132.131
L564.3 132.131
L564.3 133.439" style="fill:#0033ff;"/>
    <path clip-path="url(#p7e3d77fc3f)" d="
M564.3 132.131
L581.04 132.131
L581.04 130.823
L564.3 130.823
L564.3 132.131" style="fill:#002dff;"/>
    <path clip-path="url(#p7e3d77fc3f)" d="
M564.3 130.823
L581.04 130.823
L581.04 129.516
L564.3 129.516
L564.3 130.823" style="fill:#0028ff;"/>
    <path clip-path="url(#p7e3d77fc3f)" d="
M564.3 129.516
L581.04 129.516
L581.04 128.208
L564.3 128.208
L564.3 129.516" style="fill:#0023ff;"/>
    <path clip-path="url(#p7e3d77fc3f)" d="
M564.3 128.208
L581.04 128.208
L581.04 126.9
L564.3 126.9
L564.3 128.208" style="fill:#001dff;"/>
    <path clip-path="url(#p7e3d77fc3f)" d="
M564.3 126.9
L581.04 126.9
L581.04 125.592
L564.3 125.592
L564.3 126.9" style="fill:#0018ff;"/>
    <path clip-path="url(#p7e3d77fc3f)" d="
M564.3 125.592
L581.04 125.592
L581.04 124.284
L564.3 124.284
L564.3 125.592" style="fill:#0012ff;"/>
    <path clip-path="url(#p7e3d77fc3f)" d="
M564.3 124.284
L581.04 124.284
L581.04 122.977
L564.3 122.977
L564.3 124.284" style="fill:#000dff;"/>
    <path clip-path="url(#p7e3d77fc3f)" d="
M564.3 122.977
L581.04 122.977
L581.04 121.669
L564.3 121.669
L564.3 122.977" style="fill:#0007ff;"/>
    <path clip-path="url(#p7e3d77fc3f)" d="
M564.3 121.669
L581.04 121.669
L581.04 120.361
L564.3 120.361
L564.3 121.669" style="fill:#0002ff;"/>
    <path clip-path="url(#p7e3d77fc3f)" d="
M564.3 120.361
L581.04 120.361
L581.04 119.053
L564.3 119.053
L564.3 120.361" style="fill:#0400ff;"/>
    <path clip-path="url(#p7e3d77fc3f)" d="
M564.3 119.053
L581.04 119.053
L581.04 117.745
L564.3 117.745
L564.3 119.053" style="fill:#0900ff;"/>
    <path clip-path="url(#p7e3d77fc3f)" d="
M564.3 117.745
L581.04 117.745
L581.04 116.438
L564.3 116.438
L564.3 117.745" style="fill:#0e00ff;"/>
    <path clip-path="url(#p7e3d77fc3f)" d="
M564.3 116.438
L581.04 116.438
L581.04 115.13
L564.3 115.13
L564.3 116.438" style="fill:#1400ff;"/>
    <path clip-path="url(#p7e3d77fc3f)" d="
M564.3 115.13
L581.04 115.13
L581.04 113.822
L564.3 113.822
L564.3 115.13" style="fill:#1900ff;"/>
    <path clip-path="url(#p7e3d77fc3f)" d="
M564.3 113.822
L581.04 113.822
L581.04 112.514
L564.3 112.514
L564.3 113.822" style="fill:#1f00ff;"/>
    <path clip-path="url(#p7e3d77fc3f)" d="
M564.3 112.514
L581.04 112.514
L581.04 111.206
L564.3 111.206
L564.3 112.514" style="fill:#2400ff;"/>
    <path clip-path="url(#p7e3d77fc3f)" d="
M564.3 111.206
L581.04 111.206
L581.04 109.898
L564.3 109.898
L564.3 111.206" style="fill:#2a00ff;"/>
    <path clip-path="url(#p7e3d77fc3f)" d="
M564.3 109.898
L581.04 109.898
L581.04 108.591
L564.3 108.591
L564.3 109.898" style="fill:#2f00ff;"/>
    <path clip-path="url(#p7e3d77fc3f)" d="
M564.3 108.591
L581.04 108.591
L581.04 107.283
L564.3 107.283
L564.3 108.591" style="fill:#3400ff;"/>
    <path clip-path="url(#p7e3d77fc3f)" d="
M564.3 107.283
L581.04 107.283
L581.04 105.975
L564.3 105.975
L564.3 107.283" style="fill:#3a00ff;"/>
    <path clip-path="url(#p7e3d77fc3f)" d="
M564.3 105.975
L581.04 105.975
L581.04 104.667
L564.3 104.667
L564.3 105.975" style="fill:#3f00ff;"/>
    <path clip-path="url(#p7e3d77fc3f)" d="
M564.3 104.667
L581.04 104.667
L581.04 103.359
L564.3 103.359
L564.3 104.667" style="fill:#4500ff;"/>
    <path clip-path="url(#p7e3d77fc3f)" d="
M564.3 103.359
L581.04 103.359
L581.04 102.052
L564.3 102.052
L564.3 103.359" style="fill:#4a00ff;"/>
    <path clip-path="url(#p7e3d77fc3f)" d="
M564.3 102.052
L581.04 102.052
L581.04 100.744
L564.3 100.744
L564.3 102.052" style="fill:#5000ff;"/>
    <path clip-path="url(#p7e3d77fc3f)" d="
M564.3 100.744
L581.04 100.744
L581.04 99.4359
L564.3 99.4359
L564.3 100.744" style="fill:#5500ff;"/>
    <path clip-path="url(#p7e3d77fc3f)" d="
M564.3 99.4359
L581.04 99.4359
L581.04 98.1281
L564.3 98.1281
L564.3 99.4359" style="fill:#5a00ff;"/>
    <path clip-path="url(#p7e3d77fc3f)" d="
M564.3 98.1281
L581.04 98.1281
L581.04 96.8203
L564.3 96.8203
L564.3 98.1281" style="fill:#6000ff;"/>
    <path clip-path="url(#p7e3d77fc3f)" d="
M564.3 96.8203
L581.04 96.8203
L581.04 95.5125
L564.3 95.5125
L564.3 96.8203" style="fill:#6500ff;"/>
    <path clip-path="url(#p7e3d77fc3f)" d="
M564.3 95.5125
L581.04 95.5125
L581.04 94.2047
L564.3 94.2047
L564.3 95.5125" style="fill:#6b00ff;"/>
    <path clip-path="url(#p7e3d77fc3f)" d="
M564.3 94.2047
L581.04 94.2047
L581.04 92.8969
L564.3 92.8969
L564.3 94.2047" style="fill:#7000ff;"/>
    <path clip-path="url(#p7e3d77fc3f)" d="
M564.3 92.8969
L581.04 92.8969
L581.04 91.5891
L564.3 91.5891
L564.3 92.8969" style="fill:#7600ff;"/>
    <path clip-path="url(#p7e3d77fc3f)" d="
M564.3 91.5891
L581.04 91.5891
L581.04 90.2812
L564.3 90.2812
L564.3 91.5891" style="fill:#7b00ff;"/>
    <path clip-path="url(#p7e3d77fc3f)" d="
M564.3 90.2812
L581.04 90.2812
L581.04 88.9734
L564.3 88.9734
L564.3 90.2812" style="fill:#8100ff;"/>
    <path clip-path="url(#p7e3d77fc3f)" d="
M564.3 88.9734
L581.04 88.9734
L581.04 87.6656
L564.3 87.6656
L564.3 88.9734" style="fill:#8600ff;"/>
    <path clip-path="url(#p7e3d77fc3f)" d="
M564.3 87.6656
L581.04 87.6656
L581.04 86.3578
L564.3 86.3578
L564.3 87.6656" style="fill:#8b00ff;"/>
    <path clip-path="url(#p7e3d77fc3f)" d="
M564.3 86.3578
L581.04 86.3578
L581.04 85.05
L564.3 85.05
L564.3 86.3578" style="fill:#9100ff;"/>
    <path clip-path="url(#p7e3d77fc3f)" d="
M564.3 85.05
L581.04 85.05
L581.04 83.7422
L564.3 83.7422
L564.3 85.05" style="fill:#9600ff;"/>
    <path clip-path="url(#p7e3d77fc3f)" d="
M564.3 83.7422
L581.04 83.7422
L581.04 82.4344
L564.3 82.4344
L564.3 83.7422" style="fill:#9c00ff;"/>
    <path clip-path="url(#p7e3d77fc3f)" d="
M564.3 82.4344
L581.04 82.4344
L581.04 81.1266
L564.3 81.1266
L564.3 82.4344" style="fill:#a100ff;"/>
    <path clip-path="url(#p7e3d77fc3f)" d="
M564.3 81.1266
L581.04 81.1266
L581.04 79.8188
L564.3 79.8188
L564.3 81.1266" style="fill:#a700ff;"/>
    <path clip-path="url(#p7e3d77fc3f)" d="
M564.3 79.8188
L581.04 79.8188
L581.04 78.5109
L564.3 78.5109
L564.3 79.8188" style="fill:#ac00ff;"/>
    <path clip-path="url(#p7e3d77fc3f)" d="
M564.3 78.5109
L581.04 78.5109
L581.04 77.2031
L564.3 77.2031
L564.3 78.5109" style="fill:#b100ff;"/>
    <path clip-path="url(#p7e3d77fc3f)" d="
M564.3 77.2031
L581.04 77.2031
L581.04 75.8953
L564.3 75.8953
L564.3 77.2031" style="fill:#b700ff;"/>
    <path clip-path="url(#p7e3d77fc3f)" d="
M564.3 75.8953
L581.04 75.8953
L581.04 74.5875
L564.3 74.5875
L564.3 75.8953" style="fill:#bc00ff;"/>
    <path clip-path="url(#p7e3d77fc3f)" d="
M564.3 74.5875
L581.04 74.5875
L581.04 73.2797
L564.3 73.2797
L564.3 74.5875" style="fill:#c200ff;"/>
    <path clip-path="url(#p7e3d77fc3f)" d="
M564.3 73.2797
L581.04 73.2797
L581.04 71.9719
L564.3 71.9719
L564.3 73.2797" style="fill:#c700ff;"/>
    <path clip-path="url(#p7e3d77fc3f)" d="
M564.3 71.9719
L581.04 71.9719
L581.04 70.6641
L564.3 70.6641
L564.3 71.9719" style="fill:#cd00ff;"/>
    <path clip-path="url(#p7e3d77fc3f)" d="
M564.3 70.6641
L581.04 70.6641
L581.04 69.3562
L564.3 69.3562
L564.3 70.6641" style="fill:#d200ff;"/>
    <path clip-path="url(#p7e3d77fc3f)" d="
M564.3 69.3562
L581.04 69.3562
L581.04 68.0484
L564.3 68.0484
L564.3 69.3562" style="fill:#d700ff;"/>
    <path clip-path="url(#p7e3d77fc3f)" d="
M564.3 68.0484
L581.04 68.0484
L581.04 66.7406
L564.3 66.7406
L564.3 68.0484" style="fill:#dd00ff;"/>
    <path clip-path="url(#p7e3d77fc3f)" d="
M564.3 66.7406
L581.04 66.7406
L581.04 65.4328
L564.3 65.4328
L564.3 66.7406" style="fill:#e200ff;"/>
    <path clip-path="url(#p7e3d77fc3f)" d="
M564.3 65.4328
L581.04 65.4328
L581.04 64.125
L564.3 64.125
L564.3 65.4328" style="fill:#e800ff;"/>
    <path clip-path="url(#p7e3d77fc3f)" d="
M564.3 64.125
L581.04 64.125
L581.04 62.8172
L564.3 62.8172
L564.3 64.125" style="fill:#ed00ff;"/>
    <path clip-path="url(#p7e3d77fc3f)" d="
M564.3 62.8172
L581.04 62.8172
L581.04 61.5094
L564.3 61.5094
L564.3 62.8172" style="fill:#f300ff;"/>
    <path clip-path="url(#p7e3d77fc3f)" d="
M564.3 61.5094
L581.04 61.5094
L581.04 60.2016
L564.3 60.2016
L564.3 61.5094" style="fill:#f800ff;"/>
    <path clip-path="url(#p7e3d77fc3f)" d="
M564.3 60.2016
L581.04 60.2016
L581.04 58.8938
L564.3 58.8938
L564.3 60.2016" style="fill:#fe00ff;"/>
    <path clip-path="url(#p7e3d77fc3f)" d="
M564.3 58.8938
L581.04 58.8938
L581.04 57.5859
L564.3 57.5859
L564.3 58.8938" style="fill:#ff00fb;"/>
    <path clip-path="url(#p7e3d77fc3f)" d="
M564.3 57.5859
L581.04 57.5859
L581.04 56.2781
L564.3 56.2781
L564.3 57.5859" style="fill:#ff00f6;"/>
    <path clip-path="url(#p7e3d77fc3f)" d="
M564.3 56.2781
L581.04 56.2781
L581.04 54.9703
L564.3 54.9703
L564.3 56.2781" style="fill:#ff00f0;"/>
    <path clip-path="url(#p7e3d77fc3f)" d="
M564.3 54.9703
L581.04 54.9703
L581.04 53.6625
L564.3 53.6625
L564.3 54.9703" style="fill:#ff00eb;"/>
    <path clip-path="url(#p7e3d77fc3f)" d="
M564.3 53.6625
L581.04 53.6625
L581.04 52.3547
L564.3 52.3547
L564.3 53.6625" style="fill:#ff00e5;"/>
    <path clip-path="url(#p7e3d77fc3f)" d="
M564.3 52.3547
L581.04 52.3547
L581.04 51.0469
L564.3 51.0469
L564.3 52.3547" style="fill:#ff00e0;"/>
    <path clip-path="url(#p7e3d77fc3f)" d="
M564.3 51.0469
L581.04 51.0469
L581.04 49.7391
L564.3 49.7391
L564.3 51.0469" style="fill:#ff00da;"/>
    <path clip-path="url(#p7e3d77fc3f)" d="
M564.3 49.7391
L581.04 49.7391
L581.04 48.4312
L564.3 48.4312
L564.3 49.7391" style="fill:#ff00d5;"/>
    <path clip-path="url(#p7e3d77fc3f)" d="
M564.3 48.4312
L581.04 48.4312
L581.04 47.1234
L564.3 47.1234
L564.3 48.4312" style="fill:#ff00d0;"/>
    <path clip-path="url(#p7e3d77fc3f)" d="
M564.3 47.1234
L581.04 47.1234
L581.04 45.8156
L564.3 45.8156
L564.3 47.1234" style="fill:#ff00ca;"/>
    <path clip-path="url(#p7e3d77fc3f)" d="
M564.3 45.8156
L581.04 45.8156
L581.04 44.5078
L564.3 44.5078
L564.3 45.8156" style="fill:#ff00c5;"/>
    <path clip-path="url(#p7e3d77fc3f)" d="
M564.3 44.5078
L581.04 44.5078
L581.04 43.2
L564.3 43.2
L564.3 44.5078" style="fill:#ff00bf;"/>
   </g>
   <g id="patch_8">
    <path d="
M564.3 378
L564.3 376.692
L564.3 44.5078
L564.3 43.2
L581.04 43.2
L581.04 44.5078
L581.04 376.692
L581.04 378
L564.3 378" style="fill:none;stroke:#000000;stroke-linejoin:miter;"/>
   </g>
   <g id="matplotlib.axis_3"/>
   <g id="matplotlib.axis_4">
    <g id="ytick_10">
     <g id="line2d_37">
      <g>
       <use style="stroke:#000000;stroke-width:0.5;" x="581.04" xlink:href="#md9a1c1a7cd" y="378.0"/>
      </g>
     </g>
     <g id="text_19">
      <!-- 6 -->
      <g transform="translate(585.04 382.415)scale(0.16 -0.16)">
       <use xlink:href="#BitstreamVeraSans-Roman-36"/>
      </g>
     </g>
    </g>
    <g id="ytick_11">
     <g id="line2d_38">
      <g>
       <use style="stroke:#000000;stroke-width:0.5;" x="581.04" xlink:href="#md9a1c1a7cd" y="311.04"/>
      </g>
     </g>
     <g id="text_20">
      <!-- 7 -->
      <g transform="translate(585.04 315.455)scale(0.16 -0.16)">
       <use xlink:href="#BitstreamVeraSans-Roman-37"/>
      </g>
     </g>
    </g>
    <g id="ytick_12">
     <g id="line2d_39">
      <g>
       <use style="stroke:#000000;stroke-width:0.5;" x="581.04" xlink:href="#md9a1c1a7cd" y="244.08"/>
      </g>
     </g>
     <g id="text_21">
      <!-- 8 -->
      <g transform="translate(585.04 248.495)scale(0.16 -0.16)">
       <use xlink:href="#BitstreamVeraSans-Roman-38"/>
      </g>
     </g>
    </g>
    <g id="ytick_13">
     <g id="line2d_40">
      <g>
       <use style="stroke:#000000;stroke-width:0.5;" x="581.04" xlink:href="#md9a1c1a7cd" y="177.12"/>
      </g>
     </g>
     <g id="text_22">
      <!-- 9 -->
      <defs>
       <path d="
M10.9844 1.51562
L10.9844 10.5
Q14.7031 8.73438 18.5 7.8125
Q22.3125 6.89062 25.9844 6.89062
Q35.75 6.89062 40.8906 13.4531
Q46.0469 20.0156 46.7812 33.4062
Q43.9531 29.2031 39.5938 26.9531
Q35.25 24.7031 29.9844 24.7031
Q19.0469 24.7031 12.6719 31.3125
Q6.29688 37.9375 6.29688 49.4219
Q6.29688 60.6406 12.9375 67.4219
Q19.5781 74.2188 30.6094 74.2188
Q43.2656 74.2188 49.9219 64.5156
Q56.5938 54.8281 56.5938 36.375
Q56.5938 19.1406 48.4062 8.85938
Q40.2344 -1.42188 26.4219 -1.42188
Q22.7031 -1.42188 18.8906 -0.6875
Q15.0938 0.046875 10.9844 1.51562
M30.6094 32.4219
Q37.25 32.4219 41.125 36.9531
Q45.0156 41.5 45.0156 49.4219
Q45.0156 57.2812 41.125 61.8438
Q37.25 66.4062 30.6094 66.4062
Q23.9688 66.4062 20.0938 61.8438
Q16.2188 57.2812 16.2188 49.4219
Q16.2188 41.5 20.0938 36.9531
Q23.9688 32.4219 30.6094 32.4219" id="BitstreamVeraSans-Roman-39"/>
      </defs>
      <g transform="translate(585.04 181.535)scale(0.16 -0.16)">
       <use xlink:href="#BitstreamVeraSans-Roman-39"/>
      </g>
     </g>
    </g>
    <g id="ytick_14">
     <g id="line2d_41">
      <g>
       <use style="stroke:#000000;stroke-width:0.5;" x="581.04" xlink:href="#md9a1c1a7cd" y="110.16"/>
      </g>
     </g>
     <g id="text_23">
      <!-- 10 -->
      <g transform="translate(585.04 114.575)scale(0.16 -0.16)">
       <use xlink:href="#BitstreamVeraSans-Roman-31"/>
       <use x="63.623046875" xlink:href="#BitstreamVeraSans-Roman-30"/>
      </g>
     </g>
    </g>
    <g id="ytick_15">
     <g id="line2d_42">
      <g>
       <use style="stroke:#000000;stroke-width:0.5;" x="581.04" xlink:href="#md9a1c1a7cd" y="43.2"/>
      </g>
     </g>
     <g id="text_24">
      <!-- 11 -->
      <g transform="translate(585.04 47.615)scale(0.16 -0.16)">
       <use xlink:href="#BitstreamVeraSans-Roman-31"/>
       <use x="63.623046875" xlink:href="#BitstreamVeraSans-Roman-31"/>
      </g>
     </g>
    </g>
   </g>
  </g>
 </g>
 <defs>
  <clipPath id="p31a3573520">
   <rect height="334.8" width="446.4" x="90.0" y="43.2"/>
  </clipPath>
  <clipPath id="p7e3d77fc3f">
   <rect height="334.8" width="16.74" x="564.3" y="43.2"/>
  </clipPath>
 </defs>
</svg>
