<?xml version="1.0" encoding="utf-8" standalone="no"?>
<!DOCTYPE svg PUBLIC "-//W3C//DTD SVG 1.1//EN"
  "http://www.w3.org/Graphics/SVG/1.1/DTD/svg11.dtd">
<!-- Created with matplotlib (http://matplotlib.org/) -->
<svg height="432pt" version="1.1" viewBox="0 0 720 432" width="720pt" xmlns="http://www.w3.org/2000/svg" xmlns:xlink="http://www.w3.org/1999/xlink">
 <defs>
  <style type="text/css">
*{stroke-linecap:butt;stroke-linejoin:round;}
  </style>
 </defs>
 <g id="figure_1">
  <g id="patch_1">
   <path d="
M0 432
L720 432
L720 0
L0 0
z
" style="fill:#ffffff;"/>
  </g>
  <g id="axes_1">
   <g id="patch_2">
    <path d="
M90 378
L536.4 378
L536.4 43.2
L90 43.2
z
" style="fill:#ffffff;"/>
   </g>
   <g id="line2d_1">
    <path clip-path="url(#p31a3573520)" d="
M90.2234 378
L178.699 378
L179.146 377.163
L179.593 377.163
L180.04 378
L181.827 378
L182.274 377.163
L182.721 378
L183.168 376.326
L183.614 375.489
L184.061 375.489
L184.508 373.815
L184.955 376.326
L185.402 372.978
L185.849 372.141
L186.295 373.815
L186.742 372.978
L187.189 370.467
L187.636 367.119
L188.083 369.63
L188.53 373.815
L188.977 367.956
L189.423 363.771
L189.87 363.771
L190.317 359.586
L190.764 365.445
L191.211 352.89
L191.658 359.586
L192.105 349.542
L192.551 358.749
L192.998 362.097
L193.445 360.423
L193.892 359.586
L194.339 357.912
L194.786 357.075
L195.232 352.053
L195.679 353.727
L196.126 356.238
L196.573 357.075
L197.02 355.401
L197.467 357.912
L197.914 357.075
L198.36 354.564
L198.807 359.586
L199.701 350.379
L200.148 351.216
L201.488 363.771
L202.382 362.097
L202.829 354.564
L203.276 360.423
L203.723 361.26
L204.169 371.304
L204.616 367.956
L205.51 367.956
L206.404 371.304
L206.85 373.815
L207.297 377.163
L207.744 372.978
L208.191 370.467
L208.638 376.326
L209.085 375.489
L209.532 372.978
L209.978 374.652
L210.425 375.489
L210.872 377.163
L211.766 377.163
L212.213 378
L212.659 375.489
L213.106 378
L213.553 376.326
L214.447 378
L214.894 377.163
L215.341 378
L215.787 378
L216.234 377.163
L216.681 377.163
L217.128 376.326
L217.575 376.326
L218.022 378
L536.177 378
L536.177 378" style="fill:none;stroke:#ff9900;stroke-linecap:square;"/>
   </g>
   <g id="line2d_2">
    <path clip-path="url(#p31a3573520)" d="
M90.2234 378
L182.274 378
L182.721 377.163
L183.168 378
L184.508 378
L184.955 374.652
L185.402 374.652
L185.849 373.815
L186.295 367.119
L186.742 369.63
L187.189 369.63
L187.636 362.934
L188.083 363.771
L188.53 362.097
L188.977 364.608
L189.423 359.586
L189.87 357.075
L190.317 351.216
L190.764 352.053
L192.105 322.758
L192.551 326.106
L192.998 323.595
L193.445 306.855
L193.892 311.877
L194.786 294.3
L195.232 298.485
L195.679 287.604
L196.126 268.353
L196.573 289.278
L197.02 280.908
L197.467 279.234
L197.914 272.538
L198.36 282.582
L198.807 285.093
L199.254 279.234
L199.701 265.842
L200.148 280.071
L200.595 272.538
L201.041 280.908
L201.488 274.212
L201.935 291.789
L202.382 295.137
L202.829 280.908
L203.276 292.626
L203.723 288.441
L204.169 289.278
L204.616 301.833
L205.063 289.278
L205.51 294.3
L205.957 302.67
L206.85 312.714
L207.297 310.203
L207.744 311.04
L208.191 313.551
L208.638 290.115
L209.085 295.974
L209.532 321.921
L209.978 321.921
L210.425 297.648
L210.872 324.432
L211.319 318.573
L211.766 331.128
L212.659 324.432
L213.106 332.802
L213.553 337.824
L214 319.41
L214.447 344.52
L214.894 342.009
L215.341 349.542
L215.787 346.194
L216.234 355.401
L216.681 344.52
L217.128 348.705
L217.575 345.357
L218.022 351.216
L218.468 347.868
L218.915 361.26
L219.362 359.586
L219.809 357.075
L220.256 358.749
L220.703 367.956
L221.15 367.956
L221.596 367.119
L222.043 367.956
L222.937 371.304
L223.384 368.793
L223.831 375.489
L224.277 370.467
L224.724 372.141
L225.171 376.326
L225.618 374.652
L226.065 376.326
L226.512 374.652
L226.959 375.489
L227.405 375.489
L228.746 378
L229.193 378
L229.64 377.163
L230.086 378
L230.533 378
L230.98 376.326
L231.874 378
L233.661 378
L234.108 377.163
L234.555 378
L236.789 378
L237.236 377.163
L237.683 378
L536.177 378
L536.177 378" style="fill:none;stroke:#9dff00;stroke-linecap:square;"/>
   </g>
   <g id="line2d_3">
    <path clip-path="url(#p31a3573520)" d="
M90.2234 378
L185.849 378
L186.295 376.326
L186.742 378
L187.189 378
L187.636 375.489
L188.083 378
L189.423 367.119
L189.87 366.282
L190.764 360.423
L191.211 359.586
L191.658 352.89
L192.105 351.216
L192.551 352.053
L192.998 323.595
L193.445 317.736
L193.892 285.93
L194.339 283.419
L194.786 265.005
L195.232 282.582
L195.679 259.983
L196.126 220.644
L196.573 223.992
L197.02 203.904
L197.467 178.794
L197.914 199.719
L198.36 148.662
L198.807 146.988
L199.254 109.323
L199.701 119.367
L200.148 99.279
L200.595 158.706
L201.041 103.464
L201.488 121.878
L201.935 110.997
L202.382 112.671
L202.829 74.169
L203.276 75.843
L203.723 124.389
L204.169 142.803
L204.616 138.618
L205.063 152.01
L205.51 157.032
L205.957 141.129
L206.404 146.151
L206.85 149.499
L207.297 107.649
L207.744 127.737
L208.191 170.424
L208.638 182.979
L209.085 164.565
L209.532 161.217
L209.978 168.75
L210.425 145.314
L210.872 135.27
L211.319 172.098
L211.766 164.565
L212.213 204.741
L212.659 199.719
L213.106 225.666
L214 208.089
L214.447 208.926
L214.894 218.133
L215.341 207.252
L215.787 210.6
L216.234 235.71
L216.681 234.036
L217.128 250.776
L217.575 262.494
L218.022 256.635
L218.468 258.309
L218.915 244.917
L219.362 244.08
L219.809 259.146
L220.256 268.353
L220.703 290.952
L221.15 276.723
L221.596 293.463
L222.043 300.159
L222.49 291.789
L222.937 292.626
L223.384 289.278
L223.831 307.692
L224.277 316.062
L224.724 306.855
L225.618 324.432
L226.512 332.802
L226.959 317.736
L227.405 347.868
L227.852 343.683
L228.299 352.89
L228.746 352.89
L229.193 345.357
L229.64 356.238
L230.086 360.423
L230.533 356.238
L230.98 365.445
L231.427 367.119
L231.874 370.467
L232.321 367.956
L232.768 370.467
L233.214 372.141
L233.661 371.304
L234.108 372.141
L234.555 376.326
L235.002 368.793
L235.449 373.815
L235.895 372.978
L236.789 378
L237.236 375.489
L237.683 378
L238.13 378
L238.577 376.326
L239.023 375.489
L239.47 372.978
L239.917 377.163
L240.364 377.163
L240.811 378
L241.258 376.326
L242.151 378
L243.492 378
L243.939 377.163
L244.386 377.163
L244.832 378
L536.177 378
L536.177 378" style="fill:none;stroke:#00ff26;stroke-linecap:square;"/>
   </g>
   <g id="line2d_4">
    <path clip-path="url(#p31a3573520)" d="
M90.2234 378
L188.977 378
L189.87 376.326
L190.317 373.815
L190.764 374.652
L191.211 368.793
L191.658 373.815
L192.105 372.141
L192.551 371.304
L192.998 372.141
L193.445 366.282
L193.892 357.075
L194.339 360.423
L195.232 344.52
L195.679 344.52
L196.126 334.476
L197.02 295.137
L197.467 300.159
L197.914 295.137
L198.807 279.234
L199.254 257.472
L199.701 223.992
L200.148 230.688
L200.595 206.415
L201.041 226.503
L201.488 207.252
L201.935 173.772
L202.382 182.142
L202.829 177.12
L203.276 188.001
L203.723 186.327
L204.169 183.816
L204.616 198.045
L205.063 164.565
L205.51 167.076
L205.957 152.847
L206.404 167.913
L206.85 156.195
L207.297 180.468
L207.744 177.957
L208.191 147.825
L208.638 159.543
L209.085 215.622
L209.532 170.424
L209.978 154.521
L210.425 150.336
L210.872 164.565
L211.319 131.922
L211.766 174.609
L212.213 188.001
L212.659 175.446
L213.553 121.041
L214 146.151
L214.894 175.446
L215.341 162.891
L215.787 172.098
L216.234 144.477
L216.681 169.587
L217.128 168.75
L217.575 146.988
L218.022 153.684
L218.468 149.499
L218.915 177.957
L219.362 174.609
L219.809 152.01
L220.703 180.468
L221.15 174.609
L221.596 193.023
L222.043 202.23
L222.49 195.534
L222.937 200.556
L223.384 208.089
L224.277 180.468
L224.724 182.979
L225.171 229.851
L225.618 228.177
L226.065 238.221
L226.512 226.503
L226.959 274.212
L227.405 269.19
L227.852 253.287
L228.299 260.82
L228.746 230.688
L229.193 239.058
L229.64 282.582
L230.086 300.996
L230.533 306.855
L230.98 302.67
L231.427 326.943
L231.874 315.225
L232.321 317.736
L232.768 317.736
L233.214 332.802
L233.661 328.617
L234.108 342.846
L234.555 342.009
L235.002 348.705
L235.449 347.868
L235.895 352.89
L236.342 347.031
L236.789 351.216
L237.236 358.749
L237.683 368.793
L238.13 362.097
L238.577 362.934
L239.023 366.282
L239.47 372.141
L239.917 366.282
L240.364 367.119
L240.811 373.815
L241.258 370.467
L241.705 375.489
L242.151 373.815
L242.598 372.978
L243.045 378
L243.492 373.815
L243.939 377.163
L244.386 373.815
L244.832 377.163
L246.62 377.163
L247.067 378
L247.514 377.163
L247.96 377.163
L248.407 378
L536.177 378
L536.177 378" style="fill:none;stroke:#00ffed;stroke-linecap:square;"/>
   </g>
   <g id="line2d_5">
    <path clip-path="url(#p31a3573520)" d="
M90.2234 378
L191.658 378
L192.105 377.163
L192.551 378
L193.445 378
L193.892 377.163
L194.339 371.304
L194.786 372.141
L195.232 373.815
L195.679 371.304
L196.126 371.304
L196.573 372.141
L197.02 367.956
L197.467 367.119
L197.914 363.771
L198.36 357.912
L198.807 365.445
L199.254 356.238
L199.701 352.89
L200.148 344.52
L200.595 347.031
L201.041 337.824
L201.488 322.758
L201.935 338.661
L202.382 328.617
L202.829 325.269
L203.276 330.291
L203.723 331.965
L204.169 316.062
L204.616 310.203
L205.063 320.247
L205.51 316.899
L205.957 303.507
L206.404 310.203
L207.297 294.3
L207.744 293.463
L208.191 294.3
L208.638 285.093
L209.085 264.168
L209.532 275.886
L209.978 256.635
L210.425 262.494
L210.872 260.82
L211.319 258.309
L211.766 252.45
L212.213 284.256
L212.659 268.353
L213.106 244.08
L214 267.516
L214.447 259.146
L214.894 280.908
L215.341 262.494
L215.787 281.745
L216.234 275.886
L216.681 271.701
L217.128 258.309
L217.575 255.798
L218.022 259.146
L218.468 246.591
L218.915 245.754
L219.362 253.287
L219.809 240.732
L220.256 223.155
L220.703 245.754
L221.15 213.111
L221.596 243.243
L222.043 237.384
L222.937 229.851
L223.384 242.406
L223.831 221.481
L224.277 215.622
L224.724 226.503
L225.171 219.807
L225.618 220.644
L226.065 226.503
L226.512 208.089
L226.959 233.199
L227.405 242.406
L227.852 223.992
L228.299 225.666
L228.746 197.208
L229.193 223.992
L229.64 223.155
L230.086 239.895
L230.533 236.547
L230.98 258.309
L231.427 260.82
L231.874 262.494
L232.321 262.494
L232.768 278.397
L233.214 276.723
L233.661 266.679
L234.108 290.115
L234.555 298.485
L235.002 299.322
L235.449 311.877
L235.895 298.485
L236.789 327.78
L237.236 317.736
L238.13 344.52
L238.577 351.216
L239.023 343.683
L239.47 354.564
L239.917 357.075
L240.364 367.956
L240.811 353.727
L241.705 361.26
L242.151 367.956
L242.598 367.119
L243.045 367.119
L243.492 366.282
L243.939 371.304
L244.832 365.445
L245.279 372.978
L245.726 376.326
L246.173 374.652
L246.62 374.652
L247.067 377.163
L247.514 374.652
L247.96 376.326
L248.407 375.489
L248.854 377.163
L249.301 378
L249.748 376.326
L250.195 376.326
L250.641 378
L251.088 377.163
L251.535 377.163
L251.982 376.326
L252.429 378
L536.177 378
L536.177 378" style="fill:none;stroke:#004eff;stroke-linecap:square;"/>
   </g>
   <g id="line2d_6">
    <path clip-path="url(#p31a3573520)" d="
M90.2234 378
L197.914 378
L198.36 376.326
L198.807 377.163
L199.254 373.815
L199.701 375.489
L200.148 376.326
L200.595 376.326
L201.041 371.304
L201.488 374.652
L201.935 372.141
L202.829 370.467
L203.276 366.282
L203.723 367.956
L204.169 366.282
L205.063 364.608
L205.51 362.097
L205.957 360.423
L206.404 363.771
L206.85 365.445
L207.297 359.586
L207.744 355.401
L208.191 357.912
L208.638 355.401
L209.085 347.031
L209.532 345.357
L209.978 342.846
L210.425 359.586
L210.872 343.683
L211.319 342.846
L211.766 331.965
L212.213 347.868
L212.659 327.78
L213.106 333.639
L213.553 331.965
L214 334.476
L214.447 343.683
L214.894 335.313
L215.341 339.498
L215.787 326.943
L216.234 326.106
L216.681 323.595
L217.128 332.802
L218.468 321.921
L218.915 333.639
L219.362 320.247
L219.809 316.899
L220.256 315.225
L220.703 315.225
L221.15 306.018
L221.596 309.366
L222.043 316.062
L222.49 310.203
L222.937 318.573
L223.384 324.432
L223.831 321.921
L224.724 300.996
L225.171 314.388
L225.618 296.811
L226.065 300.996
L226.512 280.908
L226.959 269.19
L227.405 285.093
L227.852 272.538
L228.299 267.516
L228.746 278.397
L229.193 257.472
L229.64 261.657
L230.086 273.375
L230.533 289.278
L230.98 282.582
L231.427 271.701
L231.874 270.027
L232.321 270.864
L233.214 260.82
L234.108 300.159
L234.555 300.159
L235.002 301.833
L235.449 280.908
L235.895 275.886
L236.342 291.789
L236.789 289.278
L237.236 305.181
L237.683 307.692
L238.13 315.225
L238.577 309.366
L239.023 321.921
L239.47 330.291
L239.917 325.269
L240.364 334.476
L240.811 328.617
L241.258 348.705
L241.705 347.868
L242.151 349.542
L242.598 353.727
L243.045 355.401
L243.492 360.423
L243.939 358.749
L244.386 369.63
L244.832 367.956
L245.279 364.608
L245.726 370.467
L246.173 369.63
L246.62 371.304
L247.067 371.304
L247.514 370.467
L247.96 372.141
L248.407 372.978
L248.854 377.163
L249.301 374.652
L250.195 378
L250.641 377.163
L251.088 378
L251.535 378
L251.982 376.326
L252.429 376.326
L252.876 378
L253.323 378
L253.769 377.163
L254.216 378
L536.177 378
L536.177 378" style="fill:none;stroke:#7b00ff;stroke-linecap:square;"/>
   </g>
   <g id="line2d_7">
    <path clip-path="url(#p31a3573520)" d="
M90.2234 378
L202.829 378
L203.276 377.163
L203.723 378
L204.169 377.163
L204.616 374.652
L205.51 378
L205.957 377.163
L207.744 377.163
L208.191 378
L208.638 377.163
L209.085 372.978
L209.532 378
L209.978 376.326
L210.425 376.326
L210.872 374.652
L211.766 376.326
L212.213 374.652
L212.659 377.163
L213.106 375.489
L213.553 375.489
L214 377.163
L214.447 376.326
L214.894 378
L215.341 374.652
L216.234 378
L216.681 375.489
L217.128 375.489
L217.575 377.163
L218.022 372.141
L218.468 374.652
L218.915 375.489
L219.362 372.978
L219.809 376.326
L220.256 375.489
L220.703 373.815
L221.15 375.489
L221.596 375.489
L222.043 376.326
L222.49 370.467
L222.937 373.815
L223.384 372.141
L223.831 372.141
L224.277 370.467
L224.724 372.141
L225.171 368.793
L225.618 370.467
L226.065 369.63
L226.512 373.815
L226.959 362.097
L227.405 367.119
L227.852 368.793
L228.299 360.423
L228.746 365.445
L229.193 355.401
L229.64 352.89
L230.086 367.956
L230.533 360.423
L230.98 358.749
L231.874 347.868
L232.321 359.586
L232.768 361.26
L233.214 354.564
L233.661 354.564
L234.108 343.683
L234.555 352.89
L235.002 350.379
L235.895 334.476
L236.342 353.727
L236.789 355.401
L237.236 349.542
L237.683 358.749
L238.13 353.727
L238.577 352.89
L239.023 359.586
L239.47 363.771
L239.917 346.194
L240.364 356.238
L240.811 358.749
L241.258 352.89
L241.705 360.423
L242.151 359.586
L242.598 350.379
L243.045 357.912
L243.492 358.749
L243.939 362.934
L244.386 358.749
L244.832 366.282
L245.279 364.608
L245.726 369.63
L246.173 369.63
L246.62 370.467
L247.067 368.793
L247.514 368.793
L247.96 373.815
L248.407 373.815
L248.854 375.489
L249.301 372.978
L249.748 374.652
L250.195 373.815
L250.641 373.815
L251.088 374.652
L251.535 376.326
L251.982 372.978
L252.429 376.326
L252.876 378
L253.323 374.652
L253.769 377.163
L254.216 378
L255.557 378
L256.004 377.163
L256.45 378
L536.177 378
L536.177 378" style="fill:none;stroke:#ff00bf;stroke-linecap:square;"/>
   </g>
   <g id="line2d_8">
    <path clip-path="url(#p31a3573520)" d="
M90.2234 378
L184.061 378
L184.508 374.652
L184.955 378
L185.402 377.163
L185.849 377.163
L186.295 378
L186.742 378
L187.189 377.163
L187.636 377.163
L188.083 376.326
L188.53 377.163
L188.977 375.489
L189.423 378
L190.317 376.326
L190.764 377.163
L191.211 377.163
L191.658 378
L192.551 376.326
L192.998 377.163
L193.445 377.163
L193.892 378
L194.786 378
L195.232 377.163
L195.679 377.163
L196.126 378
L196.573 375.489
L197.02 376.326
L197.467 378
L197.914 378
L198.36 377.163
L198.807 378
L199.254 377.163
L199.701 378
L201.041 378
L201.488 377.163
L201.935 378
L205.063 378
L205.51 377.163
L205.957 378
L206.404 377.163
L206.85 378
L536.177 378
L536.177 378" style="fill:none;stroke:#ff0029;stroke-linecap:square;"/>
   </g>
   <g id="patch_3">
    <path d="
M90 378
L90 43.2" style="fill:none;stroke:#000000;stroke-linecap:square;stroke-linejoin:miter;"/>
   </g>
   <g id="patch_4">
    <path d="
M536.4 378
L536.4 43.2" style="fill:none;stroke:#000000;stroke-linecap:square;stroke-linejoin:miter;"/>
   </g>
   <g id="patch_5">
    <path d="
M90 43.2
L536.4 43.2" style="fill:none;stroke:#000000;stroke-linecap:square;stroke-linejoin:miter;"/>
   </g>
   <g id="patch_6">
    <path d="
M90 378
L536.4 378" style="fill:none;stroke:#000000;stroke-linecap:square;stroke-linejoin:miter;"/>
   </g>
   <g id="matplotlib.axis_1">
    <g id="xtick_1">
     <g id="line2d_9">
      <defs>
       <path d="
M0 0
L0 -4" id="mc7db9fdffb" style="stroke:#000000;stroke-width:0.5;"/>
      </defs>
      <g>
       <use style="stroke:#000000;stroke-width:0.5;" x="90.0" xlink:href="#mc7db9fdffb" y="378.0"/>
      </g>
     </g>
     <g id="line2d_10">
      <defs>
       <path d="
M0 0
L0 4" id="m5a7d422ac3" style="stroke:#000000;stroke-width:0.5;"/>
      </defs>
      <g>
       <use style="stroke:#000000;stroke-width:0.5;" x="90.0" xlink:href="#m5a7d422ac3" y="43.2"/>
      </g>
     </g>
     <g id="text_1">
      <!-- 0 -->
      <defs>
       <path d="
M31.7812 66.4062
Q24.1719 66.4062 20.3281 58.9062
Q16.5 51.4219 16.5 36.375
Q16.5 21.3906 20.3281 13.8906
Q24.1719 6.39062 31.7812 6.39062
Q39.4531 6.39062 43.2812 13.8906
Q47.125 21.3906 47.125 36.375
Q47.125 51.4219 43.2812 58.9062
Q39.4531 66.4062 31.7812 66.4062
M31.7812 74.2188
Q44.0469 74.2188 50.5156 64.5156
Q56.9844 54.8281 56.9844 36.375
Q56.9844 17.9688 50.5156 8.26562
Q44.0469 -1.42188 31.7812 -1.42188
Q19.5312 -1.42188 13.0625 8.26562
Q6.59375 17.9688 6.59375 36.375
Q6.59375 54.8281 13.0625 64.5156
Q19.5312 74.2188 31.7812 74.2188" id="BitstreamVeraSans-Roman-30"/>
      </defs>
      <g transform="translate(85.96875 394.1575)scale(0.16 -0.16)">
       <use xlink:href="#BitstreamVeraSans-Roman-30"/>
      </g>
     </g>
    </g>
    <g id="xtick_2">
     <g id="line2d_11">
      <g>
       <use style="stroke:#000000;stroke-width:0.5;" x="179.28" xlink:href="#mc7db9fdffb" y="378.0"/>
      </g>
     </g>
     <g id="line2d_12">
      <g>
       <use style="stroke:#000000;stroke-width:0.5;" x="179.28" xlink:href="#m5a7d422ac3" y="43.2"/>
      </g>
     </g>
     <g id="text_2">
      <!-- 200 -->
      <defs>
       <path d="
M19.1875 8.29688
L53.6094 8.29688
L53.6094 0
L7.32812 0
L7.32812 8.29688
Q12.9375 14.1094 22.625 23.8906
Q32.3281 33.6875 34.8125 36.5312
Q39.5469 41.8438 41.4219 45.5312
Q43.3125 49.2188 43.3125 52.7812
Q43.3125 58.5938 39.2344 62.25
Q35.1562 65.9219 28.6094 65.9219
Q23.9688 65.9219 18.8125 64.3125
Q13.6719 62.7031 7.8125 59.4219
L7.8125 69.3906
Q13.7656 71.7812 18.9375 73
Q24.125 74.2188 28.4219 74.2188
Q39.75 74.2188 46.4844 68.5469
Q53.2188 62.8906 53.2188 53.4219
Q53.2188 48.9219 51.5312 44.8906
Q49.8594 40.875 45.4062 35.4062
Q44.1875 33.9844 37.6406 27.2188
Q31.1094 20.4531 19.1875 8.29688" id="BitstreamVeraSans-Roman-32"/>
      </defs>
      <g transform="translate(165.1275 394.1575)scale(0.16 -0.16)">
       <use xlink:href="#BitstreamVeraSans-Roman-32"/>
       <use x="63.623046875" xlink:href="#BitstreamVeraSans-Roman-30"/>
       <use x="127.24609375" xlink:href="#BitstreamVeraSans-Roman-30"/>
      </g>
     </g>
    </g>
    <g id="xtick_3">
     <g id="line2d_13">
      <g>
       <use style="stroke:#000000;stroke-width:0.5;" x="268.56" xlink:href="#mc7db9fdffb" y="378.0"/>
      </g>
     </g>
     <g id="line2d_14">
      <g>
       <use style="stroke:#000000;stroke-width:0.5;" x="268.56" xlink:href="#m5a7d422ac3" y="43.2"/>
      </g>
     </g>
     <g id="text_3">
      <!-- 400 -->
      <defs>
       <path d="
M37.7969 64.3125
L12.8906 25.3906
L37.7969 25.3906
z

M35.2031 72.9062
L47.6094 72.9062
L47.6094 25.3906
L58.0156 25.3906
L58.0156 17.1875
L47.6094 17.1875
L47.6094 0
L37.7969 0
L37.7969 17.1875
L4.89062 17.1875
L4.89062 26.7031
z
" id="BitstreamVeraSans-Roman-34"/>
      </defs>
      <g transform="translate(254.2125 394.1575)scale(0.16 -0.16)">
       <use xlink:href="#BitstreamVeraSans-Roman-34"/>
       <use x="63.623046875" xlink:href="#BitstreamVeraSans-Roman-30"/>
       <use x="127.24609375" xlink:href="#BitstreamVeraSans-Roman-30"/>
      </g>
     </g>
    </g>
    <g id="xtick_4">
     <g id="line2d_15">
      <g>
       <use style="stroke:#000000;stroke-width:0.5;" x="357.84" xlink:href="#mc7db9fdffb" y="378.0"/>
      </g>
     </g>
     <g id="line2d_16">
      <g>
       <use style="stroke:#000000;stroke-width:0.5;" x="357.84" xlink:href="#m5a7d422ac3" y="43.2"/>
      </g>
     </g>
     <g id="text_4">
      <!-- 600 -->
      <defs>
       <path d="
M33.0156 40.375
Q26.375 40.375 22.4844 35.8281
Q18.6094 31.2969 18.6094 23.3906
Q18.6094 15.5312 22.4844 10.9531
Q26.375 6.39062 33.0156 6.39062
Q39.6562 6.39062 43.5312 10.9531
Q47.4062 15.5312 47.4062 23.3906
Q47.4062 31.2969 43.5312 35.8281
Q39.6562 40.375 33.0156 40.375
M52.5938 71.2969
L52.5938 62.3125
Q48.875 64.0625 45.0938 64.9844
Q41.3125 65.9219 37.5938 65.9219
Q27.8281 65.9219 22.6719 59.3281
Q17.5312 52.7344 16.7969 39.4062
Q19.6719 43.6562 24.0156 45.9219
Q28.375 48.1875 33.5938 48.1875
Q44.5781 48.1875 50.9531 41.5156
Q57.3281 34.8594 57.3281 23.3906
Q57.3281 12.1562 50.6875 5.35938
Q44.0469 -1.42188 33.0156 -1.42188
Q20.3594 -1.42188 13.6719 8.26562
Q6.98438 17.9688 6.98438 36.375
Q6.98438 53.6562 15.1875 63.9375
Q23.3906 74.2188 37.2031 74.2188
Q40.9219 74.2188 44.7031 73.4844
Q48.4844 72.75 52.5938 71.2969" id="BitstreamVeraSans-Roman-36"/>
      </defs>
      <g transform="translate(343.66 394.1575)scale(0.16 -0.16)">
       <use xlink:href="#BitstreamVeraSans-Roman-36"/>
       <use x="63.623046875" xlink:href="#BitstreamVeraSans-Roman-30"/>
       <use x="127.24609375" xlink:href="#BitstreamVeraSans-Roman-30"/>
      </g>
     </g>
    </g>
    <g id="xtick_5">
     <g id="line2d_17">
      <g>
       <use style="stroke:#000000;stroke-width:0.5;" x="447.12" xlink:href="#mc7db9fdffb" y="378.0"/>
      </g>
     </g>
     <g id="line2d_18">
      <g>
       <use style="stroke:#000000;stroke-width:0.5;" x="447.12" xlink:href="#m5a7d422ac3" y="43.2"/>
      </g>
     </g>
     <g id="text_5">
      <!-- 800 -->
      <defs>
       <path d="
M31.7812 34.625
Q24.75 34.625 20.7188 30.8594
Q16.7031 27.0938 16.7031 20.5156
Q16.7031 13.9219 20.7188 10.1562
Q24.75 6.39062 31.7812 6.39062
Q38.8125 6.39062 42.8594 10.1719
Q46.9219 13.9688 46.9219 20.5156
Q46.9219 27.0938 42.8906 30.8594
Q38.875 34.625 31.7812 34.625
M21.9219 38.8125
Q15.5781 40.375 12.0312 44.7188
Q8.5 49.0781 8.5 55.3281
Q8.5 64.0625 14.7188 69.1406
Q20.9531 74.2188 31.7812 74.2188
Q42.6719 74.2188 48.875 69.1406
Q55.0781 64.0625 55.0781 55.3281
Q55.0781 49.0781 51.5312 44.7188
Q48 40.375 41.7031 38.8125
Q48.8281 37.1562 52.7969 32.3125
Q56.7812 27.4844 56.7812 20.5156
Q56.7812 9.90625 50.3125 4.23438
Q43.8438 -1.42188 31.7812 -1.42188
Q19.7344 -1.42188 13.25 4.23438
Q6.78125 9.90625 6.78125 20.5156
Q6.78125 27.4844 10.7812 32.3125
Q14.7969 37.1562 21.9219 38.8125
M18.3125 54.3906
Q18.3125 48.7344 21.8438 45.5625
Q25.3906 42.3906 31.7812 42.3906
Q38.1406 42.3906 41.7188 45.5625
Q45.3125 48.7344 45.3125 54.3906
Q45.3125 60.0625 41.7188 63.2344
Q38.1406 66.4062 31.7812 66.4062
Q25.3906 66.4062 21.8438 63.2344
Q18.3125 60.0625 18.3125 54.3906" id="BitstreamVeraSans-Roman-38"/>
      </defs>
      <g transform="translate(432.92375 394.1575)scale(0.16 -0.16)">
       <use xlink:href="#BitstreamVeraSans-Roman-38"/>
       <use x="63.623046875" xlink:href="#BitstreamVeraSans-Roman-30"/>
       <use x="127.24609375" xlink:href="#BitstreamVeraSans-Roman-30"/>
      </g>
     </g>
    </g>
    <g id="xtick_6">
     <g id="line2d_19">
      <g>
       <use style="stroke:#000000;stroke-width:0.5;" x="536.4" xlink:href="#mc7db9fdffb" y="378.0"/>
      </g>
     </g>
     <g id="line2d_20">
      <g>
       <use style="stroke:#000000;stroke-width:0.5;" x="536.4" xlink:href="#m5a7d422ac3" y="43.2"/>
      </g>
     </g>
     <g id="text_6">
      <!-- 1000 -->
      <defs>
       <path d="
M12.4062 8.29688
L28.5156 8.29688
L28.5156 63.9219
L10.9844 60.4062
L10.9844 69.3906
L28.4219 72.9062
L38.2812 72.9062
L38.2812 8.29688
L54.3906 8.29688
L54.3906 0
L12.4062 0
z
" id="BitstreamVeraSans-Roman-31"/>
      </defs>
      <g transform="translate(517.45 394.1575)scale(0.16 -0.16)">
       <use xlink:href="#BitstreamVeraSans-Roman-31"/>
       <use x="63.623046875" xlink:href="#BitstreamVeraSans-Roman-30"/>
       <use x="127.24609375" xlink:href="#BitstreamVeraSans-Roman-30"/>
       <use x="190.869140625" xlink:href="#BitstreamVeraSans-Roman-30"/>
      </g>
     </g>
    </g>
    <g id="text_7">
     <!-- Time difference /ms -->
     <defs>
      <path d="
M44.2812 53.0781
L44.2812 44.5781
Q40.4844 46.5312 36.375 47.5
Q32.2812 48.4844 27.875 48.4844
Q21.1875 48.4844 17.8438 46.4375
Q14.5 44.3906 14.5 40.2812
Q14.5 37.1562 16.8906 35.375
Q19.2812 33.5938 26.5156 31.9844
L29.5938 31.2969
Q39.1562 29.25 43.1875 25.5156
Q47.2188 21.7812 47.2188 15.0938
Q47.2188 7.46875 41.1875 3.01562
Q35.1562 -1.42188 24.6094 -1.42188
Q20.2188 -1.42188 15.4531 -0.5625
Q10.6875 0.296875 5.42188 2
L5.42188 11.2812
Q10.4062 8.6875 15.2344 7.39062
Q20.0625 6.10938 24.8125 6.10938
Q31.1562 6.10938 34.5625 8.28125
Q37.9844 10.4531 37.9844 14.4062
Q37.9844 18.0625 35.5156 20.0156
Q33.0625 21.9688 24.7031 23.7812
L21.5781 24.5156
Q13.2344 26.2656 9.51562 29.9062
Q5.8125 33.5469 5.8125 39.8906
Q5.8125 47.6094 11.2812 51.7969
Q16.75 56 26.8125 56
Q31.7812 56 36.1719 55.2656
Q40.5781 54.5469 44.2812 53.0781" id="BitstreamVeraSans-Roman-73"/>
      <path d="
M41.1094 46.2969
Q39.5938 47.1719 37.8125 47.5781
Q36.0312 48 33.8906 48
Q26.2656 48 22.1875 43.0469
Q18.1094 38.0938 18.1094 28.8125
L18.1094 0
L9.07812 0
L9.07812 54.6875
L18.1094 54.6875
L18.1094 46.1875
Q20.9531 51.1719 25.4844 53.5781
Q30.0312 56 36.5312 56
Q37.4531 56 38.5781 55.875
Q39.7031 55.7656 41.0625 55.5156
z
" id="BitstreamVeraSans-Roman-72"/>
      <path d="
M56.2031 29.5938
L56.2031 25.2031
L14.8906 25.2031
Q15.4844 15.9219 20.4844 11.0625
Q25.4844 6.20312 34.4219 6.20312
Q39.5938 6.20312 44.4531 7.46875
Q49.3125 8.73438 54.1094 11.2812
L54.1094 2.78125
Q49.2656 0.734375 44.1875 -0.34375
Q39.1094 -1.42188 33.8906 -1.42188
Q20.7969 -1.42188 13.1562 6.1875
Q5.51562 13.8125 5.51562 26.8125
Q5.51562 40.2344 12.7656 48.1094
Q20.0156 56 32.3281 56
Q43.3594 56 49.7812 48.8906
Q56.2031 41.7969 56.2031 29.5938
M47.2188 32.2344
Q47.125 39.5938 43.0938 43.9844
Q39.0625 48.3906 32.4219 48.3906
Q24.9062 48.3906 20.3906 44.1406
Q15.875 39.8906 15.1875 32.1719
z
" id="BitstreamVeraSans-Roman-65"/>
      <path d="
M37.1094 75.9844
L37.1094 68.5
L28.5156 68.5
Q23.6875 68.5 21.7969 66.5469
Q19.9219 64.5938 19.9219 59.5156
L19.9219 54.6875
L34.7188 54.6875
L34.7188 47.7031
L19.9219 47.7031
L19.9219 0
L10.8906 0
L10.8906 47.7031
L2.29688 47.7031
L2.29688 54.6875
L10.8906 54.6875
L10.8906 58.5
Q10.8906 67.625 15.1406 71.7969
Q19.3906 75.9844 28.6094 75.9844
z
" id="BitstreamVeraSans-Roman-66"/>
      <path d="
M45.4062 46.3906
L45.4062 75.9844
L54.3906 75.9844
L54.3906 0
L45.4062 0
L45.4062 8.20312
Q42.5781 3.32812 38.25 0.953125
Q33.9375 -1.42188 27.875 -1.42188
Q17.9688 -1.42188 11.7344 6.48438
Q5.51562 14.4062 5.51562 27.2969
Q5.51562 40.1875 11.7344 48.0938
Q17.9688 56 27.875 56
Q33.9375 56 38.25 53.625
Q42.5781 51.2656 45.4062 46.3906
M14.7969 27.2969
Q14.7969 17.3906 18.875 11.75
Q22.9531 6.10938 30.0781 6.10938
Q37.2031 6.10938 41.2969 11.75
Q45.4062 17.3906 45.4062 27.2969
Q45.4062 37.2031 41.2969 42.8438
Q37.2031 48.4844 30.0781 48.4844
Q22.9531 48.4844 18.875 42.8438
Q14.7969 37.2031 14.7969 27.2969" id="BitstreamVeraSans-Roman-64"/>
      <path d="
M9.42188 54.6875
L18.4062 54.6875
L18.4062 0
L9.42188 0
z

M9.42188 75.9844
L18.4062 75.9844
L18.4062 64.5938
L9.42188 64.5938
z
" id="BitstreamVeraSans-Roman-69"/>
      <path d="
M48.7812 52.5938
L48.7812 44.1875
Q44.9688 46.2969 41.1406 47.3438
Q37.3125 48.3906 33.4062 48.3906
Q24.6562 48.3906 19.8125 42.8438
Q14.9844 37.3125 14.9844 27.2969
Q14.9844 17.2812 19.8125 11.7344
Q24.6562 6.20312 33.4062 6.20312
Q37.3125 6.20312 41.1406 7.25
Q44.9688 8.29688 48.7812 10.4062
L48.7812 2.09375
Q45.0156 0.34375 40.9844 -0.53125
Q36.9688 -1.42188 32.4219 -1.42188
Q20.0625 -1.42188 12.7812 6.34375
Q5.51562 14.1094 5.51562 27.2969
Q5.51562 40.6719 12.8594 48.3281
Q20.2188 56 33.0156 56
Q37.1562 56 41.1094 55.1406
Q45.0625 54.2969 48.7812 52.5938" id="BitstreamVeraSans-Roman-63"/>
      <path id="BitstreamVeraSans-Roman-20"/>
      <path d="
M52 44.1875
Q55.375 50.25 60.0625 53.125
Q64.75 56 71.0938 56
Q79.6406 56 84.2812 50.0156
Q88.9219 44.0469 88.9219 33.0156
L88.9219 0
L79.8906 0
L79.8906 32.7188
Q79.8906 40.5781 77.0938 44.375
Q74.3125 48.1875 68.6094 48.1875
Q61.625 48.1875 57.5625 43.5469
Q53.5156 38.9219 53.5156 30.9062
L53.5156 0
L44.4844 0
L44.4844 32.7188
Q44.4844 40.625 41.7031 44.4062
Q38.9219 48.1875 33.1094 48.1875
Q26.2188 48.1875 22.1562 43.5312
Q18.1094 38.875 18.1094 30.9062
L18.1094 0
L9.07812 0
L9.07812 54.6875
L18.1094 54.6875
L18.1094 46.1875
Q21.1875 51.2188 25.4844 53.6094
Q29.7812 56 35.6875 56
Q41.6562 56 45.8281 52.9688
Q50 49.9531 52 44.1875" id="BitstreamVeraSans-Roman-6d"/>
      <path d="
M-0.296875 72.9062
L61.375 72.9062
L61.375 64.5938
L35.5 64.5938
L35.5 0
L25.5938 0
L25.5938 64.5938
L-0.296875 64.5938
z
" id="BitstreamVeraSans-Roman-54"/>
      <path d="
M25.3906 72.9062
L33.6875 72.9062
L8.29688 -9.28125
L0 -9.28125
z
" id="BitstreamVeraSans-Roman-2f"/>
      <path d="
M54.8906 33.0156
L54.8906 0
L45.9062 0
L45.9062 32.7188
Q45.9062 40.4844 42.875 44.3281
Q39.8438 48.1875 33.7969 48.1875
Q26.5156 48.1875 22.3125 43.5469
Q18.1094 38.9219 18.1094 30.9062
L18.1094 0
L9.07812 0
L9.07812 54.6875
L18.1094 54.6875
L18.1094 46.1875
Q21.3438 51.125 25.7031 53.5625
Q30.0781 56 35.7969 56
Q45.2188 56 50.0469 50.1719
Q54.8906 44.3438 54.8906 33.0156" id="BitstreamVeraSans-Roman-6e"/>
     </defs>
     <g transform="translate(233.97375 414.6425)scale(0.16 -0.16)">
      <use xlink:href="#BitstreamVeraSans-Roman-54"/>
      <use x="57.958984375" xlink:href="#BitstreamVeraSans-Roman-69"/>
      <use x="85.7421875" xlink:href="#BitstreamVeraSans-Roman-6d"/>
      <use x="183.154296875" xlink:href="#BitstreamVeraSans-Roman-65"/>
      <use x="244.677734375" xlink:href="#BitstreamVeraSans-Roman-20"/>
      <use x="276.46484375" xlink:href="#BitstreamVeraSans-Roman-64"/>
      <use x="339.94140625" xlink:href="#BitstreamVeraSans-Roman-69"/>
      <use x="367.724609375" xlink:href="#BitstreamVeraSans-Roman-66"/>
      <use x="402.9296875" xlink:href="#BitstreamVeraSans-Roman-66"/>
      <use x="438.134765625" xlink:href="#BitstreamVeraSans-Roman-65"/>
      <use x="499.658203125" xlink:href="#BitstreamVeraSans-Roman-72"/>
      <use x="538.521484375" xlink:href="#BitstreamVeraSans-Roman-65"/>
      <use x="600.044921875" xlink:href="#BitstreamVeraSans-Roman-6e"/>
      <use x="663.423828125" xlink:href="#BitstreamVeraSans-Roman-63"/>
      <use x="718.404296875" xlink:href="#BitstreamVeraSans-Roman-65"/>
      <use x="779.927734375" xlink:href="#BitstreamVeraSans-Roman-20"/>
      <use x="811.71484375" xlink:href="#BitstreamVeraSans-Roman-2f"/>
      <use x="845.40625" xlink:href="#BitstreamVeraSans-Roman-6d"/>
      <use x="942.818359375" xlink:href="#BitstreamVeraSans-Roman-73"/>
     </g>
    </g>
   </g>
   <g id="matplotlib.axis_2">
    <g id="ytick_1">
     <g id="line2d_21">
      <defs>
       <path d="
M0 0
L4 0" id="md7965d1ba0" style="stroke:#000000;stroke-width:0.5;"/>
      </defs>
      <g>
       <use style="stroke:#000000;stroke-width:0.5;" x="90.0" xlink:href="#md7965d1ba0" y="378.0"/>
      </g>
     </g>
     <g id="line2d_22">
      <defs>
       <path d="
M0 0
L-4 0" id="md9a1c1a7cd" style="stroke:#000000;stroke-width:0.5;"/>
      </defs>
      <g>
       <use style="stroke:#000000;stroke-width:0.5;" x="536.4" xlink:href="#md9a1c1a7cd" y="378.0"/>
      </g>
     </g>
     <g id="text_8">
      <!-- 0 -->
      <g transform="translate(77.9375 382.415)scale(0.16 -0.16)">
       <use xlink:href="#BitstreamVeraSans-Roman-30"/>
      </g>
     </g>
    </g>
    <g id="ytick_2">
     <g id="line2d_23">
      <g>
       <use style="stroke:#000000;stroke-width:0.5;" x="90.0" xlink:href="#md7965d1ba0" y="336.15"/>
      </g>
     </g>
     <g id="line2d_24">
      <g>
       <use style="stroke:#000000;stroke-width:0.5;" x="536.4" xlink:href="#md9a1c1a7cd" y="336.15"/>
      </g>
     </g>
     <g id="text_9">
      <!-- 50 -->
      <defs>
       <path d="
M10.7969 72.9062
L49.5156 72.9062
L49.5156 64.5938
L19.8281 64.5938
L19.8281 46.7344
Q21.9688 47.4688 24.1094 47.8281
Q26.2656 48.1875 28.4219 48.1875
Q40.625 48.1875 47.75 41.5
Q54.8906 34.8125 54.8906 23.3906
Q54.8906 11.625 47.5625 5.09375
Q40.2344 -1.42188 26.9062 -1.42188
Q22.3125 -1.42188 17.5469 -0.640625
Q12.7969 0.140625 7.71875 1.70312
L7.71875 11.625
Q12.1094 9.23438 16.7969 8.0625
Q21.4844 6.89062 26.7031 6.89062
Q35.1562 6.89062 40.0781 11.3281
Q45.0156 15.7656 45.0156 23.3906
Q45.0156 31 40.0781 35.4375
Q35.1562 39.8906 26.7031 39.8906
Q22.75 39.8906 18.8125 39.0156
Q14.8906 38.1406 10.7969 36.2812
z
" id="BitstreamVeraSans-Roman-35"/>
      </defs>
      <g transform="translate(67.9375 340.565)scale(0.16 -0.16)">
       <use xlink:href="#BitstreamVeraSans-Roman-35"/>
       <use x="63.623046875" xlink:href="#BitstreamVeraSans-Roman-30"/>
      </g>
     </g>
    </g>
    <g id="ytick_3">
     <g id="line2d_25">
      <g>
       <use style="stroke:#000000;stroke-width:0.5;" x="90.0" xlink:href="#md7965d1ba0" y="294.3"/>
      </g>
     </g>
     <g id="line2d_26">
      <g>
       <use style="stroke:#000000;stroke-width:0.5;" x="536.4" xlink:href="#md9a1c1a7cd" y="294.3"/>
      </g>
     </g>
     <g id="text_10">
      <!-- 100 -->
      <g transform="translate(58.28 298.715)scale(0.16 -0.16)">
       <use xlink:href="#BitstreamVeraSans-Roman-31"/>
       <use x="63.623046875" xlink:href="#BitstreamVeraSans-Roman-30"/>
       <use x="127.24609375" xlink:href="#BitstreamVeraSans-Roman-30"/>
      </g>
     </g>
    </g>
    <g id="ytick_4">
     <g id="line2d_27">
      <g>
       <use style="stroke:#000000;stroke-width:0.5;" x="90.0" xlink:href="#md7965d1ba0" y="252.45"/>
      </g>
     </g>
     <g id="line2d_28">
      <g>
       <use style="stroke:#000000;stroke-width:0.5;" x="536.4" xlink:href="#md9a1c1a7cd" y="252.45"/>
      </g>
     </g>
     <g id="text_11">
      <!-- 150 -->
      <g transform="translate(58.28 256.865)scale(0.16 -0.16)">
       <use xlink:href="#BitstreamVeraSans-Roman-31"/>
       <use x="63.623046875" xlink:href="#BitstreamVeraSans-Roman-35"/>
       <use x="127.24609375" xlink:href="#BitstreamVeraSans-Roman-30"/>
      </g>
     </g>
    </g>
    <g id="ytick_5">
     <g id="line2d_29">
      <g>
       <use style="stroke:#000000;stroke-width:0.5;" x="90.0" xlink:href="#md7965d1ba0" y="210.6"/>
      </g>
     </g>
     <g id="line2d_30">
      <g>
       <use style="stroke:#000000;stroke-width:0.5;" x="536.4" xlink:href="#md9a1c1a7cd" y="210.6"/>
      </g>
     </g>
     <g id="text_12">
      <!-- 200 -->
      <g transform="translate(57.695 215.015)scale(0.16 -0.16)">
       <use xlink:href="#BitstreamVeraSans-Roman-32"/>
       <use x="63.623046875" xlink:href="#BitstreamVeraSans-Roman-30"/>
       <use x="127.24609375" xlink:href="#BitstreamVeraSans-Roman-30"/>
      </g>
     </g>
    </g>
    <g id="ytick_6">
     <g id="line2d_31">
      <g>
       <use style="stroke:#000000;stroke-width:0.5;" x="90.0" xlink:href="#md7965d1ba0" y="168.75"/>
      </g>
     </g>
     <g id="line2d_32">
      <g>
       <use style="stroke:#000000;stroke-width:0.5;" x="536.4" xlink:href="#md9a1c1a7cd" y="168.75"/>
      </g>
     </g>
     <g id="text_13">
      <!-- 250 -->
      <g transform="translate(57.695 173.165)scale(0.16 -0.16)">
       <use xlink:href="#BitstreamVeraSans-Roman-32"/>
       <use x="63.623046875" xlink:href="#BitstreamVeraSans-Roman-35"/>
       <use x="127.24609375" xlink:href="#BitstreamVeraSans-Roman-30"/>
      </g>
     </g>
    </g>
    <g id="ytick_7">
     <g id="line2d_33">
      <g>
       <use style="stroke:#000000;stroke-width:0.5;" x="90.0" xlink:href="#md7965d1ba0" y="126.9"/>
      </g>
     </g>
     <g id="line2d_34">
      <g>
       <use style="stroke:#000000;stroke-width:0.5;" x="536.4" xlink:href="#md9a1c1a7cd" y="126.9"/>
      </g>
     </g>
     <g id="text_14">
      <!-- 300 -->
      <defs>
       <path d="
M40.5781 39.3125
Q47.6562 37.7969 51.625 33
Q55.6094 28.2188 55.6094 21.1875
Q55.6094 10.4062 48.1875 4.48438
Q40.7656 -1.42188 27.0938 -1.42188
Q22.5156 -1.42188 17.6562 -0.515625
Q12.7969 0.390625 7.625 2.20312
L7.625 11.7188
Q11.7188 9.32812 16.5938 8.10938
Q21.4844 6.89062 26.8125 6.89062
Q36.0781 6.89062 40.9375 10.5469
Q45.7969 14.2031 45.7969 21.1875
Q45.7969 27.6406 41.2812 31.2656
Q36.7656 34.9062 28.7188 34.9062
L20.2188 34.9062
L20.2188 43.0156
L29.1094 43.0156
Q36.375 43.0156 40.2344 45.9219
Q44.0938 48.8281 44.0938 54.2969
Q44.0938 59.9062 40.1094 62.9062
Q36.1406 65.9219 28.7188 65.9219
Q24.6562 65.9219 20.0156 65.0312
Q15.375 64.1562 9.8125 62.3125
L9.8125 71.0938
Q15.4375 72.6562 20.3438 73.4375
Q25.25 74.2188 29.5938 74.2188
Q40.8281 74.2188 47.3594 69.1094
Q53.9062 64.0156 53.9062 55.3281
Q53.9062 49.2656 50.4375 45.0938
Q46.9688 40.9219 40.5781 39.3125" id="BitstreamVeraSans-Roman-33"/>
      </defs>
      <g transform="translate(57.7425 131.315)scale(0.16 -0.16)">
       <use xlink:href="#BitstreamVeraSans-Roman-33"/>
       <use x="63.623046875" xlink:href="#BitstreamVeraSans-Roman-30"/>
       <use x="127.24609375" xlink:href="#BitstreamVeraSans-Roman-30"/>
      </g>
     </g>
    </g>
    <g id="ytick_8">
     <g id="line2d_35">
      <g>
       <use style="stroke:#000000;stroke-width:0.5;" x="90.0" xlink:href="#md7965d1ba0" y="85.05"/>
      </g>
     </g>
     <g id="line2d_36">
      <g>
       <use style="stroke:#000000;stroke-width:0.5;" x="536.4" xlink:href="#md9a1c1a7cd" y="85.05"/>
      </g>
     </g>
     <g id="text_15">
      <!-- 350 -->
      <g transform="translate(57.7425 89.465)scale(0.16 -0.16)">
       <use xlink:href="#BitstreamVeraSans-Roman-33"/>
       <use x="63.623046875" xlink:href="#BitstreamVeraSans-Roman-35"/>
       <use x="127.24609375" xlink:href="#BitstreamVeraSans-Roman-30"/>
      </g>
     </g>
    </g>
    <g id="ytick_9">
     <g id="line2d_37">
      <g>
       <use style="stroke:#000000;stroke-width:0.5;" x="90.0" xlink:href="#md7965d1ba0" y="43.2"/>
      </g>
     </g>
     <g id="line2d_38">
      <g>
       <use style="stroke:#000000;stroke-width:0.5;" x="536.4" xlink:href="#md9a1c1a7cd" y="43.2"/>
      </g>
     </g>
     <g id="text_16">
      <!-- 400 -->
      <g transform="translate(57.305 47.615)scale(0.16 -0.16)">
       <use xlink:href="#BitstreamVeraSans-Roman-34"/>
       <use x="63.623046875" xlink:href="#BitstreamVeraSans-Roman-30"/>
       <use x="127.24609375" xlink:href="#BitstreamVeraSans-Roman-30"/>
      </g>
     </g>
    </g>
    <g id="text_17">
     <!-- Frequency -->
     <defs>
      <path d="
M8.5 21.5781
L8.5 54.6875
L17.4844 54.6875
L17.4844 21.9219
Q17.4844 14.1562 20.5 10.2656
Q23.5312 6.39062 29.5938 6.39062
Q36.8594 6.39062 41.0781 11.0312
Q45.3125 15.6719 45.3125 23.6875
L45.3125 54.6875
L54.2969 54.6875
L54.2969 0
L45.3125 0
L45.3125 8.40625
Q42.0469 3.42188 37.7188 1
Q33.4062 -1.42188 27.6875 -1.42188
Q18.2656 -1.42188 13.375 4.4375
Q8.5 10.2969 8.5 21.5781" id="BitstreamVeraSans-Roman-75"/>
      <path d="
M9.8125 72.9062
L51.7031 72.9062
L51.7031 64.5938
L19.6719 64.5938
L19.6719 43.1094
L48.5781 43.1094
L48.5781 34.8125
L19.6719 34.8125
L19.6719 0
L9.8125 0
z
" id="BitstreamVeraSans-Roman-46"/>
      <path d="
M14.7969 27.2969
Q14.7969 17.3906 18.875 11.75
Q22.9531 6.10938 30.0781 6.10938
Q37.2031 6.10938 41.2969 11.75
Q45.4062 17.3906 45.4062 27.2969
Q45.4062 37.2031 41.2969 42.8438
Q37.2031 48.4844 30.0781 48.4844
Q22.9531 48.4844 18.875 42.8438
Q14.7969 37.2031 14.7969 27.2969
M45.4062 8.20312
Q42.5781 3.32812 38.25 0.953125
Q33.9375 -1.42188 27.875 -1.42188
Q17.9688 -1.42188 11.7344 6.48438
Q5.51562 14.4062 5.51562 27.2969
Q5.51562 40.1875 11.7344 48.0938
Q17.9688 56 27.875 56
Q33.9375 56 38.25 53.625
Q42.5781 51.2656 45.4062 46.3906
L45.4062 54.6875
L54.3906 54.6875
L54.3906 -20.7969
L45.4062 -20.7969
z
" id="BitstreamVeraSans-Roman-71"/>
      <path d="
M32.1719 -5.07812
Q28.375 -14.8438 24.75 -17.8125
Q21.1406 -20.7969 15.0938 -20.7969
L7.90625 -20.7969
L7.90625 -13.2812
L13.1875 -13.2812
Q16.8906 -13.2812 18.9375 -11.5156
Q21 -9.76562 23.4844 -3.21875
L25.0938 0.875
L2.98438 54.6875
L12.5 54.6875
L29.5938 11.9219
L46.6875 54.6875
L56.2031 54.6875
z
" id="BitstreamVeraSans-Roman-79"/>
     </defs>
     <g transform="translate(48.9775 250.90375)rotate(-90.0)scale(0.16 -0.16)">
      <use xlink:href="#BitstreamVeraSans-Roman-46"/>
      <use x="50.26953125" xlink:href="#BitstreamVeraSans-Roman-72"/>
      <use x="89.1328125" xlink:href="#BitstreamVeraSans-Roman-65"/>
      <use x="150.65625" xlink:href="#BitstreamVeraSans-Roman-71"/>
      <use x="214.1328125" xlink:href="#BitstreamVeraSans-Roman-75"/>
      <use x="277.51171875" xlink:href="#BitstreamVeraSans-Roman-65"/>
      <use x="339.03515625" xlink:href="#BitstreamVeraSans-Roman-6e"/>
      <use x="402.4140625" xlink:href="#BitstreamVeraSans-Roman-63"/>
      <use x="457.39453125" xlink:href="#BitstreamVeraSans-Roman-79"/>
     </g>
    </g>
   </g>
   <g id="text_18">
    <!-- Dist. of PPS-serial difference by satellite number -->
    <defs>
     <path d="
M53.5156 70.5156
L53.5156 60.8906
Q47.9062 63.5781 42.9219 64.8906
Q37.9375 66.2188 33.2969 66.2188
Q25.25 66.2188 20.875 63.0938
Q16.5 59.9688 16.5 54.2031
Q16.5 49.3594 19.4062 46.8906
Q22.3125 44.4375 30.4219 42.9219
L36.375 41.7031
Q47.4062 39.5938 52.6562 34.2969
Q57.9062 29 57.9062 20.125
Q57.9062 9.51562 50.7969 4.04688
Q43.7031 -1.42188 29.9844 -1.42188
Q24.8125 -1.42188 18.9688 -0.25
Q13.1406 0.921875 6.89062 3.21875
L6.89062 13.375
Q12.8906 10.0156 18.6562 8.29688
Q24.4219 6.59375 29.9844 6.59375
Q38.4219 6.59375 43.0156 9.90625
Q47.6094 13.2344 47.6094 19.3906
Q47.6094 24.75 44.3125 27.7812
Q41.0156 30.8125 33.5 32.3281
L27.4844 33.5
Q16.4531 35.6875 11.5156 40.375
Q6.59375 45.0625 6.59375 53.4219
Q6.59375 63.0938 13.4062 68.6562
Q20.2188 74.2188 32.1719 74.2188
Q37.3125 74.2188 42.625 73.2812
Q47.9531 72.3594 53.5156 70.5156" id="BitstreamVeraSans-Roman-53"/>
     <path d="
M10.6875 12.4062
L21 12.4062
L21 0
L10.6875 0
z
" id="BitstreamVeraSans-Roman-2e"/>
     <path d="
M19.6719 64.7969
L19.6719 37.4062
L32.0781 37.4062
Q38.9688 37.4062 42.7188 40.9688
Q46.4844 44.5312 46.4844 51.125
Q46.4844 57.6719 42.7188 61.2344
Q38.9688 64.7969 32.0781 64.7969
z

M9.8125 72.9062
L32.0781 72.9062
Q44.3438 72.9062 50.6094 67.3594
Q56.8906 61.8125 56.8906 51.125
Q56.8906 40.3281 50.6094 34.8125
Q44.3438 29.2969 32.0781 29.2969
L19.6719 29.2969
L19.6719 0
L9.8125 0
z
" id="BitstreamVeraSans-Roman-50"/>
     <path d="
M30.6094 48.3906
Q23.3906 48.3906 19.1875 42.75
Q14.9844 37.1094 14.9844 27.2969
Q14.9844 17.4844 19.1562 11.8438
Q23.3438 6.20312 30.6094 6.20312
Q37.7969 6.20312 41.9844 11.8594
Q46.1875 17.5312 46.1875 27.2969
Q46.1875 37.0156 41.9844 42.7031
Q37.7969 48.3906 30.6094 48.3906
M30.6094 56
Q42.3281 56 49.0156 48.375
Q55.7188 40.7656 55.7188 27.2969
Q55.7188 13.875 49.0156 6.21875
Q42.3281 -1.42188 30.6094 -1.42188
Q18.8438 -1.42188 12.1719 6.21875
Q5.51562 13.875 5.51562 27.2969
Q5.51562 40.7656 12.1719 48.375
Q18.8438 56 30.6094 56" id="BitstreamVeraSans-Roman-6f"/>
     <path d="
M34.2812 27.4844
Q23.3906 27.4844 19.1875 25
Q14.9844 22.5156 14.9844 16.5
Q14.9844 11.7188 18.1406 8.90625
Q21.2969 6.10938 26.7031 6.10938
Q34.1875 6.10938 38.7031 11.4062
Q43.2188 16.7031 43.2188 25.4844
L43.2188 27.4844
z

M52.2031 31.2031
L52.2031 0
L43.2188 0
L43.2188 8.29688
Q40.1406 3.32812 35.5469 0.953125
Q30.9531 -1.42188 24.3125 -1.42188
Q15.9219 -1.42188 10.9531 3.29688
Q6 8.01562 6 15.9219
Q6 25.1406 12.1719 29.8281
Q18.3594 34.5156 30.6094 34.5156
L43.2188 34.5156
L43.2188 35.4062
Q43.2188 41.6094 39.1406 45
Q35.0625 48.3906 27.6875 48.3906
Q23 48.3906 18.5469 47.2656
Q14.1094 46.1406 10.0156 43.8906
L10.0156 52.2031
Q14.9375 54.1094 19.5781 55.0469
Q24.2188 56 28.6094 56
Q40.4844 56 46.3438 49.8438
Q52.2031 43.7031 52.2031 31.2031" id="BitstreamVeraSans-Roman-61"/>
     <path d="
M9.42188 75.9844
L18.4062 75.9844
L18.4062 0
L9.42188 0
z
" id="BitstreamVeraSans-Roman-6c"/>
     <path d="
M48.6875 27.2969
Q48.6875 37.2031 44.6094 42.8438
Q40.5312 48.4844 33.4062 48.4844
Q26.2656 48.4844 22.1875 42.8438
Q18.1094 37.2031 18.1094 27.2969
Q18.1094 17.3906 22.1875 11.75
Q26.2656 6.10938 33.4062 6.10938
Q40.5312 6.10938 44.6094 11.75
Q48.6875 17.3906 48.6875 27.2969
M18.1094 46.3906
Q20.9531 51.2656 25.2656 53.625
Q29.5938 56 35.5938 56
Q45.5625 56 51.7812 48.0938
Q58.0156 40.1875 58.0156 27.2969
Q58.0156 14.4062 51.7812 6.48438
Q45.5625 -1.42188 35.5938 -1.42188
Q29.5938 -1.42188 25.2656 0.953125
Q20.9531 3.32812 18.1094 8.20312
L18.1094 0
L9.07812 0
L9.07812 75.9844
L18.1094 75.9844
z
" id="BitstreamVeraSans-Roman-62"/>
     <path d="
M18.3125 70.2188
L18.3125 54.6875
L36.8125 54.6875
L36.8125 47.7031
L18.3125 47.7031
L18.3125 18.0156
Q18.3125 11.3281 20.1406 9.42188
Q21.9688 7.51562 27.5938 7.51562
L36.8125 7.51562
L36.8125 0
L27.5938 0
Q17.1875 0 13.2344 3.875
Q9.28125 7.76562 9.28125 18.0156
L9.28125 47.7031
L2.6875 47.7031
L2.6875 54.6875
L9.28125 54.6875
L9.28125 70.2188
z
" id="BitstreamVeraSans-Roman-74"/>
     <path d="
M19.6719 64.7969
L19.6719 8.10938
L31.5938 8.10938
Q46.6875 8.10938 53.6875 14.9375
Q60.6875 21.7812 60.6875 36.5312
Q60.6875 51.1719 53.6875 57.9844
Q46.6875 64.7969 31.5938 64.7969
z

M9.8125 72.9062
L30.0781 72.9062
Q51.2656 72.9062 61.1719 64.0938
Q71.0938 55.2812 71.0938 36.5312
Q71.0938 17.6719 61.125 8.82812
Q51.1719 0 30.0781 0
L9.8125 0
z
" id="BitstreamVeraSans-Roman-44"/>
     <path d="
M4.89062 31.3906
L31.2031 31.3906
L31.2031 23.3906
L4.89062 23.3906
z
" id="BitstreamVeraSans-Roman-2d"/>
    </defs>
    <g transform="translate(80.7555 38.2)scale(0.192 -0.192)">
     <use xlink:href="#BitstreamVeraSans-Roman-44"/>
     <use x="77.001953125" xlink:href="#BitstreamVeraSans-Roman-69"/>
     <use x="104.78515625" xlink:href="#BitstreamVeraSans-Roman-73"/>
     <use x="156.884765625" xlink:href="#BitstreamVeraSans-Roman-74"/>
     <use x="196.09375" xlink:href="#BitstreamVeraSans-Roman-2e"/>
     <use x="227.880859375" xlink:href="#BitstreamVeraSans-Roman-20"/>
     <use x="259.66796875" xlink:href="#BitstreamVeraSans-Roman-6f"/>
     <use x="320.849609375" xlink:href="#BitstreamVeraSans-Roman-66"/>
     <use x="356.0546875" xlink:href="#BitstreamVeraSans-Roman-20"/>
     <use x="387.841796875" xlink:href="#BitstreamVeraSans-Roman-50"/>
     <use x="448.14453125" xlink:href="#BitstreamVeraSans-Roman-50"/>
     <use x="508.447265625" xlink:href="#BitstreamVeraSans-Roman-53"/>
     <use x="571.923828125" xlink:href="#BitstreamVeraSans-Roman-2d"/>
     <use x="608.0078125" xlink:href="#BitstreamVeraSans-Roman-73"/>
     <use x="660.107421875" xlink:href="#BitstreamVeraSans-Roman-65"/>
     <use x="721.630859375" xlink:href="#BitstreamVeraSans-Roman-72"/>
     <use x="762.744140625" xlink:href="#BitstreamVeraSans-Roman-69"/>
     <use x="790.52734375" xlink:href="#BitstreamVeraSans-Roman-61"/>
     <use x="851.806640625" xlink:href="#BitstreamVeraSans-Roman-6c"/>
     <use x="879.58984375" xlink:href="#BitstreamVeraSans-Roman-20"/>
     <use x="911.376953125" xlink:href="#BitstreamVeraSans-Roman-64"/>
     <use x="974.853515625" xlink:href="#BitstreamVeraSans-Roman-69"/>
     <use x="1002.63671875" xlink:href="#BitstreamVeraSans-Roman-66"/>
     <use x="1037.841796875" xlink:href="#BitstreamVeraSans-Roman-66"/>
     <use x="1073.046875" xlink:href="#BitstreamVeraSans-Roman-65"/>
     <use x="1134.5703125" xlink:href="#BitstreamVeraSans-Roman-72"/>
     <use x="1173.43359375" xlink:href="#BitstreamVeraSans-Roman-65"/>
     <use x="1234.95703125" xlink:href="#BitstreamVeraSans-Roman-6e"/>
     <use x="1298.3359375" xlink:href="#BitstreamVeraSans-Roman-63"/>
     <use x="1353.31640625" xlink:href="#BitstreamVeraSans-Roman-65"/>
     <use x="1414.83984375" xlink:href="#BitstreamVeraSans-Roman-20"/>
     <use x="1446.626953125" xlink:href="#BitstreamVeraSans-Roman-62"/>
     <use x="1510.103515625" xlink:href="#BitstreamVeraSans-Roman-79"/>
     <use x="1569.283203125" xlink:href="#BitstreamVeraSans-Roman-20"/>
     <use x="1601.0703125" xlink:href="#BitstreamVeraSans-Roman-73"/>
     <use x="1653.169921875" xlink:href="#BitstreamVeraSans-Roman-61"/>
     <use x="1714.44921875" xlink:href="#BitstreamVeraSans-Roman-74"/>
     <use x="1753.658203125" xlink:href="#BitstreamVeraSans-Roman-65"/>
     <use x="1815.181640625" xlink:href="#BitstreamVeraSans-Roman-6c"/>
     <use x="1842.96484375" xlink:href="#BitstreamVeraSans-Roman-6c"/>
     <use x="1870.748046875" xlink:href="#BitstreamVeraSans-Roman-69"/>
     <use x="1898.53125" xlink:href="#BitstreamVeraSans-Roman-74"/>
     <use x="1937.740234375" xlink:href="#BitstreamVeraSans-Roman-65"/>
     <use x="1999.263671875" xlink:href="#BitstreamVeraSans-Roman-20"/>
     <use x="2031.05078125" xlink:href="#BitstreamVeraSans-Roman-6e"/>
     <use x="2094.4296875" xlink:href="#BitstreamVeraSans-Roman-75"/>
     <use x="2157.80859375" xlink:href="#BitstreamVeraSans-Roman-6d"/>
     <use x="2255.220703125" xlink:href="#BitstreamVeraSans-Roman-62"/>
     <use x="2318.697265625" xlink:href="#BitstreamVeraSans-Roman-65"/>
     <use x="2380.220703125" xlink:href="#BitstreamVeraSans-Roman-72"/>
    </g>
   </g>
  </g>
  <g id="axes_2">
   <g id="patch_7">
    <path clip-path="url(#p7e3d77fc3f)" d="
M564.3 378
L564.3 376.692
L564.3 44.5078
L564.3 43.2
L581.04 43.2
L581.04 44.5078
L581.04 376.692
L581.04 378
z
" style="fill:#ffffff;stroke:#ffffff;stroke-linejoin:miter;stroke-width:0.01;"/>
   </g>
   <g id="QuadMesh_1">
    <path clip-path="url(#p7e3d77fc3f)" d="
M564.3 378
L581.04 378
L581.04 376.692
L564.3 376.692
L564.3 378" style="fill:#ff0029;"/>
    <path clip-path="url(#p7e3d77fc3f)" d="
M564.3 376.692
L581.04 376.692
L581.04 375.384
L564.3 375.384
L564.3 376.692" style="fill:#ff0023;"/>
    <path clip-path="url(#p7e3d77fc3f)" d="
M564.3 375.384
L581.04 375.384
L581.04 374.077
L564.3 374.077
L564.3 375.384" style="fill:#ff001e;"/>
    <path clip-path="url(#p7e3d77fc3f)" d="
M564.3 374.077
L581.04 374.077
L581.04 372.769
L564.3 372.769
L564.3 374.077" style="fill:#ff0019;"/>
    <path clip-path="url(#p7e3d77fc3f)" d="
M564.3 372.769
L581.04 372.769
L581.04 371.461
L564.3 371.461
L564.3 372.769" style="fill:#ff0013;"/>
    <path clip-path="url(#p7e3d77fc3f)" d="
M564.3 371.461
L581.04 371.461
L581.04 370.153
L564.3 370.153
L564.3 371.461" style="fill:#ff000e;"/>
    <path clip-path="url(#p7e3d77fc3f)" d="
M564.3 370.153
L581.04 370.153
L581.04 368.845
L564.3 368.845
L564.3 370.153" style="fill:#ff0009;"/>
    <path clip-path="url(#p7e3d77fc3f)" d="
M564.3 368.845
L581.04 368.845
L581.04 367.538
L564.3 367.538
L564.3 368.845" style="fill:#ff0003;"/>
    <path clip-path="url(#p7e3d77fc3f)" d="
M564.3 367.538
L581.04 367.538
L581.04 366.23
L564.3 366.23
L564.3 367.538" style="fill:#ff0200;"/>
    <path clip-path="url(#p7e3d77fc3f)" d="
M564.3 366.23
L581.04 366.23
L581.04 364.922
L564.3 364.922
L564.3 366.23" style="fill:#ff0700;"/>
    <path clip-path="url(#p7e3d77fc3f)" d="
M564.3 364.922
L581.04 364.922
L581.04 363.614
L564.3 363.614
L564.3 364.922" style="fill:#ff0d00;"/>
    <path clip-path="url(#p7e3d77fc3f)" d="
M564.3 363.614
L581.04 363.614
L581.04 362.306
L564.3 362.306
L564.3 363.614" style="fill:#ff1200;"/>
    <path clip-path="url(#p7e3d77fc3f)" d="
M564.3 362.306
L581.04 362.306
L581.04 360.998
L564.3 360.998
L564.3 362.306" style="fill:#ff1800;"/>
    <path clip-path="url(#p7e3d77fc3f)" d="
M564.3 360.998
L581.04 360.998
L581.04 359.691
L564.3 359.691
L564.3 360.998" style="fill:#ff1d00;"/>
    <path clip-path="url(#p7e3d77fc3f)" d="
M564.3 359.691
L581.04 359.691
L581.04 358.383
L564.3 358.383
L564.3 359.691" style="fill:#ff2200;"/>
    <path clip-path="url(#p7e3d77fc3f)" d="
M564.3 358.383
L581.04 358.383
L581.04 357.075
L564.3 357.075
L564.3 358.383" style="fill:#ff2800;"/>
    <path clip-path="url(#p7e3d77fc3f)" d="
M564.3 357.075
L581.04 357.075
L581.04 355.767
L564.3 355.767
L564.3 357.075" style="fill:#ff2d00;"/>
    <path clip-path="url(#p7e3d77fc3f)" d="
M564.3 355.767
L581.04 355.767
L581.04 354.459
L564.3 354.459
L564.3 355.767" style="fill:#ff3300;"/>
    <path clip-path="url(#p7e3d77fc3f)" d="
M564.3 354.459
L581.04 354.459
L581.04 353.152
L564.3 353.152
L564.3 354.459" style="fill:#ff3800;"/>
    <path clip-path="url(#p7e3d77fc3f)" d="
M564.3 353.152
L581.04 353.152
L581.04 351.844
L564.3 351.844
L564.3 353.152" style="fill:#ff3d00;"/>
    <path clip-path="url(#p7e3d77fc3f)" d="
M564.3 351.844
L581.04 351.844
L581.04 350.536
L564.3 350.536
L564.3 351.844" style="fill:#ff4300;"/>
    <path clip-path="url(#p7e3d77fc3f)" d="
M564.3 350.536
L581.04 350.536
L581.04 349.228
L564.3 349.228
L564.3 350.536" style="fill:#ff4800;"/>
    <path clip-path="url(#p7e3d77fc3f)" d="
M564.3 349.228
L581.04 349.228
L581.04 347.92
L564.3 347.92
L564.3 349.228" style="fill:#ff4e00;"/>
    <path clip-path="url(#p7e3d77fc3f)" d="
M564.3 347.92
L581.04 347.92
L581.04 346.613
L564.3 346.613
L564.3 347.92" style="fill:#ff5300;"/>
    <path clip-path="url(#p7e3d77fc3f)" d="
M564.3 346.613
L581.04 346.613
L581.04 345.305
L564.3 345.305
L564.3 346.613" style="fill:#ff5800;"/>
    <path clip-path="url(#p7e3d77fc3f)" d="
M564.3 345.305
L581.04 345.305
L581.04 343.997
L564.3 343.997
L564.3 345.305" style="fill:#ff5e00;"/>
    <path clip-path="url(#p7e3d77fc3f)" d="
M564.3 343.997
L581.04 343.997
L581.04 342.689
L564.3 342.689
L564.3 343.997" style="fill:#ff6300;"/>
    <path clip-path="url(#p7e3d77fc3f)" d="
M564.3 342.689
L581.04 342.689
L581.04 341.381
L564.3 341.381
L564.3 342.689" style="fill:#ff6900;"/>
    <path clip-path="url(#p7e3d77fc3f)" d="
M564.3 341.381
L581.04 341.381
L581.04 340.073
L564.3 340.073
L564.3 341.381" style="fill:#ff6e00;"/>
    <path clip-path="url(#p7e3d77fc3f)" d="
M564.3 340.073
L581.04 340.073
L581.04 338.766
L564.3 338.766
L564.3 340.073" style="fill:#ff7300;"/>
    <path clip-path="url(#p7e3d77fc3f)" d="
M564.3 338.766
L581.04 338.766
L581.04 337.458
L564.3 337.458
L564.3 338.766" style="fill:#ff7900;"/>
    <path clip-path="url(#p7e3d77fc3f)" d="
M564.3 337.458
L581.04 337.458
L581.04 336.15
L564.3 336.15
L564.3 337.458" style="fill:#ff7e00;"/>
    <path clip-path="url(#p7e3d77fc3f)" d="
M564.3 336.15
L581.04 336.15
L581.04 334.842
L564.3 334.842
L564.3 336.15" style="fill:#ff8400;"/>
    <path clip-path="url(#p7e3d77fc3f)" d="
M564.3 334.842
L581.04 334.842
L581.04 333.534
L564.3 333.534
L564.3 334.842" style="fill:#ff8900;"/>
    <path clip-path="url(#p7e3d77fc3f)" d="
M564.3 333.534
L581.04 333.534
L581.04 332.227
L564.3 332.227
L564.3 333.534" style="fill:#ff8e00;"/>
    <path clip-path="url(#p7e3d77fc3f)" d="
M564.3 332.227
L581.04 332.227
L581.04 330.919
L564.3 330.919
L564.3 332.227" style="fill:#ff9400;"/>
    <path clip-path="url(#p7e3d77fc3f)" d="
M564.3 330.919
L581.04 330.919
L581.04 329.611
L564.3 329.611
L564.3 330.919" style="fill:#ff9900;"/>
    <path clip-path="url(#p7e3d77fc3f)" d="
M564.3 329.611
L581.04 329.611
L581.04 328.303
L564.3 328.303
L564.3 329.611" style="fill:#ff9f00;"/>
    <path clip-path="url(#p7e3d77fc3f)" d="
M564.3 328.303
L581.04 328.303
L581.04 326.995
L564.3 326.995
L564.3 328.303" style="fill:#ffa400;"/>
    <path clip-path="url(#p7e3d77fc3f)" d="
M564.3 326.995
L581.04 326.995
L581.04 325.688
L564.3 325.688
L564.3 326.995" style="fill:#ffa900;"/>
    <path clip-path="url(#p7e3d77fc3f)" d="
M564.3 325.688
L581.04 325.688
L581.04 324.38
L564.3 324.38
L564.3 325.688" style="fill:#ffaf00;"/>
    <path clip-path="url(#p7e3d77fc3f)" d="
M564.3 324.38
L581.04 324.38
L581.04 323.072
L564.3 323.072
L564.3 324.38" style="fill:#ffb400;"/>
    <path clip-path="url(#p7e3d77fc3f)" d="
M564.3 323.072
L581.04 323.072
L581.04 321.764
L564.3 321.764
L564.3 323.072" style="fill:#ffba00;"/>
    <path clip-path="url(#p7e3d77fc3f)" d="
M564.3 321.764
L581.04 321.764
L581.04 320.456
L564.3 320.456
L564.3 321.764" style="fill:#ffbf00;"/>
    <path clip-path="url(#p7e3d77fc3f)" d="
M564.3 320.456
L581.04 320.456
L581.04 319.148
L564.3 319.148
L564.3 320.456" style="fill:#ffc400;"/>
    <path clip-path="url(#p7e3d77fc3f)" d="
M564.3 319.148
L581.04 319.148
L581.04 317.841
L564.3 317.841
L564.3 319.148" style="fill:#ffca00;"/>
    <path clip-path="url(#p7e3d77fc3f)" d="
M564.3 317.841
L581.04 317.841
L581.04 316.533
L564.3 316.533
L564.3 317.841" style="fill:#ffcf00;"/>
    <path clip-path="url(#p7e3d77fc3f)" d="
M564.3 316.533
L581.04 316.533
L581.04 315.225
L564.3 315.225
L564.3 316.533" style="fill:#ffd500;"/>
    <path clip-path="url(#p7e3d77fc3f)" d="
M564.3 315.225
L581.04 315.225
L581.04 313.917
L564.3 313.917
L564.3 315.225" style="fill:#ffda00;"/>
    <path clip-path="url(#p7e3d77fc3f)" d="
M564.3 313.917
L581.04 313.917
L581.04 312.609
L564.3 312.609
L564.3 313.917" style="fill:#ffe000;"/>
    <path clip-path="url(#p7e3d77fc3f)" d="
M564.3 312.609
L581.04 312.609
L581.04 311.302
L564.3 311.302
L564.3 312.609" style="fill:#ffe500;"/>
    <path clip-path="url(#p7e3d77fc3f)" d="
M564.3 311.302
L581.04 311.302
L581.04 309.994
L564.3 309.994
L564.3 311.302" style="fill:#ffea00;"/>
    <path clip-path="url(#p7e3d77fc3f)" d="
M564.3 309.994
L581.04 309.994
L581.04 308.686
L564.3 308.686
L564.3 309.994" style="fill:#fff000;"/>
    <path clip-path="url(#p7e3d77fc3f)" d="
M564.3 308.686
L581.04 308.686
L581.04 307.378
L564.3 307.378
L564.3 308.686" style="fill:#fff500;"/>
    <path clip-path="url(#p7e3d77fc3f)" d="
M564.3 307.378
L581.04 307.378
L581.04 306.07
L564.3 306.07
L564.3 307.378" style="fill:#fffb00;"/>
    <path clip-path="url(#p7e3d77fc3f)" d="
M564.3 306.07
L581.04 306.07
L581.04 304.763
L564.3 304.763
L564.3 306.07" style="fill:#feff00;"/>
    <path clip-path="url(#p7e3d77fc3f)" d="
M564.3 304.763
L581.04 304.763
L581.04 303.455
L564.3 303.455
L564.3 304.763" style="fill:#f9ff00;"/>
    <path clip-path="url(#p7e3d77fc3f)" d="
M564.3 303.455
L581.04 303.455
L581.04 302.147
L564.3 302.147
L564.3 303.455" style="fill:#f3ff00;"/>
    <path clip-path="url(#p7e3d77fc3f)" d="
M564.3 302.147
L581.04 302.147
L581.04 300.839
L564.3 300.839
L564.3 302.147" style="fill:#eeff00;"/>
    <path clip-path="url(#p7e3d77fc3f)" d="
M564.3 300.839
L581.04 300.839
L581.04 299.531
L564.3 299.531
L564.3 300.839" style="fill:#e8ff00;"/>
    <path clip-path="url(#p7e3d77fc3f)" d="
M564.3 299.531
L581.04 299.531
L581.04 298.223
L564.3 298.223
L564.3 299.531" style="fill:#e3ff00;"/>
    <path clip-path="url(#p7e3d77fc3f)" d="
M564.3 298.223
L581.04 298.223
L581.04 296.916
L564.3 296.916
L564.3 298.223" style="fill:#deff00;"/>
    <path clip-path="url(#p7e3d77fc3f)" d="
M564.3 296.916
L581.04 296.916
L581.04 295.608
L564.3 295.608
L564.3 296.916" style="fill:#d8ff00;"/>
    <path clip-path="url(#p7e3d77fc3f)" d="
M564.3 295.608
L581.04 295.608
L581.04 294.3
L564.3 294.3
L564.3 295.608" style="fill:#d3ff00;"/>
    <path clip-path="url(#p7e3d77fc3f)" d="
M564.3 294.3
L581.04 294.3
L581.04 292.992
L564.3 292.992
L564.3 294.3" style="fill:#cdff00;"/>
    <path clip-path="url(#p7e3d77fc3f)" d="
M564.3 292.992
L581.04 292.992
L581.04 291.684
L564.3 291.684
L564.3 292.992" style="fill:#c8ff00;"/>
    <path clip-path="url(#p7e3d77fc3f)" d="
M564.3 291.684
L581.04 291.684
L581.04 290.377
L564.3 290.377
L564.3 291.684" style="fill:#c3ff00;"/>
    <path clip-path="url(#p7e3d77fc3f)" d="
M564.3 290.377
L581.04 290.377
L581.04 289.069
L564.3 289.069
L564.3 290.377" style="fill:#bdff00;"/>
    <path clip-path="url(#p7e3d77fc3f)" d="
M564.3 289.069
L581.04 289.069
L581.04 287.761
L564.3 287.761
L564.3 289.069" style="fill:#b8ff00;"/>
    <path clip-path="url(#p7e3d77fc3f)" d="
M564.3 287.761
L581.04 287.761
L581.04 286.453
L564.3 286.453
L564.3 287.761" style="fill:#b2ff00;"/>
    <path clip-path="url(#p7e3d77fc3f)" d="
M564.3 286.453
L581.04 286.453
L581.04 285.145
L564.3 285.145
L564.3 286.453" style="fill:#adff00;"/>
    <path clip-path="url(#p7e3d77fc3f)" d="
M564.3 285.145
L581.04 285.145
L581.04 283.838
L564.3 283.838
L564.3 285.145" style="fill:#a8ff00;"/>
    <path clip-path="url(#p7e3d77fc3f)" d="
M564.3 283.838
L581.04 283.838
L581.04 282.53
L564.3 282.53
L564.3 283.838" style="fill:#a2ff00;"/>
    <path clip-path="url(#p7e3d77fc3f)" d="
M564.3 282.53
L581.04 282.53
L581.04 281.222
L564.3 281.222
L564.3 282.53" style="fill:#9dff00;"/>
    <path clip-path="url(#p7e3d77fc3f)" d="
M564.3 281.222
L581.04 281.222
L581.04 279.914
L564.3 279.914
L564.3 281.222" style="fill:#97ff00;"/>
    <path clip-path="url(#p7e3d77fc3f)" d="
M564.3 279.914
L581.04 279.914
L581.04 278.606
L564.3 278.606
L564.3 279.914" style="fill:#92ff00;"/>
    <path clip-path="url(#p7e3d77fc3f)" d="
M564.3 278.606
L581.04 278.606
L581.04 277.298
L564.3 277.298
L564.3 278.606" style="fill:#8dff00;"/>
    <path clip-path="url(#p7e3d77fc3f)" d="
M564.3 277.298
L581.04 277.298
L581.04 275.991
L564.3 275.991
L564.3 277.298" style="fill:#87ff00;"/>
    <path clip-path="url(#p7e3d77fc3f)" d="
M564.3 275.991
L581.04 275.991
L581.04 274.683
L564.3 274.683
L564.3 275.991" style="fill:#82ff00;"/>
    <path clip-path="url(#p7e3d77fc3f)" d="
M564.3 274.683
L581.04 274.683
L581.04 273.375
L564.3 273.375
L564.3 274.683" style="fill:#7cff00;"/>
    <path clip-path="url(#p7e3d77fc3f)" d="
M564.3 273.375
L581.04 273.375
L581.04 272.067
L564.3 272.067
L564.3 273.375" style="fill:#77ff00;"/>
    <path clip-path="url(#p7e3d77fc3f)" d="
M564.3 272.067
L581.04 272.067
L581.04 270.759
L564.3 270.759
L564.3 272.067" style="fill:#72ff00;"/>
    <path clip-path="url(#p7e3d77fc3f)" d="
M564.3 270.759
L581.04 270.759
L581.04 269.452
L564.3 269.452
L564.3 270.759" style="fill:#6cff00;"/>
    <path clip-path="url(#p7e3d77fc3f)" d="
M564.3 269.452
L581.04 269.452
L581.04 268.144
L564.3 268.144
L564.3 269.452" style="fill:#67ff00;"/>
    <path clip-path="url(#p7e3d77fc3f)" d="
M564.3 268.144
L581.04 268.144
L581.04 266.836
L564.3 266.836
L564.3 268.144" style="fill:#61ff00;"/>
    <path clip-path="url(#p7e3d77fc3f)" d="
M564.3 266.836
L581.04 266.836
L581.04 265.528
L564.3 265.528
L564.3 266.836" style="fill:#5cff00;"/>
    <path clip-path="url(#p7e3d77fc3f)" d="
M564.3 265.528
L581.04 265.528
L581.04 264.22
L564.3 264.22
L564.3 265.528" style="fill:#56ff00;"/>
    <path clip-path="url(#p7e3d77fc3f)" d="
M564.3 264.22
L581.04 264.22
L581.04 262.913
L564.3 262.913
L564.3 264.22" style="fill:#51ff00;"/>
    <path clip-path="url(#p7e3d77fc3f)" d="
M564.3 262.913
L581.04 262.913
L581.04 261.605
L564.3 261.605
L564.3 262.913" style="fill:#4cff00;"/>
    <path clip-path="url(#p7e3d77fc3f)" d="
M564.3 261.605
L581.04 261.605
L581.04 260.297
L564.3 260.297
L564.3 261.605" style="fill:#46ff00;"/>
    <path clip-path="url(#p7e3d77fc3f)" d="
M564.3 260.297
L581.04 260.297
L581.04 258.989
L564.3 258.989
L564.3 260.297" style="fill:#41ff00;"/>
    <path clip-path="url(#p7e3d77fc3f)" d="
M564.3 258.989
L581.04 258.989
L581.04 257.681
L564.3 257.681
L564.3 258.989" style="fill:#3bff00;"/>
    <path clip-path="url(#p7e3d77fc3f)" d="
M564.3 257.681
L581.04 257.681
L581.04 256.373
L564.3 256.373
L564.3 257.681" style="fill:#36ff00;"/>
    <path clip-path="url(#p7e3d77fc3f)" d="
M564.3 256.373
L581.04 256.373
L581.04 255.066
L564.3 255.066
L564.3 256.373" style="fill:#31ff00;"/>
    <path clip-path="url(#p7e3d77fc3f)" d="
M564.3 255.066
L581.04 255.066
L581.04 253.758
L564.3 253.758
L564.3 255.066" style="fill:#2bff00;"/>
    <path clip-path="url(#p7e3d77fc3f)" d="
M564.3 253.758
L581.04 253.758
L581.04 252.45
L564.3 252.45
L564.3 253.758" style="fill:#26ff00;"/>
    <path clip-path="url(#p7e3d77fc3f)" d="
M564.3 252.45
L581.04 252.45
L581.04 251.142
L564.3 251.142
L564.3 252.45" style="fill:#20ff00;"/>
    <path clip-path="url(#p7e3d77fc3f)" d="
M564.3 251.142
L581.04 251.142
L581.04 249.834
L564.3 249.834
L564.3 251.142" style="fill:#1bff00;"/>
    <path clip-path="url(#p7e3d77fc3f)" d="
M564.3 249.834
L581.04 249.834
L581.04 248.527
L564.3 248.527
L564.3 249.834" style="fill:#16ff00;"/>
    <path clip-path="url(#p7e3d77fc3f)" d="
M564.3 248.527
L581.04 248.527
L581.04 247.219
L564.3 247.219
L564.3 248.527" style="fill:#10ff00;"/>
    <path clip-path="url(#p7e3d77fc3f)" d="
M564.3 247.219
L581.04 247.219
L581.04 245.911
L564.3 245.911
L564.3 247.219" style="fill:#0bff00;"/>
    <path clip-path="url(#p7e3d77fc3f)" d="
M564.3 245.911
L581.04 245.911
L581.04 244.603
L564.3 244.603
L564.3 245.911" style="fill:#05ff00;"/>
    <path clip-path="url(#p7e3d77fc3f)" d="
M564.3 244.603
L581.04 244.603
L581.04 243.295
L564.3 243.295
L564.3 244.603" style="fill:#00ff00;"/>
    <path clip-path="url(#p7e3d77fc3f)" d="
M564.3 243.295
L581.04 243.295
L581.04 241.988
L564.3 241.988
L564.3 243.295" style="fill:#00ff05;"/>
    <path clip-path="url(#p7e3d77fc3f)" d="
M564.3 241.988
L581.04 241.988
L581.04 240.68
L564.3 240.68
L564.3 241.988" style="fill:#00ff0b;"/>
    <path clip-path="url(#p7e3d77fc3f)" d="
M564.3 240.68
L581.04 240.68
L581.04 239.372
L564.3 239.372
L564.3 240.68" style="fill:#00ff10;"/>
    <path clip-path="url(#p7e3d77fc3f)" d="
M564.3 239.372
L581.04 239.372
L581.04 238.064
L564.3 238.064
L564.3 239.372" style="fill:#00ff16;"/>
    <path clip-path="url(#p7e3d77fc3f)" d="
M564.3 238.064
L581.04 238.064
L581.04 236.756
L564.3 236.756
L564.3 238.064" style="fill:#00ff1b;"/>
    <path clip-path="url(#p7e3d77fc3f)" d="
M564.3 236.756
L581.04 236.756
L581.04 235.448
L564.3 235.448
L564.3 236.756" style="fill:#00ff20;"/>
    <path clip-path="url(#p7e3d77fc3f)" d="
M564.3 235.448
L581.04 235.448
L581.04 234.141
L564.3 234.141
L564.3 235.448" style="fill:#00ff26;"/>
    <path clip-path="url(#p7e3d77fc3f)" d="
M564.3 234.141
L581.04 234.141
L581.04 232.833
L564.3 232.833
L564.3 234.141" style="fill:#00ff2b;"/>
    <path clip-path="url(#p7e3d77fc3f)" d="
M564.3 232.833
L581.04 232.833
L581.04 231.525
L564.3 231.525
L564.3 232.833" style="fill:#00ff30;"/>
    <path clip-path="url(#p7e3d77fc3f)" d="
M564.3 231.525
L581.04 231.525
L581.04 230.217
L564.3 230.217
L564.3 231.525" style="fill:#00ff36;"/>
    <path clip-path="url(#p7e3d77fc3f)" d="
M564.3 230.217
L581.04 230.217
L581.04 228.909
L564.3 228.909
L564.3 230.217" style="fill:#00ff3b;"/>
    <path clip-path="url(#p7e3d77fc3f)" d="
M564.3 228.909
L581.04 228.909
L581.04 227.602
L564.3 227.602
L564.3 228.909" style="fill:#00ff41;"/>
    <path clip-path="url(#p7e3d77fc3f)" d="
M564.3 227.602
L581.04 227.602
L581.04 226.294
L564.3 226.294
L564.3 227.602" style="fill:#00ff46;"/>
    <path clip-path="url(#p7e3d77fc3f)" d="
M564.3 226.294
L581.04 226.294
L581.04 224.986
L564.3 224.986
L564.3 226.294" style="fill:#00ff4b;"/>
    <path clip-path="url(#p7e3d77fc3f)" d="
M564.3 224.986
L581.04 224.986
L581.04 223.678
L564.3 223.678
L564.3 224.986" style="fill:#00ff51;"/>
    <path clip-path="url(#p7e3d77fc3f)" d="
M564.3 223.678
L581.04 223.678
L581.04 222.37
L564.3 222.37
L564.3 223.678" style="fill:#00ff56;"/>
    <path clip-path="url(#p7e3d77fc3f)" d="
M564.3 222.37
L581.04 222.37
L581.04 221.063
L564.3 221.063
L564.3 222.37" style="fill:#00ff5b;"/>
    <path clip-path="url(#p7e3d77fc3f)" d="
M564.3 221.063
L581.04 221.063
L581.04 219.755
L564.3 219.755
L564.3 221.063" style="fill:#00ff61;"/>
    <path clip-path="url(#p7e3d77fc3f)" d="
M564.3 219.755
L581.04 219.755
L581.04 218.447
L564.3 218.447
L564.3 219.755" style="fill:#00ff66;"/>
    <path clip-path="url(#p7e3d77fc3f)" d="
M564.3 218.447
L581.04 218.447
L581.04 217.139
L564.3 217.139
L564.3 218.447" style="fill:#00ff6c;"/>
    <path clip-path="url(#p7e3d77fc3f)" d="
M564.3 217.139
L581.04 217.139
L581.04 215.831
L564.3 215.831
L564.3 217.139" style="fill:#00ff71;"/>
    <path clip-path="url(#p7e3d77fc3f)" d="
M564.3 215.831
L581.04 215.831
L581.04 214.523
L564.3 214.523
L564.3 215.831" style="fill:#00ff76;"/>
    <path clip-path="url(#p7e3d77fc3f)" d="
M564.3 214.523
L581.04 214.523
L581.04 213.216
L564.3 213.216
L564.3 214.523" style="fill:#00ff7c;"/>
    <path clip-path="url(#p7e3d77fc3f)" d="
M564.3 213.216
L581.04 213.216
L581.04 211.908
L564.3 211.908
L564.3 213.216" style="fill:#00ff81;"/>
    <path clip-path="url(#p7e3d77fc3f)" d="
M564.3 211.908
L581.04 211.908
L581.04 210.6
L564.3 210.6
L564.3 211.908" style="fill:#00ff86;"/>
    <path clip-path="url(#p7e3d77fc3f)" d="
M564.3 210.6
L581.04 210.6
L581.04 209.292
L564.3 209.292
L564.3 210.6" style="fill:#00ff8c;"/>
    <path clip-path="url(#p7e3d77fc3f)" d="
M564.3 209.292
L581.04 209.292
L581.04 207.984
L564.3 207.984
L564.3 209.292" style="fill:#00ff91;"/>
    <path clip-path="url(#p7e3d77fc3f)" d="
M564.3 207.984
L581.04 207.984
L581.04 206.677
L564.3 206.677
L564.3 207.984" style="fill:#00ff97;"/>
    <path clip-path="url(#p7e3d77fc3f)" d="
M564.3 206.677
L581.04 206.677
L581.04 205.369
L564.3 205.369
L564.3 206.677" style="fill:#00ff9c;"/>
    <path clip-path="url(#p7e3d77fc3f)" d="
M564.3 205.369
L581.04 205.369
L581.04 204.061
L564.3 204.061
L564.3 205.369" style="fill:#00ffa1;"/>
    <path clip-path="url(#p7e3d77fc3f)" d="
M564.3 204.061
L581.04 204.061
L581.04 202.753
L564.3 202.753
L564.3 204.061" style="fill:#00ffa7;"/>
    <path clip-path="url(#p7e3d77fc3f)" d="
M564.3 202.753
L581.04 202.753
L581.04 201.445
L564.3 201.445
L564.3 202.753" style="fill:#00ffac;"/>
    <path clip-path="url(#p7e3d77fc3f)" d="
M564.3 201.445
L581.04 201.445
L581.04 200.138
L564.3 200.138
L564.3 201.445" style="fill:#00ffb1;"/>
    <path clip-path="url(#p7e3d77fc3f)" d="
M564.3 200.138
L581.04 200.138
L581.04 198.83
L564.3 198.83
L564.3 200.138" style="fill:#00ffb7;"/>
    <path clip-path="url(#p7e3d77fc3f)" d="
M564.3 198.83
L581.04 198.83
L581.04 197.522
L564.3 197.522
L564.3 198.83" style="fill:#00ffbc;"/>
    <path clip-path="url(#p7e3d77fc3f)" d="
M564.3 197.522
L581.04 197.522
L581.04 196.214
L564.3 196.214
L564.3 197.522" style="fill:#00ffc2;"/>
    <path clip-path="url(#p7e3d77fc3f)" d="
M564.3 196.214
L581.04 196.214
L581.04 194.906
L564.3 194.906
L564.3 196.214" style="fill:#00ffc7;"/>
    <path clip-path="url(#p7e3d77fc3f)" d="
M564.3 194.906
L581.04 194.906
L581.04 193.598
L564.3 193.598
L564.3 194.906" style="fill:#00ffcc;"/>
    <path clip-path="url(#p7e3d77fc3f)" d="
M564.3 193.598
L581.04 193.598
L581.04 192.291
L564.3 192.291
L564.3 193.598" style="fill:#00ffd2;"/>
    <path clip-path="url(#p7e3d77fc3f)" d="
M564.3 192.291
L581.04 192.291
L581.04 190.983
L564.3 190.983
L564.3 192.291" style="fill:#00ffd7;"/>
    <path clip-path="url(#p7e3d77fc3f)" d="
M564.3 190.983
L581.04 190.983
L581.04 189.675
L564.3 189.675
L564.3 190.983" style="fill:#00ffdc;"/>
    <path clip-path="url(#p7e3d77fc3f)" d="
M564.3 189.675
L581.04 189.675
L581.04 188.367
L564.3 188.367
L564.3 189.675" style="fill:#00ffe2;"/>
    <path clip-path="url(#p7e3d77fc3f)" d="
M564.3 188.367
L581.04 188.367
L581.04 187.059
L564.3 187.059
L564.3 188.367" style="fill:#00ffe7;"/>
    <path clip-path="url(#p7e3d77fc3f)" d="
M564.3 187.059
L581.04 187.059
L581.04 185.752
L564.3 185.752
L564.3 187.059" style="fill:#00ffed;"/>
    <path clip-path="url(#p7e3d77fc3f)" d="
M564.3 185.752
L581.04 185.752
L581.04 184.444
L564.3 184.444
L564.3 185.752" style="fill:#00fff2;"/>
    <path clip-path="url(#p7e3d77fc3f)" d="
M564.3 184.444
L581.04 184.444
L581.04 183.136
L564.3 183.136
L564.3 184.444" style="fill:#00fff7;"/>
    <path clip-path="url(#p7e3d77fc3f)" d="
M564.3 183.136
L581.04 183.136
L581.04 181.828
L564.3 181.828
L564.3 183.136" style="fill:#00fffd;"/>
    <path clip-path="url(#p7e3d77fc3f)" d="
M564.3 181.828
L581.04 181.828
L581.04 180.52
L564.3 180.52
L564.3 181.828" style="fill:#00fcff;"/>
    <path clip-path="url(#p7e3d77fc3f)" d="
M564.3 180.52
L581.04 180.52
L581.04 179.213
L564.3 179.213
L564.3 180.52" style="fill:#00f6ff;"/>
    <path clip-path="url(#p7e3d77fc3f)" d="
M564.3 179.213
L581.04 179.213
L581.04 177.905
L564.3 177.905
L564.3 179.213" style="fill:#00f1ff;"/>
    <path clip-path="url(#p7e3d77fc3f)" d="
M564.3 177.905
L581.04 177.905
L581.04 176.597
L564.3 176.597
L564.3 177.905" style="fill:#00ecff;"/>
    <path clip-path="url(#p7e3d77fc3f)" d="
M564.3 176.597
L581.04 176.597
L581.04 175.289
L564.3 175.289
L564.3 176.597" style="fill:#00e6ff;"/>
    <path clip-path="url(#p7e3d77fc3f)" d="
M564.3 175.289
L581.04 175.289
L581.04 173.981
L564.3 173.981
L564.3 175.289" style="fill:#00e1ff;"/>
    <path clip-path="url(#p7e3d77fc3f)" d="
M564.3 173.981
L581.04 173.981
L581.04 172.673
L564.3 172.673
L564.3 173.981" style="fill:#00dbff;"/>
    <path clip-path="url(#p7e3d77fc3f)" d="
M564.3 172.673
L581.04 172.673
L581.04 171.366
L564.3 171.366
L564.3 172.673" style="fill:#00d6ff;"/>
    <path clip-path="url(#p7e3d77fc3f)" d="
M564.3 171.366
L581.04 171.366
L581.04 170.058
L564.3 170.058
L564.3 171.366" style="fill:#00d0ff;"/>
    <path clip-path="url(#p7e3d77fc3f)" d="
M564.3 170.058
L581.04 170.058
L581.04 168.75
L564.3 168.75
L564.3 170.058" style="fill:#00cbff;"/>
    <path clip-path="url(#p7e3d77fc3f)" d="
M564.3 168.75
L581.04 168.75
L581.04 167.442
L564.3 167.442
L564.3 168.75" style="fill:#00c6ff;"/>
    <path clip-path="url(#p7e3d77fc3f)" d="
M564.3 167.442
L581.04 167.442
L581.04 166.134
L564.3 166.134
L564.3 167.442" style="fill:#00c0ff;"/>
    <path clip-path="url(#p7e3d77fc3f)" d="
M564.3 166.134
L581.04 166.134
L581.04 164.827
L564.3 164.827
L564.3 166.134" style="fill:#00bbff;"/>
    <path clip-path="url(#p7e3d77fc3f)" d="
M564.3 164.827
L581.04 164.827
L581.04 163.519
L564.3 163.519
L564.3 164.827" style="fill:#00b5ff;"/>
    <path clip-path="url(#p7e3d77fc3f)" d="
M564.3 163.519
L581.04 163.519
L581.04 162.211
L564.3 162.211
L564.3 163.519" style="fill:#00b0ff;"/>
    <path clip-path="url(#p7e3d77fc3f)" d="
M564.3 162.211
L581.04 162.211
L581.04 160.903
L564.3 160.903
L564.3 162.211" style="fill:#00aaff;"/>
    <path clip-path="url(#p7e3d77fc3f)" d="
M564.3 160.903
L581.04 160.903
L581.04 159.595
L564.3 159.595
L564.3 160.903" style="fill:#00a5ff;"/>
    <path clip-path="url(#p7e3d77fc3f)" d="
M564.3 159.595
L581.04 159.595
L581.04 158.288
L564.3 158.288
L564.3 159.595" style="fill:#00a0ff;"/>
    <path clip-path="url(#p7e3d77fc3f)" d="
M564.3 158.288
L581.04 158.288
L581.04 156.98
L564.3 156.98
L564.3 158.288" style="fill:#009aff;"/>
    <path clip-path="url(#p7e3d77fc3f)" d="
M564.3 156.98
L581.04 156.98
L581.04 155.672
L564.3 155.672
L564.3 156.98" style="fill:#0095ff;"/>
    <path clip-path="url(#p7e3d77fc3f)" d="
M564.3 155.672
L581.04 155.672
L581.04 154.364
L564.3 154.364
L564.3 155.672" style="fill:#008fff;"/>
    <path clip-path="url(#p7e3d77fc3f)" d="
M564.3 154.364
L581.04 154.364
L581.04 153.056
L564.3 153.056
L564.3 154.364" style="fill:#008aff;"/>
    <path clip-path="url(#p7e3d77fc3f)" d="
M564.3 153.056
L581.04 153.056
L581.04 151.748
L564.3 151.748
L564.3 153.056" style="fill:#0084ff;"/>
    <path clip-path="url(#p7e3d77fc3f)" d="
M564.3 151.748
L581.04 151.748
L581.04 150.441
L564.3 150.441
L564.3 151.748" style="fill:#007fff;"/>
    <path clip-path="url(#p7e3d77fc3f)" d="
M564.3 150.441
L581.04 150.441
L581.04 149.133
L564.3 149.133
L564.3 150.441" style="fill:#0079ff;"/>
    <path clip-path="url(#p7e3d77fc3f)" d="
M564.3 149.133
L581.04 149.133
L581.04 147.825
L564.3 147.825
L564.3 149.133" style="fill:#0074ff;"/>
    <path clip-path="url(#p7e3d77fc3f)" d="
M564.3 147.825
L581.04 147.825
L581.04 146.517
L564.3 146.517
L564.3 147.825" style="fill:#006fff;"/>
    <path clip-path="url(#p7e3d77fc3f)" d="
M564.3 146.517
L581.04 146.517
L581.04 145.209
L564.3 145.209
L564.3 146.517" style="fill:#0069ff;"/>
    <path clip-path="url(#p7e3d77fc3f)" d="
M564.3 145.209
L581.04 145.209
L581.04 143.902
L564.3 143.902
L564.3 145.209" style="fill:#0064ff;"/>
    <path clip-path="url(#p7e3d77fc3f)" d="
M564.3 143.902
L581.04 143.902
L581.04 142.594
L564.3 142.594
L564.3 143.902" style="fill:#005eff;"/>
    <path clip-path="url(#p7e3d77fc3f)" d="
M564.3 142.594
L581.04 142.594
L581.04 141.286
L564.3 141.286
L564.3 142.594" style="fill:#0059ff;"/>
    <path clip-path="url(#p7e3d77fc3f)" d="
M564.3 141.286
L581.04 141.286
L581.04 139.978
L564.3 139.978
L564.3 141.286" style="fill:#0053ff;"/>
    <path clip-path="url(#p7e3d77fc3f)" d="
M564.3 139.978
L581.04 139.978
L581.04 138.67
L564.3 138.67
L564.3 139.978" style="fill:#004eff;"/>
    <path clip-path="url(#p7e3d77fc3f)" d="
M564.3 138.67
L581.04 138.67
L581.04 137.363
L564.3 137.363
L564.3 138.67" style="fill:#0049ff;"/>
    <path clip-path="url(#p7e3d77fc3f)" d="
M564.3 137.363
L581.04 137.363
L581.04 136.055
L564.3 136.055
L564.3 137.363" style="fill:#0043ff;"/>
    <path clip-path="url(#p7e3d77fc3f)" d="
M564.3 136.055
L581.04 136.055
L581.04 134.747
L564.3 134.747
L564.3 136.055" style="fill:#003eff;"/>
    <path clip-path="url(#p7e3d77fc3f)" d="
M564.3 134.747
L581.04 134.747
L581.04 133.439
L564.3 133.439
L564.3 134.747" style="fill:#0038ff;"/>
    <path clip-path="url(#p7e3d77fc3f)" d="
M564.3 133.439
L581.04 133.439
L581.04 132.131
L564.3 132.131
L564.3 133.439" style="fill:#0033ff;"/>
    <path clip-path="url(#p7e3d77fc3f)" d="
M564.3 132.131
L581.04 132.131
L581.04 130.823
L564.3 130.823
L564.3 132.131" style="fill:#002dff;"/>
    <path clip-path="url(#p7e3d77fc3f)" d="
M564.3 130.823
L581.04 130.823
L581.04 129.516
L564.3 129.516
L564.3 130.823" style="fill:#0028ff;"/>
    <path clip-path="url(#p7e3d77fc3f)" d="
M564.3 129.516
L581.04 129.516
L581.04 128.208
L564.3 128.208
L564.3 129.516" style="fill:#0023ff;"/>
    <path clip-path="url(#p7e3d77fc3f)" d="
M564.3 128.208
L581.04 128.208
L581.04 126.9
L564.3 126.9
L564.3 128.208" style="fill:#001dff;"/>
    <path clip-path="url(#p7e3d77fc3f)" d="
M564.3 126.9
L581.04 126.9
L581.04 125.592
L564.3 125.592
L564.3 126.9" style="fill:#0018ff;"/>
    <path clip-path="url(#p7e3d77fc3f)" d="
M564.3 125.592
L581.04 125.592
L581.04 124.284
L564.3 124.284
L564.3 125.592" style="fill:#0012ff;"/>
    <path clip-path="url(#p7e3d77fc3f)" d="
M564.3 124.284
L581.04 124.284
L581.04 122.977
L564.3 122.977
L564.3 124.284" style="fill:#000dff;"/>
    <path clip-path="url(#p7e3d77fc3f)" d="
M564.3 122.977
L581.04 122.977
L581.04 121.669
L564.3 121.669
L564.3 122.977" style="fill:#0007ff;"/>
    <path clip-path="url(#p7e3d77fc3f)" d="
M564.3 121.669
L581.04 121.669
L581.04 120.361
L564.3 120.361
L564.3 121.669" style="fill:#0002ff;"/>
    <path clip-path="url(#p7e3d77fc3f)" d="
M564.3 120.361
L581.04 120.361
L581.04 119.053
L564.3 119.053
L564.3 120.361" style="fill:#0400ff;"/>
    <path clip-path="url(#p7e3d77fc3f)" d="
M564.3 119.053
L581.04 119.053
L581.04 117.745
L564.3 117.745
L564.3 119.053" style="fill:#0900ff;"/>
    <path clip-path="url(#p7e3d77fc3f)" d="
M564.3 117.745
L581.04 117.745
L581.04 116.438
L564.3 116.438
L564.3 117.745" style="fill:#0e00ff;"/>
    <path clip-path="url(#p7e3d77fc3f)" d="
M564.3 116.438
L581.04 116.438
L581.04 115.13
L564.3 115.13
L564.3 116.438" style="fill:#1400ff;"/>
    <path clip-path="url(#p7e3d77fc3f)" d="
M564.3 115.13
L581.04 115.13
L581.04 113.822
L564.3 113.822
L564.3 115.13" style="fill:#1900ff;"/>
    <path clip-path="url(#p7e3d77fc3f)" d="
M564.3 113.822
L581.04 113.822
L581.04 112.514
L564.3 112.514
L564.3 113.822" style="fill:#1f00ff;"/>
    <path clip-path="url(#p7e3d77fc3f)" d="
M564.3 112.514
L581.04 112.514
L581.04 111.206
L564.3 111.206
L564.3 112.514" style="fill:#2400ff;"/>
    <path clip-path="url(#p7e3d77fc3f)" d="
M564.3 111.206
L581.04 111.206
L581.04 109.898
L564.3 109.898
L564.3 111.206" style="fill:#2a00ff;"/>
    <path clip-path="url(#p7e3d77fc3f)" d="
M564.3 109.898
L581.04 109.898
L581.04 108.591
L564.3 108.591
L564.3 109.898" style="fill:#2f00ff;"/>
    <path clip-path="url(#p7e3d77fc3f)" d="
M564.3 108.591
L581.04 108.591
L581.04 107.283
L564.3 107.283
L564.3 108.591" style="fill:#3400ff;"/>
    <path clip-path="url(#p7e3d77fc3f)" d="
M564.3 107.283
L581.04 107.283
L581.04 105.975
L564.3 105.975
L564.3 107.283" style="fill:#3a00ff;"/>
    <path clip-path="url(#p7e3d77fc3f)" d="
M564.3 105.975
L581.04 105.975
L581.04 104.667
L564.3 104.667
L564.3 105.975" style="fill:#3f00ff;"/>
    <path clip-path="url(#p7e3d77fc3f)" d="
M564.3 104.667
L581.04 104.667
L581.04 103.359
L564.3 103.359
L564.3 104.667" style="fill:#4500ff;"/>
    <path clip-path="url(#p7e3d77fc3f)" d="
M564.3 103.359
L581.04 103.359
L581.04 102.052
L564.3 102.052
L564.3 103.359" style="fill:#4a00ff;"/>
    <path clip-path="url(#p7e3d77fc3f)" d="
M564.3 102.052
L581.04 102.052
L581.04 100.744
L564.3 100.744
L564.3 102.052" style="fill:#5000ff;"/>
    <path clip-path="url(#p7e3d77fc3f)" d="
M564.3 100.744
L581.04 100.744
L581.04 99.4359
L564.3 99.4359
L564.3 100.744" style="fill:#5500ff;"/>
    <path clip-path="url(#p7e3d77fc3f)" d="
M564.3 99.4359
L581.04 99.4359
L581.04 98.1281
L564.3 98.1281
L564.3 99.4359" style="fill:#5a00ff;"/>
    <path clip-path="url(#p7e3d77fc3f)" d="
M564.3 98.1281
L581.04 98.1281
L581.04 96.8203
L564.3 96.8203
L564.3 98.1281" style="fill:#6000ff;"/>
    <path clip-path="url(#p7e3d77fc3f)" d="
M564.3 96.8203
L581.04 96.8203
L581.04 95.5125
L564.3 95.5125
L564.3 96.8203" style="fill:#6500ff;"/>
    <path clip-path="url(#p7e3d77fc3f)" d="
M564.3 95.5125
L581.04 95.5125
L581.04 94.2047
L564.3 94.2047
L564.3 95.5125" style="fill:#6b00ff;"/>
    <path clip-path="url(#p7e3d77fc3f)" d="
M564.3 94.2047
L581.04 94.2047
L581.04 92.8969
L564.3 92.8969
L564.3 94.2047" style="fill:#7000ff;"/>
    <path clip-path="url(#p7e3d77fc3f)" d="
M564.3 92.8969
L581.04 92.8969
L581.04 91.5891
L564.3 91.5891
L564.3 92.8969" style="fill:#7600ff;"/>
    <path clip-path="url(#p7e3d77fc3f)" d="
M564.3 91.5891
L581.04 91.5891
L581.04 90.2812
L564.3 90.2812
L564.3 91.5891" style="fill:#7b00ff;"/>
    <path clip-path="url(#p7e3d77fc3f)" d="
M564.3 90.2812
L581.04 90.2812
L581.04 88.9734
L564.3 88.9734
L564.3 90.2812" style="fill:#8100ff;"/>
    <path clip-path="url(#p7e3d77fc3f)" d="
M564.3 88.9734
L581.04 88.9734
L581.04 87.6656
L564.3 87.6656
L564.3 88.9734" style="fill:#8600ff;"/>
    <path clip-path="url(#p7e3d77fc3f)" d="
M564.3 87.6656
L581.04 87.6656
L581.04 86.3578
L564.3 86.3578
L564.3 87.6656" style="fill:#8b00ff;"/>
    <path clip-path="url(#p7e3d77fc3f)" d="
M564.3 86.3578
L581.04 86.3578
L581.04 85.05
L564.3 85.05
L564.3 86.3578" style="fill:#9100ff;"/>
    <path clip-path="url(#p7e3d77fc3f)" d="
M564.3 85.05
L581.04 85.05
L581.04 83.7422
L564.3 83.7422
L564.3 85.05" style="fill:#9600ff;"/>
    <path clip-path="url(#p7e3d77fc3f)" d="
M564.3 83.7422
L581.04 83.7422
L581.04 82.4344
L564.3 82.4344
L564.3 83.7422" style="fill:#9c00ff;"/>
    <path clip-path="url(#p7e3d77fc3f)" d="
M564.3 82.4344
L581.04 82.4344
L581.04 81.1266
L564.3 81.1266
L564.3 82.4344" style="fill:#a100ff;"/>
    <path clip-path="url(#p7e3d77fc3f)" d="
M564.3 81.1266
L581.04 81.1266
L581.04 79.8188
L564.3 79.8188
L564.3 81.1266" style="fill:#a700ff;"/>
    <path clip-path="url(#p7e3d77fc3f)" d="
M564.3 79.8188
L581.04 79.8188
L581.04 78.5109
L564.3 78.5109
L564.3 79.8188" style="fill:#ac00ff;"/>
    <path clip-path="url(#p7e3d77fc3f)" d="
M564.3 78.5109
L581.04 78.5109
L581.04 77.2031
L564.3 77.2031
L564.3 78.5109" style="fill:#b100ff;"/>
    <path clip-path="url(#p7e3d77fc3f)" d="
M564.3 77.2031
L581.04 77.2031
L581.04 75.8953
L564.3 75.8953
L564.3 77.2031" style="fill:#b700ff;"/>
    <path clip-path="url(#p7e3d77fc3f)" d="
M564.3 75.8953
L581.04 75.8953
L581.04 74.5875
L564.3 74.5875
L564.3 75.8953" style="fill:#bc00ff;"/>
    <path clip-path="url(#p7e3d77fc3f)" d="
M564.3 74.5875
L581.04 74.5875
L581.04 73.2797
L564.3 73.2797
L564.3 74.5875" style="fill:#c200ff;"/>
    <path clip-path="url(#p7e3d77fc3f)" d="
M564.3 73.2797
L581.04 73.2797
L581.04 71.9719
L564.3 71.9719
L564.3 73.2797" style="fill:#c700ff;"/>
    <path clip-path="url(#p7e3d77fc3f)" d="
M564.3 71.9719
L581.04 71.9719
L581.04 70.6641
L564.3 70.6641
L564.3 71.9719" style="fill:#cd00ff;"/>
    <path clip-path="url(#p7e3d77fc3f)" d="
M564.3 70.6641
L581.04 70.6641
L581.04 69.3562
L564.3 69.3562
L564.3 70.6641" style="fill:#d200ff;"/>
    <path clip-path="url(#p7e3d77fc3f)" d="
M564.3 69.3562
L581.04 69.3562
L581.04 68.0484
L564.3 68.0484
L564.3 69.3562" style="fill:#d700ff;"/>
    <path clip-path="url(#p7e3d77fc3f)" d="
M564.3 68.0484
L581.04 68.0484
L581.04 66.7406
L564.3 66.7406
L564.3 68.0484" style="fill:#dd00ff;"/>
    <path clip-path="url(#p7e3d77fc3f)" d="
M564.3 66.7406
L581.04 66.7406
L581.04 65.4328
L564.3 65.4328
L564.3 66.7406" style="fill:#e200ff;"/>
    <path clip-path="url(#p7e3d77fc3f)" d="
M564.3 65.4328
L581.04 65.4328
L581.04 64.125
L564.3 64.125
L564.3 65.4328" style="fill:#e800ff;"/>
    <path clip-path="url(#p7e3d77fc3f)" d="
M564.3 64.125
L581.04 64.125
L581.04 62.8172
L564.3 62.8172
L564.3 64.125" style="fill:#ed00ff;"/>
    <path clip-path="url(#p7e3d77fc3f)" d="
M564.3 62.8172
L581.04 62.8172
L581.04 61.5094
L564.3 61.5094
L564.3 62.8172" style="fill:#f300ff;"/>
    <path clip-path="url(#p7e3d77fc3f)" d="
M564.3 61.5094
L581.04 61.5094
L581.04 60.2016
L564.3 60.2016
L564.3 61.5094" style="fill:#f800ff;"/>
    <path clip-path="url(#p7e3d77fc3f)" d="
M564.3 60.2016
L581.04 60.2016
L581.04 58.8938
L564.3 58.8938
L564.3 60.2016" style="fill:#fe00ff;"/>
    <path clip-path="url(#p7e3d77fc3f)" d="
M564.3 58.8938
L581.04 58.8938
L581.04 57.5859
L564.3 57.5859
L564.3 58.8938" style="fill:#ff00fb;"/>
    <path clip-path="url(#p7e3d77fc3f)" d="
M564.3 57.5859
L581.04 57.5859
L581.04 56.2781
L564.3 56.2781
L564.3 57.5859" style="fill:#ff00f6;"/>
    <path clip-path="url(#p7e3d77fc3f)" d="
M564.3 56.2781
L581.04 56.2781
L581.04 54.9703
L564.3 54.9703
L564.3 56.2781" style="fill:#ff00f0;"/>
    <path clip-path="url(#p7e3d77fc3f)" d="
M564.3 54.9703
L581.04 54.9703
L581.04 53.6625
L564.3 53.6625
L564.3 54.9703" style="fill:#ff00eb;"/>
    <path clip-path="url(#p7e3d77fc3f)" d="
M564.3 53.6625
L581.04 53.6625
L581.04 52.3547
L564.3 52.3547
L564.3 53.6625" style="fill:#ff00e5;"/>
    <path clip-path="url(#p7e3d77fc3f)" d="
M564.3 52.3547
L581.04 52.3547
L581.04 51.0469
L564.3 51.0469
L564.3 52.3547" style="fill:#ff00e0;"/>
    <path clip-path="url(#p7e3d77fc3f)" d="
M564.3 51.0469
L581.04 51.0469
L581.04 49.7391
L564.3 49.7391
L564.3 51.0469" style="fill:#ff00da;"/>
    <path clip-path="url(#p7e3d77fc3f)" d="
M564.3 49.7391
L581.04 49.7391
L581.04 48.4312
L564.3 48.4312
L564.3 49.7391" style="fill:#ff00d5;"/>
    <path clip-path="url(#p7e3d77fc3f)" d="
M564.3 48.4312
L581.04 48.4312
L581.04 47.1234
L564.3 47.1234
L564.3 48.4312" style="fill:#ff00d0;"/>
    <path clip-path="url(#p7e3d77fc3f)" d="
M564.3 47.1234
L581.04 47.1234
L581.04 45.8156
L564.3 45.8156
L564.3 47.1234" style="fill:#ff00ca;"/>
    <path clip-path="url(#p7e3d77fc3f)" d="
M564.3 45.8156
L581.04 45.8156
L581.04 44.5078
L564.3 44.5078
L564.3 45.8156" style="fill:#ff00c5;"/>
    <path clip-path="url(#p7e3d77fc3f)" d="
M564.3 44.5078
L581.04 44.5078
L581.04 43.2
L564.3 43.2
L564.3 44.5078" style="fill:#ff00bf;"/>
   </g>
   <g id="patch_8">
    <path d="
M564.3 378
L564.3 376.692
L564.3 44.5078
L564.3 43.2
L581.04 43.2
L581.04 44.5078
L581.04 376.692
L581.04 378
L564.3 378" style="fill:none;stroke:#000000;stroke-linejoin:miter;"/>
   </g>
   <g id="matplotlib.axis_3"/>
   <g id="matplotlib.axis_4">
    <g id="ytick_10">
     <g id="line2d_39">
      <g>
       <use style="stroke:#000000;stroke-width:0.5;" x="581.04" xlink:href="#md9a1c1a7cd" y="378.0"/>
      </g>
     </g>
     <g id="text_19">
      <!-- 3 -->
      <g transform="translate(585.04 382.415)scale(0.16 -0.16)">
       <use xlink:href="#BitstreamVeraSans-Roman-33"/>
      </g>
     </g>
    </g>
    <g id="ytick_11">
     <g id="line2d_40">
      <g>
       <use style="stroke:#000000;stroke-width:0.5;" x="581.04" xlink:href="#md9a1c1a7cd" y="330.171428571"/>
      </g>
     </g>
     <g id="text_20">
      <!-- 4 -->
      <g transform="translate(585.04 334.586428571)scale(0.16 -0.16)">
       <use xlink:href="#BitstreamVeraSans-Roman-34"/>
      </g>
     </g>
    </g>
    <g id="ytick_12">
     <g id="line2d_41">
      <g>
       <use style="stroke:#000000;stroke-width:0.5;" x="581.04" xlink:href="#md9a1c1a7cd" y="282.342857143"/>
      </g>
     </g>
     <g id="text_21">
      <!-- 5 -->
      <g transform="translate(585.04 286.757857143)scale(0.16 -0.16)">
       <use xlink:href="#BitstreamVeraSans-Roman-35"/>
      </g>
     </g>
    </g>
    <g id="ytick_13">
     <g id="line2d_42">
      <g>
       <use style="stroke:#000000;stroke-width:0.5;" x="581.04" xlink:href="#md9a1c1a7cd" y="234.514285714"/>
      </g>
     </g>
     <g id="text_22">
      <!-- 6 -->
      <g transform="translate(585.04 238.929285714)scale(0.16 -0.16)">
       <use xlink:href="#BitstreamVeraSans-Roman-36"/>
      </g>
     </g>
    </g>
    <g id="ytick_14">
     <g id="line2d_43">
      <g>
       <use style="stroke:#000000;stroke-width:0.5;" x="581.04" xlink:href="#md9a1c1a7cd" y="186.685714286"/>
      </g>
     </g>
     <g id="text_23">
      <!-- 7 -->
      <defs>
       <path d="
M8.20312 72.9062
L55.0781 72.9062
L55.0781 68.7031
L28.6094 0
L18.3125 0
L43.2188 64.5938
L8.20312 64.5938
z
" id="BitstreamVeraSans-Roman-37"/>
      </defs>
      <g transform="translate(585.04 191.100714286)scale(0.16 -0.16)">
       <use xlink:href="#BitstreamVeraSans-Roman-37"/>
      </g>
     </g>
    </g>
    <g id="ytick_15">
     <g id="line2d_44">
      <g>
       <use style="stroke:#000000;stroke-width:0.5;" x="581.04" xlink:href="#md9a1c1a7cd" y="138.857142857"/>
      </g>
     </g>
     <g id="text_24">
      <!-- 8 -->
      <g transform="translate(585.04 143.272142857)scale(0.16 -0.16)">
       <use xlink:href="#BitstreamVeraSans-Roman-38"/>
      </g>
     </g>
    </g>
    <g id="ytick_16">
     <g id="line2d_45">
      <g>
       <use style="stroke:#000000;stroke-width:0.5;" x="581.04" xlink:href="#md9a1c1a7cd" y="91.0285714286"/>
      </g>
     </g>
     <g id="text_25">
      <!-- 9 -->
      <defs>
       <path d="
M10.9844 1.51562
L10.9844 10.5
Q14.7031 8.73438 18.5 7.8125
Q22.3125 6.89062 25.9844 6.89062
Q35.75 6.89062 40.8906 13.4531
Q46.0469 20.0156 46.7812 33.4062
Q43.9531 29.2031 39.5938 26.9531
Q35.25 24.7031 29.9844 24.7031
Q19.0469 24.7031 12.6719 31.3125
Q6.29688 37.9375 6.29688 49.4219
Q6.29688 60.6406 12.9375 67.4219
Q19.5781 74.2188 30.6094 74.2188
Q43.2656 74.2188 49.9219 64.5156
Q56.5938 54.8281 56.5938 36.375
Q56.5938 19.1406 48.4062 8.85938
Q40.2344 -1.42188 26.4219 -1.42188
Q22.7031 -1.42188 18.8906 -0.6875
Q15.0938 0.046875 10.9844 1.51562
M30.6094 32.4219
Q37.25 32.4219 41.125 36.9531
Q45.0156 41.5 45.0156 49.4219
Q45.0156 57.2812 41.125 61.8438
Q37.25 66.4062 30.6094 66.4062
Q23.9688 66.4062 20.0938 61.8438
Q16.2188 57.2812 16.2188 49.4219
Q16.2188 41.5 20.0938 36.9531
Q23.9688 32.4219 30.6094 32.4219" id="BitstreamVeraSans-Roman-39"/>
      </defs>
      <g transform="translate(585.04 95.4435714286)scale(0.16 -0.16)">
       <use xlink:href="#BitstreamVeraSans-Roman-39"/>
      </g>
     </g>
    </g>
    <g id="ytick_17">
     <g id="line2d_46">
      <g>
       <use style="stroke:#000000;stroke-width:0.5;" x="581.04" xlink:href="#md9a1c1a7cd" y="43.2"/>
      </g>
     </g>
     <g id="text_26">
      <!-- 10 -->
      <g transform="translate(585.04 47.615)scale(0.16 -0.16)">
       <use xlink:href="#BitstreamVeraSans-Roman-31"/>
       <use x="63.623046875" xlink:href="#BitstreamVeraSans-Roman-30"/>
      </g>
     </g>
    </g>
   </g>
  </g>
 </g>
 <defs>
  <clipPath id="p31a3573520">
   <rect height="334.8" width="446.4" x="90.0" y="43.2"/>
  </clipPath>
  <clipPath id="p7e3d77fc3f">
   <rect height="334.8" width="16.74" x="564.3" y="43.2"/>
  </clipPath>
 </defs>
</svg>
