<?xml version="1.0" encoding="utf-8" standalone="no"?>
<!DOCTYPE svg PUBLIC "-//W3C//DTD SVG 1.1//EN"
  "http://www.w3.org/Graphics/SVG/1.1/DTD/svg11.dtd">
<!-- Created with matplotlib (http://matplotlib.org/) -->
<svg height="432pt" version="1.1" viewBox="0 0 792 432" width="792pt" xmlns="http://www.w3.org/2000/svg" xmlns:xlink="http://www.w3.org/1999/xlink">
 <defs>
  <style type="text/css">
*{stroke-linecap:butt;stroke-linejoin:round;}
  </style>
 </defs>
 <g id="figure_1">
  <g id="patch_1">
   <path d="
M0 432
L792 432
L792 0
L0 0
z
" style="fill:#ffffff;"/>
  </g>
  <g id="axes_1">
   <g id="patch_2">
    <path d="
M99 378
L590.04 378
L590.04 43.2
L99 43.2
z
" style="fill:#ffffff;"/>
   </g>
   <g id="line2d_1">
    <path clip-path="url(#p9e94fa12de)" d="
M99.2458 378
L246.214 378
L246.705 374.28
L247.197 378
L301.265 378
L301.757 374.28
L302.248 378
L306.672 378
L307.164 374.28
L308.147 374.28
L308.638 378
L309.13 374.28
L310.604 374.28
L311.096 378
L311.587 374.28
L312.079 366.84
L312.57 366.84
L313.062 359.4
L313.554 359.4
L314.045 370.56
L314.537 355.68
L315.028 359.4
L315.52 337.08
L316.011 348.24
L316.994 325.92
L317.486 318.48
L317.977 325.92
L318.96 348.24
L319.452 333.36
L319.943 307.32
L320.435 329.64
L320.926 329.64
L321.418 292.44
L321.91 299.88
L322.401 311.04
L322.893 285
L323.384 314.76
L323.876 311.04
L324.367 337.08
L324.859 337.08
L325.35 296.16
L325.842 322.2
L326.333 296.16
L326.825 329.64
L327.808 322.2
L328.299 344.52
L328.791 348.24
L329.283 344.52
L329.774 348.24
L330.266 355.68
L330.757 359.4
L331.249 370.56
L331.74 337.08
L332.232 366.84
L332.723 366.84
L333.215 359.4
L333.706 363.12
L334.689 378
L335.181 370.56
L335.672 378
L336.164 378
L336.655 363.12
L337.639 370.56
L338.13 359.4
L338.622 359.4
L339.113 355.68
L339.605 355.68
L340.588 363.12
L341.079 363.12
L341.571 374.28
L342.062 363.12
L342.554 366.84
L343.045 351.96
L343.537 348.24
L344.028 351.96
L344.52 351.96
L345.012 370.56
L345.503 374.28
L345.995 370.56
L346.486 363.12
L347.961 374.28
L348.452 370.56
L348.944 378
L349.927 378
L350.418 370.56
L351.401 370.56
L351.893 378
L352.876 378
L353.368 374.28
L353.859 378
L354.351 378
L354.842 374.28
L355.334 378
L359.266 378
L359.757 374.28
L360.249 378
L360.741 374.28
L361.232 378
L361.724 374.28
L362.215 378
L363.198 378
L363.69 374.28
L364.181 378
L365.656 378
L366.147 370.56
L366.639 378
L367.13 370.56
L367.622 370.56
L368.114 378
L368.605 378
L369.097 370.56
L369.588 370.56
L370.08 378
L370.571 374.28
L371.063 374.28
L371.554 378
L372.046 374.28
L372.537 374.28
L373.029 378
L373.52 370.56
L374.503 378
L374.995 378
L375.978 370.56
L376.47 370.56
L376.961 378
L377.453 374.28
L377.944 374.28
L378.436 378
L378.927 374.28
L379.419 378
L379.91 374.28
L380.402 378
L380.893 374.28
L381.385 378
L381.876 374.28
L382.368 378
L387.775 378
L388.266 370.56
L388.758 374.28
L389.249 374.28
L389.741 378
L390.232 378
L390.724 370.56
L391.215 378
L395.639 378
L396.131 374.28
L396.622 378
L589.794 378
L589.794 378" style="fill:none;stroke:#cdff00;stroke-linecap:square;"/>
   </g>
   <g id="line2d_2">
    <path clip-path="url(#p9e94fa12de)" d="
M99.2458 378
L312.57 378
L313.062 370.56
L313.554 378
L314.537 378
L315.028 370.56
L315.52 374.28
L316.011 359.4
L316.503 366.84
L316.994 355.68
L317.486 378
L317.977 366.84
L318.96 351.96
L319.452 363.12
L319.943 351.96
L320.435 348.24
L320.926 329.64
L321.418 318.48
L321.91 285
L322.401 281.28
L322.893 244.08
L323.384 218.04
L323.876 251.52
L324.367 229.2
L324.859 229.2
L325.35 270.12
L325.842 258.96
L326.825 139.92
L327.316 113.88
L327.808 121.32
L328.299 58.08
L328.791 180.84
L329.283 162.24
L329.774 154.8
L330.266 151.08
L330.757 139.92
L331.249 158.52
L331.74 210.6
L332.232 188.28
L332.723 180.84
L333.215 125.04
L333.706 165.96
L334.198 128.76
L334.689 177.12
L335.181 188.28
L336.164 218.04
L336.655 247.8
L337.147 244.08
L337.639 255.24
L338.13 281.28
L338.622 244.08
L339.113 288.72
L339.605 299.88
L340.096 307.32
L340.588 307.32
L341.079 303.6
L341.571 314.76
L342.062 348.24
L342.554 303.6
L343.045 273.84
L343.537 288.72
L344.028 299.88
L344.52 303.6
L345.012 344.52
L345.503 303.6
L345.995 325.92
L346.978 303.6
L347.469 307.32
L347.961 307.32
L348.452 318.48
L348.944 333.36
L349.927 340.8
L350.91 311.04
L351.401 322.2
L351.893 337.08
L352.385 355.68
L352.876 355.68
L353.368 351.96
L353.859 363.12
L354.351 366.84
L354.842 363.12
L355.334 370.56
L355.825 366.84
L357.3 378
L357.791 374.28
L358.283 378
L358.774 374.28
L359.757 374.28
L360.249 378
L363.69 378
L364.181 374.28
L364.673 378
L367.622 378
L368.114 374.28
L369.097 374.28
L369.588 370.56
L370.08 378
L370.571 378
L371.063 374.28
L371.554 378
L372.046 359.4
L372.537 370.56
L373.029 378
L374.012 363.12
L375.486 363.12
L375.978 359.4
L376.47 363.12
L376.961 359.4
L377.453 374.28
L377.944 355.68
L378.436 359.4
L378.927 366.84
L379.419 366.84
L379.91 348.24
L380.402 374.28
L380.893 374.28
L381.385 366.84
L382.368 374.28
L382.859 366.84
L383.351 351.96
L383.843 359.4
L384.334 370.56
L385.317 363.12
L385.809 370.56
L386.3 359.4
L386.792 378
L387.775 378
L388.266 374.28
L388.758 378
L389.249 370.56
L389.741 359.4
L390.232 363.12
L390.724 378
L391.215 374.28
L391.707 378
L392.199 378
L392.69 374.28
L393.182 378
L393.673 378
L394.656 370.56
L395.639 378
L396.131 374.28
L396.622 378
L398.097 378
L398.588 370.56
L399.08 374.28
L399.572 374.28
L400.063 359.4
L400.555 374.28
L401.046 374.28
L401.538 378
L402.029 378
L402.521 374.28
L403.012 378
L417.758 378
L418.25 374.28
L418.741 378
L589.794 378
L589.794 378" style="fill:none;stroke:#00ff8c;stroke-linecap:square;"/>
   </g>
   <g id="line2d_3">
    <path clip-path="url(#p9e94fa12de)" d="
M99.2458 378
L316.994 378
L317.486 374.28
L317.977 378
L320.435 378
L320.926 374.28
L321.418 378
L321.91 374.28
L322.401 366.84
L322.893 370.56
L323.384 370.56
L323.876 363.12
L324.367 359.4
L324.859 363.12
L325.35 351.96
L325.842 359.4
L326.825 351.96
L327.316 366.84
L327.808 348.24
L328.299 340.8
L328.791 311.04
L329.283 314.76
L329.774 281.28
L330.266 288.72
L330.757 285
L331.249 296.16
L331.74 247.8
L332.232 240.36
L332.723 192
L333.215 132.48
L333.706 221.76
L334.198 165.96
L334.689 199.44
L336.164 117.6
L336.655 110.16
L337.147 139.92
L337.639 117.6
L338.13 147.36
L338.622 244.08
L339.113 251.52
L340.096 206.88
L340.588 225.48
L341.079 258.96
L341.571 273.84
L342.062 296.16
L342.554 273.84
L343.045 318.48
L343.537 344.52
L344.028 322.2
L344.52 344.52
L345.012 325.92
L345.503 337.08
L345.995 333.36
L346.486 333.36
L346.978 363.12
L347.961 363.12
L348.452 355.68
L348.944 363.12
L349.435 340.8
L349.927 363.12
L350.418 351.96
L350.91 348.24
L351.401 355.68
L351.893 374.28
L352.385 363.12
L353.368 363.12
L353.859 355.68
L354.351 363.12
L354.842 348.24
L355.334 370.56
L355.825 370.56
L356.317 366.84
L356.808 370.56
L357.3 359.4
L357.791 374.28
L358.283 374.28
L358.774 359.4
L359.266 366.84
L359.757 370.56
L360.741 370.56
L361.724 378
L362.215 378
L362.707 370.56
L363.69 378
L364.673 378
L365.164 374.28
L365.656 378
L367.622 378
L368.114 374.28
L368.605 378
L373.029 378
L373.52 374.28
L374.012 378
L374.503 374.28
L374.995 378
L375.486 378
L375.978 374.28
L376.961 374.28
L377.453 378
L377.944 363.12
L378.436 366.84
L378.927 363.12
L379.419 378
L379.91 370.56
L380.402 366.84
L380.893 374.28
L381.385 370.56
L381.876 374.28
L382.859 366.84
L383.843 374.28
L384.334 370.56
L384.826 374.28
L385.809 366.84
L386.3 359.4
L386.792 374.28
L387.283 359.4
L387.775 374.28
L388.266 374.28
L388.758 378
L389.249 370.56
L389.741 370.56
L390.232 374.28
L390.724 374.28
L391.215 378
L391.707 370.56
L392.199 374.28
L392.69 370.56
L393.182 378
L393.673 374.28
L394.165 374.28
L394.656 378
L395.148 378
L395.639 374.28
L396.131 374.28
L396.622 378
L400.555 378
L401.046 374.28
L401.538 378
L403.012 378
L403.504 374.28
L404.487 374.28
L404.978 378
L406.945 378
L407.436 370.56
L407.928 378
L410.877 378
L411.368 374.28
L411.86 378
L431.03 378
L431.521 374.28
L432.013 378
L437.911 378
L438.403 374.28
L438.894 378
L589.794 378
L589.794 378" style="fill:none;stroke:#0018ff;stroke-linecap:square;"/>
   </g>
   <g id="line2d_4">
    <path clip-path="url(#p9e94fa12de)" d="
M99.2458 378
L325.35 378
L325.842 374.28
L326.333 378
L331.249 378
L331.74 374.28
L332.232 378
L332.723 378
L333.215 374.28
L333.706 378
L334.198 378
L335.181 370.56
L337.147 370.56
L338.13 378
L338.622 374.28
L339.605 374.28
L340.096 378
L340.588 374.28
L341.079 374.28
L341.571 378
L342.062 374.28
L342.554 378
L343.045 378
L343.537 374.28
L344.028 378
L346.978 378
L347.469 374.28
L347.961 378
L589.794 378
L589.794 378" style="fill:none;stroke:#ff00bf;stroke-linecap:square;"/>
   </g>
   <g id="line2d_5">
    <path clip-path="url(#p9e94fa12de)" d="
M99.2458 378
L316.503 378
L316.994 370.56
L317.977 378
L319.943 378
L320.435 374.28
L320.926 378
L321.418 366.84
L321.91 378
L323.384 378
L323.876 374.28
L324.367 374.28
L324.859 378
L325.35 374.28
L325.842 378
L328.791 378
L329.283 374.28
L329.774 378
L339.605 378
L340.096 374.28
L340.588 378
L589.794 378
L589.794 378" style="fill:none;stroke:#ff0029;stroke-linecap:square;"/>
   </g>
   <g id="patch_3">
    <path d="
M99 378
L590.04 378" style="fill:none;stroke:#000000;stroke-linecap:square;stroke-linejoin:miter;"/>
   </g>
   <g id="patch_4">
    <path d="
M99 43.2
L590.04 43.2" style="fill:none;stroke:#000000;stroke-linecap:square;stroke-linejoin:miter;"/>
   </g>
   <g id="patch_5">
    <path d="
M99 378
L99 43.2" style="fill:none;stroke:#000000;stroke-linecap:square;stroke-linejoin:miter;"/>
   </g>
   <g id="patch_6">
    <path d="
M590.04 378
L590.04 43.2" style="fill:none;stroke:#000000;stroke-linecap:square;stroke-linejoin:miter;"/>
   </g>
   <g id="matplotlib.axis_1">
    <g id="xtick_1">
     <g id="line2d_6">
      <defs>
       <path d="
M0 0
L0 -4" id="mc7db9fdffb" style="stroke:#000000;stroke-width:0.5;"/>
      </defs>
      <g>
       <use style="stroke:#000000;stroke-width:0.5;" x="99.0" xlink:href="#mc7db9fdffb" y="378.0"/>
      </g>
     </g>
     <g id="line2d_7">
      <defs>
       <path d="
M0 0
L0 4" id="m5a7d422ac3" style="stroke:#000000;stroke-width:0.5;"/>
      </defs>
      <g>
       <use style="stroke:#000000;stroke-width:0.5;" x="99.0" xlink:href="#m5a7d422ac3" y="43.2"/>
      </g>
     </g>
     <g id="text_1">
      <!-- 0 -->
      <defs>
       <path d="
M31.7812 66.4062
Q24.1719 66.4062 20.3281 58.9062
Q16.5 51.4219 16.5 36.375
Q16.5 21.3906 20.3281 13.8906
Q24.1719 6.39062 31.7812 6.39062
Q39.4531 6.39062 43.2812 13.8906
Q47.125 21.3906 47.125 36.375
Q47.125 51.4219 43.2812 58.9062
Q39.4531 66.4062 31.7812 66.4062
M31.7812 74.2188
Q44.0469 74.2188 50.5156 64.5156
Q56.9844 54.8281 56.9844 36.375
Q56.9844 17.9688 50.5156 8.26562
Q44.0469 -1.42188 31.7812 -1.42188
Q19.5312 -1.42188 13.0625 8.26562
Q6.59375 17.9688 6.59375 36.375
Q6.59375 54.8281 13.0625 64.5156
Q19.5312 74.2188 31.7812 74.2188" id="BitstreamVeraSans-Roman-30"/>
      </defs>
      <g transform="translate(95.220703125 393.39765625)scale(0.15 -0.15)">
       <use xlink:href="#BitstreamVeraSans-Roman-30"/>
      </g>
     </g>
    </g>
    <g id="xtick_2">
     <g id="line2d_8">
      <g>
       <use style="stroke:#000000;stroke-width:0.5;" x="197.208" xlink:href="#mc7db9fdffb" y="378.0"/>
      </g>
     </g>
     <g id="line2d_9">
      <g>
       <use style="stroke:#000000;stroke-width:0.5;" x="197.208" xlink:href="#m5a7d422ac3" y="43.2"/>
      </g>
     </g>
     <g id="text_2">
      <!-- 200 -->
      <defs>
       <path d="
M19.1875 8.29688
L53.6094 8.29688
L53.6094 0
L7.32812 0
L7.32812 8.29688
Q12.9375 14.1094 22.625 23.8906
Q32.3281 33.6875 34.8125 36.5312
Q39.5469 41.8438 41.4219 45.5312
Q43.3125 49.2188 43.3125 52.7812
Q43.3125 58.5938 39.2344 62.25
Q35.1562 65.9219 28.6094 65.9219
Q23.9688 65.9219 18.8125 64.3125
Q13.6719 62.7031 7.8125 59.4219
L7.8125 69.3906
Q13.7656 71.7812 18.9375 73
Q24.125 74.2188 28.4219 74.2188
Q39.75 74.2188 46.4844 68.5469
Q53.2188 62.8906 53.2188 53.4219
Q53.2188 48.9219 51.5312 44.8906
Q49.8594 40.875 45.4062 35.4062
Q44.1875 33.9844 37.6406 27.2188
Q31.1094 20.4531 19.1875 8.29688" id="BitstreamVeraSans-Roman-32"/>
      </defs>
      <g transform="translate(183.94003125 393.39765625)scale(0.15 -0.15)">
       <use xlink:href="#BitstreamVeraSans-Roman-32"/>
       <use x="63.623046875" xlink:href="#BitstreamVeraSans-Roman-30"/>
       <use x="127.24609375" xlink:href="#BitstreamVeraSans-Roman-30"/>
      </g>
     </g>
    </g>
    <g id="xtick_3">
     <g id="line2d_10">
      <g>
       <use style="stroke:#000000;stroke-width:0.5;" x="295.416" xlink:href="#mc7db9fdffb" y="378.0"/>
      </g>
     </g>
     <g id="line2d_11">
      <g>
       <use style="stroke:#000000;stroke-width:0.5;" x="295.416" xlink:href="#m5a7d422ac3" y="43.2"/>
      </g>
     </g>
     <g id="text_3">
      <!-- 400 -->
      <defs>
       <path d="
M37.7969 64.3125
L12.8906 25.3906
L37.7969 25.3906
z

M35.2031 72.9062
L47.6094 72.9062
L47.6094 25.3906
L58.0156 25.3906
L58.0156 17.1875
L47.6094 17.1875
L47.6094 0
L37.7969 0
L37.7969 17.1875
L4.89062 17.1875
L4.89062 26.7031
z
" id="BitstreamVeraSans-Roman-34"/>
      </defs>
      <g transform="translate(281.96521875 393.39765625)scale(0.15 -0.15)">
       <use xlink:href="#BitstreamVeraSans-Roman-34"/>
       <use x="63.623046875" xlink:href="#BitstreamVeraSans-Roman-30"/>
       <use x="127.24609375" xlink:href="#BitstreamVeraSans-Roman-30"/>
      </g>
     </g>
    </g>
    <g id="xtick_4">
     <g id="line2d_12">
      <g>
       <use style="stroke:#000000;stroke-width:0.5;" x="393.624" xlink:href="#mc7db9fdffb" y="378.0"/>
      </g>
     </g>
     <g id="line2d_13">
      <g>
       <use style="stroke:#000000;stroke-width:0.5;" x="393.624" xlink:href="#m5a7d422ac3" y="43.2"/>
      </g>
     </g>
     <g id="text_4">
      <!-- 600 -->
      <defs>
       <path d="
M33.0156 40.375
Q26.375 40.375 22.4844 35.8281
Q18.6094 31.2969 18.6094 23.3906
Q18.6094 15.5312 22.4844 10.9531
Q26.375 6.39062 33.0156 6.39062
Q39.6562 6.39062 43.5312 10.9531
Q47.4062 15.5312 47.4062 23.3906
Q47.4062 31.2969 43.5312 35.8281
Q39.6562 40.375 33.0156 40.375
M52.5938 71.2969
L52.5938 62.3125
Q48.875 64.0625 45.0938 64.9844
Q41.3125 65.9219 37.5938 65.9219
Q27.8281 65.9219 22.6719 59.3281
Q17.5312 52.7344 16.7969 39.4062
Q19.6719 43.6562 24.0156 45.9219
Q28.375 48.1875 33.5938 48.1875
Q44.5781 48.1875 50.9531 41.5156
Q57.3281 34.8594 57.3281 23.3906
Q57.3281 12.1562 50.6875 5.35938
Q44.0469 -1.42188 33.0156 -1.42188
Q20.3594 -1.42188 13.6719 8.26562
Q6.98438 17.9688 6.98438 36.375
Q6.98438 53.6562 15.1875 63.9375
Q23.3906 74.2188 37.2031 74.2188
Q40.9219 74.2188 44.7031 73.4844
Q48.4844 72.75 52.5938 71.2969" id="BitstreamVeraSans-Roman-36"/>
      </defs>
      <g transform="translate(380.33025 393.39765625)scale(0.15 -0.15)">
       <use xlink:href="#BitstreamVeraSans-Roman-36"/>
       <use x="63.623046875" xlink:href="#BitstreamVeraSans-Roman-30"/>
       <use x="127.24609375" xlink:href="#BitstreamVeraSans-Roman-30"/>
      </g>
     </g>
    </g>
    <g id="xtick_5">
     <g id="line2d_14">
      <g>
       <use style="stroke:#000000;stroke-width:0.5;" x="491.832" xlink:href="#mc7db9fdffb" y="378.0"/>
      </g>
     </g>
     <g id="line2d_15">
      <g>
       <use style="stroke:#000000;stroke-width:0.5;" x="491.832" xlink:href="#m5a7d422ac3" y="43.2"/>
      </g>
     </g>
     <g id="text_5">
      <!-- 800 -->
      <defs>
       <path d="
M31.7812 34.625
Q24.75 34.625 20.7188 30.8594
Q16.7031 27.0938 16.7031 20.5156
Q16.7031 13.9219 20.7188 10.1562
Q24.75 6.39062 31.7812 6.39062
Q38.8125 6.39062 42.8594 10.1719
Q46.9219 13.9688 46.9219 20.5156
Q46.9219 27.0938 42.8906 30.8594
Q38.875 34.625 31.7812 34.625
M21.9219 38.8125
Q15.5781 40.375 12.0312 44.7188
Q8.5 49.0781 8.5 55.3281
Q8.5 64.0625 14.7188 69.1406
Q20.9531 74.2188 31.7812 74.2188
Q42.6719 74.2188 48.875 69.1406
Q55.0781 64.0625 55.0781 55.3281
Q55.0781 49.0781 51.5312 44.7188
Q48 40.375 41.7031 38.8125
Q48.8281 37.1562 52.7969 32.3125
Q56.7812 27.4844 56.7812 20.5156
Q56.7812 9.90625 50.3125 4.23438
Q43.8438 -1.42188 31.7812 -1.42188
Q19.7344 -1.42188 13.25 4.23438
Q6.78125 9.90625 6.78125 20.5156
Q6.78125 27.4844 10.7812 32.3125
Q14.7969 37.1562 21.9219 38.8125
M18.3125 54.3906
Q18.3125 48.7344 21.8438 45.5625
Q25.3906 42.3906 31.7812 42.3906
Q38.1406 42.3906 41.7188 45.5625
Q45.3125 48.7344 45.3125 54.3906
Q45.3125 60.0625 41.7188 63.2344
Q38.1406 66.4062 31.7812 66.4062
Q25.3906 66.4062 21.8438 63.2344
Q18.3125 60.0625 18.3125 54.3906" id="BitstreamVeraSans-Roman-38"/>
      </defs>
      <g transform="translate(478.523015625 393.39765625)scale(0.15 -0.15)">
       <use xlink:href="#BitstreamVeraSans-Roman-38"/>
       <use x="63.623046875" xlink:href="#BitstreamVeraSans-Roman-30"/>
       <use x="127.24609375" xlink:href="#BitstreamVeraSans-Roman-30"/>
      </g>
     </g>
    </g>
    <g id="xtick_6">
     <g id="line2d_16">
      <g>
       <use style="stroke:#000000;stroke-width:0.5;" x="590.04" xlink:href="#mc7db9fdffb" y="378.0"/>
      </g>
     </g>
     <g id="line2d_17">
      <g>
       <use style="stroke:#000000;stroke-width:0.5;" x="590.04" xlink:href="#m5a7d422ac3" y="43.2"/>
      </g>
     </g>
     <g id="text_6">
      <!-- 1000 -->
      <defs>
       <path d="
M12.4062 8.29688
L28.5156 8.29688
L28.5156 63.9219
L10.9844 60.4062
L10.9844 69.3906
L28.4219 72.9062
L38.2812 72.9062
L38.2812 8.29688
L54.3906 8.29688
L54.3906 0
L12.4062 0
z
" id="BitstreamVeraSans-Roman-31"/>
      </defs>
      <g transform="translate(572.274375 393.39765625)scale(0.15 -0.15)">
       <use xlink:href="#BitstreamVeraSans-Roman-31"/>
       <use x="63.623046875" xlink:href="#BitstreamVeraSans-Roman-30"/>
       <use x="127.24609375" xlink:href="#BitstreamVeraSans-Roman-30"/>
       <use x="190.869140625" xlink:href="#BitstreamVeraSans-Roman-30"/>
      </g>
     </g>
    </g>
    <g id="text_7">
     <!-- Time difference /ms -->
     <defs>
      <path d="
M45.4062 46.3906
L45.4062 75.9844
L54.3906 75.9844
L54.3906 0
L45.4062 0
L45.4062 8.20312
Q42.5781 3.32812 38.25 0.953125
Q33.9375 -1.42188 27.875 -1.42188
Q17.9688 -1.42188 11.7344 6.48438
Q5.51562 14.4062 5.51562 27.2969
Q5.51562 40.1875 11.7344 48.0938
Q17.9688 56 27.875 56
Q33.9375 56 38.25 53.625
Q42.5781 51.2656 45.4062 46.3906
M14.7969 27.2969
Q14.7969 17.3906 18.875 11.75
Q22.9531 6.10938 30.0781 6.10938
Q37.2031 6.10938 41.2969 11.75
Q45.4062 17.3906 45.4062 27.2969
Q45.4062 37.2031 41.2969 42.8438
Q37.2031 48.4844 30.0781 48.4844
Q22.9531 48.4844 18.875 42.8438
Q14.7969 37.2031 14.7969 27.2969" id="BitstreamVeraSans-Roman-64"/>
      <path d="
M25.3906 72.9062
L33.6875 72.9062
L8.29688 -9.28125
L0 -9.28125
z
" id="BitstreamVeraSans-Roman-2f"/>
      <path d="
M52 44.1875
Q55.375 50.25 60.0625 53.125
Q64.75 56 71.0938 56
Q79.6406 56 84.2812 50.0156
Q88.9219 44.0469 88.9219 33.0156
L88.9219 0
L79.8906 0
L79.8906 32.7188
Q79.8906 40.5781 77.0938 44.375
Q74.3125 48.1875 68.6094 48.1875
Q61.625 48.1875 57.5625 43.5469
Q53.5156 38.9219 53.5156 30.9062
L53.5156 0
L44.4844 0
L44.4844 32.7188
Q44.4844 40.625 41.7031 44.4062
Q38.9219 48.1875 33.1094 48.1875
Q26.2188 48.1875 22.1562 43.5312
Q18.1094 38.875 18.1094 30.9062
L18.1094 0
L9.07812 0
L9.07812 54.6875
L18.1094 54.6875
L18.1094 46.1875
Q21.1875 51.2188 25.4844 53.6094
Q29.7812 56 35.6875 56
Q41.6562 56 45.8281 52.9688
Q50 49.9531 52 44.1875" id="BitstreamVeraSans-Roman-6d"/>
      <path d="
M-0.296875 72.9062
L61.375 72.9062
L61.375 64.5938
L35.5 64.5938
L35.5 0
L25.5938 0
L25.5938 64.5938
L-0.296875 64.5938
z
" id="BitstreamVeraSans-Roman-54"/>
      <path id="BitstreamVeraSans-Roman-20"/>
      <path d="
M44.2812 53.0781
L44.2812 44.5781
Q40.4844 46.5312 36.375 47.5
Q32.2812 48.4844 27.875 48.4844
Q21.1875 48.4844 17.8438 46.4375
Q14.5 44.3906 14.5 40.2812
Q14.5 37.1562 16.8906 35.375
Q19.2812 33.5938 26.5156 31.9844
L29.5938 31.2969
Q39.1562 29.25 43.1875 25.5156
Q47.2188 21.7812 47.2188 15.0938
Q47.2188 7.46875 41.1875 3.01562
Q35.1562 -1.42188 24.6094 -1.42188
Q20.2188 -1.42188 15.4531 -0.5625
Q10.6875 0.296875 5.42188 2
L5.42188 11.2812
Q10.4062 8.6875 15.2344 7.39062
Q20.0625 6.10938 24.8125 6.10938
Q31.1562 6.10938 34.5625 8.28125
Q37.9844 10.4531 37.9844 14.4062
Q37.9844 18.0625 35.5156 20.0156
Q33.0625 21.9688 24.7031 23.7812
L21.5781 24.5156
Q13.2344 26.2656 9.51562 29.9062
Q5.8125 33.5469 5.8125 39.8906
Q5.8125 47.6094 11.2812 51.7969
Q16.75 56 26.8125 56
Q31.7812 56 36.1719 55.2656
Q40.5781 54.5469 44.2812 53.0781" id="BitstreamVeraSans-Roman-73"/>
      <path d="
M37.1094 75.9844
L37.1094 68.5
L28.5156 68.5
Q23.6875 68.5 21.7969 66.5469
Q19.9219 64.5938 19.9219 59.5156
L19.9219 54.6875
L34.7188 54.6875
L34.7188 47.7031
L19.9219 47.7031
L19.9219 0
L10.8906 0
L10.8906 47.7031
L2.29688 47.7031
L2.29688 54.6875
L10.8906 54.6875
L10.8906 58.5
Q10.8906 67.625 15.1406 71.7969
Q19.3906 75.9844 28.6094 75.9844
z
" id="BitstreamVeraSans-Roman-66"/>
      <path d="
M41.1094 46.2969
Q39.5938 47.1719 37.8125 47.5781
Q36.0312 48 33.8906 48
Q26.2656 48 22.1875 43.0469
Q18.1094 38.0938 18.1094 28.8125
L18.1094 0
L9.07812 0
L9.07812 54.6875
L18.1094 54.6875
L18.1094 46.1875
Q20.9531 51.1719 25.4844 53.5781
Q30.0312 56 36.5312 56
Q37.4531 56 38.5781 55.875
Q39.7031 55.7656 41.0625 55.5156
z
" id="BitstreamVeraSans-Roman-72"/>
      <path d="
M54.8906 33.0156
L54.8906 0
L45.9062 0
L45.9062 32.7188
Q45.9062 40.4844 42.875 44.3281
Q39.8438 48.1875 33.7969 48.1875
Q26.5156 48.1875 22.3125 43.5469
Q18.1094 38.9219 18.1094 30.9062
L18.1094 0
L9.07812 0
L9.07812 54.6875
L18.1094 54.6875
L18.1094 46.1875
Q21.3438 51.125 25.7031 53.5625
Q30.0781 56 35.7969 56
Q45.2188 56 50.0469 50.1719
Q54.8906 44.3438 54.8906 33.0156" id="BitstreamVeraSans-Roman-6e"/>
      <path d="
M9.42188 54.6875
L18.4062 54.6875
L18.4062 0
L9.42188 0
z

M9.42188 75.9844
L18.4062 75.9844
L18.4062 64.5938
L9.42188 64.5938
z
" id="BitstreamVeraSans-Roman-69"/>
      <path d="
M48.7812 52.5938
L48.7812 44.1875
Q44.9688 46.2969 41.1406 47.3438
Q37.3125 48.3906 33.4062 48.3906
Q24.6562 48.3906 19.8125 42.8438
Q14.9844 37.3125 14.9844 27.2969
Q14.9844 17.2812 19.8125 11.7344
Q24.6562 6.20312 33.4062 6.20312
Q37.3125 6.20312 41.1406 7.25
Q44.9688 8.29688 48.7812 10.4062
L48.7812 2.09375
Q45.0156 0.34375 40.9844 -0.53125
Q36.9688 -1.42188 32.4219 -1.42188
Q20.0625 -1.42188 12.7812 6.34375
Q5.51562 14.1094 5.51562 27.2969
Q5.51562 40.6719 12.8594 48.3281
Q20.2188 56 33.0156 56
Q37.1562 56 41.1094 55.1406
Q45.0625 54.2969 48.7812 52.5938" id="BitstreamVeraSans-Roman-63"/>
      <path d="
M56.2031 29.5938
L56.2031 25.2031
L14.8906 25.2031
Q15.4844 15.9219 20.4844 11.0625
Q25.4844 6.20312 34.4219 6.20312
Q39.5938 6.20312 44.4531 7.46875
Q49.3125 8.73438 54.1094 11.2812
L54.1094 2.78125
Q49.2656 0.734375 44.1875 -0.34375
Q39.1094 -1.42188 33.8906 -1.42188
Q20.7969 -1.42188 13.1562 6.1875
Q5.51562 13.8125 5.51562 26.8125
Q5.51562 40.2344 12.7656 48.1094
Q20.0156 56 32.3281 56
Q43.3594 56 49.7812 48.8906
Q56.2031 41.7969 56.2031 29.5938
M47.2188 32.2344
Q47.125 39.5938 43.0938 43.9844
Q39.0625 48.3906 32.4219 48.3906
Q24.9062 48.3906 20.3906 44.1406
Q15.875 39.8906 15.1875 32.1719
z
" id="BitstreamVeraSans-Roman-65"/>
     </defs>
     <g transform="translate(270.245390625 412.91484375)scale(0.15 -0.15)">
      <use xlink:href="#BitstreamVeraSans-Roman-54"/>
      <use x="57.958984375" xlink:href="#BitstreamVeraSans-Roman-69"/>
      <use x="85.7421875" xlink:href="#BitstreamVeraSans-Roman-6d"/>
      <use x="183.154296875" xlink:href="#BitstreamVeraSans-Roman-65"/>
      <use x="244.677734375" xlink:href="#BitstreamVeraSans-Roman-20"/>
      <use x="276.46484375" xlink:href="#BitstreamVeraSans-Roman-64"/>
      <use x="339.94140625" xlink:href="#BitstreamVeraSans-Roman-69"/>
      <use x="367.724609375" xlink:href="#BitstreamVeraSans-Roman-66"/>
      <use x="402.9296875" xlink:href="#BitstreamVeraSans-Roman-66"/>
      <use x="438.134765625" xlink:href="#BitstreamVeraSans-Roman-65"/>
      <use x="499.658203125" xlink:href="#BitstreamVeraSans-Roman-72"/>
      <use x="538.521484375" xlink:href="#BitstreamVeraSans-Roman-65"/>
      <use x="600.044921875" xlink:href="#BitstreamVeraSans-Roman-6e"/>
      <use x="663.423828125" xlink:href="#BitstreamVeraSans-Roman-63"/>
      <use x="718.404296875" xlink:href="#BitstreamVeraSans-Roman-65"/>
      <use x="779.927734375" xlink:href="#BitstreamVeraSans-Roman-20"/>
      <use x="811.71484375" xlink:href="#BitstreamVeraSans-Roman-2f"/>
      <use x="845.40625" xlink:href="#BitstreamVeraSans-Roman-6d"/>
      <use x="942.818359375" xlink:href="#BitstreamVeraSans-Roman-73"/>
     </g>
    </g>
   </g>
   <g id="matplotlib.axis_2">
    <g id="ytick_1">
     <g id="line2d_18">
      <defs>
       <path d="
M0 0
L4 0" id="md7965d1ba0" style="stroke:#000000;stroke-width:0.5;"/>
      </defs>
      <g>
       <use style="stroke:#000000;stroke-width:0.5;" x="99.0" xlink:href="#md7965d1ba0" y="378.0"/>
      </g>
     </g>
     <g id="line2d_19">
      <defs>
       <path d="
M0 0
L-4 0" id="md9a1c1a7cd" style="stroke:#000000;stroke-width:0.5;"/>
      </defs>
      <g>
       <use style="stroke:#000000;stroke-width:0.5;" x="590.04" xlink:href="#md9a1c1a7cd" y="378.0"/>
      </g>
     </g>
     <g id="text_8">
      <!-- 0 -->
      <g transform="translate(87.44140625 382.1390625)scale(0.15 -0.15)">
       <use xlink:href="#BitstreamVeraSans-Roman-30"/>
      </g>
     </g>
    </g>
    <g id="ytick_2">
     <g id="line2d_20">
      <g>
       <use style="stroke:#000000;stroke-width:0.5;" x="99.0" xlink:href="#md7965d1ba0" y="340.8"/>
      </g>
     </g>
     <g id="line2d_21">
      <g>
       <use style="stroke:#000000;stroke-width:0.5;" x="590.04" xlink:href="#md9a1c1a7cd" y="340.8"/>
      </g>
     </g>
     <g id="text_9">
      <!-- 10 -->
      <g transform="translate(78.55625 344.9390625)scale(0.15 -0.15)">
       <use xlink:href="#BitstreamVeraSans-Roman-31"/>
       <use x="63.623046875" xlink:href="#BitstreamVeraSans-Roman-30"/>
      </g>
     </g>
    </g>
    <g id="ytick_3">
     <g id="line2d_22">
      <g>
       <use style="stroke:#000000;stroke-width:0.5;" x="99.0" xlink:href="#md7965d1ba0" y="303.6"/>
      </g>
     </g>
     <g id="line2d_23">
      <g>
       <use style="stroke:#000000;stroke-width:0.5;" x="590.04" xlink:href="#md9a1c1a7cd" y="303.6"/>
      </g>
     </g>
     <g id="text_10">
      <!-- 20 -->
      <g transform="translate(78.0078125 307.7390625)scale(0.15 -0.15)">
       <use xlink:href="#BitstreamVeraSans-Roman-32"/>
       <use x="63.623046875" xlink:href="#BitstreamVeraSans-Roman-30"/>
      </g>
     </g>
    </g>
    <g id="ytick_4">
     <g id="line2d_24">
      <g>
       <use style="stroke:#000000;stroke-width:0.5;" x="99.0" xlink:href="#md7965d1ba0" y="266.4"/>
      </g>
     </g>
     <g id="line2d_25">
      <g>
       <use style="stroke:#000000;stroke-width:0.5;" x="590.04" xlink:href="#md9a1c1a7cd" y="266.4"/>
      </g>
     </g>
     <g id="text_11">
      <!-- 30 -->
      <defs>
       <path d="
M40.5781 39.3125
Q47.6562 37.7969 51.625 33
Q55.6094 28.2188 55.6094 21.1875
Q55.6094 10.4062 48.1875 4.48438
Q40.7656 -1.42188 27.0938 -1.42188
Q22.5156 -1.42188 17.6562 -0.515625
Q12.7969 0.390625 7.625 2.20312
L7.625 11.7188
Q11.7188 9.32812 16.5938 8.10938
Q21.4844 6.89062 26.8125 6.89062
Q36.0781 6.89062 40.9375 10.5469
Q45.7969 14.2031 45.7969 21.1875
Q45.7969 27.6406 41.2812 31.2656
Q36.7656 34.9062 28.7188 34.9062
L20.2188 34.9062
L20.2188 43.0156
L29.1094 43.0156
Q36.375 43.0156 40.2344 45.9219
Q44.0938 48.8281 44.0938 54.2969
Q44.0938 59.9062 40.1094 62.9062
Q36.1406 65.9219 28.7188 65.9219
Q24.6562 65.9219 20.0156 65.0312
Q15.375 64.1562 9.8125 62.3125
L9.8125 71.0938
Q15.4375 72.6562 20.3438 73.4375
Q25.25 74.2188 29.5938 74.2188
Q40.8281 74.2188 47.3594 69.1094
Q53.9062 64.0156 53.9062 55.3281
Q53.9062 49.2656 50.4375 45.0938
Q46.9688 40.9219 40.5781 39.3125" id="BitstreamVeraSans-Roman-33"/>
      </defs>
      <g transform="translate(78.05234375 270.5390625)scale(0.15 -0.15)">
       <use xlink:href="#BitstreamVeraSans-Roman-33"/>
       <use x="63.623046875" xlink:href="#BitstreamVeraSans-Roman-30"/>
      </g>
     </g>
    </g>
    <g id="ytick_5">
     <g id="line2d_26">
      <g>
       <use style="stroke:#000000;stroke-width:0.5;" x="99.0" xlink:href="#md7965d1ba0" y="229.2"/>
      </g>
     </g>
     <g id="line2d_27">
      <g>
       <use style="stroke:#000000;stroke-width:0.5;" x="590.04" xlink:href="#md9a1c1a7cd" y="229.2"/>
      </g>
     </g>
     <g id="text_12">
      <!-- 40 -->
      <g transform="translate(77.6421875 233.3390625)scale(0.15 -0.15)">
       <use xlink:href="#BitstreamVeraSans-Roman-34"/>
       <use x="63.623046875" xlink:href="#BitstreamVeraSans-Roman-30"/>
      </g>
     </g>
    </g>
    <g id="ytick_6">
     <g id="line2d_28">
      <g>
       <use style="stroke:#000000;stroke-width:0.5;" x="99.0" xlink:href="#md7965d1ba0" y="192.0"/>
      </g>
     </g>
     <g id="line2d_29">
      <g>
       <use style="stroke:#000000;stroke-width:0.5;" x="590.04" xlink:href="#md9a1c1a7cd" y="192.0"/>
      </g>
     </g>
     <g id="text_13">
      <!-- 50 -->
      <defs>
       <path d="
M10.7969 72.9062
L49.5156 72.9062
L49.5156 64.5938
L19.8281 64.5938
L19.8281 46.7344
Q21.9688 47.4688 24.1094 47.8281
Q26.2656 48.1875 28.4219 48.1875
Q40.625 48.1875 47.75 41.5
Q54.8906 34.8125 54.8906 23.3906
Q54.8906 11.625 47.5625 5.09375
Q40.2344 -1.42188 26.9062 -1.42188
Q22.3125 -1.42188 17.5469 -0.640625
Q12.7969 0.140625 7.71875 1.70312
L7.71875 11.625
Q12.1094 9.23438 16.7969 8.0625
Q21.4844 6.89062 26.7031 6.89062
Q35.1562 6.89062 40.0781 11.3281
Q45.0156 15.7656 45.0156 23.3906
Q45.0156 31 40.0781 35.4375
Q35.1562 39.8906 26.7031 39.8906
Q22.75 39.8906 18.8125 39.0156
Q14.8906 38.1406 10.7969 36.2812
z
" id="BitstreamVeraSans-Roman-35"/>
      </defs>
      <g transform="translate(78.06640625 196.1390625)scale(0.15 -0.15)">
       <use xlink:href="#BitstreamVeraSans-Roman-35"/>
       <use x="63.623046875" xlink:href="#BitstreamVeraSans-Roman-30"/>
      </g>
     </g>
    </g>
    <g id="ytick_7">
     <g id="line2d_30">
      <g>
       <use style="stroke:#000000;stroke-width:0.5;" x="99.0" xlink:href="#md7965d1ba0" y="154.8"/>
      </g>
     </g>
     <g id="line2d_31">
      <g>
       <use style="stroke:#000000;stroke-width:0.5;" x="590.04" xlink:href="#md9a1c1a7cd" y="154.8"/>
      </g>
     </g>
     <g id="text_14">
      <!-- 60 -->
      <g transform="translate(77.95625 158.9390625)scale(0.15 -0.15)">
       <use xlink:href="#BitstreamVeraSans-Roman-36"/>
       <use x="63.623046875" xlink:href="#BitstreamVeraSans-Roman-30"/>
      </g>
     </g>
    </g>
    <g id="ytick_8">
     <g id="line2d_32">
      <g>
       <use style="stroke:#000000;stroke-width:0.5;" x="99.0" xlink:href="#md7965d1ba0" y="117.6"/>
      </g>
     </g>
     <g id="line2d_33">
      <g>
       <use style="stroke:#000000;stroke-width:0.5;" x="590.04" xlink:href="#md9a1c1a7cd" y="117.6"/>
      </g>
     </g>
     <g id="text_15">
      <!-- 70 -->
      <defs>
       <path d="
M8.20312 72.9062
L55.0781 72.9062
L55.0781 68.7031
L28.6094 0
L18.3125 0
L43.2188 64.5938
L8.20312 64.5938
z
" id="BitstreamVeraSans-Roman-37"/>
      </defs>
      <g transform="translate(78.1390625 121.7390625)scale(0.15 -0.15)">
       <use xlink:href="#BitstreamVeraSans-Roman-37"/>
       <use x="63.623046875" xlink:href="#BitstreamVeraSans-Roman-30"/>
      </g>
     </g>
    </g>
    <g id="ytick_9">
     <g id="line2d_34">
      <g>
       <use style="stroke:#000000;stroke-width:0.5;" x="99.0" xlink:href="#md7965d1ba0" y="80.4"/>
      </g>
     </g>
     <g id="line2d_35">
      <g>
       <use style="stroke:#000000;stroke-width:0.5;" x="590.04" xlink:href="#md9a1c1a7cd" y="80.4"/>
      </g>
     </g>
     <g id="text_16">
      <!-- 80 -->
      <g transform="translate(77.92578125 84.5390625)scale(0.15 -0.15)">
       <use xlink:href="#BitstreamVeraSans-Roman-38"/>
       <use x="63.623046875" xlink:href="#BitstreamVeraSans-Roman-30"/>
      </g>
     </g>
    </g>
    <g id="ytick_10">
     <g id="line2d_36">
      <g>
       <use style="stroke:#000000;stroke-width:0.5;" x="99.0" xlink:href="#md7965d1ba0" y="43.2"/>
      </g>
     </g>
     <g id="line2d_37">
      <g>
       <use style="stroke:#000000;stroke-width:0.5;" x="590.04" xlink:href="#md9a1c1a7cd" y="43.2"/>
      </g>
     </g>
     <g id="text_17">
      <!-- 90 -->
      <defs>
       <path d="
M10.9844 1.51562
L10.9844 10.5
Q14.7031 8.73438 18.5 7.8125
Q22.3125 6.89062 25.9844 6.89062
Q35.75 6.89062 40.8906 13.4531
Q46.0469 20.0156 46.7812 33.4062
Q43.9531 29.2031 39.5938 26.9531
Q35.25 24.7031 29.9844 24.7031
Q19.0469 24.7031 12.6719 31.3125
Q6.29688 37.9375 6.29688 49.4219
Q6.29688 60.6406 12.9375 67.4219
Q19.5781 74.2188 30.6094 74.2188
Q43.2656 74.2188 49.9219 64.5156
Q56.5938 54.8281 56.5938 36.375
Q56.5938 19.1406 48.4062 8.85938
Q40.2344 -1.42188 26.4219 -1.42188
Q22.7031 -1.42188 18.8906 -0.6875
Q15.0938 0.046875 10.9844 1.51562
M30.6094 32.4219
Q37.25 32.4219 41.125 36.9531
Q45.0156 41.5 45.0156 49.4219
Q45.0156 57.2812 41.125 61.8438
Q37.25 66.4062 30.6094 66.4062
Q23.9688 66.4062 20.0938 61.8438
Q16.2188 57.2812 16.2188 49.4219
Q16.2188 41.5 20.0938 36.9531
Q23.9688 32.4219 30.6094 32.4219" id="BitstreamVeraSans-Roman-39"/>
      </defs>
      <g transform="translate(77.853125 47.3390625)scale(0.15 -0.15)">
       <use xlink:href="#BitstreamVeraSans-Roman-39"/>
       <use x="63.623046875" xlink:href="#BitstreamVeraSans-Roman-30"/>
      </g>
     </g>
    </g>
    <g id="text_18">
     <!-- Frequency -->
     <defs>
      <path d="
M32.1719 -5.07812
Q28.375 -14.8438 24.75 -17.8125
Q21.1406 -20.7969 15.0938 -20.7969
L7.90625 -20.7969
L7.90625 -13.2812
L13.1875 -13.2812
Q16.8906 -13.2812 18.9375 -11.5156
Q21 -9.76562 23.4844 -3.21875
L25.0938 0.875
L2.98438 54.6875
L12.5 54.6875
L29.5938 11.9219
L46.6875 54.6875
L56.2031 54.6875
z
" id="BitstreamVeraSans-Roman-79"/>
      <path d="
M14.7969 27.2969
Q14.7969 17.3906 18.875 11.75
Q22.9531 6.10938 30.0781 6.10938
Q37.2031 6.10938 41.2969 11.75
Q45.4062 17.3906 45.4062 27.2969
Q45.4062 37.2031 41.2969 42.8438
Q37.2031 48.4844 30.0781 48.4844
Q22.9531 48.4844 18.875 42.8438
Q14.7969 37.2031 14.7969 27.2969
M45.4062 8.20312
Q42.5781 3.32812 38.25 0.953125
Q33.9375 -1.42188 27.875 -1.42188
Q17.9688 -1.42188 11.7344 6.48438
Q5.51562 14.4062 5.51562 27.2969
Q5.51562 40.1875 11.7344 48.0938
Q17.9688 56 27.875 56
Q33.9375 56 38.25 53.625
Q42.5781 51.2656 45.4062 46.3906
L45.4062 54.6875
L54.3906 54.6875
L54.3906 -20.7969
L45.4062 -20.7969
z
" id="BitstreamVeraSans-Roman-71"/>
      <path d="
M9.8125 72.9062
L51.7031 72.9062
L51.7031 64.5938
L19.6719 64.5938
L19.6719 43.1094
L48.5781 43.1094
L48.5781 34.8125
L19.6719 34.8125
L19.6719 0
L9.8125 0
z
" id="BitstreamVeraSans-Roman-46"/>
      <path d="
M8.5 21.5781
L8.5 54.6875
L17.4844 54.6875
L17.4844 21.9219
Q17.4844 14.1562 20.5 10.2656
Q23.5312 6.39062 29.5938 6.39062
Q36.8594 6.39062 41.0781 11.0312
Q45.3125 15.6719 45.3125 23.6875
L45.3125 54.6875
L54.2969 54.6875
L54.2969 0
L45.3125 0
L45.3125 8.40625
Q42.0469 3.42188 37.7188 1
Q33.4062 -1.42188 27.6875 -1.42188
Q18.2656 -1.42188 13.375 4.4375
Q8.5 10.2969 8.5 21.5781" id="BitstreamVeraSans-Roman-75"/>
     </defs>
     <g transform="translate(69.52265625 248.384765625)rotate(-90.0)scale(0.15 -0.15)">
      <use xlink:href="#BitstreamVeraSans-Roman-46"/>
      <use x="50.26953125" xlink:href="#BitstreamVeraSans-Roman-72"/>
      <use x="89.1328125" xlink:href="#BitstreamVeraSans-Roman-65"/>
      <use x="150.65625" xlink:href="#BitstreamVeraSans-Roman-71"/>
      <use x="214.1328125" xlink:href="#BitstreamVeraSans-Roman-75"/>
      <use x="277.51171875" xlink:href="#BitstreamVeraSans-Roman-65"/>
      <use x="339.03515625" xlink:href="#BitstreamVeraSans-Roman-6e"/>
      <use x="402.4140625" xlink:href="#BitstreamVeraSans-Roman-63"/>
      <use x="457.39453125" xlink:href="#BitstreamVeraSans-Roman-79"/>
     </g>
    </g>
   </g>
   <g id="text_19">
    <!-- Dist. of PPS-serial difference by satellite number -->
    <defs>
     <path d="
M53.5156 70.5156
L53.5156 60.8906
Q47.9062 63.5781 42.9219 64.8906
Q37.9375 66.2188 33.2969 66.2188
Q25.25 66.2188 20.875 63.0938
Q16.5 59.9688 16.5 54.2031
Q16.5 49.3594 19.4062 46.8906
Q22.3125 44.4375 30.4219 42.9219
L36.375 41.7031
Q47.4062 39.5938 52.6562 34.2969
Q57.9062 29 57.9062 20.125
Q57.9062 9.51562 50.7969 4.04688
Q43.7031 -1.42188 29.9844 -1.42188
Q24.8125 -1.42188 18.9688 -0.25
Q13.1406 0.921875 6.89062 3.21875
L6.89062 13.375
Q12.8906 10.0156 18.6562 8.29688
Q24.4219 6.59375 29.9844 6.59375
Q38.4219 6.59375 43.0156 9.90625
Q47.6094 13.2344 47.6094 19.3906
Q47.6094 24.75 44.3125 27.7812
Q41.0156 30.8125 33.5 32.3281
L27.4844 33.5
Q16.4531 35.6875 11.5156 40.375
Q6.59375 45.0625 6.59375 53.4219
Q6.59375 63.0938 13.4062 68.6562
Q20.2188 74.2188 32.1719 74.2188
Q37.3125 74.2188 42.625 73.2812
Q47.9531 72.3594 53.5156 70.5156" id="BitstreamVeraSans-Roman-53"/>
     <path d="
M18.3125 70.2188
L18.3125 54.6875
L36.8125 54.6875
L36.8125 47.7031
L18.3125 47.7031
L18.3125 18.0156
Q18.3125 11.3281 20.1406 9.42188
Q21.9688 7.51562 27.5938 7.51562
L36.8125 7.51562
L36.8125 0
L27.5938 0
Q17.1875 0 13.2344 3.875
Q9.28125 7.76562 9.28125 18.0156
L9.28125 47.7031
L2.6875 47.7031
L2.6875 54.6875
L9.28125 54.6875
L9.28125 70.2188
z
" id="BitstreamVeraSans-Roman-74"/>
     <path d="
M19.6719 64.7969
L19.6719 8.10938
L31.5938 8.10938
Q46.6875 8.10938 53.6875 14.9375
Q60.6875 21.7812 60.6875 36.5312
Q60.6875 51.1719 53.6875 57.9844
Q46.6875 64.7969 31.5938 64.7969
z

M9.8125 72.9062
L30.0781 72.9062
Q51.2656 72.9062 61.1719 64.0938
Q71.0938 55.2812 71.0938 36.5312
Q71.0938 17.6719 61.125 8.82812
Q51.1719 0 30.0781 0
L9.8125 0
z
" id="BitstreamVeraSans-Roman-44"/>
     <path d="
M34.2812 27.4844
Q23.3906 27.4844 19.1875 25
Q14.9844 22.5156 14.9844 16.5
Q14.9844 11.7188 18.1406 8.90625
Q21.2969 6.10938 26.7031 6.10938
Q34.1875 6.10938 38.7031 11.4062
Q43.2188 16.7031 43.2188 25.4844
L43.2188 27.4844
z

M52.2031 31.2031
L52.2031 0
L43.2188 0
L43.2188 8.29688
Q40.1406 3.32812 35.5469 0.953125
Q30.9531 -1.42188 24.3125 -1.42188
Q15.9219 -1.42188 10.9531 3.29688
Q6 8.01562 6 15.9219
Q6 25.1406 12.1719 29.8281
Q18.3594 34.5156 30.6094 34.5156
L43.2188 34.5156
L43.2188 35.4062
Q43.2188 41.6094 39.1406 45
Q35.0625 48.3906 27.6875 48.3906
Q23 48.3906 18.5469 47.2656
Q14.1094 46.1406 10.0156 43.8906
L10.0156 52.2031
Q14.9375 54.1094 19.5781 55.0469
Q24.2188 56 28.6094 56
Q40.4844 56 46.3438 49.8438
Q52.2031 43.7031 52.2031 31.2031" id="BitstreamVeraSans-Roman-61"/>
     <path d="
M19.6719 64.7969
L19.6719 37.4062
L32.0781 37.4062
Q38.9688 37.4062 42.7188 40.9688
Q46.4844 44.5312 46.4844 51.125
Q46.4844 57.6719 42.7188 61.2344
Q38.9688 64.7969 32.0781 64.7969
z

M9.8125 72.9062
L32.0781 72.9062
Q44.3438 72.9062 50.6094 67.3594
Q56.8906 61.8125 56.8906 51.125
Q56.8906 40.3281 50.6094 34.8125
Q44.3438 29.2969 32.0781 29.2969
L19.6719 29.2969
L19.6719 0
L9.8125 0
z
" id="BitstreamVeraSans-Roman-50"/>
     <path d="
M30.6094 48.3906
Q23.3906 48.3906 19.1875 42.75
Q14.9844 37.1094 14.9844 27.2969
Q14.9844 17.4844 19.1562 11.8438
Q23.3438 6.20312 30.6094 6.20312
Q37.7969 6.20312 41.9844 11.8594
Q46.1875 17.5312 46.1875 27.2969
Q46.1875 37.0156 41.9844 42.7031
Q37.7969 48.3906 30.6094 48.3906
M30.6094 56
Q42.3281 56 49.0156 48.375
Q55.7188 40.7656 55.7188 27.2969
Q55.7188 13.875 49.0156 6.21875
Q42.3281 -1.42188 30.6094 -1.42188
Q18.8438 -1.42188 12.1719 6.21875
Q5.51562 13.875 5.51562 27.2969
Q5.51562 40.7656 12.1719 48.375
Q18.8438 56 30.6094 56" id="BitstreamVeraSans-Roman-6f"/>
     <path d="
M10.6875 12.4062
L21 12.4062
L21 0
L10.6875 0
z
" id="BitstreamVeraSans-Roman-2e"/>
     <path d="
M9.42188 75.9844
L18.4062 75.9844
L18.4062 0
L9.42188 0
z
" id="BitstreamVeraSans-Roman-6c"/>
     <path d="
M48.6875 27.2969
Q48.6875 37.2031 44.6094 42.8438
Q40.5312 48.4844 33.4062 48.4844
Q26.2656 48.4844 22.1875 42.8438
Q18.1094 37.2031 18.1094 27.2969
Q18.1094 17.3906 22.1875 11.75
Q26.2656 6.10938 33.4062 6.10938
Q40.5312 6.10938 44.6094 11.75
Q48.6875 17.3906 48.6875 27.2969
M18.1094 46.3906
Q20.9531 51.2656 25.2656 53.625
Q29.5938 56 35.5938 56
Q45.5625 56 51.7812 48.0938
Q58.0156 40.1875 58.0156 27.2969
Q58.0156 14.4062 51.7812 6.48438
Q45.5625 -1.42188 35.5938 -1.42188
Q29.5938 -1.42188 25.2656 0.953125
Q20.9531 3.32812 18.1094 8.20312
L18.1094 0
L9.07812 0
L9.07812 75.9844
L18.1094 75.9844
z
" id="BitstreamVeraSans-Roman-62"/>
     <path d="
M4.89062 31.3906
L31.2031 31.3906
L31.2031 23.3906
L4.89062 23.3906
z
" id="BitstreamVeraSans-Roman-2d"/>
    </defs>
    <g transform="translate(126.60328125 38.2)scale(0.18 -0.18)">
     <use xlink:href="#BitstreamVeraSans-Roman-44"/>
     <use x="77.001953125" xlink:href="#BitstreamVeraSans-Roman-69"/>
     <use x="104.78515625" xlink:href="#BitstreamVeraSans-Roman-73"/>
     <use x="156.884765625" xlink:href="#BitstreamVeraSans-Roman-74"/>
     <use x="196.09375" xlink:href="#BitstreamVeraSans-Roman-2e"/>
     <use x="227.880859375" xlink:href="#BitstreamVeraSans-Roman-20"/>
     <use x="259.66796875" xlink:href="#BitstreamVeraSans-Roman-6f"/>
     <use x="320.849609375" xlink:href="#BitstreamVeraSans-Roman-66"/>
     <use x="356.0546875" xlink:href="#BitstreamVeraSans-Roman-20"/>
     <use x="387.841796875" xlink:href="#BitstreamVeraSans-Roman-50"/>
     <use x="448.14453125" xlink:href="#BitstreamVeraSans-Roman-50"/>
     <use x="508.447265625" xlink:href="#BitstreamVeraSans-Roman-53"/>
     <use x="571.923828125" xlink:href="#BitstreamVeraSans-Roman-2d"/>
     <use x="608.0078125" xlink:href="#BitstreamVeraSans-Roman-73"/>
     <use x="660.107421875" xlink:href="#BitstreamVeraSans-Roman-65"/>
     <use x="721.630859375" xlink:href="#BitstreamVeraSans-Roman-72"/>
     <use x="762.744140625" xlink:href="#BitstreamVeraSans-Roman-69"/>
     <use x="790.52734375" xlink:href="#BitstreamVeraSans-Roman-61"/>
     <use x="851.806640625" xlink:href="#BitstreamVeraSans-Roman-6c"/>
     <use x="879.58984375" xlink:href="#BitstreamVeraSans-Roman-20"/>
     <use x="911.376953125" xlink:href="#BitstreamVeraSans-Roman-64"/>
     <use x="974.853515625" xlink:href="#BitstreamVeraSans-Roman-69"/>
     <use x="1002.63671875" xlink:href="#BitstreamVeraSans-Roman-66"/>
     <use x="1037.841796875" xlink:href="#BitstreamVeraSans-Roman-66"/>
     <use x="1073.046875" xlink:href="#BitstreamVeraSans-Roman-65"/>
     <use x="1134.5703125" xlink:href="#BitstreamVeraSans-Roman-72"/>
     <use x="1173.43359375" xlink:href="#BitstreamVeraSans-Roman-65"/>
     <use x="1234.95703125" xlink:href="#BitstreamVeraSans-Roman-6e"/>
     <use x="1298.3359375" xlink:href="#BitstreamVeraSans-Roman-63"/>
     <use x="1353.31640625" xlink:href="#BitstreamVeraSans-Roman-65"/>
     <use x="1414.83984375" xlink:href="#BitstreamVeraSans-Roman-20"/>
     <use x="1446.626953125" xlink:href="#BitstreamVeraSans-Roman-62"/>
     <use x="1510.103515625" xlink:href="#BitstreamVeraSans-Roman-79"/>
     <use x="1569.283203125" xlink:href="#BitstreamVeraSans-Roman-20"/>
     <use x="1601.0703125" xlink:href="#BitstreamVeraSans-Roman-73"/>
     <use x="1653.169921875" xlink:href="#BitstreamVeraSans-Roman-61"/>
     <use x="1714.44921875" xlink:href="#BitstreamVeraSans-Roman-74"/>
     <use x="1753.658203125" xlink:href="#BitstreamVeraSans-Roman-65"/>
     <use x="1815.181640625" xlink:href="#BitstreamVeraSans-Roman-6c"/>
     <use x="1842.96484375" xlink:href="#BitstreamVeraSans-Roman-6c"/>
     <use x="1870.748046875" xlink:href="#BitstreamVeraSans-Roman-69"/>
     <use x="1898.53125" xlink:href="#BitstreamVeraSans-Roman-74"/>
     <use x="1937.740234375" xlink:href="#BitstreamVeraSans-Roman-65"/>
     <use x="1999.263671875" xlink:href="#BitstreamVeraSans-Roman-20"/>
     <use x="2031.05078125" xlink:href="#BitstreamVeraSans-Roman-6e"/>
     <use x="2094.4296875" xlink:href="#BitstreamVeraSans-Roman-75"/>
     <use x="2157.80859375" xlink:href="#BitstreamVeraSans-Roman-6d"/>
     <use x="2255.220703125" xlink:href="#BitstreamVeraSans-Roman-62"/>
     <use x="2318.697265625" xlink:href="#BitstreamVeraSans-Roman-65"/>
     <use x="2380.220703125" xlink:href="#BitstreamVeraSans-Roman-72"/>
    </g>
   </g>
  </g>
  <g id="axes_2">
   <g id="patch_7">
    <path clip-path="url(#p34f1e249ce)" d="
M620.73 378
L620.73 376.692
L620.73 44.5078
L620.73 43.2
L637.47 43.2
L637.47 44.5078
L637.47 376.692
L637.47 378
z
" style="fill:#ffffff;stroke:#ffffff;stroke-linejoin:miter;stroke-width:0.01;"/>
   </g>
   <g id="QuadMesh_1">
    <path clip-path="url(#p34f1e249ce)" d="
M620.73 378
L637.47 378
L637.47 376.692
L620.73 376.692
L620.73 378" style="fill:#ff0029;"/>
    <path clip-path="url(#p34f1e249ce)" d="
M620.73 376.692
L637.47 376.692
L637.47 375.384
L620.73 375.384
L620.73 376.692" style="fill:#ff0023;"/>
    <path clip-path="url(#p34f1e249ce)" d="
M620.73 375.384
L637.47 375.384
L637.47 374.077
L620.73 374.077
L620.73 375.384" style="fill:#ff001e;"/>
    <path clip-path="url(#p34f1e249ce)" d="
M620.73 374.077
L637.47 374.077
L637.47 372.769
L620.73 372.769
L620.73 374.077" style="fill:#ff0019;"/>
    <path clip-path="url(#p34f1e249ce)" d="
M620.73 372.769
L637.47 372.769
L637.47 371.461
L620.73 371.461
L620.73 372.769" style="fill:#ff0013;"/>
    <path clip-path="url(#p34f1e249ce)" d="
M620.73 371.461
L637.47 371.461
L637.47 370.153
L620.73 370.153
L620.73 371.461" style="fill:#ff000e;"/>
    <path clip-path="url(#p34f1e249ce)" d="
M620.73 370.153
L637.47 370.153
L637.47 368.845
L620.73 368.845
L620.73 370.153" style="fill:#ff0009;"/>
    <path clip-path="url(#p34f1e249ce)" d="
M620.73 368.845
L637.47 368.845
L637.47 367.538
L620.73 367.538
L620.73 368.845" style="fill:#ff0003;"/>
    <path clip-path="url(#p34f1e249ce)" d="
M620.73 367.538
L637.47 367.538
L637.47 366.23
L620.73 366.23
L620.73 367.538" style="fill:#ff0200;"/>
    <path clip-path="url(#p34f1e249ce)" d="
M620.73 366.23
L637.47 366.23
L637.47 364.922
L620.73 364.922
L620.73 366.23" style="fill:#ff0700;"/>
    <path clip-path="url(#p34f1e249ce)" d="
M620.73 364.922
L637.47 364.922
L637.47 363.614
L620.73 363.614
L620.73 364.922" style="fill:#ff0d00;"/>
    <path clip-path="url(#p34f1e249ce)" d="
M620.73 363.614
L637.47 363.614
L637.47 362.306
L620.73 362.306
L620.73 363.614" style="fill:#ff1200;"/>
    <path clip-path="url(#p34f1e249ce)" d="
M620.73 362.306
L637.47 362.306
L637.47 360.998
L620.73 360.998
L620.73 362.306" style="fill:#ff1800;"/>
    <path clip-path="url(#p34f1e249ce)" d="
M620.73 360.998
L637.47 360.998
L637.47 359.691
L620.73 359.691
L620.73 360.998" style="fill:#ff1d00;"/>
    <path clip-path="url(#p34f1e249ce)" d="
M620.73 359.691
L637.47 359.691
L637.47 358.383
L620.73 358.383
L620.73 359.691" style="fill:#ff2200;"/>
    <path clip-path="url(#p34f1e249ce)" d="
M620.73 358.383
L637.47 358.383
L637.47 357.075
L620.73 357.075
L620.73 358.383" style="fill:#ff2800;"/>
    <path clip-path="url(#p34f1e249ce)" d="
M620.73 357.075
L637.47 357.075
L637.47 355.767
L620.73 355.767
L620.73 357.075" style="fill:#ff2d00;"/>
    <path clip-path="url(#p34f1e249ce)" d="
M620.73 355.767
L637.47 355.767
L637.47 354.459
L620.73 354.459
L620.73 355.767" style="fill:#ff3300;"/>
    <path clip-path="url(#p34f1e249ce)" d="
M620.73 354.459
L637.47 354.459
L637.47 353.152
L620.73 353.152
L620.73 354.459" style="fill:#ff3800;"/>
    <path clip-path="url(#p34f1e249ce)" d="
M620.73 353.152
L637.47 353.152
L637.47 351.844
L620.73 351.844
L620.73 353.152" style="fill:#ff3d00;"/>
    <path clip-path="url(#p34f1e249ce)" d="
M620.73 351.844
L637.47 351.844
L637.47 350.536
L620.73 350.536
L620.73 351.844" style="fill:#ff4300;"/>
    <path clip-path="url(#p34f1e249ce)" d="
M620.73 350.536
L637.47 350.536
L637.47 349.228
L620.73 349.228
L620.73 350.536" style="fill:#ff4800;"/>
    <path clip-path="url(#p34f1e249ce)" d="
M620.73 349.228
L637.47 349.228
L637.47 347.92
L620.73 347.92
L620.73 349.228" style="fill:#ff4e00;"/>
    <path clip-path="url(#p34f1e249ce)" d="
M620.73 347.92
L637.47 347.92
L637.47 346.613
L620.73 346.613
L620.73 347.92" style="fill:#ff5300;"/>
    <path clip-path="url(#p34f1e249ce)" d="
M620.73 346.613
L637.47 346.613
L637.47 345.305
L620.73 345.305
L620.73 346.613" style="fill:#ff5800;"/>
    <path clip-path="url(#p34f1e249ce)" d="
M620.73 345.305
L637.47 345.305
L637.47 343.997
L620.73 343.997
L620.73 345.305" style="fill:#ff5e00;"/>
    <path clip-path="url(#p34f1e249ce)" d="
M620.73 343.997
L637.47 343.997
L637.47 342.689
L620.73 342.689
L620.73 343.997" style="fill:#ff6300;"/>
    <path clip-path="url(#p34f1e249ce)" d="
M620.73 342.689
L637.47 342.689
L637.47 341.381
L620.73 341.381
L620.73 342.689" style="fill:#ff6900;"/>
    <path clip-path="url(#p34f1e249ce)" d="
M620.73 341.381
L637.47 341.381
L637.47 340.073
L620.73 340.073
L620.73 341.381" style="fill:#ff6e00;"/>
    <path clip-path="url(#p34f1e249ce)" d="
M620.73 340.073
L637.47 340.073
L637.47 338.766
L620.73 338.766
L620.73 340.073" style="fill:#ff7300;"/>
    <path clip-path="url(#p34f1e249ce)" d="
M620.73 338.766
L637.47 338.766
L637.47 337.458
L620.73 337.458
L620.73 338.766" style="fill:#ff7900;"/>
    <path clip-path="url(#p34f1e249ce)" d="
M620.73 337.458
L637.47 337.458
L637.47 336.15
L620.73 336.15
L620.73 337.458" style="fill:#ff7e00;"/>
    <path clip-path="url(#p34f1e249ce)" d="
M620.73 336.15
L637.47 336.15
L637.47 334.842
L620.73 334.842
L620.73 336.15" style="fill:#ff8400;"/>
    <path clip-path="url(#p34f1e249ce)" d="
M620.73 334.842
L637.47 334.842
L637.47 333.534
L620.73 333.534
L620.73 334.842" style="fill:#ff8900;"/>
    <path clip-path="url(#p34f1e249ce)" d="
M620.73 333.534
L637.47 333.534
L637.47 332.227
L620.73 332.227
L620.73 333.534" style="fill:#ff8e00;"/>
    <path clip-path="url(#p34f1e249ce)" d="
M620.73 332.227
L637.47 332.227
L637.47 330.919
L620.73 330.919
L620.73 332.227" style="fill:#ff9400;"/>
    <path clip-path="url(#p34f1e249ce)" d="
M620.73 330.919
L637.47 330.919
L637.47 329.611
L620.73 329.611
L620.73 330.919" style="fill:#ff9900;"/>
    <path clip-path="url(#p34f1e249ce)" d="
M620.73 329.611
L637.47 329.611
L637.47 328.303
L620.73 328.303
L620.73 329.611" style="fill:#ff9f00;"/>
    <path clip-path="url(#p34f1e249ce)" d="
M620.73 328.303
L637.47 328.303
L637.47 326.995
L620.73 326.995
L620.73 328.303" style="fill:#ffa400;"/>
    <path clip-path="url(#p34f1e249ce)" d="
M620.73 326.995
L637.47 326.995
L637.47 325.688
L620.73 325.688
L620.73 326.995" style="fill:#ffa900;"/>
    <path clip-path="url(#p34f1e249ce)" d="
M620.73 325.688
L637.47 325.688
L637.47 324.38
L620.73 324.38
L620.73 325.688" style="fill:#ffaf00;"/>
    <path clip-path="url(#p34f1e249ce)" d="
M620.73 324.38
L637.47 324.38
L637.47 323.072
L620.73 323.072
L620.73 324.38" style="fill:#ffb400;"/>
    <path clip-path="url(#p34f1e249ce)" d="
M620.73 323.072
L637.47 323.072
L637.47 321.764
L620.73 321.764
L620.73 323.072" style="fill:#ffba00;"/>
    <path clip-path="url(#p34f1e249ce)" d="
M620.73 321.764
L637.47 321.764
L637.47 320.456
L620.73 320.456
L620.73 321.764" style="fill:#ffbf00;"/>
    <path clip-path="url(#p34f1e249ce)" d="
M620.73 320.456
L637.47 320.456
L637.47 319.148
L620.73 319.148
L620.73 320.456" style="fill:#ffc400;"/>
    <path clip-path="url(#p34f1e249ce)" d="
M620.73 319.148
L637.47 319.148
L637.47 317.841
L620.73 317.841
L620.73 319.148" style="fill:#ffca00;"/>
    <path clip-path="url(#p34f1e249ce)" d="
M620.73 317.841
L637.47 317.841
L637.47 316.533
L620.73 316.533
L620.73 317.841" style="fill:#ffcf00;"/>
    <path clip-path="url(#p34f1e249ce)" d="
M620.73 316.533
L637.47 316.533
L637.47 315.225
L620.73 315.225
L620.73 316.533" style="fill:#ffd500;"/>
    <path clip-path="url(#p34f1e249ce)" d="
M620.73 315.225
L637.47 315.225
L637.47 313.917
L620.73 313.917
L620.73 315.225" style="fill:#ffda00;"/>
    <path clip-path="url(#p34f1e249ce)" d="
M620.73 313.917
L637.47 313.917
L637.47 312.609
L620.73 312.609
L620.73 313.917" style="fill:#ffe000;"/>
    <path clip-path="url(#p34f1e249ce)" d="
M620.73 312.609
L637.47 312.609
L637.47 311.302
L620.73 311.302
L620.73 312.609" style="fill:#ffe500;"/>
    <path clip-path="url(#p34f1e249ce)" d="
M620.73 311.302
L637.47 311.302
L637.47 309.994
L620.73 309.994
L620.73 311.302" style="fill:#ffea00;"/>
    <path clip-path="url(#p34f1e249ce)" d="
M620.73 309.994
L637.47 309.994
L637.47 308.686
L620.73 308.686
L620.73 309.994" style="fill:#fff000;"/>
    <path clip-path="url(#p34f1e249ce)" d="
M620.73 308.686
L637.47 308.686
L637.47 307.378
L620.73 307.378
L620.73 308.686" style="fill:#fff500;"/>
    <path clip-path="url(#p34f1e249ce)" d="
M620.73 307.378
L637.47 307.378
L637.47 306.07
L620.73 306.07
L620.73 307.378" style="fill:#fffb00;"/>
    <path clip-path="url(#p34f1e249ce)" d="
M620.73 306.07
L637.47 306.07
L637.47 304.763
L620.73 304.763
L620.73 306.07" style="fill:#feff00;"/>
    <path clip-path="url(#p34f1e249ce)" d="
M620.73 304.763
L637.47 304.763
L637.47 303.455
L620.73 303.455
L620.73 304.763" style="fill:#f9ff00;"/>
    <path clip-path="url(#p34f1e249ce)" d="
M620.73 303.455
L637.47 303.455
L637.47 302.147
L620.73 302.147
L620.73 303.455" style="fill:#f3ff00;"/>
    <path clip-path="url(#p34f1e249ce)" d="
M620.73 302.147
L637.47 302.147
L637.47 300.839
L620.73 300.839
L620.73 302.147" style="fill:#eeff00;"/>
    <path clip-path="url(#p34f1e249ce)" d="
M620.73 300.839
L637.47 300.839
L637.47 299.531
L620.73 299.531
L620.73 300.839" style="fill:#e8ff00;"/>
    <path clip-path="url(#p34f1e249ce)" d="
M620.73 299.531
L637.47 299.531
L637.47 298.223
L620.73 298.223
L620.73 299.531" style="fill:#e3ff00;"/>
    <path clip-path="url(#p34f1e249ce)" d="
M620.73 298.223
L637.47 298.223
L637.47 296.916
L620.73 296.916
L620.73 298.223" style="fill:#deff00;"/>
    <path clip-path="url(#p34f1e249ce)" d="
M620.73 296.916
L637.47 296.916
L637.47 295.608
L620.73 295.608
L620.73 296.916" style="fill:#d8ff00;"/>
    <path clip-path="url(#p34f1e249ce)" d="
M620.73 295.608
L637.47 295.608
L637.47 294.3
L620.73 294.3
L620.73 295.608" style="fill:#d3ff00;"/>
    <path clip-path="url(#p34f1e249ce)" d="
M620.73 294.3
L637.47 294.3
L637.47 292.992
L620.73 292.992
L620.73 294.3" style="fill:#cdff00;"/>
    <path clip-path="url(#p34f1e249ce)" d="
M620.73 292.992
L637.47 292.992
L637.47 291.684
L620.73 291.684
L620.73 292.992" style="fill:#c8ff00;"/>
    <path clip-path="url(#p34f1e249ce)" d="
M620.73 291.684
L637.47 291.684
L637.47 290.377
L620.73 290.377
L620.73 291.684" style="fill:#c3ff00;"/>
    <path clip-path="url(#p34f1e249ce)" d="
M620.73 290.377
L637.47 290.377
L637.47 289.069
L620.73 289.069
L620.73 290.377" style="fill:#bdff00;"/>
    <path clip-path="url(#p34f1e249ce)" d="
M620.73 289.069
L637.47 289.069
L637.47 287.761
L620.73 287.761
L620.73 289.069" style="fill:#b8ff00;"/>
    <path clip-path="url(#p34f1e249ce)" d="
M620.73 287.761
L637.47 287.761
L637.47 286.453
L620.73 286.453
L620.73 287.761" style="fill:#b2ff00;"/>
    <path clip-path="url(#p34f1e249ce)" d="
M620.73 286.453
L637.47 286.453
L637.47 285.145
L620.73 285.145
L620.73 286.453" style="fill:#adff00;"/>
    <path clip-path="url(#p34f1e249ce)" d="
M620.73 285.145
L637.47 285.145
L637.47 283.838
L620.73 283.838
L620.73 285.145" style="fill:#a8ff00;"/>
    <path clip-path="url(#p34f1e249ce)" d="
M620.73 283.838
L637.47 283.838
L637.47 282.53
L620.73 282.53
L620.73 283.838" style="fill:#a2ff00;"/>
    <path clip-path="url(#p34f1e249ce)" d="
M620.73 282.53
L637.47 282.53
L637.47 281.222
L620.73 281.222
L620.73 282.53" style="fill:#9dff00;"/>
    <path clip-path="url(#p34f1e249ce)" d="
M620.73 281.222
L637.47 281.222
L637.47 279.914
L620.73 279.914
L620.73 281.222" style="fill:#97ff00;"/>
    <path clip-path="url(#p34f1e249ce)" d="
M620.73 279.914
L637.47 279.914
L637.47 278.606
L620.73 278.606
L620.73 279.914" style="fill:#92ff00;"/>
    <path clip-path="url(#p34f1e249ce)" d="
M620.73 278.606
L637.47 278.606
L637.47 277.298
L620.73 277.298
L620.73 278.606" style="fill:#8dff00;"/>
    <path clip-path="url(#p34f1e249ce)" d="
M620.73 277.298
L637.47 277.298
L637.47 275.991
L620.73 275.991
L620.73 277.298" style="fill:#87ff00;"/>
    <path clip-path="url(#p34f1e249ce)" d="
M620.73 275.991
L637.47 275.991
L637.47 274.683
L620.73 274.683
L620.73 275.991" style="fill:#82ff00;"/>
    <path clip-path="url(#p34f1e249ce)" d="
M620.73 274.683
L637.47 274.683
L637.47 273.375
L620.73 273.375
L620.73 274.683" style="fill:#7cff00;"/>
    <path clip-path="url(#p34f1e249ce)" d="
M620.73 273.375
L637.47 273.375
L637.47 272.067
L620.73 272.067
L620.73 273.375" style="fill:#77ff00;"/>
    <path clip-path="url(#p34f1e249ce)" d="
M620.73 272.067
L637.47 272.067
L637.47 270.759
L620.73 270.759
L620.73 272.067" style="fill:#72ff00;"/>
    <path clip-path="url(#p34f1e249ce)" d="
M620.73 270.759
L637.47 270.759
L637.47 269.452
L620.73 269.452
L620.73 270.759" style="fill:#6cff00;"/>
    <path clip-path="url(#p34f1e249ce)" d="
M620.73 269.452
L637.47 269.452
L637.47 268.144
L620.73 268.144
L620.73 269.452" style="fill:#67ff00;"/>
    <path clip-path="url(#p34f1e249ce)" d="
M620.73 268.144
L637.47 268.144
L637.47 266.836
L620.73 266.836
L620.73 268.144" style="fill:#61ff00;"/>
    <path clip-path="url(#p34f1e249ce)" d="
M620.73 266.836
L637.47 266.836
L637.47 265.528
L620.73 265.528
L620.73 266.836" style="fill:#5cff00;"/>
    <path clip-path="url(#p34f1e249ce)" d="
M620.73 265.528
L637.47 265.528
L637.47 264.22
L620.73 264.22
L620.73 265.528" style="fill:#56ff00;"/>
    <path clip-path="url(#p34f1e249ce)" d="
M620.73 264.22
L637.47 264.22
L637.47 262.913
L620.73 262.913
L620.73 264.22" style="fill:#51ff00;"/>
    <path clip-path="url(#p34f1e249ce)" d="
M620.73 262.913
L637.47 262.913
L637.47 261.605
L620.73 261.605
L620.73 262.913" style="fill:#4cff00;"/>
    <path clip-path="url(#p34f1e249ce)" d="
M620.73 261.605
L637.47 261.605
L637.47 260.297
L620.73 260.297
L620.73 261.605" style="fill:#46ff00;"/>
    <path clip-path="url(#p34f1e249ce)" d="
M620.73 260.297
L637.47 260.297
L637.47 258.989
L620.73 258.989
L620.73 260.297" style="fill:#41ff00;"/>
    <path clip-path="url(#p34f1e249ce)" d="
M620.73 258.989
L637.47 258.989
L637.47 257.681
L620.73 257.681
L620.73 258.989" style="fill:#3bff00;"/>
    <path clip-path="url(#p34f1e249ce)" d="
M620.73 257.681
L637.47 257.681
L637.47 256.373
L620.73 256.373
L620.73 257.681" style="fill:#36ff00;"/>
    <path clip-path="url(#p34f1e249ce)" d="
M620.73 256.373
L637.47 256.373
L637.47 255.066
L620.73 255.066
L620.73 256.373" style="fill:#31ff00;"/>
    <path clip-path="url(#p34f1e249ce)" d="
M620.73 255.066
L637.47 255.066
L637.47 253.758
L620.73 253.758
L620.73 255.066" style="fill:#2bff00;"/>
    <path clip-path="url(#p34f1e249ce)" d="
M620.73 253.758
L637.47 253.758
L637.47 252.45
L620.73 252.45
L620.73 253.758" style="fill:#26ff00;"/>
    <path clip-path="url(#p34f1e249ce)" d="
M620.73 252.45
L637.47 252.45
L637.47 251.142
L620.73 251.142
L620.73 252.45" style="fill:#20ff00;"/>
    <path clip-path="url(#p34f1e249ce)" d="
M620.73 251.142
L637.47 251.142
L637.47 249.834
L620.73 249.834
L620.73 251.142" style="fill:#1bff00;"/>
    <path clip-path="url(#p34f1e249ce)" d="
M620.73 249.834
L637.47 249.834
L637.47 248.527
L620.73 248.527
L620.73 249.834" style="fill:#16ff00;"/>
    <path clip-path="url(#p34f1e249ce)" d="
M620.73 248.527
L637.47 248.527
L637.47 247.219
L620.73 247.219
L620.73 248.527" style="fill:#10ff00;"/>
    <path clip-path="url(#p34f1e249ce)" d="
M620.73 247.219
L637.47 247.219
L637.47 245.911
L620.73 245.911
L620.73 247.219" style="fill:#0bff00;"/>
    <path clip-path="url(#p34f1e249ce)" d="
M620.73 245.911
L637.47 245.911
L637.47 244.603
L620.73 244.603
L620.73 245.911" style="fill:#05ff00;"/>
    <path clip-path="url(#p34f1e249ce)" d="
M620.73 244.603
L637.47 244.603
L637.47 243.295
L620.73 243.295
L620.73 244.603" style="fill:#00ff00;"/>
    <path clip-path="url(#p34f1e249ce)" d="
M620.73 243.295
L637.47 243.295
L637.47 241.988
L620.73 241.988
L620.73 243.295" style="fill:#00ff05;"/>
    <path clip-path="url(#p34f1e249ce)" d="
M620.73 241.988
L637.47 241.988
L637.47 240.68
L620.73 240.68
L620.73 241.988" style="fill:#00ff0b;"/>
    <path clip-path="url(#p34f1e249ce)" d="
M620.73 240.68
L637.47 240.68
L637.47 239.372
L620.73 239.372
L620.73 240.68" style="fill:#00ff10;"/>
    <path clip-path="url(#p34f1e249ce)" d="
M620.73 239.372
L637.47 239.372
L637.47 238.064
L620.73 238.064
L620.73 239.372" style="fill:#00ff16;"/>
    <path clip-path="url(#p34f1e249ce)" d="
M620.73 238.064
L637.47 238.064
L637.47 236.756
L620.73 236.756
L620.73 238.064" style="fill:#00ff1b;"/>
    <path clip-path="url(#p34f1e249ce)" d="
M620.73 236.756
L637.47 236.756
L637.47 235.448
L620.73 235.448
L620.73 236.756" style="fill:#00ff20;"/>
    <path clip-path="url(#p34f1e249ce)" d="
M620.73 235.448
L637.47 235.448
L637.47 234.141
L620.73 234.141
L620.73 235.448" style="fill:#00ff26;"/>
    <path clip-path="url(#p34f1e249ce)" d="
M620.73 234.141
L637.47 234.141
L637.47 232.833
L620.73 232.833
L620.73 234.141" style="fill:#00ff2b;"/>
    <path clip-path="url(#p34f1e249ce)" d="
M620.73 232.833
L637.47 232.833
L637.47 231.525
L620.73 231.525
L620.73 232.833" style="fill:#00ff30;"/>
    <path clip-path="url(#p34f1e249ce)" d="
M620.73 231.525
L637.47 231.525
L637.47 230.217
L620.73 230.217
L620.73 231.525" style="fill:#00ff36;"/>
    <path clip-path="url(#p34f1e249ce)" d="
M620.73 230.217
L637.47 230.217
L637.47 228.909
L620.73 228.909
L620.73 230.217" style="fill:#00ff3b;"/>
    <path clip-path="url(#p34f1e249ce)" d="
M620.73 228.909
L637.47 228.909
L637.47 227.602
L620.73 227.602
L620.73 228.909" style="fill:#00ff41;"/>
    <path clip-path="url(#p34f1e249ce)" d="
M620.73 227.602
L637.47 227.602
L637.47 226.294
L620.73 226.294
L620.73 227.602" style="fill:#00ff46;"/>
    <path clip-path="url(#p34f1e249ce)" d="
M620.73 226.294
L637.47 226.294
L637.47 224.986
L620.73 224.986
L620.73 226.294" style="fill:#00ff4b;"/>
    <path clip-path="url(#p34f1e249ce)" d="
M620.73 224.986
L637.47 224.986
L637.47 223.678
L620.73 223.678
L620.73 224.986" style="fill:#00ff51;"/>
    <path clip-path="url(#p34f1e249ce)" d="
M620.73 223.678
L637.47 223.678
L637.47 222.37
L620.73 222.37
L620.73 223.678" style="fill:#00ff56;"/>
    <path clip-path="url(#p34f1e249ce)" d="
M620.73 222.37
L637.47 222.37
L637.47 221.063
L620.73 221.063
L620.73 222.37" style="fill:#00ff5b;"/>
    <path clip-path="url(#p34f1e249ce)" d="
M620.73 221.063
L637.47 221.063
L637.47 219.755
L620.73 219.755
L620.73 221.063" style="fill:#00ff61;"/>
    <path clip-path="url(#p34f1e249ce)" d="
M620.73 219.755
L637.47 219.755
L637.47 218.447
L620.73 218.447
L620.73 219.755" style="fill:#00ff66;"/>
    <path clip-path="url(#p34f1e249ce)" d="
M620.73 218.447
L637.47 218.447
L637.47 217.139
L620.73 217.139
L620.73 218.447" style="fill:#00ff6c;"/>
    <path clip-path="url(#p34f1e249ce)" d="
M620.73 217.139
L637.47 217.139
L637.47 215.831
L620.73 215.831
L620.73 217.139" style="fill:#00ff71;"/>
    <path clip-path="url(#p34f1e249ce)" d="
M620.73 215.831
L637.47 215.831
L637.47 214.523
L620.73 214.523
L620.73 215.831" style="fill:#00ff76;"/>
    <path clip-path="url(#p34f1e249ce)" d="
M620.73 214.523
L637.47 214.523
L637.47 213.216
L620.73 213.216
L620.73 214.523" style="fill:#00ff7c;"/>
    <path clip-path="url(#p34f1e249ce)" d="
M620.73 213.216
L637.47 213.216
L637.47 211.908
L620.73 211.908
L620.73 213.216" style="fill:#00ff81;"/>
    <path clip-path="url(#p34f1e249ce)" d="
M620.73 211.908
L637.47 211.908
L637.47 210.6
L620.73 210.6
L620.73 211.908" style="fill:#00ff86;"/>
    <path clip-path="url(#p34f1e249ce)" d="
M620.73 210.6
L637.47 210.6
L637.47 209.292
L620.73 209.292
L620.73 210.6" style="fill:#00ff8c;"/>
    <path clip-path="url(#p34f1e249ce)" d="
M620.73 209.292
L637.47 209.292
L637.47 207.984
L620.73 207.984
L620.73 209.292" style="fill:#00ff91;"/>
    <path clip-path="url(#p34f1e249ce)" d="
M620.73 207.984
L637.47 207.984
L637.47 206.677
L620.73 206.677
L620.73 207.984" style="fill:#00ff97;"/>
    <path clip-path="url(#p34f1e249ce)" d="
M620.73 206.677
L637.47 206.677
L637.47 205.369
L620.73 205.369
L620.73 206.677" style="fill:#00ff9c;"/>
    <path clip-path="url(#p34f1e249ce)" d="
M620.73 205.369
L637.47 205.369
L637.47 204.061
L620.73 204.061
L620.73 205.369" style="fill:#00ffa1;"/>
    <path clip-path="url(#p34f1e249ce)" d="
M620.73 204.061
L637.47 204.061
L637.47 202.753
L620.73 202.753
L620.73 204.061" style="fill:#00ffa7;"/>
    <path clip-path="url(#p34f1e249ce)" d="
M620.73 202.753
L637.47 202.753
L637.47 201.445
L620.73 201.445
L620.73 202.753" style="fill:#00ffac;"/>
    <path clip-path="url(#p34f1e249ce)" d="
M620.73 201.445
L637.47 201.445
L637.47 200.138
L620.73 200.138
L620.73 201.445" style="fill:#00ffb1;"/>
    <path clip-path="url(#p34f1e249ce)" d="
M620.73 200.138
L637.47 200.138
L637.47 198.83
L620.73 198.83
L620.73 200.138" style="fill:#00ffb7;"/>
    <path clip-path="url(#p34f1e249ce)" d="
M620.73 198.83
L637.47 198.83
L637.47 197.522
L620.73 197.522
L620.73 198.83" style="fill:#00ffbc;"/>
    <path clip-path="url(#p34f1e249ce)" d="
M620.73 197.522
L637.47 197.522
L637.47 196.214
L620.73 196.214
L620.73 197.522" style="fill:#00ffc2;"/>
    <path clip-path="url(#p34f1e249ce)" d="
M620.73 196.214
L637.47 196.214
L637.47 194.906
L620.73 194.906
L620.73 196.214" style="fill:#00ffc7;"/>
    <path clip-path="url(#p34f1e249ce)" d="
M620.73 194.906
L637.47 194.906
L637.47 193.598
L620.73 193.598
L620.73 194.906" style="fill:#00ffcc;"/>
    <path clip-path="url(#p34f1e249ce)" d="
M620.73 193.598
L637.47 193.598
L637.47 192.291
L620.73 192.291
L620.73 193.598" style="fill:#00ffd2;"/>
    <path clip-path="url(#p34f1e249ce)" d="
M620.73 192.291
L637.47 192.291
L637.47 190.983
L620.73 190.983
L620.73 192.291" style="fill:#00ffd7;"/>
    <path clip-path="url(#p34f1e249ce)" d="
M620.73 190.983
L637.47 190.983
L637.47 189.675
L620.73 189.675
L620.73 190.983" style="fill:#00ffdc;"/>
    <path clip-path="url(#p34f1e249ce)" d="
M620.73 189.675
L637.47 189.675
L637.47 188.367
L620.73 188.367
L620.73 189.675" style="fill:#00ffe2;"/>
    <path clip-path="url(#p34f1e249ce)" d="
M620.73 188.367
L637.47 188.367
L637.47 187.059
L620.73 187.059
L620.73 188.367" style="fill:#00ffe7;"/>
    <path clip-path="url(#p34f1e249ce)" d="
M620.73 187.059
L637.47 187.059
L637.47 185.752
L620.73 185.752
L620.73 187.059" style="fill:#00ffed;"/>
    <path clip-path="url(#p34f1e249ce)" d="
M620.73 185.752
L637.47 185.752
L637.47 184.444
L620.73 184.444
L620.73 185.752" style="fill:#00fff2;"/>
    <path clip-path="url(#p34f1e249ce)" d="
M620.73 184.444
L637.47 184.444
L637.47 183.136
L620.73 183.136
L620.73 184.444" style="fill:#00fff7;"/>
    <path clip-path="url(#p34f1e249ce)" d="
M620.73 183.136
L637.47 183.136
L637.47 181.828
L620.73 181.828
L620.73 183.136" style="fill:#00fffd;"/>
    <path clip-path="url(#p34f1e249ce)" d="
M620.73 181.828
L637.47 181.828
L637.47 180.52
L620.73 180.52
L620.73 181.828" style="fill:#00fcff;"/>
    <path clip-path="url(#p34f1e249ce)" d="
M620.73 180.52
L637.47 180.52
L637.47 179.213
L620.73 179.213
L620.73 180.52" style="fill:#00f6ff;"/>
    <path clip-path="url(#p34f1e249ce)" d="
M620.73 179.213
L637.47 179.213
L637.47 177.905
L620.73 177.905
L620.73 179.213" style="fill:#00f1ff;"/>
    <path clip-path="url(#p34f1e249ce)" d="
M620.73 177.905
L637.47 177.905
L637.47 176.597
L620.73 176.597
L620.73 177.905" style="fill:#00ecff;"/>
    <path clip-path="url(#p34f1e249ce)" d="
M620.73 176.597
L637.47 176.597
L637.47 175.289
L620.73 175.289
L620.73 176.597" style="fill:#00e6ff;"/>
    <path clip-path="url(#p34f1e249ce)" d="
M620.73 175.289
L637.47 175.289
L637.47 173.981
L620.73 173.981
L620.73 175.289" style="fill:#00e1ff;"/>
    <path clip-path="url(#p34f1e249ce)" d="
M620.73 173.981
L637.47 173.981
L637.47 172.673
L620.73 172.673
L620.73 173.981" style="fill:#00dbff;"/>
    <path clip-path="url(#p34f1e249ce)" d="
M620.73 172.673
L637.47 172.673
L637.47 171.366
L620.73 171.366
L620.73 172.673" style="fill:#00d6ff;"/>
    <path clip-path="url(#p34f1e249ce)" d="
M620.73 171.366
L637.47 171.366
L637.47 170.058
L620.73 170.058
L620.73 171.366" style="fill:#00d0ff;"/>
    <path clip-path="url(#p34f1e249ce)" d="
M620.73 170.058
L637.47 170.058
L637.47 168.75
L620.73 168.75
L620.73 170.058" style="fill:#00cbff;"/>
    <path clip-path="url(#p34f1e249ce)" d="
M620.73 168.75
L637.47 168.75
L637.47 167.442
L620.73 167.442
L620.73 168.75" style="fill:#00c6ff;"/>
    <path clip-path="url(#p34f1e249ce)" d="
M620.73 167.442
L637.47 167.442
L637.47 166.134
L620.73 166.134
L620.73 167.442" style="fill:#00c0ff;"/>
    <path clip-path="url(#p34f1e249ce)" d="
M620.73 166.134
L637.47 166.134
L637.47 164.827
L620.73 164.827
L620.73 166.134" style="fill:#00bbff;"/>
    <path clip-path="url(#p34f1e249ce)" d="
M620.73 164.827
L637.47 164.827
L637.47 163.519
L620.73 163.519
L620.73 164.827" style="fill:#00b5ff;"/>
    <path clip-path="url(#p34f1e249ce)" d="
M620.73 163.519
L637.47 163.519
L637.47 162.211
L620.73 162.211
L620.73 163.519" style="fill:#00b0ff;"/>
    <path clip-path="url(#p34f1e249ce)" d="
M620.73 162.211
L637.47 162.211
L637.47 160.903
L620.73 160.903
L620.73 162.211" style="fill:#00aaff;"/>
    <path clip-path="url(#p34f1e249ce)" d="
M620.73 160.903
L637.47 160.903
L637.47 159.595
L620.73 159.595
L620.73 160.903" style="fill:#00a5ff;"/>
    <path clip-path="url(#p34f1e249ce)" d="
M620.73 159.595
L637.47 159.595
L637.47 158.288
L620.73 158.288
L620.73 159.595" style="fill:#00a0ff;"/>
    <path clip-path="url(#p34f1e249ce)" d="
M620.73 158.288
L637.47 158.288
L637.47 156.98
L620.73 156.98
L620.73 158.288" style="fill:#009aff;"/>
    <path clip-path="url(#p34f1e249ce)" d="
M620.73 156.98
L637.47 156.98
L637.47 155.672
L620.73 155.672
L620.73 156.98" style="fill:#0095ff;"/>
    <path clip-path="url(#p34f1e249ce)" d="
M620.73 155.672
L637.47 155.672
L637.47 154.364
L620.73 154.364
L620.73 155.672" style="fill:#008fff;"/>
    <path clip-path="url(#p34f1e249ce)" d="
M620.73 154.364
L637.47 154.364
L637.47 153.056
L620.73 153.056
L620.73 154.364" style="fill:#008aff;"/>
    <path clip-path="url(#p34f1e249ce)" d="
M620.73 153.056
L637.47 153.056
L637.47 151.748
L620.73 151.748
L620.73 153.056" style="fill:#0084ff;"/>
    <path clip-path="url(#p34f1e249ce)" d="
M620.73 151.748
L637.47 151.748
L637.47 150.441
L620.73 150.441
L620.73 151.748" style="fill:#007fff;"/>
    <path clip-path="url(#p34f1e249ce)" d="
M620.73 150.441
L637.47 150.441
L637.47 149.133
L620.73 149.133
L620.73 150.441" style="fill:#0079ff;"/>
    <path clip-path="url(#p34f1e249ce)" d="
M620.73 149.133
L637.47 149.133
L637.47 147.825
L620.73 147.825
L620.73 149.133" style="fill:#0074ff;"/>
    <path clip-path="url(#p34f1e249ce)" d="
M620.73 147.825
L637.47 147.825
L637.47 146.517
L620.73 146.517
L620.73 147.825" style="fill:#006fff;"/>
    <path clip-path="url(#p34f1e249ce)" d="
M620.73 146.517
L637.47 146.517
L637.47 145.209
L620.73 145.209
L620.73 146.517" style="fill:#0069ff;"/>
    <path clip-path="url(#p34f1e249ce)" d="
M620.73 145.209
L637.47 145.209
L637.47 143.902
L620.73 143.902
L620.73 145.209" style="fill:#0064ff;"/>
    <path clip-path="url(#p34f1e249ce)" d="
M620.73 143.902
L637.47 143.902
L637.47 142.594
L620.73 142.594
L620.73 143.902" style="fill:#005eff;"/>
    <path clip-path="url(#p34f1e249ce)" d="
M620.73 142.594
L637.47 142.594
L637.47 141.286
L620.73 141.286
L620.73 142.594" style="fill:#0059ff;"/>
    <path clip-path="url(#p34f1e249ce)" d="
M620.73 141.286
L637.47 141.286
L637.47 139.978
L620.73 139.978
L620.73 141.286" style="fill:#0053ff;"/>
    <path clip-path="url(#p34f1e249ce)" d="
M620.73 139.978
L637.47 139.978
L637.47 138.67
L620.73 138.67
L620.73 139.978" style="fill:#004eff;"/>
    <path clip-path="url(#p34f1e249ce)" d="
M620.73 138.67
L637.47 138.67
L637.47 137.363
L620.73 137.363
L620.73 138.67" style="fill:#0049ff;"/>
    <path clip-path="url(#p34f1e249ce)" d="
M620.73 137.363
L637.47 137.363
L637.47 136.055
L620.73 136.055
L620.73 137.363" style="fill:#0043ff;"/>
    <path clip-path="url(#p34f1e249ce)" d="
M620.73 136.055
L637.47 136.055
L637.47 134.747
L620.73 134.747
L620.73 136.055" style="fill:#003eff;"/>
    <path clip-path="url(#p34f1e249ce)" d="
M620.73 134.747
L637.47 134.747
L637.47 133.439
L620.73 133.439
L620.73 134.747" style="fill:#0038ff;"/>
    <path clip-path="url(#p34f1e249ce)" d="
M620.73 133.439
L637.47 133.439
L637.47 132.131
L620.73 132.131
L620.73 133.439" style="fill:#0033ff;"/>
    <path clip-path="url(#p34f1e249ce)" d="
M620.73 132.131
L637.47 132.131
L637.47 130.823
L620.73 130.823
L620.73 132.131" style="fill:#002dff;"/>
    <path clip-path="url(#p34f1e249ce)" d="
M620.73 130.823
L637.47 130.823
L637.47 129.516
L620.73 129.516
L620.73 130.823" style="fill:#0028ff;"/>
    <path clip-path="url(#p34f1e249ce)" d="
M620.73 129.516
L637.47 129.516
L637.47 128.208
L620.73 128.208
L620.73 129.516" style="fill:#0023ff;"/>
    <path clip-path="url(#p34f1e249ce)" d="
M620.73 128.208
L637.47 128.208
L637.47 126.9
L620.73 126.9
L620.73 128.208" style="fill:#001dff;"/>
    <path clip-path="url(#p34f1e249ce)" d="
M620.73 126.9
L637.47 126.9
L637.47 125.592
L620.73 125.592
L620.73 126.9" style="fill:#0018ff;"/>
    <path clip-path="url(#p34f1e249ce)" d="
M620.73 125.592
L637.47 125.592
L637.47 124.284
L620.73 124.284
L620.73 125.592" style="fill:#0012ff;"/>
    <path clip-path="url(#p34f1e249ce)" d="
M620.73 124.284
L637.47 124.284
L637.47 122.977
L620.73 122.977
L620.73 124.284" style="fill:#000dff;"/>
    <path clip-path="url(#p34f1e249ce)" d="
M620.73 122.977
L637.47 122.977
L637.47 121.669
L620.73 121.669
L620.73 122.977" style="fill:#0007ff;"/>
    <path clip-path="url(#p34f1e249ce)" d="
M620.73 121.669
L637.47 121.669
L637.47 120.361
L620.73 120.361
L620.73 121.669" style="fill:#0002ff;"/>
    <path clip-path="url(#p34f1e249ce)" d="
M620.73 120.361
L637.47 120.361
L637.47 119.053
L620.73 119.053
L620.73 120.361" style="fill:#0400ff;"/>
    <path clip-path="url(#p34f1e249ce)" d="
M620.73 119.053
L637.47 119.053
L637.47 117.745
L620.73 117.745
L620.73 119.053" style="fill:#0900ff;"/>
    <path clip-path="url(#p34f1e249ce)" d="
M620.73 117.745
L637.47 117.745
L637.47 116.438
L620.73 116.438
L620.73 117.745" style="fill:#0e00ff;"/>
    <path clip-path="url(#p34f1e249ce)" d="
M620.73 116.438
L637.47 116.438
L637.47 115.13
L620.73 115.13
L620.73 116.438" style="fill:#1400ff;"/>
    <path clip-path="url(#p34f1e249ce)" d="
M620.73 115.13
L637.47 115.13
L637.47 113.822
L620.73 113.822
L620.73 115.13" style="fill:#1900ff;"/>
    <path clip-path="url(#p34f1e249ce)" d="
M620.73 113.822
L637.47 113.822
L637.47 112.514
L620.73 112.514
L620.73 113.822" style="fill:#1f00ff;"/>
    <path clip-path="url(#p34f1e249ce)" d="
M620.73 112.514
L637.47 112.514
L637.47 111.206
L620.73 111.206
L620.73 112.514" style="fill:#2400ff;"/>
    <path clip-path="url(#p34f1e249ce)" d="
M620.73 111.206
L637.47 111.206
L637.47 109.898
L620.73 109.898
L620.73 111.206" style="fill:#2a00ff;"/>
    <path clip-path="url(#p34f1e249ce)" d="
M620.73 109.898
L637.47 109.898
L637.47 108.591
L620.73 108.591
L620.73 109.898" style="fill:#2f00ff;"/>
    <path clip-path="url(#p34f1e249ce)" d="
M620.73 108.591
L637.47 108.591
L637.47 107.283
L620.73 107.283
L620.73 108.591" style="fill:#3400ff;"/>
    <path clip-path="url(#p34f1e249ce)" d="
M620.73 107.283
L637.47 107.283
L637.47 105.975
L620.73 105.975
L620.73 107.283" style="fill:#3a00ff;"/>
    <path clip-path="url(#p34f1e249ce)" d="
M620.73 105.975
L637.47 105.975
L637.47 104.667
L620.73 104.667
L620.73 105.975" style="fill:#3f00ff;"/>
    <path clip-path="url(#p34f1e249ce)" d="
M620.73 104.667
L637.47 104.667
L637.47 103.359
L620.73 103.359
L620.73 104.667" style="fill:#4500ff;"/>
    <path clip-path="url(#p34f1e249ce)" d="
M620.73 103.359
L637.47 103.359
L637.47 102.052
L620.73 102.052
L620.73 103.359" style="fill:#4a00ff;"/>
    <path clip-path="url(#p34f1e249ce)" d="
M620.73 102.052
L637.47 102.052
L637.47 100.744
L620.73 100.744
L620.73 102.052" style="fill:#5000ff;"/>
    <path clip-path="url(#p34f1e249ce)" d="
M620.73 100.744
L637.47 100.744
L637.47 99.4359
L620.73 99.4359
L620.73 100.744" style="fill:#5500ff;"/>
    <path clip-path="url(#p34f1e249ce)" d="
M620.73 99.4359
L637.47 99.4359
L637.47 98.1281
L620.73 98.1281
L620.73 99.4359" style="fill:#5a00ff;"/>
    <path clip-path="url(#p34f1e249ce)" d="
M620.73 98.1281
L637.47 98.1281
L637.47 96.8203
L620.73 96.8203
L620.73 98.1281" style="fill:#6000ff;"/>
    <path clip-path="url(#p34f1e249ce)" d="
M620.73 96.8203
L637.47 96.8203
L637.47 95.5125
L620.73 95.5125
L620.73 96.8203" style="fill:#6500ff;"/>
    <path clip-path="url(#p34f1e249ce)" d="
M620.73 95.5125
L637.47 95.5125
L637.47 94.2047
L620.73 94.2047
L620.73 95.5125" style="fill:#6b00ff;"/>
    <path clip-path="url(#p34f1e249ce)" d="
M620.73 94.2047
L637.47 94.2047
L637.47 92.8969
L620.73 92.8969
L620.73 94.2047" style="fill:#7000ff;"/>
    <path clip-path="url(#p34f1e249ce)" d="
M620.73 92.8969
L637.47 92.8969
L637.47 91.5891
L620.73 91.5891
L620.73 92.8969" style="fill:#7600ff;"/>
    <path clip-path="url(#p34f1e249ce)" d="
M620.73 91.5891
L637.47 91.5891
L637.47 90.2812
L620.73 90.2812
L620.73 91.5891" style="fill:#7b00ff;"/>
    <path clip-path="url(#p34f1e249ce)" d="
M620.73 90.2812
L637.47 90.2812
L637.47 88.9734
L620.73 88.9734
L620.73 90.2812" style="fill:#8100ff;"/>
    <path clip-path="url(#p34f1e249ce)" d="
M620.73 88.9734
L637.47 88.9734
L637.47 87.6656
L620.73 87.6656
L620.73 88.9734" style="fill:#8600ff;"/>
    <path clip-path="url(#p34f1e249ce)" d="
M620.73 87.6656
L637.47 87.6656
L637.47 86.3578
L620.73 86.3578
L620.73 87.6656" style="fill:#8b00ff;"/>
    <path clip-path="url(#p34f1e249ce)" d="
M620.73 86.3578
L637.47 86.3578
L637.47 85.05
L620.73 85.05
L620.73 86.3578" style="fill:#9100ff;"/>
    <path clip-path="url(#p34f1e249ce)" d="
M620.73 85.05
L637.47 85.05
L637.47 83.7422
L620.73 83.7422
L620.73 85.05" style="fill:#9600ff;"/>
    <path clip-path="url(#p34f1e249ce)" d="
M620.73 83.7422
L637.47 83.7422
L637.47 82.4344
L620.73 82.4344
L620.73 83.7422" style="fill:#9c00ff;"/>
    <path clip-path="url(#p34f1e249ce)" d="
M620.73 82.4344
L637.47 82.4344
L637.47 81.1266
L620.73 81.1266
L620.73 82.4344" style="fill:#a100ff;"/>
    <path clip-path="url(#p34f1e249ce)" d="
M620.73 81.1266
L637.47 81.1266
L637.47 79.8188
L620.73 79.8188
L620.73 81.1266" style="fill:#a700ff;"/>
    <path clip-path="url(#p34f1e249ce)" d="
M620.73 79.8188
L637.47 79.8188
L637.47 78.5109
L620.73 78.5109
L620.73 79.8188" style="fill:#ac00ff;"/>
    <path clip-path="url(#p34f1e249ce)" d="
M620.73 78.5109
L637.47 78.5109
L637.47 77.2031
L620.73 77.2031
L620.73 78.5109" style="fill:#b100ff;"/>
    <path clip-path="url(#p34f1e249ce)" d="
M620.73 77.2031
L637.47 77.2031
L637.47 75.8953
L620.73 75.8953
L620.73 77.2031" style="fill:#b700ff;"/>
    <path clip-path="url(#p34f1e249ce)" d="
M620.73 75.8953
L637.47 75.8953
L637.47 74.5875
L620.73 74.5875
L620.73 75.8953" style="fill:#bc00ff;"/>
    <path clip-path="url(#p34f1e249ce)" d="
M620.73 74.5875
L637.47 74.5875
L637.47 73.2797
L620.73 73.2797
L620.73 74.5875" style="fill:#c200ff;"/>
    <path clip-path="url(#p34f1e249ce)" d="
M620.73 73.2797
L637.47 73.2797
L637.47 71.9719
L620.73 71.9719
L620.73 73.2797" style="fill:#c700ff;"/>
    <path clip-path="url(#p34f1e249ce)" d="
M620.73 71.9719
L637.47 71.9719
L637.47 70.6641
L620.73 70.6641
L620.73 71.9719" style="fill:#cd00ff;"/>
    <path clip-path="url(#p34f1e249ce)" d="
M620.73 70.6641
L637.47 70.6641
L637.47 69.3562
L620.73 69.3562
L620.73 70.6641" style="fill:#d200ff;"/>
    <path clip-path="url(#p34f1e249ce)" d="
M620.73 69.3562
L637.47 69.3562
L637.47 68.0484
L620.73 68.0484
L620.73 69.3562" style="fill:#d700ff;"/>
    <path clip-path="url(#p34f1e249ce)" d="
M620.73 68.0484
L637.47 68.0484
L637.47 66.7406
L620.73 66.7406
L620.73 68.0484" style="fill:#dd00ff;"/>
    <path clip-path="url(#p34f1e249ce)" d="
M620.73 66.7406
L637.47 66.7406
L637.47 65.4328
L620.73 65.4328
L620.73 66.7406" style="fill:#e200ff;"/>
    <path clip-path="url(#p34f1e249ce)" d="
M620.73 65.4328
L637.47 65.4328
L637.47 64.125
L620.73 64.125
L620.73 65.4328" style="fill:#e800ff;"/>
    <path clip-path="url(#p34f1e249ce)" d="
M620.73 64.125
L637.47 64.125
L637.47 62.8172
L620.73 62.8172
L620.73 64.125" style="fill:#ed00ff;"/>
    <path clip-path="url(#p34f1e249ce)" d="
M620.73 62.8172
L637.47 62.8172
L637.47 61.5094
L620.73 61.5094
L620.73 62.8172" style="fill:#f300ff;"/>
    <path clip-path="url(#p34f1e249ce)" d="
M620.73 61.5094
L637.47 61.5094
L637.47 60.2016
L620.73 60.2016
L620.73 61.5094" style="fill:#f800ff;"/>
    <path clip-path="url(#p34f1e249ce)" d="
M620.73 60.2016
L637.47 60.2016
L637.47 58.8938
L620.73 58.8938
L620.73 60.2016" style="fill:#fe00ff;"/>
    <path clip-path="url(#p34f1e249ce)" d="
M620.73 58.8938
L637.47 58.8938
L637.47 57.5859
L620.73 57.5859
L620.73 58.8938" style="fill:#ff00fb;"/>
    <path clip-path="url(#p34f1e249ce)" d="
M620.73 57.5859
L637.47 57.5859
L637.47 56.2781
L620.73 56.2781
L620.73 57.5859" style="fill:#ff00f6;"/>
    <path clip-path="url(#p34f1e249ce)" d="
M620.73 56.2781
L637.47 56.2781
L637.47 54.9703
L620.73 54.9703
L620.73 56.2781" style="fill:#ff00f0;"/>
    <path clip-path="url(#p34f1e249ce)" d="
M620.73 54.9703
L637.47 54.9703
L637.47 53.6625
L620.73 53.6625
L620.73 54.9703" style="fill:#ff00eb;"/>
    <path clip-path="url(#p34f1e249ce)" d="
M620.73 53.6625
L637.47 53.6625
L637.47 52.3547
L620.73 52.3547
L620.73 53.6625" style="fill:#ff00e5;"/>
    <path clip-path="url(#p34f1e249ce)" d="
M620.73 52.3547
L637.47 52.3547
L637.47 51.0469
L620.73 51.0469
L620.73 52.3547" style="fill:#ff00e0;"/>
    <path clip-path="url(#p34f1e249ce)" d="
M620.73 51.0469
L637.47 51.0469
L637.47 49.7391
L620.73 49.7391
L620.73 51.0469" style="fill:#ff00da;"/>
    <path clip-path="url(#p34f1e249ce)" d="
M620.73 49.7391
L637.47 49.7391
L637.47 48.4312
L620.73 48.4312
L620.73 49.7391" style="fill:#ff00d5;"/>
    <path clip-path="url(#p34f1e249ce)" d="
M620.73 48.4312
L637.47 48.4312
L637.47 47.1234
L620.73 47.1234
L620.73 48.4312" style="fill:#ff00d0;"/>
    <path clip-path="url(#p34f1e249ce)" d="
M620.73 47.1234
L637.47 47.1234
L637.47 45.8156
L620.73 45.8156
L620.73 47.1234" style="fill:#ff00ca;"/>
    <path clip-path="url(#p34f1e249ce)" d="
M620.73 45.8156
L637.47 45.8156
L637.47 44.5078
L620.73 44.5078
L620.73 45.8156" style="fill:#ff00c5;"/>
    <path clip-path="url(#p34f1e249ce)" d="
M620.73 44.5078
L637.47 44.5078
L637.47 43.2
L620.73 43.2
L620.73 44.5078" style="fill:#ff00bf;"/>
   </g>
   <g id="patch_8">
    <path d="
M620.73 378
L620.73 376.692
L620.73 44.5078
L620.73 43.2
L637.47 43.2
L637.47 44.5078
L637.47 376.692
L637.47 378
L620.73 378" style="fill:none;stroke:#000000;stroke-linejoin:miter;"/>
   </g>
   <g id="matplotlib.axis_3"/>
   <g id="matplotlib.axis_4">
    <g id="ytick_11">
     <g id="line2d_38">
      <g>
       <use style="stroke:#000000;stroke-width:0.5;" x="637.47" xlink:href="#md9a1c1a7cd" y="378.0"/>
      </g>
     </g>
     <g id="text_20">
      <!-- 0 -->
      <g transform="translate(641.47 382.1390625)scale(0.15 -0.15)">
       <use xlink:href="#BitstreamVeraSans-Roman-30"/>
      </g>
     </g>
    </g>
    <g id="ytick_12">
     <g id="line2d_39">
      <g>
       <use style="stroke:#000000;stroke-width:0.5;" x="637.47" xlink:href="#md9a1c1a7cd" y="294.3"/>
      </g>
     </g>
     <g id="text_21">
      <!-- 1 -->
      <g transform="translate(641.47 298.4390625)scale(0.15 -0.15)">
       <use xlink:href="#BitstreamVeraSans-Roman-31"/>
      </g>
     </g>
    </g>
    <g id="ytick_13">
     <g id="line2d_40">
      <g>
       <use style="stroke:#000000;stroke-width:0.5;" x="637.47" xlink:href="#md9a1c1a7cd" y="210.6"/>
      </g>
     </g>
     <g id="text_22">
      <!-- 2 -->
      <g transform="translate(641.47 214.7390625)scale(0.15 -0.15)">
       <use xlink:href="#BitstreamVeraSans-Roman-32"/>
      </g>
     </g>
    </g>
    <g id="ytick_14">
     <g id="line2d_41">
      <g>
       <use style="stroke:#000000;stroke-width:0.5;" x="637.47" xlink:href="#md9a1c1a7cd" y="126.9"/>
      </g>
     </g>
     <g id="text_23">
      <!-- 3 -->
      <g transform="translate(641.47 131.0390625)scale(0.15 -0.15)">
       <use xlink:href="#BitstreamVeraSans-Roman-33"/>
      </g>
     </g>
    </g>
    <g id="ytick_15">
     <g id="line2d_42">
      <g>
       <use style="stroke:#000000;stroke-width:0.5;" x="637.47" xlink:href="#md9a1c1a7cd" y="43.2"/>
      </g>
     </g>
     <g id="text_24">
      <!-- 4 -->
      <g transform="translate(641.47 47.3390625)scale(0.15 -0.15)">
       <use xlink:href="#BitstreamVeraSans-Roman-34"/>
      </g>
     </g>
    </g>
   </g>
  </g>
 </g>
 <defs>
  <clipPath id="p9e94fa12de">
   <rect height="334.8" width="491.04" x="99.0" y="43.2"/>
  </clipPath>
  <clipPath id="p34f1e249ce">
   <rect height="334.8" width="16.74" x="620.73" y="43.2"/>
  </clipPath>
 </defs>
</svg>
