<?xml version="1.0" encoding="utf-8" standalone="no"?>
<!DOCTYPE svg PUBLIC "-//W3C//DTD SVG 1.1//EN"
  "http://www.w3.org/Graphics/SVG/1.1/DTD/svg11.dtd">
<!-- Created with matplotlib (http://matplotlib.org/) -->
<svg height="432pt" version="1.1" viewBox="0 0 792 432" width="792pt" xmlns="http://www.w3.org/2000/svg" xmlns:xlink="http://www.w3.org/1999/xlink">
 <defs>
  <style type="text/css">
*{stroke-linecap:butt;stroke-linejoin:round;}
  </style>
 </defs>
 <g id="figure_1">
  <g id="patch_1">
   <path d="
M0 432
L792 432
L792 0
L0 0
z
" style="fill:#ffffff;"/>
  </g>
  <g id="axes_1">
   <g id="patch_2">
    <path d="
M99 378
L712.8 378
L712.8 43.2
L99 43.2
z
" style="fill:#ffffff;"/>
   </g>
   <g id="line2d_1">
    <path clip-path="url(#p01a57c7be1)" d="
M107.057 378
L115.508 378
L116.276 375.196
L117.044 378
L118.581 378
L119.349 375.196
L120.117 375.196
L120.886 378
L121.654 375.196
L122.422 378
L123.19 378
L123.959 372.391
L124.727 378
L125.495 378
L126.263 372.391
L129.337 372.391
L130.105 375.196
L130.873 369.587
L131.641 372.391
L132.41 366.782
L133.178 372.391
L133.946 366.782
L134.715 369.587
L136.251 369.587
L137.019 361.174
L137.788 366.782
L138.556 361.174
L139.324 361.174
L140.861 355.565
L141.629 341.543
L142.397 338.738
L143.166 352.76
L143.934 347.152
L144.702 349.956
L145.47 355.565
L146.239 341.543
L147.007 344.347
L147.775 302.281
L148.543 293.868
L149.312 316.303
L150.08 296.673
L150.848 319.108
L151.617 333.13
L152.385 321.912
L153.153 333.13
L153.921 330.325
L154.69 305.086
L155.458 274.237
L156.226 260.215
L156.994 254.607
L157.763 271.433
L158.531 212.541
L159.299 257.411
L160.068 282.651
L160.836 279.846
L161.604 260.215
L162.372 248.998
L163.141 201.323
L163.909 206.932
L164.677 187.301
L165.445 145.235
L166.214 198.519
L166.982 198.519
L167.75 204.127
L168.519 243.389
L169.287 268.629
L170.055 215.345
L170.823 195.714
L171.592 150.844
L172.36 136.822
L173.128 77.9296
L173.897 134.018
L174.665 176.083
L175.433 240.585
L176.201 246.193
L176.97 198.519
L177.738 215.345
L178.506 117.191
L179.274 145.235
L180.043 86.3428
L180.811 100.365
L181.579 72.3208
L182.348 201.323
L183.116 229.367
L183.884 218.149
L184.652 254.607
L186.189 164.866
L186.957 103.169
L187.725 94.756
L188.494 49.8857
L189.262 117.191
L190.799 218.149
L191.567 268.629
L193.103 220.954
L193.872 173.279
L194.64 83.5384
L195.408 75.1252
L196.176 128.409
L196.945 153.648
L197.713 209.736
L198.481 257.411
L199.25 248.998
L200.018 279.846
L200.786 271.433
L201.554 170.475
L202.323 136.822
L203.859 119.996
L204.627 215.345
L205.396 279.846
L206.164 299.477
L206.932 274.237
L207.701 296.673
L208.469 274.237
L210.005 150.844
L210.774 181.692
L211.542 201.323
L212.31 206.932
L213.078 282.651
L213.847 321.912
L214.615 338.738
L215.383 313.499
L216.152 279.846
L217.688 111.582
L218.456 162.062
L219.225 178.888
L219.993 260.215
L220.761 305.086
L221.53 330.325
L222.298 316.303
L223.066 335.934
L223.834 251.802
L224.603 263.02
L225.371 190.105
L226.139 204.127
L226.907 181.692
L227.676 277.042
L228.444 321.912
L229.212 319.108
L229.981 335.934
L230.749 302.281
L232.285 212.541
L233.054 192.91
L233.822 148.04
L234.59 204.127
L235.358 229.367
L236.895 333.13
L237.663 316.303
L238.432 279.846
L239.2 254.607
L239.968 220.954
L240.736 128.409
L241.505 131.213
L242.273 173.279
L243.041 237.78
L243.809 277.042
L244.578 324.716
L245.346 324.716
L246.883 246.193
L247.651 148.04
L248.419 167.67
L249.187 119.996
L250.724 229.367
L251.492 279.846
L252.26 305.086
L253.029 288.259
L253.797 307.89
L254.565 220.954
L255.334 223.758
L256.102 150.844
L256.87 114.387
L257.638 156.453
L259.943 302.281
L260.712 296.673
L261.48 302.281
L262.248 237.78
L263.016 206.932
L263.785 164.866
L264.553 192.91
L265.321 237.78
L266.089 240.585
L266.858 277.042
L267.626 305.086
L268.394 293.868
L269.163 330.325
L269.931 265.824
L270.699 288.259
L271.467 260.215
L272.236 243.389
L273.004 243.389
L273.772 288.259
L274.54 319.108
L275.309 313.499
L276.077 344.347
L276.845 319.108
L277.614 338.738
L278.382 307.89
L279.15 305.086
L279.918 310.694
L280.687 302.281
L281.455 324.716
L282.223 330.325
L282.991 349.956
L283.76 349.956
L284.528 355.565
L285.296 321.912
L286.065 333.13
L286.833 324.716
L287.601 341.543
L288.369 313.499
L289.138 347.152
L289.906 344.347
L290.674 355.565
L291.442 358.369
L292.211 349.956
L292.979 307.89
L293.747 327.521
L294.516 321.912
L296.052 355.565
L296.82 361.174
L297.589 369.587
L298.357 355.565
L299.125 352.76
L299.894 338.738
L300.662 344.347
L301.43 333.13
L302.198 330.325
L302.967 355.565
L303.735 355.565
L304.503 358.369
L305.271 366.782
L306.04 361.174
L307.576 324.716
L308.345 296.673
L309.113 291.064
L309.881 313.499
L310.649 330.325
L311.418 335.934
L312.186 349.956
L312.954 366.782
L313.722 338.738
L314.491 319.108
L315.259 291.064
L316.027 282.651
L316.796 277.042
L317.564 285.455
L318.332 291.064
L319.1 313.499
L319.869 324.716
L320.637 344.347
L321.405 333.13
L322.173 305.086
L322.942 251.802
L323.71 263.02
L324.478 192.91
L325.247 240.585
L326.015 296.673
L326.783 291.064
L327.551 335.934
L328.32 347.152
L329.088 316.303
L330.624 220.954
L331.393 204.127
L332.161 206.932
L332.929 234.976
L333.698 279.846
L334.466 277.042
L335.234 344.347
L336.002 341.543
L336.771 330.325
L337.539 268.629
L338.307 271.433
L339.075 234.976
L339.844 226.563
L340.612 243.389
L341.38 277.042
L342.149 321.912
L342.917 341.543
L343.685 338.738
L344.453 333.13
L345.222 310.694
L345.99 248.998
L346.758 246.193
L347.527 232.171
L348.295 265.824
L349.063 305.086
L349.831 299.477
L350.6 349.956
L351.368 347.152
L352.136 319.108
L352.904 307.89
L353.673 291.064
L354.441 268.629
L355.209 277.042
L355.978 291.064
L356.746 293.868
L357.514 321.912
L358.282 338.738
L359.051 324.716
L359.819 330.325
L360.587 319.108
L361.355 319.108
L362.124 305.086
L362.892 338.738
L363.66 327.521
L364.429 310.694
L365.197 344.347
L365.965 305.086
L366.733 302.281
L367.502 288.259
L368.27 319.108
L369.806 341.543
L370.575 330.325
L371.343 324.716
L372.111 341.543
L372.88 313.499
L373.648 302.281
L374.416 285.455
L375.184 285.455
L375.953 327.521
L376.721 333.13
L377.489 347.152
L378.257 363.978
L379.026 333.13
L379.794 313.499
L380.562 299.477
L381.331 282.651
L382.099 282.651
L382.867 299.477
L384.404 321.912
L385.172 352.76
L385.94 361.174
L386.709 349.956
L387.477 330.325
L388.245 268.629
L389.013 271.433
L389.782 248.998
L390.55 260.215
L391.318 299.477
L392.086 321.912
L392.855 361.174
L394.391 355.565
L395.928 296.673
L396.696 254.607
L397.464 274.237
L398.233 277.042
L399.001 313.499
L399.769 330.325
L400.537 358.369
L401.306 363.978
L402.074 352.76
L402.842 324.716
L403.611 319.108
L404.379 310.694
L405.147 296.673
L405.915 299.477
L406.684 319.108
L407.452 358.369
L408.22 366.782
L408.988 363.978
L409.757 366.782
L410.525 352.76
L411.293 310.694
L412.062 341.543
L412.83 327.521
L413.598 296.673
L414.366 341.543
L415.135 363.978
L416.671 369.587
L417.439 378
L418.976 361.174
L419.744 355.565
L420.513 355.565
L421.281 369.587
L423.586 361.174
L424.354 378
L425.122 378
L425.89 369.587
L426.659 378
L427.427 366.782
L428.195 344.347
L428.964 372.391
L429.732 369.587
L430.5 378
L431.268 372.391
L432.037 375.196
L435.11 375.196
L435.878 378
L436.646 375.196
L437.415 369.587
L438.183 372.391
L438.951 372.391
L440.488 378
L441.256 378
L442.024 372.391
L443.561 372.391
L444.329 363.978
L445.097 369.587
L445.866 369.587
L446.634 378
L448.939 378
L449.707 375.196
L450.475 375.196
L452.012 363.978
L452.78 363.978
L453.548 366.782
L454.317 375.196
L455.085 372.391
L455.853 378
L456.621 369.587
L457.39 372.391
L458.158 369.587
L458.926 372.391
L459.695 358.369
L460.463 363.978
L461.231 358.369
L461.999 369.587
L462.768 358.369
L463.536 375.196
L464.304 369.587
L465.072 361.174
L465.841 349.956
L466.609 352.76
L467.377 352.76
L468.914 330.325
L469.682 349.956
L470.45 355.565
L471.219 366.782
L471.987 366.782
L472.755 363.978
L473.524 363.978
L474.292 352.76
L475.06 344.347
L475.828 344.347
L476.597 352.76
L477.365 344.347
L478.133 363.978
L478.901 369.587
L479.67 372.391
L480.438 366.782
L481.206 366.782
L481.975 355.565
L482.743 347.152
L483.511 344.347
L484.279 352.76
L485.048 344.347
L485.816 361.174
L486.584 372.391
L487.352 378
L488.121 366.782
L488.889 375.196
L489.657 352.76
L490.426 349.956
L491.194 352.76
L491.962 361.174
L492.73 361.174
L493.499 369.587
L494.267 375.196
L495.035 375.196
L495.803 378
L496.572 375.196
L497.34 361.174
L498.108 358.369
L499.645 369.587
L500.413 369.587
L501.181 372.391
L501.95 366.782
L502.718 375.196
L503.486 363.978
L504.254 369.587
L505.023 378
L505.791 372.391
L506.559 363.978
L507.328 358.369
L508.096 358.369
L508.864 355.565
L509.632 363.978
L510.401 358.369
L511.169 378
L511.937 375.196
L512.706 363.978
L513.474 372.391
L514.242 355.565
L515.01 361.174
L515.779 333.13
L516.547 341.543
L517.315 355.565
L518.083 363.978
L518.852 366.782
L519.62 355.565
L520.388 366.782
L521.157 366.782
L521.925 338.738
L523.461 338.738
L524.23 321.912
L524.998 316.303
L525.766 330.325
L526.534 366.782
L527.303 355.565
L528.071 369.587
L528.839 369.587
L529.608 361.174
L530.376 355.565
L531.144 327.521
L531.912 307.89
L532.681 335.934
L534.985 352.76
L535.754 372.391
L536.522 361.174
L537.29 352.76
L538.059 341.543
L538.827 327.521
L539.595 288.259
L540.363 319.108
L541.132 341.543
L541.9 347.152
L542.668 363.978
L543.436 366.782
L544.205 355.565
L544.973 349.956
L545.741 335.934
L546.51 324.716
L547.278 327.521
L548.046 347.152
L548.814 341.543
L549.583 358.369
L550.351 361.174
L551.119 372.391
L551.887 363.978
L552.656 352.76
L554.192 341.543
L554.961 347.152
L555.729 319.108
L556.497 358.369
L557.265 355.565
L558.034 366.782
L558.802 375.196
L559.57 378
L560.339 363.978
L561.107 366.782
L561.875 355.565
L562.643 347.152
L564.18 358.369
L564.948 378
L565.716 369.587
L566.485 369.587
L567.253 372.391
L568.021 372.391
L568.79 363.978
L569.558 363.978
L570.326 366.782
L571.094 366.782
L571.863 375.196
L572.631 375.196
L573.399 378
L574.167 378
L574.936 372.391
L576.472 378
L577.241 372.391
L578.009 375.196
L579.545 363.978
L580.314 372.391
L581.082 375.196
L581.85 375.196
L582.618 378
L583.387 375.196
L584.155 375.196
L584.923 378
L585.692 378
L586.46 375.196
L587.228 378
L587.996 375.196
L588.765 375.196
L589.533 378
L591.838 378
L592.606 375.196
L594.143 375.196
L594.911 369.587
L595.679 369.587
L596.447 378
L598.752 378
L599.521 375.196
L600.289 361.174
L601.057 378
L601.825 358.369
L602.594 366.782
L603.362 366.782
L604.13 375.196
L604.898 369.587
L605.667 369.587
L606.435 375.196
L607.203 361.174
L607.972 369.587
L608.74 361.174
L610.276 349.956
L611.045 349.956
L611.813 361.174
L612.581 361.174
L614.118 378
L614.886 369.587
L615.654 349.956
L616.423 352.76
L617.959 352.76
L618.727 347.152
L619.496 352.76
L620.264 372.391
L621.032 369.587
L621.8 372.391
L622.569 369.587
L623.337 358.369
L624.105 361.174
L625.642 349.956
L626.41 361.174
L627.178 352.76
L627.947 363.978
L628.715 363.978
L629.483 366.782
L630.251 372.391
L631.02 369.587
L631.788 352.76
L632.556 330.325
L633.325 338.738
L634.093 310.694
L634.861 333.13
L635.629 369.587
L636.398 363.978
L637.166 372.391
L637.934 372.391
L640.239 330.325
L641.007 313.499
L641.776 333.13
L642.544 338.738
L643.312 355.565
L644.08 375.196
L644.849 363.978
L645.617 372.391
L646.385 358.369
L647.154 358.369
L647.922 341.543
L648.69 335.934
L649.458 335.934
L650.227 366.782
L650.995 358.369
L651.763 369.587
L652.531 378
L653.3 369.587
L654.068 375.196
L654.836 366.782
L655.605 352.76
L656.373 378
L657.141 352.76
L657.909 363.978
L659.446 375.196
L660.214 378
L662.519 378
L663.287 363.978
L664.056 363.978
L664.824 372.391
L665.592 366.782
L667.129 378
L668.665 378
L669.433 375.196
L670.202 378
L670.97 369.587
L671.738 372.391
L672.507 369.587
L673.275 375.196
L674.043 378
L676.348 378
L677.116 375.196
L677.884 375.196
L678.653 369.587
L679.421 378
L681.726 378
L681.726 378" style="fill:none;stroke:#000000;stroke-linecap:square;"/>
   </g>
   <g id="patch_3">
    <path d="
M99 43.2
L712.8 43.2" style="fill:none;stroke:#000000;stroke-linecap:square;stroke-linejoin:miter;"/>
   </g>
   <g id="patch_4">
    <path d="
M712.8 378
L712.8 43.2" style="fill:none;stroke:#000000;stroke-linecap:square;stroke-linejoin:miter;"/>
   </g>
   <g id="patch_5">
    <path d="
M99 378
L712.8 378" style="fill:none;stroke:#000000;stroke-linecap:square;stroke-linejoin:miter;"/>
   </g>
   <g id="patch_6">
    <path d="
M99 378
L99 43.2" style="fill:none;stroke:#000000;stroke-linecap:square;stroke-linejoin:miter;"/>
   </g>
   <g id="matplotlib.axis_1">
    <g id="xtick_1">
     <g id="line2d_2">
      <defs>
       <path d="
M0 0
L0 -4" id="mc7db9fdffb" style="stroke:#000000;stroke-width:0.5;"/>
      </defs>
      <g>
       <use style="stroke:#000000;stroke-width:0.5;" x="99.0" xlink:href="#mc7db9fdffb" y="378.0"/>
      </g>
     </g>
     <g id="line2d_3">
      <defs>
       <path d="
M0 0
L0 4" id="m5a7d422ac3" style="stroke:#000000;stroke-width:0.5;"/>
      </defs>
      <g>
       <use style="stroke:#000000;stroke-width:0.5;" x="99.0" xlink:href="#m5a7d422ac3" y="43.2"/>
      </g>
     </g>
     <g id="text_1">
      <!-- 0 -->
      <defs>
       <path d="
M31.7812 66.4062
Q24.1719 66.4062 20.3281 58.9062
Q16.5 51.4219 16.5 36.375
Q16.5 21.3906 20.3281 13.8906
Q24.1719 6.39062 31.7812 6.39062
Q39.4531 6.39062 43.2812 13.8906
Q47.125 21.3906 47.125 36.375
Q47.125 51.4219 43.2812 58.9062
Q39.4531 66.4062 31.7812 66.4062
M31.7812 74.2188
Q44.0469 74.2188 50.5156 64.5156
Q56.9844 54.8281 56.9844 36.375
Q56.9844 17.9688 50.5156 8.26562
Q44.0469 -1.42188 31.7812 -1.42188
Q19.5312 -1.42188 13.0625 8.26562
Q6.59375 17.9688 6.59375 36.375
Q6.59375 54.8281 13.0625 64.5156
Q19.5312 74.2188 31.7812 74.2188" id="BitstreamVeraSans-Roman-30"/>
      </defs>
      <g transform="translate(95.47265625 392.6378125)scale(0.14 -0.14)">
       <use xlink:href="#BitstreamVeraSans-Roman-30"/>
      </g>
     </g>
    </g>
    <g id="xtick_2">
     <g id="line2d_4">
      <g>
       <use style="stroke:#000000;stroke-width:0.5;" x="175.725" xlink:href="#mc7db9fdffb" y="378.0"/>
      </g>
     </g>
     <g id="line2d_5">
      <g>
       <use style="stroke:#000000;stroke-width:0.5;" x="175.725" xlink:href="#m5a7d422ac3" y="43.2"/>
      </g>
     </g>
     <g id="text_2">
      <!-- 100 -->
      <defs>
       <path d="
M12.4062 8.29688
L28.5156 8.29688
L28.5156 63.9219
L10.9844 60.4062
L10.9844 69.3906
L28.4219 72.9062
L38.2812 72.9062
L38.2812 8.29688
L54.3906 8.29688
L54.3906 0
L12.4062 0
z
" id="BitstreamVeraSans-Roman-31"/>
      </defs>
      <g transform="translate(163.5975 392.6378125)scale(0.14 -0.14)">
       <use xlink:href="#BitstreamVeraSans-Roman-31"/>
       <use x="63.623046875" xlink:href="#BitstreamVeraSans-Roman-30"/>
       <use x="127.24609375" xlink:href="#BitstreamVeraSans-Roman-30"/>
      </g>
     </g>
    </g>
    <g id="xtick_3">
     <g id="line2d_6">
      <g>
       <use style="stroke:#000000;stroke-width:0.5;" x="252.45" xlink:href="#mc7db9fdffb" y="378.0"/>
      </g>
     </g>
     <g id="line2d_7">
      <g>
       <use style="stroke:#000000;stroke-width:0.5;" x="252.45" xlink:href="#m5a7d422ac3" y="43.2"/>
      </g>
     </g>
     <g id="text_3">
      <!-- 200 -->
      <defs>
       <path d="
M19.1875 8.29688
L53.6094 8.29688
L53.6094 0
L7.32812 0
L7.32812 8.29688
Q12.9375 14.1094 22.625 23.8906
Q32.3281 33.6875 34.8125 36.5312
Q39.5469 41.8438 41.4219 45.5312
Q43.3125 49.2188 43.3125 52.7812
Q43.3125 58.5938 39.2344 62.25
Q35.1562 65.9219 28.6094 65.9219
Q23.9688 65.9219 18.8125 64.3125
Q13.6719 62.7031 7.8125 59.4219
L7.8125 69.3906
Q13.7656 71.7812 18.9375 73
Q24.125 74.2188 28.4219 74.2188
Q39.75 74.2188 46.4844 68.5469
Q53.2188 62.8906 53.2188 53.4219
Q53.2188 48.9219 51.5312 44.8906
Q49.8594 40.875 45.4062 35.4062
Q44.1875 33.9844 37.6406 27.2188
Q31.1094 20.4531 19.1875 8.29688" id="BitstreamVeraSans-Roman-32"/>
      </defs>
      <g transform="translate(240.0665625 392.6378125)scale(0.14 -0.14)">
       <use xlink:href="#BitstreamVeraSans-Roman-32"/>
       <use x="63.623046875" xlink:href="#BitstreamVeraSans-Roman-30"/>
       <use x="127.24609375" xlink:href="#BitstreamVeraSans-Roman-30"/>
      </g>
     </g>
    </g>
    <g id="xtick_4">
     <g id="line2d_8">
      <g>
       <use style="stroke:#000000;stroke-width:0.5;" x="329.175" xlink:href="#mc7db9fdffb" y="378.0"/>
      </g>
     </g>
     <g id="line2d_9">
      <g>
       <use style="stroke:#000000;stroke-width:0.5;" x="329.175" xlink:href="#m5a7d422ac3" y="43.2"/>
      </g>
     </g>
     <g id="text_4">
      <!-- 300 -->
      <defs>
       <path d="
M40.5781 39.3125
Q47.6562 37.7969 51.625 33
Q55.6094 28.2188 55.6094 21.1875
Q55.6094 10.4062 48.1875 4.48438
Q40.7656 -1.42188 27.0938 -1.42188
Q22.5156 -1.42188 17.6562 -0.515625
Q12.7969 0.390625 7.625 2.20312
L7.625 11.7188
Q11.7188 9.32812 16.5938 8.10938
Q21.4844 6.89062 26.8125 6.89062
Q36.0781 6.89062 40.9375 10.5469
Q45.7969 14.2031 45.7969 21.1875
Q45.7969 27.6406 41.2812 31.2656
Q36.7656 34.9062 28.7188 34.9062
L20.2188 34.9062
L20.2188 43.0156
L29.1094 43.0156
Q36.375 43.0156 40.2344 45.9219
Q44.0938 48.8281 44.0938 54.2969
Q44.0938 59.9062 40.1094 62.9062
Q36.1406 65.9219 28.7188 65.9219
Q24.6562 65.9219 20.0156 65.0312
Q15.375 64.1562 9.8125 62.3125
L9.8125 71.0938
Q15.4375 72.6562 20.3438 73.4375
Q25.25 74.2188 29.5938 74.2188
Q40.8281 74.2188 47.3594 69.1094
Q53.9062 64.0156 53.9062 55.3281
Q53.9062 49.2656 50.4375 45.0938
Q46.9688 40.9219 40.5781 39.3125" id="BitstreamVeraSans-Roman-33"/>
      </defs>
      <g transform="translate(316.81234375 392.6378125)scale(0.14 -0.14)">
       <use xlink:href="#BitstreamVeraSans-Roman-33"/>
       <use x="63.623046875" xlink:href="#BitstreamVeraSans-Roman-30"/>
       <use x="127.24609375" xlink:href="#BitstreamVeraSans-Roman-30"/>
      </g>
     </g>
    </g>
    <g id="xtick_5">
     <g id="line2d_10">
      <g>
       <use style="stroke:#000000;stroke-width:0.5;" x="405.9" xlink:href="#mc7db9fdffb" y="378.0"/>
      </g>
     </g>
     <g id="line2d_11">
      <g>
       <use style="stroke:#000000;stroke-width:0.5;" x="405.9" xlink:href="#m5a7d422ac3" y="43.2"/>
      </g>
     </g>
     <g id="text_5">
      <!-- 400 -->
      <defs>
       <path d="
M37.7969 64.3125
L12.8906 25.3906
L37.7969 25.3906
z

M35.2031 72.9062
L47.6094 72.9062
L47.6094 25.3906
L58.0156 25.3906
L58.0156 17.1875
L47.6094 17.1875
L47.6094 0
L37.7969 0
L37.7969 17.1875
L4.89062 17.1875
L4.89062 26.7031
z
" id="BitstreamVeraSans-Roman-34"/>
      </defs>
      <g transform="translate(393.3459375 392.6378125)scale(0.14 -0.14)">
       <use xlink:href="#BitstreamVeraSans-Roman-34"/>
       <use x="63.623046875" xlink:href="#BitstreamVeraSans-Roman-30"/>
       <use x="127.24609375" xlink:href="#BitstreamVeraSans-Roman-30"/>
      </g>
     </g>
    </g>
    <g id="xtick_6">
     <g id="line2d_12">
      <g>
       <use style="stroke:#000000;stroke-width:0.5;" x="482.625" xlink:href="#mc7db9fdffb" y="378.0"/>
      </g>
     </g>
     <g id="line2d_13">
      <g>
       <use style="stroke:#000000;stroke-width:0.5;" x="482.625" xlink:href="#m5a7d422ac3" y="43.2"/>
      </g>
     </g>
     <g id="text_6">
      <!-- 500 -->
      <defs>
       <path d="
M10.7969 72.9062
L49.5156 72.9062
L49.5156 64.5938
L19.8281 64.5938
L19.8281 46.7344
Q21.9688 47.4688 24.1094 47.8281
Q26.2656 48.1875 28.4219 48.1875
Q40.625 48.1875 47.75 41.5
Q54.8906 34.8125 54.8906 23.3906
Q54.8906 11.625 47.5625 5.09375
Q40.2344 -1.42188 26.9062 -1.42188
Q22.3125 -1.42188 17.5469 -0.640625
Q12.7969 0.140625 7.71875 1.70312
L7.71875 11.625
Q12.1094 9.23438 16.7969 8.0625
Q21.4844 6.89062 26.7031 6.89062
Q35.1562 6.89062 40.0781 11.3281
Q45.0156 15.7656 45.0156 23.3906
Q45.0156 31 40.0781 35.4375
Q35.1562 39.8906 26.7031 39.8906
Q22.75 39.8906 18.8125 39.0156
Q14.8906 38.1406 10.7969 36.2812
z
" id="BitstreamVeraSans-Roman-35"/>
      </defs>
      <g transform="translate(470.26890625 392.6378125)scale(0.14 -0.14)">
       <use xlink:href="#BitstreamVeraSans-Roman-35"/>
       <use x="63.623046875" xlink:href="#BitstreamVeraSans-Roman-30"/>
       <use x="127.24609375" xlink:href="#BitstreamVeraSans-Roman-30"/>
      </g>
     </g>
    </g>
    <g id="xtick_7">
     <g id="line2d_14">
      <g>
       <use style="stroke:#000000;stroke-width:0.5;" x="559.35" xlink:href="#mc7db9fdffb" y="378.0"/>
      </g>
     </g>
     <g id="line2d_15">
      <g>
       <use style="stroke:#000000;stroke-width:0.5;" x="559.35" xlink:href="#m5a7d422ac3" y="43.2"/>
      </g>
     </g>
     <g id="text_7">
      <!-- 600 -->
      <defs>
       <path d="
M33.0156 40.375
Q26.375 40.375 22.4844 35.8281
Q18.6094 31.2969 18.6094 23.3906
Q18.6094 15.5312 22.4844 10.9531
Q26.375 6.39062 33.0156 6.39062
Q39.6562 6.39062 43.5312 10.9531
Q47.4062 15.5312 47.4062 23.3906
Q47.4062 31.2969 43.5312 35.8281
Q39.6562 40.375 33.0156 40.375
M52.5938 71.2969
L52.5938 62.3125
Q48.875 64.0625 45.0938 64.9844
Q41.3125 65.9219 37.5938 65.9219
Q27.8281 65.9219 22.6719 59.3281
Q17.5312 52.7344 16.7969 39.4062
Q19.6719 43.6562 24.0156 45.9219
Q28.375 48.1875 33.5938 48.1875
Q44.5781 48.1875 50.9531 41.5156
Q57.3281 34.8594 57.3281 23.3906
Q57.3281 12.1562 50.6875 5.35938
Q44.0469 -1.42188 33.0156 -1.42188
Q20.3594 -1.42188 13.6719 8.26562
Q6.98438 17.9688 6.98438 36.375
Q6.98438 53.6562 15.1875 63.9375
Q23.3906 74.2188 37.2031 74.2188
Q40.9219 74.2188 44.7031 73.4844
Q48.4844 72.75 52.5938 71.2969" id="BitstreamVeraSans-Roman-36"/>
      </defs>
      <g transform="translate(546.9425 392.6378125)scale(0.14 -0.14)">
       <use xlink:href="#BitstreamVeraSans-Roman-36"/>
       <use x="63.623046875" xlink:href="#BitstreamVeraSans-Roman-30"/>
       <use x="127.24609375" xlink:href="#BitstreamVeraSans-Roman-30"/>
      </g>
     </g>
    </g>
    <g id="xtick_8">
     <g id="line2d_16">
      <g>
       <use style="stroke:#000000;stroke-width:0.5;" x="636.075" xlink:href="#mc7db9fdffb" y="378.0"/>
      </g>
     </g>
     <g id="line2d_17">
      <g>
       <use style="stroke:#000000;stroke-width:0.5;" x="636.075" xlink:href="#m5a7d422ac3" y="43.2"/>
      </g>
     </g>
     <g id="text_8">
      <!-- 700 -->
      <defs>
       <path d="
M8.20312 72.9062
L55.0781 72.9062
L55.0781 68.7031
L28.6094 0
L18.3125 0
L43.2188 64.5938
L8.20312 64.5938
z
" id="BitstreamVeraSans-Roman-37"/>
      </defs>
      <g transform="translate(623.7528125 392.6378125)scale(0.14 -0.14)">
       <use xlink:href="#BitstreamVeraSans-Roman-37"/>
       <use x="63.623046875" xlink:href="#BitstreamVeraSans-Roman-30"/>
       <use x="127.24609375" xlink:href="#BitstreamVeraSans-Roman-30"/>
      </g>
     </g>
    </g>
    <g id="xtick_9">
     <g id="line2d_18">
      <g>
       <use style="stroke:#000000;stroke-width:0.5;" x="712.8" xlink:href="#mc7db9fdffb" y="378.0"/>
      </g>
     </g>
     <g id="line2d_19">
      <g>
       <use style="stroke:#000000;stroke-width:0.5;" x="712.8" xlink:href="#m5a7d422ac3" y="43.2"/>
      </g>
     </g>
     <g id="text_9">
      <!-- 800 -->
      <defs>
       <path d="
M31.7812 34.625
Q24.75 34.625 20.7188 30.8594
Q16.7031 27.0938 16.7031 20.5156
Q16.7031 13.9219 20.7188 10.1562
Q24.75 6.39062 31.7812 6.39062
Q38.8125 6.39062 42.8594 10.1719
Q46.9219 13.9688 46.9219 20.5156
Q46.9219 27.0938 42.8906 30.8594
Q38.875 34.625 31.7812 34.625
M21.9219 38.8125
Q15.5781 40.375 12.0312 44.7188
Q8.5 49.0781 8.5 55.3281
Q8.5 64.0625 14.7188 69.1406
Q20.9531 74.2188 31.7812 74.2188
Q42.6719 74.2188 48.875 69.1406
Q55.0781 64.0625 55.0781 55.3281
Q55.0781 49.0781 51.5312 44.7188
Q48 40.375 41.7031 38.8125
Q48.8281 37.1562 52.7969 32.3125
Q56.7812 27.4844 56.7812 20.5156
Q56.7812 9.90625 50.3125 4.23438
Q43.8438 -1.42188 31.7812 -1.42188
Q19.7344 -1.42188 13.25 4.23438
Q6.78125 9.90625 6.78125 20.5156
Q6.78125 27.4844 10.7812 32.3125
Q14.7969 37.1562 21.9219 38.8125
M18.3125 54.3906
Q18.3125 48.7344 21.8438 45.5625
Q25.3906 42.3906 31.7812 42.3906
Q38.1406 42.3906 41.7188 45.5625
Q45.3125 48.7344 45.3125 54.3906
Q45.3125 60.0625 41.7188 63.2344
Q38.1406 66.4062 31.7812 66.4062
Q25.3906 66.4062 21.8438 63.2344
Q18.3125 60.0625 18.3125 54.3906" id="BitstreamVeraSans-Roman-38"/>
      </defs>
      <g transform="translate(700.37828125 392.6378125)scale(0.14 -0.14)">
       <use xlink:href="#BitstreamVeraSans-Roman-38"/>
       <use x="63.623046875" xlink:href="#BitstreamVeraSans-Roman-30"/>
       <use x="127.24609375" xlink:href="#BitstreamVeraSans-Roman-30"/>
      </g>
     </g>
    </g>
    <g id="text_10">
     <!-- Time difference /ms -->
     <defs>
      <path d="
M52 44.1875
Q55.375 50.25 60.0625 53.125
Q64.75 56 71.0938 56
Q79.6406 56 84.2812 50.0156
Q88.9219 44.0469 88.9219 33.0156
L88.9219 0
L79.8906 0
L79.8906 32.7188
Q79.8906 40.5781 77.0938 44.375
Q74.3125 48.1875 68.6094 48.1875
Q61.625 48.1875 57.5625 43.5469
Q53.5156 38.9219 53.5156 30.9062
L53.5156 0
L44.4844 0
L44.4844 32.7188
Q44.4844 40.625 41.7031 44.4062
Q38.9219 48.1875 33.1094 48.1875
Q26.2188 48.1875 22.1562 43.5312
Q18.1094 38.875 18.1094 30.9062
L18.1094 0
L9.07812 0
L9.07812 54.6875
L18.1094 54.6875
L18.1094 46.1875
Q21.1875 51.2188 25.4844 53.6094
Q29.7812 56 35.6875 56
Q41.6562 56 45.8281 52.9688
Q50 49.9531 52 44.1875" id="BitstreamVeraSans-Roman-6d"/>
      <path d="
M48.7812 52.5938
L48.7812 44.1875
Q44.9688 46.2969 41.1406 47.3438
Q37.3125 48.3906 33.4062 48.3906
Q24.6562 48.3906 19.8125 42.8438
Q14.9844 37.3125 14.9844 27.2969
Q14.9844 17.2812 19.8125 11.7344
Q24.6562 6.20312 33.4062 6.20312
Q37.3125 6.20312 41.1406 7.25
Q44.9688 8.29688 48.7812 10.4062
L48.7812 2.09375
Q45.0156 0.34375 40.9844 -0.53125
Q36.9688 -1.42188 32.4219 -1.42188
Q20.0625 -1.42188 12.7812 6.34375
Q5.51562 14.1094 5.51562 27.2969
Q5.51562 40.6719 12.8594 48.3281
Q20.2188 56 33.0156 56
Q37.1562 56 41.1094 55.1406
Q45.0625 54.2969 48.7812 52.5938" id="BitstreamVeraSans-Roman-63"/>
      <path d="
M45.4062 46.3906
L45.4062 75.9844
L54.3906 75.9844
L54.3906 0
L45.4062 0
L45.4062 8.20312
Q42.5781 3.32812 38.25 0.953125
Q33.9375 -1.42188 27.875 -1.42188
Q17.9688 -1.42188 11.7344 6.48438
Q5.51562 14.4062 5.51562 27.2969
Q5.51562 40.1875 11.7344 48.0938
Q17.9688 56 27.875 56
Q33.9375 56 38.25 53.625
Q42.5781 51.2656 45.4062 46.3906
M14.7969 27.2969
Q14.7969 17.3906 18.875 11.75
Q22.9531 6.10938 30.0781 6.10938
Q37.2031 6.10938 41.2969 11.75
Q45.4062 17.3906 45.4062 27.2969
Q45.4062 37.2031 41.2969 42.8438
Q37.2031 48.4844 30.0781 48.4844
Q22.9531 48.4844 18.875 42.8438
Q14.7969 37.2031 14.7969 27.2969" id="BitstreamVeraSans-Roman-64"/>
      <path d="
M37.1094 75.9844
L37.1094 68.5
L28.5156 68.5
Q23.6875 68.5 21.7969 66.5469
Q19.9219 64.5938 19.9219 59.5156
L19.9219 54.6875
L34.7188 54.6875
L34.7188 47.7031
L19.9219 47.7031
L19.9219 0
L10.8906 0
L10.8906 47.7031
L2.29688 47.7031
L2.29688 54.6875
L10.8906 54.6875
L10.8906 58.5
Q10.8906 67.625 15.1406 71.7969
Q19.3906 75.9844 28.6094 75.9844
z
" id="BitstreamVeraSans-Roman-66"/>
      <path d="
M9.42188 54.6875
L18.4062 54.6875
L18.4062 0
L9.42188 0
z

M9.42188 75.9844
L18.4062 75.9844
L18.4062 64.5938
L9.42188 64.5938
z
" id="BitstreamVeraSans-Roman-69"/>
      <path d="
M44.2812 53.0781
L44.2812 44.5781
Q40.4844 46.5312 36.375 47.5
Q32.2812 48.4844 27.875 48.4844
Q21.1875 48.4844 17.8438 46.4375
Q14.5 44.3906 14.5 40.2812
Q14.5 37.1562 16.8906 35.375
Q19.2812 33.5938 26.5156 31.9844
L29.5938 31.2969
Q39.1562 29.25 43.1875 25.5156
Q47.2188 21.7812 47.2188 15.0938
Q47.2188 7.46875 41.1875 3.01562
Q35.1562 -1.42188 24.6094 -1.42188
Q20.2188 -1.42188 15.4531 -0.5625
Q10.6875 0.296875 5.42188 2
L5.42188 11.2812
Q10.4062 8.6875 15.2344 7.39062
Q20.0625 6.10938 24.8125 6.10938
Q31.1562 6.10938 34.5625 8.28125
Q37.9844 10.4531 37.9844 14.4062
Q37.9844 18.0625 35.5156 20.0156
Q33.0625 21.9688 24.7031 23.7812
L21.5781 24.5156
Q13.2344 26.2656 9.51562 29.9062
Q5.8125 33.5469 5.8125 39.8906
Q5.8125 47.6094 11.2812 51.7969
Q16.75 56 26.8125 56
Q31.7812 56 36.1719 55.2656
Q40.5781 54.5469 44.2812 53.0781" id="BitstreamVeraSans-Roman-73"/>
      <path d="
M-0.296875 72.9062
L61.375 72.9062
L61.375 64.5938
L35.5 64.5938
L35.5 0
L25.5938 0
L25.5938 64.5938
L-0.296875 64.5938
z
" id="BitstreamVeraSans-Roman-54"/>
      <path d="
M56.2031 29.5938
L56.2031 25.2031
L14.8906 25.2031
Q15.4844 15.9219 20.4844 11.0625
Q25.4844 6.20312 34.4219 6.20312
Q39.5938 6.20312 44.4531 7.46875
Q49.3125 8.73438 54.1094 11.2812
L54.1094 2.78125
Q49.2656 0.734375 44.1875 -0.34375
Q39.1094 -1.42188 33.8906 -1.42188
Q20.7969 -1.42188 13.1562 6.1875
Q5.51562 13.8125 5.51562 26.8125
Q5.51562 40.2344 12.7656 48.1094
Q20.0156 56 32.3281 56
Q43.3594 56 49.7812 48.8906
Q56.2031 41.7969 56.2031 29.5938
M47.2188 32.2344
Q47.125 39.5938 43.0938 43.9844
Q39.0625 48.3906 32.4219 48.3906
Q24.9062 48.3906 20.3906 44.1406
Q15.875 39.8906 15.1875 32.1719
z
" id="BitstreamVeraSans-Roman-65"/>
      <path id="BitstreamVeraSans-Roman-20"/>
      <path d="
M54.8906 33.0156
L54.8906 0
L45.9062 0
L45.9062 32.7188
Q45.9062 40.4844 42.875 44.3281
Q39.8438 48.1875 33.7969 48.1875
Q26.5156 48.1875 22.3125 43.5469
Q18.1094 38.9219 18.1094 30.9062
L18.1094 0
L9.07812 0
L9.07812 54.6875
L18.1094 54.6875
L18.1094 46.1875
Q21.3438 51.125 25.7031 53.5625
Q30.0781 56 35.7969 56
Q45.2188 56 50.0469 50.1719
Q54.8906 44.3438 54.8906 33.0156" id="BitstreamVeraSans-Roman-6e"/>
      <path d="
M41.1094 46.2969
Q39.5938 47.1719 37.8125 47.5781
Q36.0312 48 33.8906 48
Q26.2656 48 22.1875 43.0469
Q18.1094 38.0938 18.1094 28.8125
L18.1094 0
L9.07812 0
L9.07812 54.6875
L18.1094 54.6875
L18.1094 46.1875
Q20.9531 51.1719 25.4844 53.5781
Q30.0312 56 36.5312 56
Q37.4531 56 38.5781 55.875
Q39.7031 55.7656 41.0625 55.5156
z
" id="BitstreamVeraSans-Roman-72"/>
      <path d="
M25.3906 72.9062
L33.6875 72.9062
L8.29688 -9.28125
L0 -9.28125
z
" id="BitstreamVeraSans-Roman-2f"/>
     </defs>
     <g transform="translate(336.57703125 411.1871875)scale(0.14 -0.14)">
      <use xlink:href="#BitstreamVeraSans-Roman-54"/>
      <use x="57.958984375" xlink:href="#BitstreamVeraSans-Roman-69"/>
      <use x="85.7421875" xlink:href="#BitstreamVeraSans-Roman-6d"/>
      <use x="183.154296875" xlink:href="#BitstreamVeraSans-Roman-65"/>
      <use x="244.677734375" xlink:href="#BitstreamVeraSans-Roman-20"/>
      <use x="276.46484375" xlink:href="#BitstreamVeraSans-Roman-64"/>
      <use x="339.94140625" xlink:href="#BitstreamVeraSans-Roman-69"/>
      <use x="367.724609375" xlink:href="#BitstreamVeraSans-Roman-66"/>
      <use x="402.9296875" xlink:href="#BitstreamVeraSans-Roman-66"/>
      <use x="438.134765625" xlink:href="#BitstreamVeraSans-Roman-65"/>
      <use x="499.658203125" xlink:href="#BitstreamVeraSans-Roman-72"/>
      <use x="538.521484375" xlink:href="#BitstreamVeraSans-Roman-65"/>
      <use x="600.044921875" xlink:href="#BitstreamVeraSans-Roman-6e"/>
      <use x="663.423828125" xlink:href="#BitstreamVeraSans-Roman-63"/>
      <use x="718.404296875" xlink:href="#BitstreamVeraSans-Roman-65"/>
      <use x="779.927734375" xlink:href="#BitstreamVeraSans-Roman-20"/>
      <use x="811.71484375" xlink:href="#BitstreamVeraSans-Roman-2f"/>
      <use x="845.40625" xlink:href="#BitstreamVeraSans-Roman-6d"/>
      <use x="942.818359375" xlink:href="#BitstreamVeraSans-Roman-73"/>
     </g>
    </g>
   </g>
   <g id="matplotlib.axis_2">
    <g id="ytick_1">
     <g id="line2d_20">
      <defs>
       <path d="
M0 0
L4 0" id="md7965d1ba0" style="stroke:#000000;stroke-width:0.5;"/>
      </defs>
      <g>
       <use style="stroke:#000000;stroke-width:0.5;" x="99.0" xlink:href="#md7965d1ba0" y="378.0"/>
      </g>
     </g>
     <g id="line2d_21">
      <defs>
       <path d="
M0 0
L-4 0" id="md9a1c1a7cd" style="stroke:#000000;stroke-width:0.5;"/>
      </defs>
      <g>
       <use style="stroke:#000000;stroke-width:0.5;" x="712.8" xlink:href="#md9a1c1a7cd" y="378.0"/>
      </g>
     </g>
     <g id="text_11">
      <!-- 0.000 -->
      <defs>
       <path d="
M10.6875 12.4062
L21 12.4062
L21 0
L10.6875 0
z
" id="BitstreamVeraSans-Roman-2e"/>
      </defs>
      <g transform="translate(56.7734375 381.863125)scale(0.14 -0.14)">
       <use xlink:href="#BitstreamVeraSans-Roman-30"/>
       <use x="63.623046875" xlink:href="#BitstreamVeraSans-Roman-2e"/>
       <use x="95.41015625" xlink:href="#BitstreamVeraSans-Roman-30"/>
       <use x="159.033203125" xlink:href="#BitstreamVeraSans-Roman-30"/>
       <use x="222.65625" xlink:href="#BitstreamVeraSans-Roman-30"/>
      </g>
     </g>
    </g>
    <g id="ytick_2">
     <g id="line2d_22">
      <g>
       <use style="stroke:#000000;stroke-width:0.5;" x="99.0" xlink:href="#md7965d1ba0" y="336.15"/>
      </g>
     </g>
     <g id="line2d_23">
      <g>
       <use style="stroke:#000000;stroke-width:0.5;" x="712.8" xlink:href="#md9a1c1a7cd" y="336.15"/>
      </g>
     </g>
     <g id="text_12">
      <!-- 0.001 -->
      <g transform="translate(57.1365625 340.013125)scale(0.14 -0.14)">
       <use xlink:href="#BitstreamVeraSans-Roman-30"/>
       <use x="63.623046875" xlink:href="#BitstreamVeraSans-Roman-2e"/>
       <use x="95.41015625" xlink:href="#BitstreamVeraSans-Roman-30"/>
       <use x="159.033203125" xlink:href="#BitstreamVeraSans-Roman-30"/>
       <use x="222.65625" xlink:href="#BitstreamVeraSans-Roman-31"/>
      </g>
     </g>
    </g>
    <g id="ytick_3">
     <g id="line2d_24">
      <g>
       <use style="stroke:#000000;stroke-width:0.5;" x="99.0" xlink:href="#md7965d1ba0" y="294.3"/>
      </g>
     </g>
     <g id="line2d_25">
      <g>
       <use style="stroke:#000000;stroke-width:0.5;" x="712.8" xlink:href="#md9a1c1a7cd" y="294.3"/>
      </g>
     </g>
     <g id="text_13">
      <!-- 0.002 -->
      <g transform="translate(57.2459375 298.163125)scale(0.14 -0.14)">
       <use xlink:href="#BitstreamVeraSans-Roman-30"/>
       <use x="63.623046875" xlink:href="#BitstreamVeraSans-Roman-2e"/>
       <use x="95.41015625" xlink:href="#BitstreamVeraSans-Roman-30"/>
       <use x="159.033203125" xlink:href="#BitstreamVeraSans-Roman-30"/>
       <use x="222.65625" xlink:href="#BitstreamVeraSans-Roman-32"/>
      </g>
     </g>
    </g>
    <g id="ytick_4">
     <g id="line2d_26">
      <g>
       <use style="stroke:#000000;stroke-width:0.5;" x="99.0" xlink:href="#md7965d1ba0" y="252.45"/>
      </g>
     </g>
     <g id="line2d_27">
      <g>
       <use style="stroke:#000000;stroke-width:0.5;" x="712.8" xlink:href="#md9a1c1a7cd" y="252.45"/>
      </g>
     </g>
     <g id="text_14">
      <!-- 0.003 -->
      <g transform="translate(56.9659375 256.313125)scale(0.14 -0.14)">
       <use xlink:href="#BitstreamVeraSans-Roman-30"/>
       <use x="63.623046875" xlink:href="#BitstreamVeraSans-Roman-2e"/>
       <use x="95.41015625" xlink:href="#BitstreamVeraSans-Roman-30"/>
       <use x="159.033203125" xlink:href="#BitstreamVeraSans-Roman-30"/>
       <use x="222.65625" xlink:href="#BitstreamVeraSans-Roman-33"/>
      </g>
     </g>
    </g>
    <g id="ytick_5">
     <g id="line2d_28">
      <g>
       <use style="stroke:#000000;stroke-width:0.5;" x="99.0" xlink:href="#md7965d1ba0" y="210.6"/>
      </g>
     </g>
     <g id="line2d_29">
      <g>
       <use style="stroke:#000000;stroke-width:0.5;" x="712.8" xlink:href="#md9a1c1a7cd" y="210.6"/>
      </g>
     </g>
     <g id="text_15">
      <!-- 0.004 -->
      <g transform="translate(56.6290625 214.463125)scale(0.14 -0.14)">
       <use xlink:href="#BitstreamVeraSans-Roman-30"/>
       <use x="63.623046875" xlink:href="#BitstreamVeraSans-Roman-2e"/>
       <use x="95.41015625" xlink:href="#BitstreamVeraSans-Roman-30"/>
       <use x="159.033203125" xlink:href="#BitstreamVeraSans-Roman-30"/>
       <use x="222.65625" xlink:href="#BitstreamVeraSans-Roman-34"/>
      </g>
     </g>
    </g>
    <g id="ytick_6">
     <g id="line2d_30">
      <g>
       <use style="stroke:#000000;stroke-width:0.5;" x="99.0" xlink:href="#md7965d1ba0" y="168.75"/>
      </g>
     </g>
     <g id="line2d_31">
      <g>
       <use style="stroke:#000000;stroke-width:0.5;" x="712.8" xlink:href="#md9a1c1a7cd" y="168.75"/>
      </g>
     </g>
     <g id="text_16">
      <!-- 0.005 -->
      <g transform="translate(57.0665625 172.613125)scale(0.14 -0.14)">
       <use xlink:href="#BitstreamVeraSans-Roman-30"/>
       <use x="63.623046875" xlink:href="#BitstreamVeraSans-Roman-2e"/>
       <use x="95.41015625" xlink:href="#BitstreamVeraSans-Roman-30"/>
       <use x="159.033203125" xlink:href="#BitstreamVeraSans-Roman-30"/>
       <use x="222.65625" xlink:href="#BitstreamVeraSans-Roman-35"/>
      </g>
     </g>
    </g>
    <g id="ytick_7">
     <g id="line2d_32">
      <g>
       <use style="stroke:#000000;stroke-width:0.5;" x="99.0" xlink:href="#md7965d1ba0" y="126.9"/>
      </g>
     </g>
     <g id="line2d_33">
      <g>
       <use style="stroke:#000000;stroke-width:0.5;" x="712.8" xlink:href="#md9a1c1a7cd" y="126.9"/>
      </g>
     </g>
     <g id="text_17">
      <!-- 0.006 -->
      <g transform="translate(56.7253125 130.763125)scale(0.14 -0.14)">
       <use xlink:href="#BitstreamVeraSans-Roman-30"/>
       <use x="63.623046875" xlink:href="#BitstreamVeraSans-Roman-2e"/>
       <use x="95.41015625" xlink:href="#BitstreamVeraSans-Roman-30"/>
       <use x="159.033203125" xlink:href="#BitstreamVeraSans-Roman-30"/>
       <use x="222.65625" xlink:href="#BitstreamVeraSans-Roman-36"/>
      </g>
     </g>
    </g>
    <g id="ytick_8">
     <g id="line2d_34">
      <g>
       <use style="stroke:#000000;stroke-width:0.5;" x="99.0" xlink:href="#md7965d1ba0" y="85.05"/>
      </g>
     </g>
     <g id="line2d_35">
      <g>
       <use style="stroke:#000000;stroke-width:0.5;" x="712.8" xlink:href="#md9a1c1a7cd" y="85.05"/>
      </g>
     </g>
     <g id="text_18">
      <!-- 0.007 -->
      <g transform="translate(57.0403125 88.913125)scale(0.14 -0.14)">
       <use xlink:href="#BitstreamVeraSans-Roman-30"/>
       <use x="63.623046875" xlink:href="#BitstreamVeraSans-Roman-2e"/>
       <use x="95.41015625" xlink:href="#BitstreamVeraSans-Roman-30"/>
       <use x="159.033203125" xlink:href="#BitstreamVeraSans-Roman-30"/>
       <use x="222.65625" xlink:href="#BitstreamVeraSans-Roman-37"/>
      </g>
     </g>
    </g>
    <g id="ytick_9">
     <g id="line2d_36">
      <g>
       <use style="stroke:#000000;stroke-width:0.5;" x="99.0" xlink:href="#md7965d1ba0" y="43.2"/>
      </g>
     </g>
     <g id="line2d_37">
      <g>
       <use style="stroke:#000000;stroke-width:0.5;" x="712.8" xlink:href="#md9a1c1a7cd" y="43.2"/>
      </g>
     </g>
     <g id="text_19">
      <!-- 0.008 -->
      <g transform="translate(56.801875 47.063125)scale(0.14 -0.14)">
       <use xlink:href="#BitstreamVeraSans-Roman-30"/>
       <use x="63.623046875" xlink:href="#BitstreamVeraSans-Roman-2e"/>
       <use x="95.41015625" xlink:href="#BitstreamVeraSans-Roman-30"/>
       <use x="159.033203125" xlink:href="#BitstreamVeraSans-Roman-30"/>
       <use x="222.65625" xlink:href="#BitstreamVeraSans-Roman-38"/>
      </g>
     </g>
    </g>
    <g id="text_20">
     <!-- Probability density -->
     <defs>
      <path d="
M30.6094 48.3906
Q23.3906 48.3906 19.1875 42.75
Q14.9844 37.1094 14.9844 27.2969
Q14.9844 17.4844 19.1562 11.8438
Q23.3438 6.20312 30.6094 6.20312
Q37.7969 6.20312 41.9844 11.8594
Q46.1875 17.5312 46.1875 27.2969
Q46.1875 37.0156 41.9844 42.7031
Q37.7969 48.3906 30.6094 48.3906
M30.6094 56
Q42.3281 56 49.0156 48.375
Q55.7188 40.7656 55.7188 27.2969
Q55.7188 13.875 49.0156 6.21875
Q42.3281 -1.42188 30.6094 -1.42188
Q18.8438 -1.42188 12.1719 6.21875
Q5.51562 13.875 5.51562 27.2969
Q5.51562 40.7656 12.1719 48.375
Q18.8438 56 30.6094 56" id="BitstreamVeraSans-Roman-6f"/>
      <path d="
M18.3125 70.2188
L18.3125 54.6875
L36.8125 54.6875
L36.8125 47.7031
L18.3125 47.7031
L18.3125 18.0156
Q18.3125 11.3281 20.1406 9.42188
Q21.9688 7.51562 27.5938 7.51562
L36.8125 7.51562
L36.8125 0
L27.5938 0
Q17.1875 0 13.2344 3.875
Q9.28125 7.76562 9.28125 18.0156
L9.28125 47.7031
L2.6875 47.7031
L2.6875 54.6875
L9.28125 54.6875
L9.28125 70.2188
z
" id="BitstreamVeraSans-Roman-74"/>
      <path d="
M34.2812 27.4844
Q23.3906 27.4844 19.1875 25
Q14.9844 22.5156 14.9844 16.5
Q14.9844 11.7188 18.1406 8.90625
Q21.2969 6.10938 26.7031 6.10938
Q34.1875 6.10938 38.7031 11.4062
Q43.2188 16.7031 43.2188 25.4844
L43.2188 27.4844
z

M52.2031 31.2031
L52.2031 0
L43.2188 0
L43.2188 8.29688
Q40.1406 3.32812 35.5469 0.953125
Q30.9531 -1.42188 24.3125 -1.42188
Q15.9219 -1.42188 10.9531 3.29688
Q6 8.01562 6 15.9219
Q6 25.1406 12.1719 29.8281
Q18.3594 34.5156 30.6094 34.5156
L43.2188 34.5156
L43.2188 35.4062
Q43.2188 41.6094 39.1406 45
Q35.0625 48.3906 27.6875 48.3906
Q23 48.3906 18.5469 47.2656
Q14.1094 46.1406 10.0156 43.8906
L10.0156 52.2031
Q14.9375 54.1094 19.5781 55.0469
Q24.2188 56 28.6094 56
Q40.4844 56 46.3438 49.8438
Q52.2031 43.7031 52.2031 31.2031" id="BitstreamVeraSans-Roman-61"/>
      <path d="
M19.6719 64.7969
L19.6719 37.4062
L32.0781 37.4062
Q38.9688 37.4062 42.7188 40.9688
Q46.4844 44.5312 46.4844 51.125
Q46.4844 57.6719 42.7188 61.2344
Q38.9688 64.7969 32.0781 64.7969
z

M9.8125 72.9062
L32.0781 72.9062
Q44.3438 72.9062 50.6094 67.3594
Q56.8906 61.8125 56.8906 51.125
Q56.8906 40.3281 50.6094 34.8125
Q44.3438 29.2969 32.0781 29.2969
L19.6719 29.2969
L19.6719 0
L9.8125 0
z
" id="BitstreamVeraSans-Roman-50"/>
      <path d="
M9.42188 75.9844
L18.4062 75.9844
L18.4062 0
L9.42188 0
z
" id="BitstreamVeraSans-Roman-6c"/>
      <path d="
M32.1719 -5.07812
Q28.375 -14.8438 24.75 -17.8125
Q21.1406 -20.7969 15.0938 -20.7969
L7.90625 -20.7969
L7.90625 -13.2812
L13.1875 -13.2812
Q16.8906 -13.2812 18.9375 -11.5156
Q21 -9.76562 23.4844 -3.21875
L25.0938 0.875
L2.98438 54.6875
L12.5 54.6875
L29.5938 11.9219
L46.6875 54.6875
L56.2031 54.6875
z
" id="BitstreamVeraSans-Roman-79"/>
      <path d="
M48.6875 27.2969
Q48.6875 37.2031 44.6094 42.8438
Q40.5312 48.4844 33.4062 48.4844
Q26.2656 48.4844 22.1875 42.8438
Q18.1094 37.2031 18.1094 27.2969
Q18.1094 17.3906 22.1875 11.75
Q26.2656 6.10938 33.4062 6.10938
Q40.5312 6.10938 44.6094 11.75
Q48.6875 17.3906 48.6875 27.2969
M18.1094 46.3906
Q20.9531 51.2656 25.2656 53.625
Q29.5938 56 35.5938 56
Q45.5625 56 51.7812 48.0938
Q58.0156 40.1875 58.0156 27.2969
Q58.0156 14.4062 51.7812 6.48438
Q45.5625 -1.42188 35.5938 -1.42188
Q29.5938 -1.42188 25.2656 0.953125
Q20.9531 3.32812 18.1094 8.20312
L18.1094 0
L9.07812 0
L9.07812 75.9844
L18.1094 75.9844
z
" id="BitstreamVeraSans-Roman-62"/>
     </defs>
     <g transform="translate(48.7175 275.2821875)rotate(-90.0)scale(0.14 -0.14)">
      <use xlink:href="#BitstreamVeraSans-Roman-50"/>
      <use x="58.552734375" xlink:href="#BitstreamVeraSans-Roman-72"/>
      <use x="97.416015625" xlink:href="#BitstreamVeraSans-Roman-6f"/>
      <use x="158.59765625" xlink:href="#BitstreamVeraSans-Roman-62"/>
      <use x="222.07421875" xlink:href="#BitstreamVeraSans-Roman-61"/>
      <use x="283.353515625" xlink:href="#BitstreamVeraSans-Roman-62"/>
      <use x="346.830078125" xlink:href="#BitstreamVeraSans-Roman-69"/>
      <use x="374.61328125" xlink:href="#BitstreamVeraSans-Roman-6c"/>
      <use x="402.396484375" xlink:href="#BitstreamVeraSans-Roman-69"/>
      <use x="430.1796875" xlink:href="#BitstreamVeraSans-Roman-74"/>
      <use x="469.388671875" xlink:href="#BitstreamVeraSans-Roman-79"/>
      <use x="528.568359375" xlink:href="#BitstreamVeraSans-Roman-20"/>
      <use x="560.35546875" xlink:href="#BitstreamVeraSans-Roman-64"/>
      <use x="623.83203125" xlink:href="#BitstreamVeraSans-Roman-65"/>
      <use x="685.35546875" xlink:href="#BitstreamVeraSans-Roman-6e"/>
      <use x="748.734375" xlink:href="#BitstreamVeraSans-Roman-73"/>
      <use x="800.833984375" xlink:href="#BitstreamVeraSans-Roman-69"/>
      <use x="828.6171875" xlink:href="#BitstreamVeraSans-Roman-74"/>
      <use x="867.826171875" xlink:href="#BitstreamVeraSans-Roman-79"/>
     </g>
    </g>
   </g>
   <g id="text_21">
    <!-- Average: 246.2 ms;  Std dev: 159 ms -->
    <defs>
     <path d="
M2.98438 54.6875
L12.5 54.6875
L29.5938 8.79688
L46.6875 54.6875
L56.2031 54.6875
L35.6875 0
L23.4844 0
z
" id="BitstreamVeraSans-Roman-76"/>
     <path d="
M53.5156 70.5156
L53.5156 60.8906
Q47.9062 63.5781 42.9219 64.8906
Q37.9375 66.2188 33.2969 66.2188
Q25.25 66.2188 20.875 63.0938
Q16.5 59.9688 16.5 54.2031
Q16.5 49.3594 19.4062 46.8906
Q22.3125 44.4375 30.4219 42.9219
L36.375 41.7031
Q47.4062 39.5938 52.6562 34.2969
Q57.9062 29 57.9062 20.125
Q57.9062 9.51562 50.7969 4.04688
Q43.7031 -1.42188 29.9844 -1.42188
Q24.8125 -1.42188 18.9688 -0.25
Q13.1406 0.921875 6.89062 3.21875
L6.89062 13.375
Q12.8906 10.0156 18.6562 8.29688
Q24.4219 6.59375 29.9844 6.59375
Q38.4219 6.59375 43.0156 9.90625
Q47.6094 13.2344 47.6094 19.3906
Q47.6094 24.75 44.3125 27.7812
Q41.0156 30.8125 33.5 32.3281
L27.4844 33.5
Q16.4531 35.6875 11.5156 40.375
Q6.59375 45.0625 6.59375 53.4219
Q6.59375 63.0938 13.4062 68.6562
Q20.2188 74.2188 32.1719 74.2188
Q37.3125 74.2188 42.625 73.2812
Q47.9531 72.3594 53.5156 70.5156" id="BitstreamVeraSans-Roman-53"/>
     <path d="
M34.1875 63.1875
L20.7969 26.9062
L47.6094 26.9062
z

M28.6094 72.9062
L39.7969 72.9062
L67.5781 0
L57.3281 0
L50.6875 18.7031
L17.8281 18.7031
L11.1875 0
L0.78125 0
z
" id="BitstreamVeraSans-Roman-41"/>
     <path d="
M10.9844 1.51562
L10.9844 10.5
Q14.7031 8.73438 18.5 7.8125
Q22.3125 6.89062 25.9844 6.89062
Q35.75 6.89062 40.8906 13.4531
Q46.0469 20.0156 46.7812 33.4062
Q43.9531 29.2031 39.5938 26.9531
Q35.25 24.7031 29.9844 24.7031
Q19.0469 24.7031 12.6719 31.3125
Q6.29688 37.9375 6.29688 49.4219
Q6.29688 60.6406 12.9375 67.4219
Q19.5781 74.2188 30.6094 74.2188
Q43.2656 74.2188 49.9219 64.5156
Q56.5938 54.8281 56.5938 36.375
Q56.5938 19.1406 48.4062 8.85938
Q40.2344 -1.42188 26.4219 -1.42188
Q22.7031 -1.42188 18.8906 -0.6875
Q15.0938 0.046875 10.9844 1.51562
M30.6094 32.4219
Q37.25 32.4219 41.125 36.9531
Q45.0156 41.5 45.0156 49.4219
Q45.0156 57.2812 41.125 61.8438
Q37.25 66.4062 30.6094 66.4062
Q23.9688 66.4062 20.0938 61.8438
Q16.2188 57.2812 16.2188 49.4219
Q16.2188 41.5 20.0938 36.9531
Q23.9688 32.4219 30.6094 32.4219" id="BitstreamVeraSans-Roman-39"/>
     <path d="
M11.7188 12.4062
L22.0156 12.4062
L22.0156 0
L11.7188 0
z

M11.7188 51.7031
L22.0156 51.7031
L22.0156 39.3125
L11.7188 39.3125
z
" id="BitstreamVeraSans-Roman-3a"/>
     <path d="
M45.4062 27.9844
Q45.4062 37.75 41.375 43.1094
Q37.3594 48.4844 30.0781 48.4844
Q22.8594 48.4844 18.8281 43.1094
Q14.7969 37.75 14.7969 27.9844
Q14.7969 18.2656 18.8281 12.8906
Q22.8594 7.51562 30.0781 7.51562
Q37.3594 7.51562 41.375 12.8906
Q45.4062 18.2656 45.4062 27.9844
M54.3906 6.78125
Q54.3906 -7.17188 48.1875 -13.9844
Q42 -20.7969 29.2031 -20.7969
Q24.4688 -20.7969 20.2656 -20.0938
Q16.0625 -19.3906 12.1094 -17.9219
L12.1094 -9.1875
Q16.0625 -11.3281 19.9219 -12.3438
Q23.7812 -13.375 27.7812 -13.375
Q36.625 -13.375 41.0156 -8.76562
Q45.4062 -4.15625 45.4062 5.17188
L45.4062 9.625
Q42.625 4.78125 38.2812 2.39062
Q33.9375 0 27.875 0
Q17.8281 0 11.6719 7.65625
Q5.51562 15.3281 5.51562 27.9844
Q5.51562 40.6719 11.6719 48.3281
Q17.8281 56 27.875 56
Q33.9375 56 38.2812 53.6094
Q42.625 51.2188 45.4062 46.3906
L45.4062 54.6875
L54.3906 54.6875
z
" id="BitstreamVeraSans-Roman-67"/>
     <path d="
M11.7188 51.7031
L22.0156 51.7031
L22.0156 39.3125
L11.7188 39.3125
z

M11.7188 12.4062
L22.0156 12.4062
L22.0156 4
L14.0156 -11.625
L7.71875 -11.625
L11.7188 4
z
" id="BitstreamVeraSans-Roman-3b"/>
    </defs>
    <g transform="translate(129.69 59.94)scale(0.14 -0.14)">
     <use xlink:href="#BitstreamVeraSans-Roman-41"/>
     <use x="62.533203125" xlink:href="#BitstreamVeraSans-Roman-76"/>
     <use x="121.712890625" xlink:href="#BitstreamVeraSans-Roman-65"/>
     <use x="183.236328125" xlink:href="#BitstreamVeraSans-Roman-72"/>
     <use x="224.349609375" xlink:href="#BitstreamVeraSans-Roman-61"/>
     <use x="285.62890625" xlink:href="#BitstreamVeraSans-Roman-67"/>
     <use x="349.10546875" xlink:href="#BitstreamVeraSans-Roman-65"/>
     <use x="410.62890625" xlink:href="#BitstreamVeraSans-Roman-3a"/>
     <use x="444.3203125" xlink:href="#BitstreamVeraSans-Roman-20"/>
     <use x="476.107421875" xlink:href="#BitstreamVeraSans-Roman-32"/>
     <use x="539.73046875" xlink:href="#BitstreamVeraSans-Roman-34"/>
     <use x="603.353515625" xlink:href="#BitstreamVeraSans-Roman-36"/>
     <use x="666.9765625" xlink:href="#BitstreamVeraSans-Roman-2e"/>
     <use x="698.763671875" xlink:href="#BitstreamVeraSans-Roman-32"/>
     <use x="762.38671875" xlink:href="#BitstreamVeraSans-Roman-20"/>
     <use x="794.173828125" xlink:href="#BitstreamVeraSans-Roman-6d"/>
     <use x="891.5859375" xlink:href="#BitstreamVeraSans-Roman-73"/>
     <use x="943.685546875" xlink:href="#BitstreamVeraSans-Roman-3b"/>
     <use x="977.376953125" xlink:href="#BitstreamVeraSans-Roman-20"/>
     <use x="1009.1640625" xlink:href="#BitstreamVeraSans-Roman-20"/>
     <use x="1040.951171875" xlink:href="#BitstreamVeraSans-Roman-53"/>
     <use x="1104.427734375" xlink:href="#BitstreamVeraSans-Roman-74"/>
     <use x="1143.63671875" xlink:href="#BitstreamVeraSans-Roman-64"/>
     <use x="1207.11328125" xlink:href="#BitstreamVeraSans-Roman-20"/>
     <use x="1238.900390625" xlink:href="#BitstreamVeraSans-Roman-64"/>
     <use x="1302.376953125" xlink:href="#BitstreamVeraSans-Roman-65"/>
     <use x="1363.900390625" xlink:href="#BitstreamVeraSans-Roman-76"/>
     <use x="1417.580078125" xlink:href="#BitstreamVeraSans-Roman-3a"/>
     <use x="1451.271484375" xlink:href="#BitstreamVeraSans-Roman-20"/>
     <use x="1483.05859375" xlink:href="#BitstreamVeraSans-Roman-31"/>
     <use x="1546.681640625" xlink:href="#BitstreamVeraSans-Roman-35"/>
     <use x="1610.3046875" xlink:href="#BitstreamVeraSans-Roman-39"/>
     <use x="1673.927734375" xlink:href="#BitstreamVeraSans-Roman-20"/>
     <use x="1705.71484375" xlink:href="#BitstreamVeraSans-Roman-6d"/>
     <use x="1803.126953125" xlink:href="#BitstreamVeraSans-Roman-73"/>
    </g>
   </g>
   <g id="text_22">
    <!-- Distribution of pps-serial trigger time differences -->
    <defs>
     <path d="
M19.6719 64.7969
L19.6719 8.10938
L31.5938 8.10938
Q46.6875 8.10938 53.6875 14.9375
Q60.6875 21.7812 60.6875 36.5312
Q60.6875 51.1719 53.6875 57.9844
Q46.6875 64.7969 31.5938 64.7969
z

M9.8125 72.9062
L30.0781 72.9062
Q51.2656 72.9062 61.1719 64.0938
Q71.0938 55.2812 71.0938 36.5312
Q71.0938 17.6719 61.125 8.82812
Q51.1719 0 30.0781 0
L9.8125 0
z
" id="BitstreamVeraSans-Roman-44"/>
     <path d="
M8.5 21.5781
L8.5 54.6875
L17.4844 54.6875
L17.4844 21.9219
Q17.4844 14.1562 20.5 10.2656
Q23.5312 6.39062 29.5938 6.39062
Q36.8594 6.39062 41.0781 11.0312
Q45.3125 15.6719 45.3125 23.6875
L45.3125 54.6875
L54.2969 54.6875
L54.2969 0
L45.3125 0
L45.3125 8.40625
Q42.0469 3.42188 37.7188 1
Q33.4062 -1.42188 27.6875 -1.42188
Q18.2656 -1.42188 13.375 4.4375
Q8.5 10.2969 8.5 21.5781" id="BitstreamVeraSans-Roman-75"/>
     <path d="
M4.89062 31.3906
L31.2031 31.3906
L31.2031 23.3906
L4.89062 23.3906
z
" id="BitstreamVeraSans-Roman-2d"/>
     <path d="
M18.1094 8.20312
L18.1094 -20.7969
L9.07812 -20.7969
L9.07812 54.6875
L18.1094 54.6875
L18.1094 46.3906
Q20.9531 51.2656 25.2656 53.625
Q29.5938 56 35.5938 56
Q45.5625 56 51.7812 48.0938
Q58.0156 40.1875 58.0156 27.2969
Q58.0156 14.4062 51.7812 6.48438
Q45.5625 -1.42188 35.5938 -1.42188
Q29.5938 -1.42188 25.2656 0.953125
Q20.9531 3.32812 18.1094 8.20312
M48.6875 27.2969
Q48.6875 37.2031 44.6094 42.8438
Q40.5312 48.4844 33.4062 48.4844
Q26.2656 48.4844 22.1875 42.8438
Q18.1094 37.2031 18.1094 27.2969
Q18.1094 17.3906 22.1875 11.75
Q26.2656 6.10938 33.4062 6.10938
Q40.5312 6.10938 44.6094 11.75
Q48.6875 17.3906 48.6875 27.2969" id="BitstreamVeraSans-Roman-70"/>
    </defs>
    <g transform="translate(200.963625 38.2)scale(0.168 -0.168)">
     <use xlink:href="#BitstreamVeraSans-Roman-44"/>
     <use x="77.001953125" xlink:href="#BitstreamVeraSans-Roman-69"/>
     <use x="104.78515625" xlink:href="#BitstreamVeraSans-Roman-73"/>
     <use x="156.884765625" xlink:href="#BitstreamVeraSans-Roman-74"/>
     <use x="196.09375" xlink:href="#BitstreamVeraSans-Roman-72"/>
     <use x="237.20703125" xlink:href="#BitstreamVeraSans-Roman-69"/>
     <use x="264.990234375" xlink:href="#BitstreamVeraSans-Roman-62"/>
     <use x="328.466796875" xlink:href="#BitstreamVeraSans-Roman-75"/>
     <use x="391.845703125" xlink:href="#BitstreamVeraSans-Roman-74"/>
     <use x="431.0546875" xlink:href="#BitstreamVeraSans-Roman-69"/>
     <use x="458.837890625" xlink:href="#BitstreamVeraSans-Roman-6f"/>
     <use x="520.01953125" xlink:href="#BitstreamVeraSans-Roman-6e"/>
     <use x="583.3984375" xlink:href="#BitstreamVeraSans-Roman-20"/>
     <use x="615.185546875" xlink:href="#BitstreamVeraSans-Roman-6f"/>
     <use x="676.3671875" xlink:href="#BitstreamVeraSans-Roman-66"/>
     <use x="711.572265625" xlink:href="#BitstreamVeraSans-Roman-20"/>
     <use x="743.359375" xlink:href="#BitstreamVeraSans-Roman-70"/>
     <use x="806.8359375" xlink:href="#BitstreamVeraSans-Roman-70"/>
     <use x="870.3125" xlink:href="#BitstreamVeraSans-Roman-73"/>
     <use x="922.412109375" xlink:href="#BitstreamVeraSans-Roman-2d"/>
     <use x="958.49609375" xlink:href="#BitstreamVeraSans-Roman-73"/>
     <use x="1010.595703125" xlink:href="#BitstreamVeraSans-Roman-65"/>
     <use x="1072.119140625" xlink:href="#BitstreamVeraSans-Roman-72"/>
     <use x="1113.232421875" xlink:href="#BitstreamVeraSans-Roman-69"/>
     <use x="1141.015625" xlink:href="#BitstreamVeraSans-Roman-61"/>
     <use x="1202.294921875" xlink:href="#BitstreamVeraSans-Roman-6c"/>
     <use x="1230.078125" xlink:href="#BitstreamVeraSans-Roman-20"/>
     <use x="1261.865234375" xlink:href="#BitstreamVeraSans-Roman-74"/>
     <use x="1301.07421875" xlink:href="#BitstreamVeraSans-Roman-72"/>
     <use x="1342.1875" xlink:href="#BitstreamVeraSans-Roman-69"/>
     <use x="1369.970703125" xlink:href="#BitstreamVeraSans-Roman-67"/>
     <use x="1433.447265625" xlink:href="#BitstreamVeraSans-Roman-67"/>
     <use x="1496.923828125" xlink:href="#BitstreamVeraSans-Roman-65"/>
     <use x="1558.447265625" xlink:href="#BitstreamVeraSans-Roman-72"/>
     <use x="1599.560546875" xlink:href="#BitstreamVeraSans-Roman-20"/>
     <use x="1631.34765625" xlink:href="#BitstreamVeraSans-Roman-74"/>
     <use x="1670.556640625" xlink:href="#BitstreamVeraSans-Roman-69"/>
     <use x="1698.33984375" xlink:href="#BitstreamVeraSans-Roman-6d"/>
     <use x="1795.751953125" xlink:href="#BitstreamVeraSans-Roman-65"/>
     <use x="1857.275390625" xlink:href="#BitstreamVeraSans-Roman-20"/>
     <use x="1889.0625" xlink:href="#BitstreamVeraSans-Roman-64"/>
     <use x="1952.5390625" xlink:href="#BitstreamVeraSans-Roman-69"/>
     <use x="1980.322265625" xlink:href="#BitstreamVeraSans-Roman-66"/>
     <use x="2015.52734375" xlink:href="#BitstreamVeraSans-Roman-66"/>
     <use x="2050.732421875" xlink:href="#BitstreamVeraSans-Roman-65"/>
     <use x="2112.255859375" xlink:href="#BitstreamVeraSans-Roman-72"/>
     <use x="2151.119140625" xlink:href="#BitstreamVeraSans-Roman-65"/>
     <use x="2212.642578125" xlink:href="#BitstreamVeraSans-Roman-6e"/>
     <use x="2276.021484375" xlink:href="#BitstreamVeraSans-Roman-63"/>
     <use x="2331.001953125" xlink:href="#BitstreamVeraSans-Roman-65"/>
     <use x="2392.525390625" xlink:href="#BitstreamVeraSans-Roman-73"/>
    </g>
   </g>
  </g>
 </g>
 <defs>
  <clipPath id="p01a57c7be1">
   <rect height="334.8" width="613.8" x="99.0" y="43.2"/>
  </clipPath>
 </defs>
</svg>
